<?xml version="1.0" standalone="no"?>
<!DOCTYPE svg PUBLIC "-//W3C//DTD SVG 1.1//EN" "http://www.w3.org/Graphics/SVG/1.1/DTD/svg11.dtd" >
<svg>
<metadata>
Created by FontForge 20090622 at Sun Aug 26 16:44:43 2018
 By deploy user
Copyright &#194;&#169; 2016 by Alberto Romanos. All rights reserved.
</metadata>
<defs>
<font id="BwMitga-Light" horiz-adv-x="612" >
  <font-face 
    font-family="Bw Mitga Light"
    font-weight="300"
    font-stretch="normal"
    units-per-em="1000"
    panose-1="0 0 4 0 0 0 0 0 0 0"
    ascent="780"
    descent="-220"
    x-height="525"
    cap-height="740"
    bbox="-803 -230 1220 1026"
    underline-thickness="50"
    underline-position="-50"
    unicode-range="U+000D-U+FB02"
  />
<missing-glyph horiz-adv-x="1274" 
d="M846 -3q-7 -7 -17 -7q-20 0 -20 23v324l-339 -340q-7 -7 -17 -7q-20 0 -20 23v324l-340 -340q-7 -7 -17 -7q-17 0 -17 18q0 10 5 15l342 341h-324q-23 0 -23 19q0 7 7 16l340 342h-327q-20 0 -20 19v1q0 19 20 19h370q23 0 23 -20q0 -10 -8 -17l-341 -340h330q8 0 14 -6
t6 -14v-327l339 338q7 8 17 8q18 0 18 -22v-324l340 338q6 8 16 8q7 0 12 -5.5t5 -13.5q0 -9 -6 -14z" />
    <glyph glyph-name="fi" unicode="fi" horiz-adv-x="579" 
d="M116 654q0 61 38.5 98.5t100.5 37.5q41 0 84 -10v-40q-33 9 -70 9q-46 0 -74.5 -27.5t-28.5 -72.5v-124h161v-38h-161v-487h-50v487h-76v38h76v129zM460 726q16 0 27 -10.5t11 -26.5t-11 -26.5t-27 -10.5t-26.5 10.5t-10.5 26.5t10.5 26.5t26.5 10.5zM436 525h50v-525
h-50v525z" />
    <glyph glyph-name="fl" unicode="fl" horiz-adv-x="579" 
d="M116 654q0 61 38.5 98.5t100.5 37.5q41 0 84 -10v-40q-33 9 -70 9q-46 0 -74.5 -27.5t-28.5 -72.5v-124h161v-38h-161v-487h-50v487h-76v38h76v129zM486 785v-785h-50v771z" />
    <glyph glyph-name=".notdef" horiz-adv-x="1274" 
d="M846 -3q-7 -7 -17 -7q-20 0 -20 23v324l-339 -340q-7 -7 -17 -7q-20 0 -20 23v324l-340 -340q-7 -7 -17 -7q-17 0 -17 18q0 10 5 15l342 341h-324q-23 0 -23 19q0 7 7 16l340 342h-327q-20 0 -20 19v1q0 19 20 19h370q23 0 23 -20q0 -10 -8 -17l-341 -340h330q8 0 14 -6
t6 -14v-327l339 338q7 8 17 8q18 0 18 -22v-324l340 338q6 8 16 8q7 0 12 -5.5t5 -13.5q0 -9 -6 -14z" />
    <glyph glyph-name=".null" horiz-adv-x="0" 
 />
    <glyph glyph-name="nonmarkingreturn" horiz-adv-x="333" 
 />
    <glyph glyph-name="CR" unicode="&#xd;" horiz-adv-x="285" 
 />
    <glyph glyph-name="space" unicode=" " horiz-adv-x="285" 
 />
    <glyph glyph-name="exclam" unicode="!" horiz-adv-x="257" 
d="M153 146h-50l-2 594h55zM128 -10q-16 0 -26.5 10.5t-10.5 26.5t10.5 27t26.5 11t27 -11t11 -27t-11 -26.5t-27 -10.5z" />
    <glyph glyph-name="quotedbl" unicode="&#x22;" horiz-adv-x="334" 
d="M80 571h44l8 209h-52v-209zM207 571h44l8 209h-52v-209z" />
    <glyph glyph-name="numbersign" unicode="#" horiz-adv-x="685" 
d="M514 409l-58 -199h125l-12 -39h-124l-50 -171h-49l50 171h-197l-50 -171h-49l50 171h-110l12 39h109l59 199h-121l12 39h120l52 177h48l-52 -177h198l52 177h48l-52 -177h115l-12 -39h-114zM466 409h-198l-58 -199h197z" />
    <glyph glyph-name="dollar" unicode="$" horiz-adv-x="574" 
d="M521 188q0 -90 -58 -143t-162 -55v-37h-32v38q-119 5 -190 51v42q98 -48 190 -50v319l-35 12q-27 9 -40.5 14t-36.5 15.5t-34.5 19t-27 23t-23 30t-13 37.5t-5.5 48q0 92 56.5 143t158.5 55v35h32v-35q99 -5 190 -45v-42q-104 42 -190 43v-299l11 -4l50.5 -19.5t46.5 -21
t45.5 -28.5t33.5 -35.5t25.5 -49t7.5 -61.5zM269 414v292q-79 -5 -121 -42t-42 -103q0 -65 38 -94t114 -50zM301 34q81 5 124.5 44t43.5 105q0 60 -38 95t-130 67v-311z" />
    <glyph glyph-name="percent" unicode="%" horiz-adv-x="754" 
d="M202 423q-71 0 -115 45t-44 119q0 73 44 118t115 45t114.5 -44.5t43.5 -118.5t-43.5 -119t-114.5 -45zM643 731l-493 -735l-43 13l493 735zM202 458q51 0 82.5 35.5t31.5 93.5t-31.5 93t-82.5 35t-82.5 -35t-31.5 -93t31.5 -93.5t82.5 -35.5zM554 -10q-71 0 -115 45
t-44 119q0 73 44 118t115 45t114.5 -44.5t43.5 -118.5t-43.5 -119t-114.5 -45zM554 25q51 0 82.5 35.5t31.5 93.5t-31.5 93t-82.5 35t-82.5 -35t-31.5 -93t31.5 -93.5t82.5 -35.5z" />
    <glyph glyph-name="ampersand" unicode="&#x26;" horiz-adv-x="704" 
d="M625 -5q-39 55 -76 96q-90 -101 -236 -101q-115 0 -185.5 57.5t-70.5 150.5q0 75 42.5 121.5t119.5 82.5q-93 96 -93 193q0 70 52 112.5t138 42.5q85 0 137.5 -42.5t51.5 -112.5q0 -24 -7 -45.5t-15.5 -37t-28 -32.5t-31.5 -26t-40.5 -23.5l-40 -20t-44.5 -19.5l69.5 -60
l93 -80.5t84.5 -81.5q47 86 47 205l48 -13q0 -135 -61 -230q49 -53 97 -121zM178 595q0 -85 87 -172l57.5 26t48 25.5t45.5 33t25 37.5t12 50q0 51 -38 82.5t-100 31.5t-99.5 -31t-37.5 -83zM313 31q127 0 204 96q-57 61 -158.5 149.5t-106.5 93.5q-69 -33 -106 -71.5
t-37 -100.5q0 -75 56 -121t148 -46z" />
    <glyph glyph-name="quotesingle" unicode="'" horiz-adv-x="207" 
d="M80 571h44l8 209h-52v-209z" />
    <glyph glyph-name="parenleft" unicode="(" horiz-adv-x="289" 
d="M255 780q-26 -46 -40.5 -74.5t-42.5 -96t-42.5 -146t-14.5 -163.5t14.5 -163.5t42.5 -146t42.5 -96t40.5 -74.5h-46q-148 230 -148 480t148 480h46z" />
    <glyph glyph-name="parenright" unicode=")" horiz-adv-x="290" 
d="M81 780q148 -230 148 -480t-148 -480h-46q26 46 40.5 74.5t42.5 96t42.5 146t14.5 163.5t-14.5 163.5t-42.5 146t-42.5 96t-40.5 74.5h46z" />
    <glyph glyph-name="asterisk" unicode="*" horiz-adv-x="403" 
d="M227 637l69 -91l-29 -21l-66 94l-65 -94l-29 21l69 91l-109 33l12 34l106 -36l-2 112h36l-2 -113l107 37l11 -34z" />
    <glyph glyph-name="plus" unicode="+" 
d="M506 267h-178v-170h-45v170h-178v39h178v170h45v-170h178v-39z" />
    <glyph glyph-name="comma" unicode="," horiz-adv-x="240" 
d="M119 75q18 0 30.5 -16t12.5 -42q0 -87 -75 -147q-3 15 -3 30q0 48 26 94q-33 8 -33 39q0 18 12 30t30 12z" />
    <glyph glyph-name="hyphen" unicode="-" horiz-adv-x="433" 
d="M353 306v-39h-273v39h273z" />
    <glyph glyph-name="period" unicode="." horiz-adv-x="237" 
d="M118 -10q-17 0 -29.5 12.5t-12.5 29.5t12.5 30t29.5 13t30 -13t13 -30t-13 -29.5t-30 -12.5z" />
    <glyph glyph-name="slash" unicode="/" horiz-adv-x="384" 
d="M98 -100h-51l239 880h51z" />
    <glyph glyph-name="zero" unicode="0" horiz-adv-x="694" 
d="M348 -10q-127 0 -204.5 104.5t-77.5 275.5t77.5 275.5t204.5 104.5q126 0 203 -104.5t77 -275.5t-77 -275.5t-203 -104.5zM348 35q101 0 163 92.5t62 242.5t-62 242.5t-163 92.5t-163 -92t-62 -243t62 -243t163 -92z" />
    <glyph glyph-name="one" unicode="1" horiz-adv-x="374" 
d="M24 684l231 66h10v-750h-54v691l-187 -52v45z" />
    <glyph glyph-name="two" unicode="2" horiz-adv-x="567" 
d="M506 45v-45h-451q0 54 14.5 100.5t32 77t53.5 64.5t58 50l66 46l54 37t42.5 35t39.5 42.5t21.5 45.5t10.5 59q0 148 -179 148q-97 0 -204 -46v43q106 48 210 48q107 0 167 -47.5t60 -142.5q0 -46 -13 -83t-43.5 -69t-57 -52.5t-75.5 -53.5q-39 -26 -57.5 -39.5t-50 -41
t-47.5 -50t-31 -56.5t-19 -71z" />
    <glyph glyph-name="three" unicode="3" horiz-adv-x="569" 
d="M273 426q108 0 174.5 -59.5t66.5 -157.5t-70 -158.5t-185 -60.5q-107 0 -200 41v43q89 -39 193 -39q92 0 148.5 48t56.5 126q0 79 -56 127t-147 48q-69 0 -125 -14q0 9 13.5 29t48 59l52.5 59l66 72q66 70 97 106h-339v45h431q0 -21 -172 -201q-98 -105 -108 -117
q27 4 55 4z" />
    <glyph glyph-name="four" unicode="4" horiz-adv-x="596" 
d="M569 166h-138v-166h-54v166h-351q0 44 160 339q111 206 117 235h55q-7 -38 -136 -274q-109 -198 -131 -255h287v220h53v-220h138v-45z" />
    <glyph glyph-name="five" unicode="5" horiz-adv-x="566" 
d="M256 -10q-107 0 -200 41v43q89 -39 196 -39q91 0 146.5 49.5t55.5 129.5q0 81 -56 130.5t-147 49.5q-79 0 -168 -28l52 374h342v-45h-293l-42 -279q66 20 132 20q107 0 172 -61t65 -161q0 -101 -70 -162.5t-185 -61.5z" />
    <glyph glyph-name="six" unicode="6" horiz-adv-x="618" 
d="M342 439q103 0 164 -52t61 -147q0 -116 -66 -183t-184 -67q-119 0 -184 93t-65 266q0 208 76 304.5t210 96.5q95 0 159 -21v-44q-69 20 -152 20q-221 0 -236 -311q98 45 217 45zM316 35q92 0 143.5 54.5t51.5 150.5q0 73 -47.5 113.5t-133.5 40.5q-107 0 -206 -43v-3
q0 -150 49.5 -231.5t142.5 -81.5z" />
    <glyph glyph-name="seven" unicode="7" horiz-adv-x="500" 
d="M477 740q0 -20 -11.5 -61t-40.5 -116.5l-45.5 -117l-57.5 -141.5q-108 -265 -114 -304h-55q6 46 131 352q113 277 131 343h-396v45h458z" />
    <glyph glyph-name="eight" unicode="8" horiz-adv-x="625" 
d="M432 376q126 -51 126 -184q0 -95 -64.5 -148.5t-179.5 -53.5t-181 52.5t-66 141.5q0 119 118 199q-99 49 -99 170q0 93 59.5 145t167.5 52q106 0 166 -50.5t60 -138.5q0 -62 -29 -109.5t-78 -75.5zM140 559q0 -56 31 -94t86 -49l126 -25q103 65 103 168q0 69 -46 108
t-127 39q-82 0 -127.5 -39t-45.5 -108zM313 34q89 0 139.5 41t50.5 112q0 61 -37.5 101t-108.5 54l-121 24q-114 -75 -114 -179q0 -70 51 -111.5t140 -41.5z" />
    <glyph glyph-name="nine" unicode="9" horiz-adv-x="618" 
d="M302 750q119 0 184 -93t65 -266q0 -208 -76 -304.5t-210 -96.5q-95 0 -159 21v44q69 -20 152 -20q221 0 236 311q-98 -45 -217 -45q-103 0 -164 52t-61 147q0 116 66 183t184 67zM289 346q107 0 206 43v3q0 150 -49.5 231.5t-142.5 81.5q-92 0 -143.5 -54.5t-51.5 -150.5
q0 -73 47.5 -113.5t133.5 -40.5z" />
    <glyph glyph-name="colon" unicode=":" horiz-adv-x="245" 
d="M122 451q-17 0 -29.5 12.5t-12.5 29.5t12.5 30t29.5 13t30 -13t13 -30t-13 -29.5t-30 -12.5zM122 -10q-17 0 -29.5 12.5t-12.5 29.5t12.5 30t29.5 13t30 -13t13 -30t-13 -29.5t-30 -12.5z" />
    <glyph glyph-name="semicolon" unicode=";" horiz-adv-x="245" 
d="M122 451q-17 0 -29.5 12.5t-12.5 29.5t12.5 30t29.5 13t30 -13t13 -30t-13 -29.5t-30 -12.5zM122 75q18 0 30.5 -16t12.5 -42q0 -87 -75 -147q-3 15 -3 30q0 48 26 94q-33 8 -33 39q0 18 12 30t30 12z" />
    <glyph glyph-name="less" unicode="&#x3c;" 
d="M489 445l-348 -159l348 -159v-43l-400 187v30l400 188v-44z" />
    <glyph glyph-name="equal" unicode="=" 
d="M506 399v-38h-400v38h400zM506 212v-39h-400v39h400z" />
    <glyph glyph-name="greater" unicode="&#x3e;" 
d="M523 301v-30l-400 -187v43l348 159l-348 159v44z" />
    <glyph glyph-name="question" unicode="?" horiz-adv-x="484" 
d="M184 146l-1 246q15 -3 36 -3q77 0 120.5 42.5t43.5 117.5q0 74 -44.5 115.5t-124.5 41.5q-85 0 -177 -43v42q88 45 181 45q104 0 162.5 -51t58.5 -145q0 -93 -54.5 -146t-150.5 -55v-207h-50zM209 -10q-16 0 -26.5 10.5t-10.5 26.5t10.5 27t26.5 11t27 -11t11 -27
t-11 -26.5t-27 -10.5z" />
    <glyph glyph-name="at" unicode="@" horiz-adv-x="1131" 
d="M693 479q19 13 47 13v-385q23 -4 46 -4q104 0 167.5 67t63.5 177q0 181 -124.5 291.5t-329.5 110.5q-203 0 -327.5 -130t-124.5 -342q0 -210 129.5 -338t341.5 -128q124 0 239 29l1 -39q-120 -31 -243 -31q-234 0 -377.5 140.5t-143.5 369.5q0 230 139 370t366 140
q228 0 367 -121t139 -319q0 -130 -78 -209t-205 -79q-46 0 -94 16q-59 -18 -121 -18q-103 0 -166.5 60.5t-63.5 158.5q0 99 63.5 159t167.5 60q64 0 121 -19zM394 280q0 -81 51.5 -130t137.5 -49q49 0 107 17v321q-56 18 -106 18q-85 0 -137.5 -48.5t-52.5 -128.5z" />
    <glyph glyph-name="A" unicode="A" horiz-adv-x="715" 
d="M646 0q-43 116 -81 207h-414q-38 -91 -81 -207h-58q143 373 342 750h8q203 -389 342 -750h-58zM546 252q-85 202 -188 409q-94 -186 -188 -409h376z" />
    <glyph glyph-name="B" unicode="B" horiz-adv-x="690" 
d="M465 386q75 -14 119 -63t44 -120q0 -91 -63 -147t-166 -56h-286v740h264q98 0 158 -51t60 -135q0 -61 -34 -104t-96 -64zM167 401h196q79 0 127.5 40.5t48.5 106.5t-49.5 106.5t-131.5 40.5h-191v-294zM388 45q82 0 132.5 43t50.5 114t-50.5 114t-132.5 43h-221v-314h221
z" />
    <glyph glyph-name="C" unicode="C" horiz-adv-x="659" 
d="M605 677q-87 28 -177 28q-140 0 -225 -92t-85 -243t86.5 -243t227.5 -92q98 0 183 29v-43q-96 -31 -195 -31q-161 0 -259.5 104.5t-98.5 275.5t97 275.5t255 104.5q93 0 191 -30v-43z" />
    <glyph glyph-name="D" unicode="D" horiz-adv-x="769" 
d="M350 740q161 0 259 -102.5t98 -269.5q0 -166 -98 -267t-259 -101h-237v740h237zM342 45q139 0 224 88.5t85 234.5q0 147 -85 237t-224 90h-175v-650h175z" />
    <glyph glyph-name="E" unicode="E" horiz-adv-x="630" 
d="M562 45v-45h-449v740h440v-45h-386v-294h363v-45h-363v-311h395z" />
    <glyph glyph-name="F" unicode="F" horiz-adv-x="556" 
d="M167 695v-314h313v-45h-313v-336h-54v740h401v-45h-347z" />
    <glyph glyph-name="G" unicode="G" horiz-adv-x="741" 
d="M666 -4q-31 0 -54 14q-90 -20 -182 -20q-176 0 -272 105.5t-96 272.5q0 172 98.5 277t254.5 105q108 0 221 -40v-43q-102 38 -208 38q-139 0 -224.5 -92.5t-85.5 -245.5q0 -150 84 -241t238 -91q79 0 172 18v301h-223v45h277v-403z" />
    <glyph glyph-name="H" unicode="H" horiz-adv-x="815" 
d="M702 740v-740h-54v353h-481v-353h-54v740h54v-342h481v342h54z" />
    <glyph glyph-name="I" unicode="I" horiz-adv-x="280" 
d="M167 0h-54v740h54v-740z" />
    <glyph glyph-name="J" unicode="J" horiz-adv-x="523" 
d="M418 186q0 -88 -55 -142t-144 -54q-96 0 -171 35v43q75 -33 158 -33q71 0 114.5 45.5t43.5 119.5v495h-309v45h363v-554z" />
    <glyph glyph-name="K" unicode="K" horiz-adv-x="658" 
d="M581 0q-210 207 -414 370v-370h-54v740h54v-351q207 166 397 351h69q-189 -186 -409 -360q221 -175 426 -380h-69z" />
    <glyph glyph-name="L" unicode="L" horiz-adv-x="543" 
d="M524 45v-45h-411v740h54v-695h357z" />
    <glyph glyph-name="M" unicode="M" horiz-adv-x="998" 
d="M499 175l95.5 160l113.5 184t112.5 166.5t64.5 64.5v-750h-53l2 622q-56 -76 -160.5 -246l-171.5 -288h-6l-172.5 291.5t-159.5 243.5l3 -623h-54v750q16 0 64.5 -64.5t112.5 -166.5l113.5 -184z" />
    <glyph glyph-name="N" unicode="N" horiz-adv-x="845" 
d="M732 740v-750q-14 0 -48.5 32.5t-94 103.5l-101.5 122.5l-119 148.5q-159 200 -203 248l1 -645h-54v750q14 0 48 -32t95.5 -105l100.5 -121.5l119 -149.5q152 -192 203 -248l-1 646h54z" />
    <glyph glyph-name="O" unicode="O" horiz-adv-x="851" 
d="M426 -10q-164 0 -264 104.5t-100 275.5t100 275.5t264 104.5q163 0 263 -104.5t100 -275.5t-100 -275.5t-263 -104.5zM427 35q137 0 221.5 92t84.5 243t-84.5 243t-221.5 92q-139 0 -223.5 -92t-84.5 -243t84.5 -243t223.5 -92z" />
    <glyph glyph-name="P" unicode="P" horiz-adv-x="652" 
d="M372 740q106 0 171 -63.5t65 -167.5t-64.5 -167.5t-170.5 -63.5h-206v-278h-54v740h259zM363 323q85 0 136.5 50.5t51.5 133.5q0 85 -51.5 136.5t-136.5 51.5h-196v-372h196z" />
    <glyph glyph-name="Q" unicode="Q" horiz-adv-x="851" 
d="M789 370q0 -137 -65.5 -233t-179.5 -130q81 -96 168 -217l-51 -15q-108 147 -170 220q-35 -5 -65 -5q-164 0 -264 104.5t-100 275.5t100 275.5t264 104.5q163 0 263 -104.5t100 -275.5zM119 370q0 -151 84.5 -243t223.5 -92q137 0 221.5 92t84.5 243t-84.5 243t-221.5 92
q-139 0 -223.5 -92t-84.5 -243z" />
    <glyph glyph-name="R" unicode="R" horiz-adv-x="693" 
d="M358 281q143 -114 309 -281h-68q-166 166 -369 328q59 -10 141 -10q86 0 138 51.5t52 136.5t-52.5 137t-138.5 52h-203v-695h-54v740h266q108 0 173.5 -63t65.5 -167t-65.5 -167t-167.5 -63q-18 0 -27 1z" />
    <glyph glyph-name="S" unicode="S" horiz-adv-x="604" 
d="M491 189q0 70 -50 109t-145 61l-47 11q-44 10 -74 22t-58.5 32t-43 51.5t-14.5 75.5q0 96 63 147.5t176 51.5q109 0 218 -45v-42q-113 43 -208 43q-93 0 -143.5 -38.5t-50.5 -108.5q0 -33 12 -56.5t38.5 -38.5t49 -23t64.5 -18l48 -12q52 -13 87.5 -27.5t67.5 -39t48 -62
t16 -88.5q0 -95 -63 -149.5t-175 -54.5q-58 0 -121 14t-102 38v42q104 -50 206 -50q95 0 148 41t53 114z" />
    <glyph glyph-name="T" unicode="T" horiz-adv-x="574" 
d="M557 695h-243v-695h-54v695h-243v45h540v-45z" />
    <glyph glyph-name="U" unicode="U" horiz-adv-x="803" 
d="M699 740v-499q0 -113 -82 -182t-216 -69t-215.5 69t-81.5 182v499h54v-492q0 -95 67 -154t177 -59q109 0 176 59t67 154v492h54z" />
    <glyph glyph-name="V" unicode="V" horiz-adv-x="707" 
d="M690 740q-135 -363 -332 -750h-8q-192 374 -332 750h58q115 -324 278 -658q162 335 278 658h58z" />
    <glyph glyph-name="W" unicode="W" horiz-adv-x="1161" 
d="M1144 740q-122 -373 -292 -750h-8q-154 347 -263 672q-114 -336 -265 -672h-7q-170 377 -292 750h58q101 -324 241 -649q144 334 245 649h39q103 -321 246 -649q141 331 240 649h58z" />
    <glyph glyph-name="X" unicode="X" horiz-adv-x="647" 
d="M568 0q-98 167 -245 349q-152 -192 -244 -349h-61q101 171 273 382q-145 185 -249 358h61q94 -157 220 -323q126 166 220 323h61q-100 -170 -249 -357q172 -210 274 -383h-61z" />
    <glyph glyph-name="Y" unicode="Y" horiz-adv-x="647" 
d="M628 740q-137 -236 -277 -425v-315h-54v314q-146 198 -278 426h58q121 -210 247 -382q132 186 246 382h58z" />
    <glyph glyph-name="Z" unicode="Z" horiz-adv-x="585" 
d="M544 45v-45h-503q0 19 18.5 57.5t58.5 102l71 110l87 129.5q160 236 188 296h-417v45h491q0 -19 -18.5 -57.5t-60.5 -104.5l-71.5 -111l-88.5 -132q-158 -232 -185 -290h430z" />
    <glyph glyph-name="bracketleft" unicode="[" horiz-adv-x="351" 
d="M103 780h215v-41h-165v-878h165v-41h-215v960z" />
    <glyph glyph-name="backslash" unicode="\" horiz-adv-x="384" 
d="M98 780l239 -880h-51l-239 880h51z" />
    <glyph glyph-name="bracketright" unicode="]" horiz-adv-x="351" 
d="M33 -180v41h165v878h-165v41h215v-960h-215z" />
    <glyph glyph-name="asciicircum" unicode="^" 
d="M435 331l-129 250l-130 -250l-41 12l144 289h53l144 -289z" />
    <glyph glyph-name="underscore" unicode="_" horiz-adv-x="534" 
d="M494 0v-39h-454v39h454z" />
    <glyph glyph-name="grave" unicode="`" horiz-adv-x="328" 
d="M14 756l142 -140l36 10l-128 145z" />
    <glyph glyph-name="a" unicode="a" horiz-adv-x="557" 
d="M470 -4q-25 0 -49 13q-87 -19 -171 -19q-94 0 -150.5 41.5t-56.5 110.5q0 70 57.5 111.5t155.5 41.5q88 0 164 -16v60q0 74 -43 114.5t-121 40.5q-86 0 -168 -31v39q79 33 179 33q96 0 149.5 -50t53.5 -140v-349zM96 144q0 -52 46.5 -83.5t123.5 -31.5q84 0 154 17v195
q-68 18 -154 18q-77 0 -123.5 -31.5t-46.5 -83.5z" />
    <glyph glyph-name="b" unicode="b" horiz-adv-x="647" 
d="M335 535q115 0 185 -76t70 -201q0 -121 -78.5 -194.5t-206.5 -73.5q-85 0 -163 19q-24 -13 -49 -13v775l50 14v-317q70 67 192 67zM292 31q111 0 178 63t67 166q0 105 -58.5 169.5t-155.5 64.5q-109 0 -180 -71v-373q79 -19 149 -19z" />
    <glyph glyph-name="c" unicode="c" horiz-adv-x="540" 
d="M481 464q-72 30 -151 30q-99 0 -159.5 -63.5t-60.5 -167.5t61 -168t161 -64q76 0 159 34v-39q-75 -36 -173 -36q-117 0 -189 75t-72 198q0 122 72 197t189 75q94 0 163 -32v-39z" />
    <glyph glyph-name="d" unicode="d" horiz-adv-x="647" 
d="M554 -4q-25 0 -49 13q-78 -19 -163 -19q-128 0 -206.5 73.5t-78.5 194.5q0 125 70 201t185 76q122 0 192 -67v303l50 14v-789zM110 260q0 -103 67 -166t178 -63q70 0 149 19v373q-71 71 -180 71q-97 0 -155.5 -64.5t-58.5 -169.5z" />
    <glyph glyph-name="e" unicode="e" horiz-adv-x="575" 
d="M524 243h-413q6 -99 58.5 -155.5t142.5 -56.5q85 0 177 35v-40q-83 -36 -186 -36q-111 0 -178 75t-67 200q0 121 64.5 195.5t169.5 74.5q104 0 168.5 -73.5t64.5 -192.5zM292 495q-81 0 -130 -59t-52 -157h363q-3 98 -52 157t-129 59z" />
    <glyph glyph-name="f" unicode="f" horiz-adv-x="343" 
d="M269 749q-46 0 -74.5 -27.5t-28.5 -72.5v-124h161v-38h-161v-487h-50v487h-76v38h76v129q0 61 38.5 98.5t100.5 37.5q41 0 84 -10v-40q-33 9 -70 9z" />
    <glyph glyph-name="g" unicode="g" horiz-adv-x="569" 
d="M109 126q0 -24 11.5 -41t26 -25.5t45.5 -14t50 -6.5l59 -3q35 -2 49 -2.5t45 -4t45 -8.5t36 -14.5t31.5 -22.5t17.5 -33t8 -45q0 -66 -55 -101t-193 -35q-119 0 -198 33v37q82 -32 197 -32q104 0 151.5 22t47.5 70q0 20 -6.5 35.5t-22.5 24.5t-30 15t-41.5 9t-44 4
t-49.5 2q-36 1 -56 2t-51.5 5t-48.5 12t-36 21t-27 33.5t-8 48.5q0 75 70 129q-40 46 -40 114q0 63 34.5 109t94.5 62l250 69l11 -38l-123 -30q65 -17 103.5 -64t38.5 -112q0 -79 -56 -127.5t-148 -48.5q-87 0 -142 44q-46 -37 -46 -93zM295 499q-68 0 -110 -39.5
t-42 -104.5t42 -104.5t112 -39.5q68 0 110.5 39t42.5 103q0 66 -42.5 106t-112.5 40z" />
    <glyph glyph-name="h" unicode="h" horiz-adv-x="646" 
d="M352 535q98 0 152.5 -50t54.5 -143v-342h-50v336q0 75 -46 116.5t-129 41.5t-191 -21v-473h-50v771l50 14v-271q102 21 209 21z" />
    <glyph glyph-name="i" unicode="i" horiz-adv-x="236" 
d="M117 652q-16 0 -26.5 10.5t-10.5 26.5t10.5 26.5t26.5 10.5t27 -10.5t11 -26.5t-11 -26.5t-27 -10.5zM143 525v-525h-50v525h50z" />
    <glyph glyph-name="j" unicode="j" horiz-adv-x="236" 
d="M116 652q-16 0 -26.5 10.5t-10.5 26.5t10.5 26.5t26.5 10.5t27 -10.5t11 -26.5t-11 -26.5t-27 -10.5zM-20 -180q24 -9 49 -9q29 0 46.5 20t17.5 53v641h50v-648q0 -49 -27.5 -78t-73.5 -29q-32 0 -62 10v40z" />
    <glyph glyph-name="k" unicode="k" horiz-adv-x="531" 
d="M462 0q-164 152 -319 268v-268h-50v771l50 14v-501h1q182 131 301 241h66q-143 -132 -309 -247q163 -126 327 -278h-67z" />
    <glyph glyph-name="l" unicode="l" horiz-adv-x="236" 
d="M93 771l50 14v-785h-50v771z" />
    <glyph glyph-name="m" unicode="m" horiz-adv-x="956" 
d="M677 535q91 0 141.5 -50t50.5 -143v-342h-50v337q0 75 -41 116t-115 41q-103 0 -179 -41q24 -42 24 -103v-350h-50v337q0 75 -41 116t-115 41q-89 0 -159 -20v-474h-50v529q27 0 49 -13q79 19 178 19q92 0 141 -51q77 51 216 51z" />
    <glyph glyph-name="n" unicode="n" horiz-adv-x="646" 
d="M352 535q98 0 152.5 -50t54.5 -143v-342h-50v336q0 75 -46 116.5t-129 41.5q-85 0 -191 -19v-475h-50v529q30 0 50 -14q105 20 209 20z" />
    <glyph glyph-name="o" unicode="o" horiz-adv-x="641" 
d="M321 -10q-119 0 -191.5 75t-72.5 198q0 122 72.5 197t191.5 75q118 0 190.5 -75t72.5 -197q0 -123 -72.5 -198t-190.5 -75zM321 31q94 0 152 64t58 168t-58 167.5t-152 63.5q-95 0 -153 -63.5t-58 -167.5t58 -168t153 -64z" />
    <glyph glyph-name="p" unicode="p" horiz-adv-x="647" 
d="M305 535q128 0 206.5 -73.5t78.5 -194.5q0 -125 -70 -201t-185 -76q-122 0 -192 67v-277h-50v749q28 0 49 -13q78 19 163 19zM323 31q97 0 155.5 64.5t58.5 169.5q0 103 -67 166t-178 63q-70 0 -149 -19v-373q71 -71 180 -71z" />
    <glyph glyph-name="q" unicode="q" horiz-adv-x="647" 
d="M505 516q21 13 49 13v-749h-50v277q-70 -67 -192 -67q-115 0 -185 76t-70 201q0 121 78.5 194.5t206.5 73.5q85 0 163 -19zM324 31q109 0 180 71v373q-79 19 -149 19q-111 0 -178 -63t-67 -166q0 -105 58.5 -169.5t155.5 -64.5z" />
    <glyph glyph-name="r" unicode="r" horiz-adv-x="369" 
d="M352 489q-119 0 -209 -18v-471h-50v529q28 0 49 -13q79 19 210 19v-46z" />
    <glyph glyph-name="s" unicode="s" horiz-adv-x="451" 
d="M344 135q0 79 -105 105l-54 13q-64 15 -96.5 47t-32.5 91q0 68 44 106t123 38t153 -32v-38q-77 30 -144 30q-59 0 -91.5 -25.5t-32.5 -71.5q0 -40 24.5 -62t74.5 -34l54 -13q136 -32 136 -149q0 -71 -44.5 -110.5t-123.5 -39.5q-95 0 -157 37v38q74 -35 144 -35
q61 0 94.5 27.5t33.5 77.5z" />
    <glyph glyph-name="t" unicode="t" horiz-adv-x="359" 
d="M265 31q40 0 76 9v-39q-36 -11 -90 -11q-63 0 -101.5 41.5t-38.5 109.5v346h-76v38h76v140l50 14v-154h175v-38h-175v-338q0 -53 28.5 -85.5t75.5 -32.5z" />
    <glyph glyph-name="u" unicode="u" horiz-adv-x="635" 
d="M542 -4q-25 0 -49 13q-97 -19 -199 -19q-98 0 -152.5 50t-54.5 143v342h50v-336q0 -75 46 -116.5t129 -41.5q80 0 180 19v475h50v-529z" />
    <glyph glyph-name="v" unicode="v" horiz-adv-x="542" 
d="M518 525q-102 -267 -243 -535h-7q-142 267 -243 535h55q86 -240 192 -449q111 225 191 449h55z" />
    <glyph glyph-name="w" unicode="w" horiz-adv-x="863" 
d="M838 525q-84 -254 -213 -535h-8q-107 238 -185 468q-83 -241 -187 -468h-8q-128 284 -213 535h55q67 -220 164 -445q104 241 166 445h44q69 -221 167 -445q96 226 164 445h54z" />
    <glyph glyph-name="x" unicode="x" horiz-adv-x="495" 
d="M413 0q-62 109 -165 241q-107 -137 -166 -241h-56q67 116 192 272q-102 131 -175 253h56q63 -107 149 -221q85 114 149 221h56q-81 -133 -176 -253q121 -150 192 -272h-56z" />
    <glyph glyph-name="y" unicode="y" horiz-adv-x="544" 
d="M521 525q-81 -211 -140.5 -339.5t-204.5 -405.5h-53l127 237q-126 252 -222 508h55q88 -247 192 -459q109 229 191 459h55z" />
    <glyph glyph-name="z" unicode="z" horiz-adv-x="501" 
d="M460 39v-39h-419q0 36 200 294q117 152 142 193h-338v38h410q0 -12 -15.5 -39.5t-49 -74l-59 -80l-72.5 -94.5q-124 -162 -145 -198h346z" />
    <glyph glyph-name="braceleft" unicode="{" horiz-adv-x="393" 
d="M187 444q0 -122 -75 -144q75 -22 75 -144v-198q0 -50 23.5 -78.5t64.5 -28.5q44 0 84 10v-39q-45 -12 -96 -12q-59 0 -92.5 36.5t-33.5 101.5v203q0 61 -23.5 95t-65.5 34h-9v41h9q42 0 65.5 33.5t23.5 94.5v203q0 65 33.5 101.5t92.5 36.5q51 0 96 -12v-39
q-40 10 -84 10q-41 0 -64.5 -28.5t-23.5 -78.5v-198z" />
    <glyph glyph-name="bar" unicode="|" horiz-adv-x="260" 
d="M157 780v-1000h-54v1000h54z" />
    <glyph glyph-name="braceright" unicode="}" horiz-adv-x="392" 
d="M206 642q0 50 -23.5 78.5t-64.5 28.5q-44 0 -84 -10v39q45 12 96 12q59 0 92.5 -36.5t33.5 -101.5v-203q0 -61 23.5 -94.5t65.5 -33.5h9v-41h-9q-42 0 -65.5 -34t-23.5 -95v-203q0 -65 -33.5 -101.5t-92.5 -36.5q-51 0 -96 12v39q40 -10 84 -10q41 0 64.5 28.5t23.5 78.5
v198q0 122 75 144q-75 22 -75 144v198z" />
    <glyph glyph-name="asciitilde" unicode="~" 
d="M134 244q0 32 22.5 51.5t56.5 19.5q32 0 83 -36q62 -41 102 -41q50 0 82 28t32 75l-34 9q0 -32 -22.5 -51.5t-56.5 -19.5t-83 36q-59 41 -102 41q-49 0 -81.5 -28.5t-32.5 -74.5z" />
    <glyph glyph-name="uni00A0" unicode="&#xa0;" horiz-adv-x="285" 
 />
    <glyph glyph-name="exclamdown" unicode="&#xa1;" horiz-adv-x="243" 
d="M121 535q16 0 27 -10.5t11 -26.5t-11 -26.5t-27 -10.5t-26.5 10.5t-10.5 26.5t10.5 26.5t26.5 10.5zM94 -220l2 599h50l3 -599h-55z" />
    <glyph glyph-name="cent" unicode="&#xa2;" horiz-adv-x="562" 
d="M497 76q-66 -31 -156 -36v-50h-32v50q-111 5 -178.5 79.5t-67.5 193.5q0 118 67.5 192.5t178.5 79.5v50h32v-50q87 -5 146 -32v-39q-68 28 -146 30v-463q78 2 156 34v-39zM116 313q0 -96 52.5 -158.5t140.5 -71.5v460q-88 -9 -140.5 -71.5t-52.5 -158.5z" />
    <glyph glyph-name="sterling" unicode="&#xa3;" horiz-adv-x="562" 
d="M498 45v-45h-390v343h-52v45h52v166q0 89 57.5 142.5t151.5 53.5q91 0 163 -28v-42q-69 25 -152 25q-75 0 -120.5 -44.5t-45.5 -117.5v-155h300v-45h-300v-298h336z" />
    <glyph glyph-name="currency" unicode="&#xa4;" horiz-adv-x="601" 
d="M520 314q0 -78 -49 -138l54 -54l-32 -33l-54 55q-61 -48 -138 -48q-76 0 -138 47l-54 -54l-33 32l55 54q-50 61 -50 139t50 138l-55 55l33 31l54 -54q62 47 138 47q77 0 138 -48l54 55l32 -32l-54 -55q49 -58 49 -137zM301 136q72 0 123 52t51 126t-51 126t-123 52
q-73 0 -124.5 -52t-51.5 -126t51.5 -126t124.5 -52z" />
    <glyph glyph-name="yen" unicode="&#xa5;" horiz-adv-x="673" 
d="M641 740q-123 -214 -263 -405h162v-37h-176v-64h176v-37h-176v-197h-54v197h-176v37h176v64h-176v37h161q-140 191 -263 405h58q121 -210 247 -382q132 186 246 382h58z" />
    <glyph glyph-name="brokenbar" unicode="&#xa6;" horiz-adv-x="258" 
d="M156 780v-400h-54v400h54zM156 180v-400h-54v400h54z" />
    <glyph glyph-name="section" unicode="&#xa7;" horiz-adv-x="594" 
d="M531 231q0 -81 -46 -132q46 -51 46 -128q0 -94 -60.5 -147.5t-168.5 -53.5q-55 0 -114.5 13.5t-97.5 37.5v43q100 -50 201 -50q88 0 137 40.5t49 111.5q0 125 -158 157l-75 15q-83 16 -131 59.5t-48 131.5q0 84 46 135q-46 46 -46 125q0 97 60 149t169 52q104 0 208 -45
v-42q-110 43 -203 43q-86 0 -132.5 -38.5t-46.5 -109.5q0 -68 39.5 -99t104.5 -44l74 -15q36 -8 67.5 -21.5t61 -37t47 -62t17.5 -88.5zM338 173q64 -13 105 -39q34 36 34 93q0 71 -43.5 111t-114.5 53l-75 14q-53 10 -89 28q-35 -33 -35 -95q0 -125 144 -151z" />
    <glyph glyph-name="dieresis" unicode="&#xa8;" horiz-adv-x="407" 
d="M109 652q-16 0 -26.5 10.5t-10.5 26.5t10.5 26.5t26.5 10.5t27 -10.5t11 -26.5t-11 -26.5t-27 -10.5zM298 652q-16 0 -26.5 10.5t-10.5 26.5t10.5 26.5t26.5 10.5t27 -10.5t11 -26.5t-11 -26.5t-27 -10.5z" />
    <glyph glyph-name="copyright" unicode="&#xa9;" horiz-adv-x="962" 
d="M481 -50q-189 0 -304.5 115.5t-115.5 304.5t115.5 304.5t304.5 115.5t304.5 -115.5t115.5 -304.5t-115.5 -304.5t-304.5 -115.5zM481 -16q169 0 272.5 106.5t103.5 279.5t-103.5 279.5t-272.5 106.5t-272.5 -106.5t-103.5 -279.5t103.5 -279.5t272.5 -106.5zM619 564
q-58 29 -122 29q-94 0 -151 -61t-57 -162t58 -162t153 -61q69 0 126 30v-36q-66 -33 -138 -33q-110 0 -178 72t-68 190t66.5 190t175.5 72q68 0 135 -32v-36z" />
    <glyph glyph-name="ordfeminine" unicode="&#xaa;" horiz-adv-x="526" 
d="M390 735q14 10 39 10v-372q-24 0 -39 9q-47 -14 -111 -14q-88 0 -142 51.5t-54 136.5q0 89 52 141.5t144 52.5q61 0 111 -15zM125 558q0 -72 45 -115t120 -43q47 0 99 15v289q-47 14 -98 14q-80 0 -123 -43t-43 -117zM93 291h336v-32h-336v32z" />
    <glyph glyph-name="guillemotleft" unicode="&#xab;" horiz-adv-x="543" 
d="M107 270l162 -209l-44 -13l-175 222l175 223l44 -13zM324 270l162 -209l-44 -13l-175 222l175 223l44 -13z" />
    <glyph glyph-name="logicalnot" unicode="&#xac;" 
d="M506 192h-45v155h-355v39h400v-194z" />
    <glyph glyph-name="uni00AD" unicode="&#xad;" horiz-adv-x="413" 
d="M343 320v-39h-273v39h273z" />
    <glyph glyph-name="registered" unicode="&#xae;" horiz-adv-x="520" 
d="M260 790q89 0 144 -53.5t55 -141.5t-55 -141.5t-144 -53.5t-144 53.5t-55 141.5t55 141.5t144 53.5zM260 422q77 0 124.5 47.5t47.5 125.5t-47.5 125.5t-124.5 47.5t-124.5 -47.5t-47.5 -125.5t47.5 -125.5t124.5 -47.5zM271 570q35 -31 82 -83h-29q-53 59 -100 100h39
q22 0 35.5 13.5t13.5 34.5q0 22 -13.5 35t-35.5 13h-53v-196h-24v216h80q32 0 51.5 -18.5t19.5 -48.5t-19 -48t-47 -18z" />
    <glyph glyph-name="macron" unicode="&#xaf;" horiz-adv-x="435" 
d="M365 698v-39h-295v39h295z" />
    <glyph glyph-name="degree" unicode="&#xb0;" horiz-adv-x="366" 
d="M183 557q-56 0 -90 32t-34 84q0 53 34 85t90 32t90 -32t34 -85t-34 -84.5t-90 -31.5zM183 588q38 0 61.5 23.5t23.5 61.5q0 39 -23.5 62.5t-61.5 23.5t-61.5 -23.5t-23.5 -62.5q0 -38 23.5 -61.5t61.5 -23.5z" />
    <glyph glyph-name="plusminus" unicode="&#xb1;" 
d="M507 335v-39h-178v-160h-45v160h-178v39h178v160h45v-160h178zM106 83h400v-39h-400v39z" />
    <glyph glyph-name="uni00B2" unicode="&#xb2;" horiz-adv-x="350" 
d="M310 430v-34h-275q0 32 8.5 60.5t19.5 47t32.5 39t34.5 30.5t39 28l39 28t28.5 25.5t24 35t6.5 39.5q0 84 -103 84q-56 0 -123 -28v32q62 29 128 29t102.5 -29t36.5 -86q0 -28 -7.5 -50t-26.5 -41.5t-34 -31.5t-46 -33q-36 -24 -55 -39.5t-40 -44.5t-26 -62z" />
    <glyph glyph-name="uni00B3" unicode="&#xb3;" horiz-adv-x="348" 
d="M169 654q65 0 104.5 -36t39.5 -95q0 -60 -43 -96.5t-114 -36.5q-67 0 -119 25v31q50 -22 114 -22q54 0 87 27t33 72t-32.5 72t-85.5 27q-43 0 -77 -8q0 17 108 134l53 59h-195v33h262q0 -14 -101 -121l-62 -68q15 3 28 3z" />
    <glyph glyph-name="acute" unicode="&#xb4;" horiz-adv-x="328" 
d="M136 626l36 -10l142 140l-50 15z" />
    <glyph glyph-name="paragraph" unicode="&#xb6;" horiz-adv-x="549" 
d="M436 -220h-44v920h-114v-920h-44v580h-46q-69 0 -111 53t-42 139q0 85 46.5 136.5t122.5 51.5h232v-960z" />
    <glyph glyph-name="periodcentered" unicode="&#xb7;" horiz-adv-x="245" 
d="M122 245q-17 0 -29.5 12.5t-12.5 29.5t12.5 30t29.5 13t30 -13t13 -30t-13 -29.5t-30 -12.5z" />
    <glyph glyph-name="cedilla" unicode="&#xb8;" horiz-adv-x="234" 
d="M114 -64q44 0 71 -21.5t27 -57.5q0 -39 -30.5 -63t-79.5 -24q-44 0 -79 16v28q34 -13 73 -13q34 0 55.5 15.5t21.5 40.5q0 23 -20.5 37.5t-54.5 14.5q-26 0 -50 -6q0 3 2.5 8.5t8.5 13l11.5 14.5t15 18l16 18l17 19t15.5 17h44l-38 -40t-33 -35h7z" />
    <glyph glyph-name="uni00B9" unicode="&#xb9;" horiz-adv-x="240" 
d="M17 806l143 40h8v-450h-40v407l-111 -31v34z" />
    <glyph glyph-name="ordmasculine" unicode="&#xba;" horiz-adv-x="537" 
d="M269 368q-84 0 -135 52.5t-51 138.5t51 138.5t135 52.5q83 0 134 -52.5t51 -138.5t-51 -138.5t-134 -52.5zM268 400q65 0 104.5 44t39.5 115t-39.5 115t-104.5 44t-104.5 -44t-39.5 -115t39.5 -115t104.5 -44zM444 291v-32h-351v32h351z" />
    <glyph glyph-name="guillemotright" unicode="&#xbb;" horiz-adv-x="543" 
d="M276 270l-175 -222l-44 13l162 209l-162 210l44 13zM493 270l-175 -222l-44 13l162 209l-162 210l44 13z" />
    <glyph glyph-name="onequarter" unicode="&#xbc;" horiz-adv-x="845" 
d="M128 703l-111 -31v34l143 40h8v-450h-40v407zM636 732l-494 -736l-39 11l493 737zM826 98h-79v-98h-40v98h-210q0 27 93 202q67 122 71 144h41q-4 -24 -82 -166q-65 -124 -75 -147h163v126h39v-126h79v-33z" />
    <glyph glyph-name="onehalf" unicode="&#xbd;" horiz-adv-x="850" 
d="M128 703l-111 -31v34l143 40h8v-450h-40v407zM636 732l-494 -736l-39 11l493 737zM810 34v-34h-275q0 32 8.5 60.5t19.5 47t32.5 39t34.5 30.5t39 28l39 28t28.5 25.5t24 35t6.5 39.5q0 84 -103 84q-56 0 -123 -28v32q62 29 128 29t102.5 -29t36.5 -86q0 -28 -7.5 -50
t-26.5 -41.5t-34 -31.5t-46 -33q-36 -24 -55 -39.5t-40 -44.5t-26 -62z" />
    <glyph glyph-name="threequarters" unicode="&#xbe;" horiz-adv-x="953" 
d="M744 732l-494 -736l-39 11l493 737zM313 423q0 -60 -43 -96.5t-114 -36.5q-67 0 -119 25v31q50 -22 114 -22q54 0 87 27t33 72t-32.5 72t-85.5 27q-43 0 -77 -8q0 17 108 134l53 59h-195v33h262q0 -14 -101 -121l-62 -68q15 3 28 3q65 0 104.5 -36t39.5 -95zM934 98h-79
v-98h-40v98h-210q0 27 93 202q67 122 71 144h41q-4 -24 -82 -166q-65 -124 -75 -147h163v126h39v-126h79v-33z" />
    <glyph glyph-name="questiondown" unicode="&#xbf;" horiz-adv-x="475" 
d="M271 535q16 0 27 -10.5t11 -26.5t-11 -26.5t-27 -10.5t-26.5 10.5t-10.5 26.5t10.5 26.5t26.5 10.5zM296 379v-250q-18 2 -36 2q-77 0 -120.5 -42t-43.5 -118q0 -74 45 -115.5t125 -41.5q84 0 176 43v-42q-88 -45 -181 -45q-104 0 -162.5 51t-58.5 145q0 93 54.5 146
t150.5 55l1 212h50z" />
    <glyph glyph-name="Agrave" unicode="&#xc0;" horiz-adv-x="715" 
d="M351 831l-142 140l50 15l128 -145zM646 0q-43 116 -81 207h-414q-38 -91 -81 -207h-58q143 373 342 750h8q203 -389 342 -750h-58zM546 252q-85 202 -188 409q-94 -186 -188 -409h376z" />
    <glyph glyph-name="Aacute" unicode="&#xc1;" horiz-adv-x="715" 
d="M367 831l-36 10l128 145l50 -15zM646 0q-43 116 -81 207h-414q-38 -91 -81 -207h-58q143 373 342 750h8q203 -389 342 -750h-58zM546 252q-85 202 -188 409q-94 -186 -188 -409h376z" />
    <glyph glyph-name="Acircumflex" unicode="&#xc2;" horiz-adv-x="715" 
d="M244 831l-36 10l128 145h47l127 -145l-36 -10l-115 118zM646 0q-43 116 -81 207h-414q-38 -91 -81 -207h-58q143 373 342 750h8q203 -389 342 -750h-58zM546 252q-85 202 -188 409q-94 -186 -188 -409h376z" />
    <glyph glyph-name="Atilde" unicode="&#xc3;" horiz-adv-x="715" 
d="M278 922q-25 0 -42 -20t-17 -51l-34 9q0 47 26.5 75.5t67.5 28.5q37 0 88 -41q44 -36 72 -36q25 0 42 19.5t17 51.5l34 -10q0 -47 -26.5 -75t-67.5 -28q-36 0 -87 41q-48 36 -73 36zM646 0q-43 116 -81 207h-414q-38 -91 -81 -207h-58q143 373 342 750h8
q203 -389 342 -750h-58zM546 252q-85 202 -188 409q-94 -186 -188 -409h376z" />
    <glyph glyph-name="Adieresis" unicode="&#xc4;" horiz-adv-x="715" 
d="M264 867q-16 0 -26.5 10.5t-10.5 26.5t10.5 26.5t26.5 10.5t27 -10.5t11 -26.5t-11 -26.5t-27 -10.5zM453 867q-16 0 -26.5 10.5t-10.5 26.5t10.5 26.5t26.5 10.5t27 -10.5t11 -26.5t-11 -26.5t-27 -10.5zM646 0q-43 116 -81 207h-414q-38 -91 -81 -207h-58
q143 373 342 750h8q203 -389 342 -750h-58zM546 252q-85 202 -188 409q-94 -186 -188 -409h376z" />
    <glyph glyph-name="Aring" unicode="&#xc5;" horiz-adv-x="715" 
d="M359 807q-51 0 -82 26.5t-31 69.5q0 44 31 70.5t82 26.5t82 -26.5t31 -70.5q0 -43 -31 -69.5t-82 -26.5zM359 972q-35 0 -57 -19t-22 -50t22 -49.5t57 -18.5t56.5 18.5t21.5 49.5t-21.5 50t-56.5 19zM646 0q-43 116 -81 207h-414q-38 -91 -81 -207h-58q143 373 342 750h8
q203 -389 342 -750h-58zM546 252q-85 202 -188 409q-94 -186 -188 -409h376z" />
    <glyph glyph-name="AE" unicode="&#xc6;" horiz-adv-x="1076" 
d="M1008 45v-45h-373q-21 91 -53 209h-414q-50 -91 -109 -209h-58q176 360 432 740h566v-45h-504q51 -159 90 -294h391v-45h-378q52 -179 84 -311h326zM570 254q-58 215 -123 414q-127 -188 -254 -414h377z" />
    <glyph glyph-name="Ccedilla" unicode="&#xc7;" horiz-adv-x="659" 
d="M615 21q-92 -29 -185 -31l-52 -54h7q44 0 71 -21.5t27 -57.5q0 -39 -30.5 -63t-79.5 -24q-44 0 -79 16v28q34 -13 73 -13q34 0 55.5 15.5t21.5 40.5q0 23 -20.5 37.5t-54.5 14.5q-26 0 -50 -6q0 14 68 88q-147 11 -236 114t-89 265q0 171 97 275.5t255 104.5
q93 0 191 -30v-43q-87 28 -177 28q-140 0 -225 -92t-85 -243t86.5 -243t227.5 -92q98 0 183 29v-43z" />
    <glyph glyph-name="Egrave" unicode="&#xc8;" horiz-adv-x="630" 
d="M319 831l-142 140l50 15l128 -145zM562 45v-45h-449v740h440v-45h-386v-294h363v-45h-363v-311h395z" />
    <glyph glyph-name="Eacute" unicode="&#xc9;" horiz-adv-x="630" 
d="M335 831l-36 10l128 145l50 -15zM562 45v-45h-449v740h440v-45h-386v-294h363v-45h-363v-311h395z" />
    <glyph glyph-name="Ecircumflex" unicode="&#xca;" horiz-adv-x="630" 
d="M212 831l-36 10l128 145h47l127 -145l-36 -10l-115 118zM562 45v-45h-449v740h440v-45h-386v-294h363v-45h-363v-311h395z" />
    <glyph glyph-name="Edieresis" unicode="&#xcb;" horiz-adv-x="630" 
d="M232 867q-16 0 -26.5 10.5t-10.5 26.5t10.5 26.5t26.5 10.5t27 -10.5t11 -26.5t-11 -26.5t-27 -10.5zM421 867q-16 0 -26.5 10.5t-10.5 26.5t10.5 26.5t26.5 10.5t27 -10.5t11 -26.5t-11 -26.5t-27 -10.5zM562 45v-45h-449v740h440v-45h-386v-294h363v-45h-363v-311h395z
" />
    <glyph glyph-name="Igrave" unicode="&#xcc;" horiz-adv-x="280" 
d="M-10 971l142 -140l36 10l-128 145zM167 0h-54v740h54v-740z" />
    <glyph glyph-name="Iacute" unicode="&#xcd;" horiz-adv-x="280" 
d="M112 841l36 -10l142 140l-50 15zM167 0h-54v740h54v-740z" />
    <glyph glyph-name="Icircumflex" unicode="&#xce;" horiz-adv-x="280" 
d="M255 831l-115 118l-115 -118l-36 10l128 145h47l127 -145zM167 0h-54v740h54v-740z" />
    <glyph glyph-name="Idieresis" unicode="&#xcf;" horiz-adv-x="280" 
d="M45 867q-16 0 -26.5 10.5t-10.5 26.5t10.5 26.5t26.5 10.5t27 -10.5t11 -26.5t-11 -26.5t-27 -10.5zM234 867q-16 0 -26.5 10.5t-10.5 26.5t10.5 26.5t26.5 10.5t27 -10.5t11 -26.5t-11 -26.5t-27 -10.5zM167 0h-54v740h54v-740z" />
    <glyph glyph-name="Eth" unicode="&#xd0;" horiz-adv-x="769" 
d="M350 740q161 0 259 -102.5t98 -269.5q0 -166 -98 -267t-259 -101h-237v351h-85v39h85v350h237zM342 45q139 0 224 88.5t85 234.5q0 147 -85 237t-224 90h-175v-305h134v-39h-134v-306h175z" />
    <glyph glyph-name="Ntilde" unicode="&#xd1;" horiz-adv-x="845" 
d="M342 922q-25 0 -42 -20t-17 -51l-34 9q0 47 26.5 75.5t67.5 28.5q37 0 88 -41q44 -36 72 -36q25 0 42 19.5t17 51.5l34 -10q0 -47 -26.5 -75t-67.5 -28q-36 0 -87 41q-48 36 -73 36zM732 740v-750q-14 0 -48.5 32.5t-94 103.5l-101.5 122.5l-119 148.5q-159 200 -203 248
l1 -645h-54v750q14 0 48 -32t95.5 -105l100.5 -121.5l119 -149.5q152 -192 203 -248l-1 646h54z" />
    <glyph glyph-name="Ograve" unicode="&#xd2;" horiz-adv-x="851" 
d="M276 971l142 -140l36 10l-128 145zM426 -10q-164 0 -264 104.5t-100 275.5t100 275.5t264 104.5q163 0 263 -104.5t100 -275.5t-100 -275.5t-263 -104.5zM427 35q137 0 221.5 92t84.5 243t-84.5 243t-221.5 92q-139 0 -223.5 -92t-84.5 -243t84.5 -243t223.5 -92z" />
    <glyph glyph-name="Oacute" unicode="&#xd3;" horiz-adv-x="851" 
d="M398 841l36 -10l142 140l-50 15zM426 -10q-164 0 -264 104.5t-100 275.5t100 275.5t264 104.5q163 0 263 -104.5t100 -275.5t-100 -275.5t-263 -104.5zM427 35q137 0 221.5 92t84.5 243t-84.5 243t-221.5 92q-139 0 -223.5 -92t-84.5 -243t84.5 -243t223.5 -92z" />
    <glyph glyph-name="Ocircumflex" unicode="&#xd4;" horiz-adv-x="851" 
d="M541 831l-115 118l-115 -118l-36 10l128 145h47l127 -145zM426 -10q-164 0 -264 104.5t-100 275.5t100 275.5t264 104.5q163 0 263 -104.5t100 -275.5t-100 -275.5t-263 -104.5zM427 35q137 0 221.5 92t84.5 243t-84.5 243t-221.5 92q-139 0 -223.5 -92t-84.5 -243
t84.5 -243t223.5 -92z" />
    <glyph glyph-name="Otilde" unicode="&#xd5;" horiz-adv-x="851" 
d="M286 851q0 31 17 51t42 20t73 -36q51 -41 87 -41q41 0 67.5 28t26.5 75l-34 10q0 -32 -17 -51.5t-42 -19.5q-28 0 -72 36q-51 41 -88 41q-41 0 -67.5 -28.5t-26.5 -75.5zM426 -10q-164 0 -264 104.5t-100 275.5t100 275.5t264 104.5q163 0 263 -104.5t100 -275.5
t-100 -275.5t-263 -104.5zM427 35q137 0 221.5 92t84.5 243t-84.5 243t-221.5 92q-139 0 -223.5 -92t-84.5 -243t84.5 -243t223.5 -92z" />
    <glyph glyph-name="Odieresis" unicode="&#xd6;" horiz-adv-x="851" 
d="M331 867q-16 0 -26.5 10.5t-10.5 26.5t10.5 26.5t26.5 10.5t27 -10.5t11 -26.5t-11 -26.5t-27 -10.5zM520 867q-16 0 -26.5 10.5t-10.5 26.5t10.5 26.5t26.5 10.5t27 -10.5t11 -26.5t-11 -26.5t-27 -10.5zM426 -10q-164 0 -264 104.5t-100 275.5t100 275.5t264 104.5
q163 0 263 -104.5t100 -275.5t-100 -275.5t-263 -104.5zM427 35q137 0 221.5 92t84.5 243t-84.5 243t-221.5 92q-139 0 -223.5 -92t-84.5 -243t84.5 -243t223.5 -92z" />
    <glyph glyph-name="multiply" unicode="&#xd7;" 
d="M460 107l-153 152l-152 -153l-28 27l152 153l-153 151l28 28l152 -151l152 153l28 -28l-152 -153l153 -151z" />
    <glyph glyph-name="Oslash" unicode="&#xd8;" horiz-adv-x="851" 
d="M678 656q111 -106 111 -286q0 -171 -100 -275.5t-263 -104.5q-133 0 -227 72l-53 -66l-35 10l62 77q-111 106 -111 287q0 171 100 275.5t264 104.5q132 0 226 -72l53 66l35 -11zM119 370q0 -153 87 -246l415 515q-80 66 -194 66q-139 0 -223.5 -92t-84.5 -243zM427 35
q137 0 221.5 92t84.5 243q0 153 -87 246l-415 -515q80 -66 196 -66z" />
    <glyph glyph-name="Ugrave" unicode="&#xd9;" horiz-adv-x="803" 
d="M251 971l142 -140l36 10l-128 145zM699 740v-499q0 -113 -82 -182t-216 -69t-215.5 69t-81.5 182v499h54v-492q0 -95 67 -154t177 -59q109 0 176 59t67 154v492h54z" />
    <glyph glyph-name="Uacute" unicode="&#xda;" horiz-adv-x="803" 
d="M373 841l36 -10l142 140l-50 15zM699 740v-499q0 -113 -82 -182t-216 -69t-215.5 69t-81.5 182v499h54v-492q0 -95 67 -154t177 -59q109 0 176 59t67 154v492h54z" />
    <glyph glyph-name="Ucircumflex" unicode="&#xdb;" horiz-adv-x="803" 
d="M516 831l-115 118l-115 -118l-36 10l128 145h47l127 -145zM699 740v-499q0 -113 -82 -182t-216 -69t-215.5 69t-81.5 182v499h54v-492q0 -95 67 -154t177 -59q109 0 176 59t67 154v492h54z" />
    <glyph glyph-name="Udieresis" unicode="&#xdc;" horiz-adv-x="803" 
d="M306 867q-16 0 -26.5 10.5t-10.5 26.5t10.5 26.5t26.5 10.5t27 -10.5t11 -26.5t-11 -26.5t-27 -10.5zM495 867q-16 0 -26.5 10.5t-10.5 26.5t10.5 26.5t26.5 10.5t27 -10.5t11 -26.5t-11 -26.5t-27 -10.5zM699 740v-499q0 -113 -82 -182t-216 -69t-215.5 69t-81.5 182
v499h54v-492q0 -95 67 -154t177 -59q109 0 176 59t67 154v492h54z" />
    <glyph glyph-name="Yacute" unicode="&#xdd;" horiz-adv-x="647" 
d="M332 831l-36 10l128 145l50 -15zM628 740q-137 -236 -277 -425v-315h-54v314q-146 198 -278 426h58q121 -210 247 -382q132 186 246 382h58z" />
    <glyph glyph-name="Thorn" unicode="&#xde;" horiz-adv-x="653" 
d="M372 618q106 0 171 -63.5t65 -166.5q0 -105 -64.5 -168.5t-170.5 -63.5h-206v-156h-54v740h54v-122h205zM363 201q85 0 136.5 51t51.5 134q0 85 -51.5 136t-136.5 51h-196v-372h196z" />
    <glyph glyph-name="germandbls" unicode="&#xdf;" horiz-adv-x="624" 
d="M384 439q84 -9 134.5 -68t50.5 -150q0 -103 -67 -167t-176 -64q-47 0 -84 11v39q40 -9 75 -9q90 0 144.5 53t54.5 140t-58 140t-153 53v5q69 42 111.5 98.5t42.5 107.5q0 55 -43 88t-114 33q-72 0 -115.5 -42.5t-43.5 -113.5v-593h-50v599q0 86 57.5 138.5t151.5 52.5
t151.5 -43t57.5 -114q0 -56 -34.5 -108.5t-92.5 -85.5z" />
    <glyph glyph-name="agrave" unicode="&#xe0;" horiz-adv-x="557" 
d="M260 616l-142 140l50 15l128 -145zM470 -4q-25 0 -49 13q-87 -19 -171 -19q-94 0 -150.5 41.5t-56.5 110.5q0 70 57.5 111.5t155.5 41.5q88 0 164 -16v60q0 74 -43 114.5t-121 40.5q-86 0 -168 -31v39q79 33 179 33q96 0 149.5 -50t53.5 -140v-349zM96 144
q0 -52 46.5 -83.5t123.5 -31.5q84 0 154 17v195q-68 18 -154 18q-77 0 -123.5 -31.5t-46.5 -83.5z" />
    <glyph glyph-name="aacute" unicode="&#xe1;" horiz-adv-x="557" 
d="M276 616l-36 10l128 145l50 -15zM470 -4q-25 0 -49 13q-87 -19 -171 -19q-94 0 -150.5 41.5t-56.5 110.5q0 70 57.5 111.5t155.5 41.5q88 0 164 -16v60q0 74 -43 114.5t-121 40.5q-86 0 -168 -31v39q79 33 179 33q96 0 149.5 -50t53.5 -140v-349zM96 144
q0 -52 46.5 -83.5t123.5 -31.5q84 0 154 17v195q-68 18 -154 18q-77 0 -123.5 -31.5t-46.5 -83.5z" />
    <glyph glyph-name="acircumflex" unicode="&#xe2;" horiz-adv-x="557" 
d="M153 616l-36 10l128 145h47l127 -145l-36 -10l-115 118zM470 -4q-25 0 -49 13q-87 -19 -171 -19q-94 0 -150.5 41.5t-56.5 110.5q0 70 57.5 111.5t155.5 41.5q88 0 164 -16v60q0 74 -43 114.5t-121 40.5q-86 0 -168 -31v39q79 33 179 33q96 0 149.5 -50t53.5 -140v-349z
M96 144q0 -52 46.5 -83.5t123.5 -31.5q84 0 154 17v195q-68 18 -154 18q-77 0 -123.5 -31.5t-46.5 -83.5z" />
    <glyph glyph-name="atilde" unicode="&#xe3;" horiz-adv-x="557" 
d="M187 707q-25 0 -42 -20t-17 -51l-34 9q0 47 26.5 75.5t67.5 28.5q37 0 88 -41q44 -36 72 -36q25 0 42 19.5t17 51.5l34 -10q0 -47 -26.5 -75t-67.5 -28q-36 0 -87 41q-48 36 -73 36zM470 -4q-25 0 -49 13q-87 -19 -171 -19q-94 0 -150.5 41.5t-56.5 110.5
q0 70 57.5 111.5t155.5 41.5q88 0 164 -16v60q0 74 -43 114.5t-121 40.5q-86 0 -168 -31v39q79 33 179 33q96 0 149.5 -50t53.5 -140v-349zM96 144q0 -52 46.5 -83.5t123.5 -31.5q84 0 154 17v195q-68 18 -154 18q-77 0 -123.5 -31.5t-46.5 -83.5z" />
    <glyph glyph-name="adieresis" unicode="&#xe4;" horiz-adv-x="557" 
d="M173 652q-16 0 -26.5 10.5t-10.5 26.5t10.5 26.5t26.5 10.5t27 -10.5t11 -26.5t-11 -26.5t-27 -10.5zM362 652q-16 0 -26.5 10.5t-10.5 26.5t10.5 26.5t26.5 10.5t27 -10.5t11 -26.5t-11 -26.5t-27 -10.5zM470 -4q-25 0 -49 13q-87 -19 -171 -19q-94 0 -150.5 41.5
t-56.5 110.5q0 70 57.5 111.5t155.5 41.5q88 0 164 -16v60q0 74 -43 114.5t-121 40.5q-86 0 -168 -31v39q79 33 179 33q96 0 149.5 -50t53.5 -140v-349zM96 144q0 -52 46.5 -83.5t123.5 -31.5q84 0 154 17v195q-68 18 -154 18q-77 0 -123.5 -31.5t-46.5 -83.5z" />
    <glyph glyph-name="aring" unicode="&#xe5;" horiz-adv-x="557" 
d="M268 592q-51 0 -82 26.5t-31 69.5q0 44 31 70.5t82 26.5t82 -26.5t31 -70.5q0 -43 -31 -69.5t-82 -26.5zM268 757q-35 0 -57 -19t-22 -50t22 -49.5t57 -18.5t56.5 18.5t21.5 49.5t-21.5 50t-56.5 19zM470 -4q-25 0 -49 13q-87 -19 -171 -19q-94 0 -150.5 41.5
t-56.5 110.5q0 70 57.5 111.5t155.5 41.5q88 0 164 -16v60q0 74 -43 114.5t-121 40.5q-86 0 -168 -31v39q79 33 179 33q96 0 149.5 -50t53.5 -140v-349zM96 144q0 -52 46.5 -83.5t123.5 -31.5q84 0 154 17v195q-68 18 -154 18q-77 0 -123.5 -31.5t-46.5 -83.5z" />
    <glyph glyph-name="ae" unicode="&#xe6;" horiz-adv-x="935" 
d="M885 269l-1 -26h-413q4 -108 52 -160t150 -52q84 0 176 35v-40q-79 -36 -179 -36q-132 0 -195 80q-44 -37 -103.5 -58.5t-113.5 -21.5q-98 0 -156.5 41.5t-58.5 110.5q0 70 57.5 111.5t155.5 41.5q88 0 164 -16v60q0 74 -43.5 114.5t-122.5 40.5q-85 0 -166 -31v39
q79 33 176 33q76 0 125 -33t66 -94q29 60 81 93.5t120 33.5q103 0 166 -73.5t63 -192.5zM653 495q-81 0 -130.5 -59t-52.5 -157h364q-3 98 -52 157t-129 59zM266 29q100 0 190 71q-30 56 -34 140q-72 19 -156 19q-77 0 -123.5 -31.5t-46.5 -83.5t46.5 -83.5t123.5 -31.5z
" />
    <glyph glyph-name="ccedilla" unicode="&#xe7;" horiz-adv-x="540" 
d="M491 26q-69 -33 -163 -36l-52 -54h7q44 0 71 -21.5t27 -57.5q0 -39 -30.5 -63t-79.5 -24q-44 0 -79 16v28q34 -13 73 -13q34 0 55.5 15.5t21.5 40.5q0 23 -20.5 37.5t-54.5 14.5q-26 0 -50 -6q0 14 69 89q-104 11 -166.5 84t-62.5 187q0 122 72 197t189 75q94 0 163 -32
v-39q-72 30 -151 30q-99 0 -159.5 -63.5t-60.5 -167.5t61 -168t161 -64q76 0 159 34v-39z" />
    <glyph glyph-name="egrave" unicode="&#xe8;" horiz-adv-x="575" 
d="M284 616l-142 140l50 15l128 -145zM524 243h-413q6 -99 58.5 -155.5t142.5 -56.5q85 0 177 35v-40q-83 -36 -186 -36q-111 0 -178 75t-67 200q0 121 64.5 195.5t169.5 74.5q104 0 168.5 -73.5t64.5 -192.5zM292 495q-81 0 -130 -59t-52 -157h363q-3 98 -52 157t-129 59z
" />
    <glyph glyph-name="eacute" unicode="&#xe9;" horiz-adv-x="575" 
d="M300 616l-36 10l128 145l50 -15zM524 243h-413q6 -99 58.5 -155.5t142.5 -56.5q85 0 177 35v-40q-83 -36 -186 -36q-111 0 -178 75t-67 200q0 121 64.5 195.5t169.5 74.5q104 0 168.5 -73.5t64.5 -192.5zM292 495q-81 0 -130 -59t-52 -157h363q-3 98 -52 157t-129 59z
" />
    <glyph glyph-name="ecircumflex" unicode="&#xea;" horiz-adv-x="575" 
d="M177 616l-36 10l128 145h47l127 -145l-36 -10l-115 118zM524 243h-413q6 -99 58.5 -155.5t142.5 -56.5q85 0 177 35v-40q-83 -36 -186 -36q-111 0 -178 75t-67 200q0 121 64.5 195.5t169.5 74.5q104 0 168.5 -73.5t64.5 -192.5zM292 495q-81 0 -130 -59t-52 -157h363
q-3 98 -52 157t-129 59z" />
    <glyph glyph-name="edieresis" unicode="&#xeb;" horiz-adv-x="575" 
d="M197 652q-16 0 -26.5 10.5t-10.5 26.5t10.5 26.5t26.5 10.5t27 -10.5t11 -26.5t-11 -26.5t-27 -10.5zM386 652q-16 0 -26.5 10.5t-10.5 26.5t10.5 26.5t26.5 10.5t27 -10.5t11 -26.5t-11 -26.5t-27 -10.5zM524 243h-413q6 -99 58.5 -155.5t142.5 -56.5q85 0 177 35v-40
q-83 -36 -186 -36q-111 0 -178 75t-67 200q0 121 64.5 195.5t169.5 74.5q104 0 168.5 -73.5t64.5 -192.5zM292 495q-81 0 -130 -59t-52 -157h363q-3 98 -52 157t-129 59z" />
    <glyph glyph-name="igrave" unicode="&#xec;" horiz-adv-x="236" 
d="M-32 756l142 -140l36 10l-128 145zM143 525v-525h-50v525h50z" />
    <glyph glyph-name="iacute" unicode="&#xed;" horiz-adv-x="236" 
d="M90 626l36 -10l142 140l-50 15zM143 525v-525h-50v525h50z" />
    <glyph glyph-name="icircumflex" unicode="&#xee;" horiz-adv-x="236" 
d="M233 616l-115 118l-115 -118l-36 10l128 145h47l127 -145zM143 525v-525h-50v525h50z" />
    <glyph glyph-name="idieresis" unicode="&#xef;" horiz-adv-x="236" 
d="M23 652q-16 0 -26.5 10.5t-10.5 26.5t10.5 26.5t26.5 10.5t27 -10.5t11 -26.5t-11 -26.5t-27 -10.5zM212 652q-16 0 -26.5 10.5t-10.5 26.5t10.5 26.5t26.5 10.5t27 -10.5t11 -26.5t-11 -26.5t-27 -10.5zM143 525v-525h-50v525h50z" />
    <glyph glyph-name="eth" unicode="&#xf0;" horiz-adv-x="644" 
d="M348 709q236 -182 236 -424q0 -135 -72 -215t-191 -80t-191.5 74.5t-72.5 197.5q0 121 70 196t182 75q117 0 184 -77q-55 124 -186 225l-89 -59l-31 22l89 60q-47 32 -94 58l41 28q61 -35 94 -59l87 59l31 -23zM321 31q94 0 152 64t58 168q0 102 -58.5 165.5t-151.5 63.5
q-95 0 -153 -63.5t-58 -167.5t58 -167t153 -63z" />
    <glyph glyph-name="ntilde" unicode="&#xf1;" horiz-adv-x="646" 
d="M245 707q-25 0 -42 -20t-17 -51l-34 9q0 47 26.5 75.5t67.5 28.5q37 0 88 -41q44 -36 72 -36q25 0 42 19.5t17 51.5l34 -10q0 -47 -26.5 -75t-67.5 -28q-36 0 -87 41q-48 36 -73 36zM352 535q98 0 152.5 -50t54.5 -143v-342h-50v336q0 75 -46 116.5t-129 41.5
q-85 0 -191 -19v-475h-50v529q30 0 50 -14q105 20 209 20z" />
    <glyph glyph-name="ograve" unicode="&#xf2;" horiz-adv-x="641" 
d="M171 756l142 -140l36 10l-128 145zM321 -10q-119 0 -191.5 75t-72.5 198q0 122 72.5 197t191.5 75q118 0 190.5 -75t72.5 -197q0 -123 -72.5 -198t-190.5 -75zM321 31q94 0 152 64t58 168t-58 167.5t-152 63.5q-95 0 -153 -63.5t-58 -167.5t58 -168t153 -64z" />
    <glyph glyph-name="oacute" unicode="&#xf3;" horiz-adv-x="641" 
d="M293 626l36 -10l142 140l-50 15zM321 -10q-119 0 -191.5 75t-72.5 198q0 122 72.5 197t191.5 75q118 0 190.5 -75t72.5 -197q0 -123 -72.5 -198t-190.5 -75zM321 31q94 0 152 64t58 168t-58 167.5t-152 63.5q-95 0 -153 -63.5t-58 -167.5t58 -168t153 -64z" />
    <glyph glyph-name="ocircumflex" unicode="&#xf4;" horiz-adv-x="641" 
d="M436 616l-115 118l-115 -118l-36 10l128 145h47l127 -145zM321 -10q-119 0 -191.5 75t-72.5 198q0 122 72.5 197t191.5 75q118 0 190.5 -75t72.5 -197q0 -123 -72.5 -198t-190.5 -75zM321 31q94 0 152 64t58 168t-58 167.5t-152 63.5q-95 0 -153 -63.5t-58 -167.5
t58 -168t153 -64z" />
    <glyph glyph-name="otilde" unicode="&#xf5;" horiz-adv-x="641" 
d="M181 636q0 31 17 51t42 20t73 -36q51 -41 87 -41q41 0 67.5 28t26.5 75l-34 10q0 -32 -17 -51.5t-42 -19.5q-28 0 -72 36q-51 41 -88 41q-41 0 -67.5 -28.5t-26.5 -75.5zM321 -10q-119 0 -191.5 75t-72.5 198q0 122 72.5 197t191.5 75q118 0 190.5 -75t72.5 -197
q0 -123 -72.5 -198t-190.5 -75zM321 31q94 0 152 64t58 168t-58 167.5t-152 63.5q-95 0 -153 -63.5t-58 -167.5t58 -168t153 -64z" />
    <glyph glyph-name="odieresis" unicode="&#xf6;" horiz-adv-x="641" 
d="M226 652q-16 0 -26.5 10.5t-10.5 26.5t10.5 26.5t26.5 10.5t27 -10.5t11 -26.5t-11 -26.5t-27 -10.5zM415 652q-16 0 -26.5 10.5t-10.5 26.5t10.5 26.5t26.5 10.5t27 -10.5t11 -26.5t-11 -26.5t-27 -10.5zM321 -10q-119 0 -191.5 75t-72.5 198q0 122 72.5 197t191.5 75
q118 0 190.5 -75t72.5 -197q0 -123 -72.5 -198t-190.5 -75zM321 31q94 0 152 64t58 168t-58 167.5t-152 63.5q-95 0 -153 -63.5t-58 -167.5t58 -168t153 -64z" />
    <glyph glyph-name="divide" unicode="&#xf7;" 
d="M306 389q-16 0 -26.5 11t-10.5 27t10.5 26.5t26.5 10.5t27 -10.5t11 -26.5t-11 -27t-27 -11zM506 306v-39h-400v39h400zM306 109q-16 0 -26.5 10.5t-10.5 26.5t10.5 26.5t26.5 10.5t27 -10.5t11 -26.5t-11 -26.5t-27 -10.5z" />
    <glyph glyph-name="oslash" unicode="&#xf8;" horiz-adv-x="641" 
d="M499 472q85 -76 85 -209q0 -123 -72.5 -198t-190.5 -75q-89 0 -155 44l-29 -38l-31 10l36 47q-85 76 -85 210q0 122 72.5 197t191.5 75q87 0 153 -44l29 38l32 -9zM110 263q0 -108 61 -171l276 363q-53 39 -126 39q-95 0 -153 -63.5t-58 -167.5zM321 31q94 0 152 64
t58 168q0 107 -61 171l-276 -363q52 -40 127 -40z" />
    <glyph glyph-name="ugrave" unicode="&#xf9;" horiz-adv-x="635" 
d="M307 616l-142 140l50 15l128 -145zM542 -4q-25 0 -49 13q-97 -19 -199 -19q-98 0 -152.5 50t-54.5 143v342h50v-336q0 -75 46 -116.5t129 -41.5q80 0 180 19v475h50v-529z" />
    <glyph glyph-name="uacute" unicode="&#xfa;" horiz-adv-x="635" 
d="M323 616l-36 10l128 145l50 -15zM542 -4q-25 0 -49 13q-97 -19 -199 -19q-98 0 -152.5 50t-54.5 143v342h50v-336q0 -75 46 -116.5t129 -41.5q80 0 180 19v475h50v-529z" />
    <glyph glyph-name="ucircumflex" unicode="&#xfb;" horiz-adv-x="635" 
d="M200 616l-36 10l128 145h47l127 -145l-36 -10l-115 118zM542 -4q-25 0 -49 13q-97 -19 -199 -19q-98 0 -152.5 50t-54.5 143v342h50v-336q0 -75 46 -116.5t129 -41.5q80 0 180 19v475h50v-529z" />
    <glyph glyph-name="udieresis" unicode="&#xfc;" horiz-adv-x="635" 
d="M220 652q-16 0 -26.5 10.5t-10.5 26.5t10.5 26.5t26.5 10.5t27 -10.5t11 -26.5t-11 -26.5t-27 -10.5zM409 652q-16 0 -26.5 10.5t-10.5 26.5t10.5 26.5t26.5 10.5t27 -10.5t11 -26.5t-11 -26.5t-27 -10.5zM542 -4q-25 0 -49 13q-97 -19 -199 -19q-98 0 -152.5 50
t-54.5 143v342h50v-336q0 -75 46 -116.5t129 -41.5q80 0 180 19v475h50v-529z" />
    <glyph glyph-name="yacute" unicode="&#xfd;" horiz-adv-x="544" 
d="M283 616l-36 10l128 145l50 -15zM521 525q-81 -211 -140.5 -339.5t-204.5 -405.5h-53l127 237q-126 252 -222 508h55q88 -247 192 -459q109 229 191 459h55z" />
    <glyph glyph-name="thorn" unicode="&#xfe;" horiz-adv-x="647" 
d="M305 535q128 0 206.5 -73.5t78.5 -194.5q0 -125 -70 -201t-185 -76q-122 0 -192 67v-277h-50v991l50 14v-269q78 19 162 19zM323 31q97 0 155.5 64.5t58.5 169.5q0 103 -67 166t-178 63q-70 0 -149 -19v-373q71 -71 180 -71z" />
    <glyph glyph-name="ydieresis" unicode="&#xff;" horiz-adv-x="544" 
d="M180 652q-16 0 -26.5 10.5t-10.5 26.5t10.5 26.5t26.5 10.5t27 -10.5t11 -26.5t-11 -26.5t-27 -10.5zM369 652q-16 0 -26.5 10.5t-10.5 26.5t10.5 26.5t26.5 10.5t27 -10.5t11 -26.5t-11 -26.5t-27 -10.5zM521 525q-81 -211 -140.5 -339.5t-204.5 -405.5h-53l127 237
q-126 252 -222 508h55q88 -247 192 -459q109 229 191 459h55z" />
    <glyph glyph-name="Amacron" unicode="&#x100;" horiz-adv-x="715" 
d="M506 874h-295v39h295v-39zM646 0q-43 116 -81 207h-414q-38 -91 -81 -207h-58q143 373 342 750h8q203 -389 342 -750h-58zM546 252q-85 202 -188 409q-94 -186 -188 -409h376z" />
    <glyph glyph-name="amacron" unicode="&#x101;" horiz-adv-x="557" 
d="M415 659h-295v39h295v-39zM470 -4q-25 0 -49 13q-87 -19 -171 -19q-94 0 -150.5 41.5t-56.5 110.5q0 70 57.5 111.5t155.5 41.5q88 0 164 -16v60q0 74 -43 114.5t-121 40.5q-86 0 -168 -31v39q79 33 179 33q96 0 149.5 -50t53.5 -140v-349zM96 144q0 -52 46.5 -83.5
t123.5 -31.5q84 0 154 17v195q-68 18 -154 18q-77 0 -123.5 -31.5t-46.5 -83.5z" />
    <glyph glyph-name="Abreve" unicode="&#x102;" horiz-adv-x="715" 
d="M359 825q-69 0 -111 40t-42 107l43 12q0 -56 30.5 -90.5t79.5 -34.5t79.5 34.5t30.5 90.5l43 -12q0 -67 -42 -107t-111 -40zM646 0q-43 116 -81 207h-414q-38 -91 -81 -207h-58q143 373 342 750h8q203 -389 342 -750h-58zM546 252q-85 202 -188 409q-94 -186 -188 -409
h376z" />
    <glyph glyph-name="abreve" unicode="&#x103;" horiz-adv-x="557" 
d="M268 610q-69 0 -111 40t-42 107l43 12q0 -56 30 -90.5t80 -34.5t80 34.5t30 90.5l43 -12q0 -67 -42 -107t-111 -40zM470 -4q-25 0 -49 13q-87 -19 -171 -19q-94 0 -150.5 41.5t-56.5 110.5q0 70 57.5 111.5t155.5 41.5q88 0 164 -16v60q0 74 -43 114.5t-121 40.5
q-86 0 -168 -31v39q79 33 179 33q96 0 149.5 -50t53.5 -140v-349zM96 144q0 -52 46.5 -83.5t123.5 -31.5q84 0 154 17v195q-68 18 -154 18q-77 0 -123.5 -31.5t-46.5 -83.5z" />
    <glyph glyph-name="Aogonek" unicode="&#x104;" horiz-adv-x="715" 
d="M564 -160q0 -17 14.5 -28t37.5 -11q34 0 59 11v-30q-26 -12 -65 -12q-38 0 -61.5 18.5t-23.5 48.5q0 42 31 79.5t103 83.5h-13q-43 116 -81 207h-414q-38 -91 -81 -207h-58q143 373 342 750h8q203 -389 342 -750q-76 -52 -108 -88t-32 -72zM546 252q-85 202 -188 409
q-94 -186 -188 -409h376z" />
    <glyph glyph-name="aogonek" unicode="&#x105;" horiz-adv-x="557" 
d="M267 535q96 0 149.5 -50t53.5 -140v-349q-68 -51 -96.5 -86t-28.5 -70q0 -17 14.5 -28t37.5 -11q34 0 59 11v-30q-26 -12 -65 -12q-38 0 -61.5 18.5t-23.5 48.5q0 43 29 81.5t96 85.5l-10 5q-87 -19 -171 -19q-94 0 -150.5 41.5t-56.5 110.5q0 70 57.5 111.5t155.5 41.5
q88 0 164 -16v60q0 74 -43 114.5t-121 40.5q-86 0 -168 -31v39q79 33 179 33zM96 144q0 -52 46.5 -83.5t123.5 -31.5q84 0 154 17v195q-68 18 -154 18q-77 0 -123.5 -31.5t-46.5 -83.5z" />
    <glyph glyph-name="Cacute" unicode="&#x106;" horiz-adv-x="659" 
d="M380 841l36 -10l142 140l-50 15zM605 677q-87 28 -177 28q-140 0 -225 -92t-85 -243t86.5 -243t227.5 -92q98 0 183 29v-43q-96 -31 -195 -31q-161 0 -259.5 104.5t-98.5 275.5t97 275.5t255 104.5q93 0 191 -30v-43z" />
    <glyph glyph-name="cacute" unicode="&#x107;" horiz-adv-x="540" 
d="M288 626l36 -10l142 140l-50 15zM481 464q-72 30 -151 30q-99 0 -159.5 -63.5t-60.5 -167.5t61 -168t161 -64q76 0 159 34v-39q-75 -36 -173 -36q-117 0 -189 75t-72 198q0 122 72 197t189 75q94 0 163 -32v-39z" />
    <glyph glyph-name="Cdotaccent" unicode="&#x10a;" horiz-adv-x="659" 
d="M408 867q-16 0 -26.5 10.5t-10.5 26.5t10.5 26.5t26.5 10.5t27 -10.5t11 -26.5t-11 -26.5t-27 -10.5zM605 677q-87 28 -177 28q-140 0 -225 -92t-85 -243t86.5 -243t227.5 -92q98 0 183 29v-43q-96 -31 -195 -31q-161 0 -259.5 104.5t-98.5 275.5t97 275.5t255 104.5
q93 0 191 -30v-43z" />
    <glyph glyph-name="cdotaccent" unicode="&#x10b;" horiz-adv-x="540" 
d="M316 652q-16 0 -26.5 10.5t-10.5 26.5t10.5 26.5t26.5 10.5t27 -10.5t11 -26.5t-11 -26.5t-27 -10.5zM481 464q-72 30 -151 30q-99 0 -159.5 -63.5t-60.5 -167.5t61 -168t161 -64q76 0 159 34v-39q-75 -36 -173 -36q-117 0 -189 75t-72 198q0 122 72 197t189 75
q94 0 163 -32v-39z" />
    <glyph glyph-name="Ccaron" unicode="&#x10c;" horiz-adv-x="659" 
d="M432 830h-47l-128 145l36 10l115 -118l115 118l36 -10zM605 677q-87 28 -177 28q-140 0 -225 -92t-85 -243t86.5 -243t227.5 -92q98 0 183 29v-43q-96 -31 -195 -31q-161 0 -259.5 104.5t-98.5 275.5t97 275.5t255 104.5q93 0 191 -30v-43z" />
    <glyph glyph-name="ccaron" unicode="&#x10d;" horiz-adv-x="540" 
d="M340 615h-47l-128 145l36 10l115 -118l115 118l36 -10zM481 464q-72 30 -151 30q-99 0 -159.5 -63.5t-60.5 -167.5t61 -168t161 -64q76 0 159 34v-39q-75 -36 -173 -36q-117 0 -189 75t-72 198q0 122 72 197t189 75q94 0 163 -32v-39z" />
    <glyph glyph-name="Dcaron" unicode="&#x10e;" horiz-adv-x="769" 
d="M306 830l-128 145l36 10l115 -118l115 118l36 -10l-127 -145h-47zM350 740q161 0 259 -102.5t98 -269.5q0 -166 -98 -267t-259 -101h-237v740h237zM342 45q139 0 224 88.5t85 234.5q0 147 -85 237t-224 90h-175v-650h175z" />
    <glyph glyph-name="dcaron" unicode="&#x10f;" horiz-adv-x="683" 
d="M504 771l50 14v-789q-25 0 -49 13q-78 -19 -163 -19q-128 0 -206.5 73.5t-78.5 194.5q0 125 70 201t185 76q122 0 192 -67v303zM730 771l-68 -206l-42 11l60 209zM110 260q0 -103 67 -166t178 -63q70 0 149 19v373q-71 71 -180 71q-97 0 -155.5 -64.5t-58.5 -169.5z" />
    <glyph glyph-name="Dcroat" unicode="&#x110;" horiz-adv-x="769" 
d="M350 740q161 0 259 -102.5t98 -269.5q0 -166 -98 -267t-259 -101h-237v351h-85v39h85v350h237zM342 45q139 0 224 88.5t85 234.5q0 147 -85 237t-224 90h-175v-305h134v-39h-134v-306h175z" />
    <glyph glyph-name="dcroat" unicode="&#x111;" horiz-adv-x="647" 
d="M629 642h-75v-646q-25 0 -49 13q-78 -19 -163 -19q-128 0 -206.5 73.5t-78.5 194.5q0 125 70 201t185 76q122 0 192 -67v174h-148v39h148v90l50 14v-104h75v-39zM110 260q0 -103 67 -166t178 -63q70 0 149 19v373q-71 71 -180 71q-97 0 -155.5 -64.5t-58.5 -169.5z" />
    <glyph glyph-name="Emacron" unicode="&#x112;" horiz-adv-x="630" 
d="M474 874h-295v39h295v-39zM562 45v-45h-449v740h440v-45h-386v-294h363v-45h-363v-311h395z" />
    <glyph glyph-name="emacron" unicode="&#x113;" horiz-adv-x="575" 
d="M439 659h-295v39h295v-39zM524 243h-413q6 -99 58.5 -155.5t142.5 -56.5q85 0 177 35v-40q-83 -36 -186 -36q-111 0 -178 75t-67 200q0 121 64.5 195.5t169.5 74.5q104 0 168.5 -73.5t64.5 -192.5zM292 495q-81 0 -130 -59t-52 -157h363q-3 98 -52 157t-129 59z" />
    <glyph glyph-name="Edotaccent" unicode="&#x116;" horiz-adv-x="630" 
d="M327 867q-16 0 -26.5 10.5t-10.5 26.5t10.5 26.5t26.5 10.5t27 -10.5t11 -26.5t-11 -26.5t-27 -10.5zM562 45v-45h-449v740h440v-45h-386v-294h363v-45h-363v-311h395z" />
    <glyph glyph-name="edotaccent" unicode="&#x117;" horiz-adv-x="575" 
d="M292 652q-16 0 -26.5 10.5t-10.5 26.5t10.5 26.5t26.5 10.5t27 -10.5t11 -26.5t-11 -26.5t-27 -10.5zM524 243h-413q6 -99 58.5 -155.5t142.5 -56.5q85 0 177 35v-40q-83 -36 -186 -36q-111 0 -178 75t-67 200q0 121 64.5 195.5t169.5 74.5q104 0 168.5 -73.5
t64.5 -192.5zM292 495q-81 0 -130 -59t-52 -157h363q-3 98 -52 157t-129 59z" />
    <glyph glyph-name="Eogonek" unicode="&#x118;" horiz-adv-x="630" 
d="M562 45v-45q-68 -53 -96.5 -89t-28.5 -71q0 -17 14.5 -28t37.5 -11q34 0 59 11v-30q-26 -12 -65 -12q-38 0 -61.5 18.5t-23.5 48.5q0 42 27 80t88 83h-400v740h440v-45h-386v-294h363v-45h-363v-311h395z" />
    <glyph glyph-name="eogonek" unicode="&#x119;" horiz-adv-x="575" 
d="M524 243h-413q6 -99 58.5 -155.5t142.5 -56.5q85 0 177 35v-40q-68 -60 -96.5 -100t-28.5 -79q0 -20 14.5 -33t37.5 -13q34 0 59 11v-30q-26 -12 -65 -12q-38 0 -61.5 20.5t-23.5 53.5q0 80 92 159q-62 -13 -114 -13q-111 0 -178 75t-67 200q0 121 64.5 195.5t169.5 74.5
q104 0 168.5 -73.5t64.5 -192.5zM292 495q-81 0 -130 -59t-52 -157h363q-3 98 -52 157t-129 59z" />
    <glyph glyph-name="Ecaron" unicode="&#x11a;" horiz-adv-x="630" 
d="M304 830l-128 145l36 10l115 -118l115 118l36 -10l-127 -145h-47zM562 45v-45h-449v740h440v-45h-386v-294h363v-45h-363v-311h395z" />
    <glyph glyph-name="ecaron" unicode="&#x11b;" horiz-adv-x="575" 
d="M269 615l-128 145l36 10l115 -118l115 118l36 -10l-127 -145h-47zM524 243h-413q6 -99 58.5 -155.5t142.5 -56.5q85 0 177 35v-40q-83 -36 -186 -36q-111 0 -178 75t-67 200q0 121 64.5 195.5t169.5 74.5q104 0 168.5 -73.5t64.5 -192.5zM292 495q-81 0 -130 -59
t-52 -157h363q-3 98 -52 157t-129 59z" />
    <glyph glyph-name="Gbreve" unicode="&#x11e;" horiz-adv-x="741" 
d="M412 825q-69 0 -111 40t-42 107l43 12q0 -56 30 -90.5t80 -34.5t80 34.5t30 90.5l43 -12q0 -67 -42 -107t-111 -40zM666 -4q-31 0 -54 14q-90 -20 -182 -20q-176 0 -272 105.5t-96 272.5q0 172 98.5 277t254.5 105q108 0 221 -40v-43q-102 38 -208 38
q-139 0 -224.5 -92.5t-85.5 -245.5q0 -150 84 -241t238 -91q79 0 172 18v301h-223v45h277v-403z" />
    <glyph glyph-name="gbreve" unicode="&#x11f;" horiz-adv-x="569" 
d="M298 610q-69 0 -111 40t-42 107l43 12q0 -56 30 -90.5t80 -34.5t80 34.5t30 90.5l43 -12q0 -67 -42 -107t-111 -40zM109 126q0 -24 11.5 -41t26 -25.5t45.5 -14t50 -6.5l59 -3q38 -1 57 -2.5t52 -5.5t50 -12.5t36.5 -22t28 -35.5t8.5 -52q0 -66 -55 -101t-193 -35
q-119 0 -198 33v37q82 -32 197 -32q104 0 151.5 22t47.5 70q0 20 -6.5 35.5t-22.5 24.5t-30 15t-41.5 9t-44 4t-49.5 2q-36 1 -56 2t-51.5 5t-48.5 12t-36 21t-27 33.5t-8 48.5q0 75 70 129q-40 46 -40 114q0 63 34.5 109t94.5 62l250 69l11 -38l-123 -30q65 -17 103.5 -64
t38.5 -112q0 -79 -56 -127.5t-148 -48.5q-87 0 -142 44q-46 -37 -46 -93zM295 499q-68 0 -110 -39.5t-42 -104.5t42 -104.5t112 -39.5q68 0 110.5 39t42.5 103q0 66 -42.5 106t-112.5 40z" />
    <glyph glyph-name="Gdotaccent" unicode="&#x120;" horiz-adv-x="741" 
d="M412 867q-16 0 -26.5 10.5t-10.5 26.5t10.5 26.5t26.5 10.5t27 -10.5t11 -26.5t-11 -26.5t-27 -10.5zM666 -4q-31 0 -54 14q-90 -20 -182 -20q-176 0 -272 105.5t-96 272.5q0 172 98.5 277t254.5 105q108 0 221 -40v-43q-102 38 -208 38q-139 0 -224.5 -92.5
t-85.5 -245.5q0 -150 84 -241t238 -91q79 0 172 18v301h-223v45h277v-403z" />
    <glyph glyph-name="gdotaccent" unicode="&#x121;" horiz-adv-x="569" 
d="M298 652q-16 0 -26.5 10.5t-10.5 26.5t10.5 26.5t26.5 10.5t27 -10.5t11 -26.5t-11 -26.5t-27 -10.5zM109 126q0 -24 11.5 -41t26 -25.5t45.5 -14t50 -6.5l59 -3q38 -1 57 -2.5t52 -5.5t50 -12.5t36.5 -22t28 -35.5t8.5 -52q0 -66 -55 -101t-193 -35q-119 0 -198 33v37
q82 -32 197 -32q104 0 151.5 22t47.5 70q0 20 -6.5 35.5t-22.5 24.5t-30 15t-41.5 9t-44 4t-49.5 2q-36 1 -56 2t-51.5 5t-48.5 12t-36 21t-27 33.5t-8 48.5q0 75 70 129q-40 46 -40 114q0 63 34.5 109t94.5 62l250 69l11 -38l-123 -30q65 -17 103.5 -64t38.5 -112
q0 -79 -56 -127.5t-148 -48.5q-87 0 -142 44q-46 -37 -46 -93zM295 499q-68 0 -110 -39.5t-42 -104.5t42 -104.5t112 -39.5q68 0 110.5 39t42.5 103q0 66 -42.5 106t-112.5 40z" />
    <glyph glyph-name="Gcommaaccent" unicode="&#x122;" horiz-adv-x="741" 
d="M666 -4q-31 0 -54 14q-90 -20 -182 -20q-176 0 -272 105.5t-96 272.5q0 172 98.5 277t254.5 105q108 0 221 -40v-43q-102 38 -208 38q-139 0 -224.5 -92.5t-85.5 -245.5q0 -150 84 -241t238 -91q79 0 172 18v301h-223v45h277v-403zM423 -50q16 0 26 -14t10 -38
q0 -74 -64 -128q-3 18 -3 35q0 37 22 69q-28 8 -28 37q0 17 11 28t26 11z" />
    <glyph glyph-name="gcommaaccent" unicode="&#x123;" horiz-adv-x="569" 
d="M298 613q-16 0 -26.5 14t-10.5 38q0 73 64 128q3 -19 3 -35q0 -38 -22 -70q28 -6 28 -36q0 -17 -10.5 -28t-25.5 -11zM109 126q0 -24 11.5 -41t26 -25.5t45.5 -14t50 -6.5l59 -3q38 -1 57 -2.5t52 -5.5t50 -12.5t36.5 -22t28 -35.5t8.5 -52q0 -66 -55 -101t-193 -35
q-119 0 -198 33v37q82 -32 197 -32q104 0 151.5 22t47.5 70q0 20 -6.5 35.5t-22.5 24.5t-30 15t-41.5 9t-44 4t-49.5 2q-36 1 -56 2t-51.5 5t-48.5 12t-36 21t-27 33.5t-8 48.5q0 75 70 129q-40 46 -40 114q0 63 34.5 109t94.5 62l250 69l11 -38l-123 -30q65 -17 103.5 -64
t38.5 -112q0 -79 -56 -127.5t-148 -48.5q-87 0 -142 44q-46 -37 -46 -93zM295 499q-68 0 -110 -39.5t-42 -104.5t42 -104.5t112 -39.5q68 0 110.5 39t42.5 103q0 66 -42.5 106t-112.5 40z" />
    <glyph glyph-name="Hbar" unicode="&#x126;" horiz-adv-x="815" 
d="M775 561h-73v-561h-54v353h-481v-353h-54v561h-71v39h71v140h54v-140h481v140h54v-140h73v-39zM648 561h-481v-163h481v163z" />
    <glyph glyph-name="hbar" unicode="&#x127;" horiz-adv-x="646" 
d="M352 535q98 0 152.5 -50t54.5 -143v-342h-50v336q0 75 -46 116.5t-129 41.5t-191 -21v-473h-50v642h-74v39h74v90l50 14v-104h149v-39h-149v-128q102 21 209 21z" />
    <glyph glyph-name="Imacron" unicode="&#x12a;" horiz-adv-x="280" 
d="M287 913v-39h-294v39h294zM167 0h-54v740h54v-740z" />
    <glyph glyph-name="imacron" unicode="&#x12b;" horiz-adv-x="236" 
d="M265 698v-39h-295v39h295zM143 525v-525h-50v525h50z" />
    <glyph glyph-name="Iogonek" unicode="&#x12e;" horiz-adv-x="280" 
d="M167 740v-740q-50 -52 -71 -88t-21 -72q0 -17 11 -28t28 -11q28 0 47 11v-30q-20 -12 -52 -12q-33 0 -53 18.5t-20 48.5q0 43 21 80.5t71 82.5h-15v740h54z" />
    <glyph glyph-name="iogonek" unicode="&#x12f;" horiz-adv-x="236" 
d="M117 726q16 0 27 -10.5t11 -26.5t-11 -26.5t-27 -10.5t-26.5 10.5t-10.5 26.5t10.5 26.5t26.5 10.5zM93 525h50v-525q-50 -52 -71 -88t-21 -72q0 -17 11 -28t28 -11q28 0 47 11v-30q-20 -12 -52 -12q-33 0 -53 18.5t-20 48.5q0 43 21 80.5t71 82.5h-11v525z" />
    <glyph glyph-name="Idotaccent" unicode="&#x130;" horiz-adv-x="280" 
d="M140 867q-16 0 -26.5 10.5t-10.5 26.5t10.5 26.5t26.5 10.5t27 -10.5t11 -26.5t-11 -26.5t-27 -10.5zM167 0h-54v740h54v-740z" />
    <glyph glyph-name="dotlessi" unicode="&#x131;" horiz-adv-x="236" 
d="M143 525v-525h-50v525h50z" />
    <glyph glyph-name="Kcommaaccent" unicode="&#x136;" horiz-adv-x="658" 
d="M224 380q221 -175 426 -380h-69q-210 207 -414 370v-370h-54v740h54v-351q207 166 397 351h69q-189 -186 -409 -360zM358 -50q16 0 26 -14t10 -38q0 -74 -64 -128q-3 18 -3 35q0 37 22 69q-28 8 -28 37q0 17 10.5 28t26.5 11z" />
    <glyph glyph-name="kcommaaccent" unicode="&#x137;" horiz-adv-x="531" 
d="M202 278q163 -126 327 -278h-67q-164 152 -319 268v-268h-50v771l50 14v-501h1q182 131 301 241h66q-143 -132 -309 -247zM281 -50q16 0 26 -14t10 -38q0 -74 -64 -128q-3 18 -3 35q0 37 22 69q-28 8 -28 37q0 17 11 28t26 11z" />
    <glyph glyph-name="Lacute" unicode="&#x139;" horiz-adv-x="543" 
d="M148 831l-36 10l128 145l50 -15zM524 45v-45h-411v740h54v-695h357z" />
    <glyph glyph-name="lacute" unicode="&#x13a;" horiz-adv-x="236" 
d="M90 881l36 -10l142 140l-50 15zM93 771l50 14v-785h-50v771z" />
    <glyph glyph-name="Lcommaaccent" unicode="&#x13b;" horiz-adv-x="543" 
d="M524 45v-45h-411v740h54v-695h357zM312 -50q16 0 26 -14t10 -38q0 -74 -64 -128q-3 18 -3 35q0 37 22 69q-28 8 -28 37q0 17 10.5 28t26.5 11z" />
    <glyph glyph-name="lcommaaccent" unicode="&#x13c;" horiz-adv-x="236" 
d="M143 0h-50v771l50 14v-785zM118 -50q16 0 26 -14t10 -38q0 -74 -64 -128q-3 18 -3 35q0 37 22 69q-28 8 -28 37q0 17 10.5 28t26.5 11z" />
    <glyph glyph-name="Lcaron" unicode="&#x13d;" horiz-adv-x="524" 
d="M357 524l-44 12l60 209l52 -15zM524 45v-45h-411v740h54v-695h357z" />
    <glyph glyph-name="lcaron" unicode="&#x13e;" horiz-adv-x="272" 
d="M93 771l50 14v-785h-50v771zM209 576l42 -11l68 206l-50 14z" />
    <glyph glyph-name="Lslash" unicode="&#x141;" horiz-adv-x="547" 
d="M528 45v-45h-411v347l-91 -25v42l91 25v351h54v-338l147 42v-42l-147 -42v-315h357z" />
    <glyph glyph-name="lslash" unicode="&#x142;" horiz-adv-x="287" 
d="M262 415l-93 -27v-388h-50v378l-94 -27v42l94 27v351l50 14v-355l93 27v-42z" />
    <glyph glyph-name="Nacute" unicode="&#x143;" horiz-adv-x="845" 
d="M431 831l-36 10l128 145l50 -15zM732 740v-750q-14 0 -48.5 32.5t-94 103.5l-101.5 122.5l-119 148.5q-159 200 -203 248l1 -645h-54v750q14 0 48 -32t95.5 -105l100.5 -121.5l119 -149.5q152 -192 203 -248l-1 646h54z" />
    <glyph glyph-name="nacute" unicode="&#x144;" horiz-adv-x="646" 
d="M334 616l-36 10l128 145l50 -15zM352 535q98 0 152.5 -50t54.5 -143v-342h-50v336q0 75 -46 116.5t-129 41.5q-85 0 -191 -19v-475h-50v529q30 0 50 -14q105 20 209 20z" />
    <glyph glyph-name="Ncommaaccent" unicode="&#x145;" horiz-adv-x="845" 
d="M732 740v-750q-14 0 -48.5 32.5t-94 103.5l-101.5 122.5l-119 148.5q-159 200 -203 248l1 -645h-54v750q14 0 48 -32t95.5 -105l100.5 -121.5l119 -149.5q152 -192 203 -248l-1 646h54zM423 -50q16 0 26 -14t10 -38q0 -74 -64 -128q-3 18 -3 35q0 37 22 69q-28 8 -28 37
q0 17 11 28t26 11z" />
    <glyph glyph-name="ncommaaccent" unicode="&#x146;" horiz-adv-x="646" 
d="M352 535q98 0 152.5 -50t54.5 -143v-342h-50v336q0 75 -46 116.5t-129 41.5q-85 0 -191 -19v-475h-50v529q30 0 50 -14q105 20 209 20zM326 -50q16 0 26 -14t10 -38q0 -74 -64 -128q-3 18 -3 35q0 37 22 69q-28 8 -28 37q0 17 10.5 28t26.5 11z" />
    <glyph glyph-name="Ncaron" unicode="&#x147;" horiz-adv-x="845" 
d="M400 830l-128 145l36 10l115 -118l115 118l36 -10l-127 -145h-47zM732 740v-750q-14 0 -48.5 32.5t-94 103.5l-101.5 122.5l-119 148.5q-159 200 -203 248l1 -645h-54v750q14 0 48 -32t95.5 -105l100.5 -121.5l119 -149.5q152 -192 203 -248l-1 646h54z" />
    <glyph glyph-name="ncaron" unicode="&#x148;" horiz-adv-x="646" 
d="M303 615l-128 145l36 10l115 -118l115 118l36 -10l-127 -145h-47zM352 535q98 0 152.5 -50t54.5 -143v-342h-50v336q0 75 -46 116.5t-129 41.5q-85 0 -191 -19v-475h-50v529q30 0 50 -14q105 20 209 20z" />
    <glyph glyph-name="Eng" unicode="&#x14a;" horiz-adv-x="845" 
d="M732 740v-774q0 -88 -55 -142t-144 -54q-88 0 -171 35v43q75 -33 158 -33q71 0 114.5 45t43.5 119v50q-68 67 -304 362q-169 212 -208 254l1 -645h-54v750q14 0 48 -32t95.5 -105l100.5 -121.5l119 -149.5q152 -192 203 -248l-1 646h54z" />
    <glyph glyph-name="eng" unicode="&#x14b;" horiz-adv-x="646" 
d="M352 535q98 0 152.5 -50t54.5 -143v-436q0 -61 -38.5 -98.5t-100.5 -37.5q-41 0 -84 10v40q33 -9 70 -9q46 0 74.5 27.5t28.5 72.5v425q0 75 -46 116.5t-129 41.5q-85 0 -191 -19v-475h-50v529q30 0 50 -14q105 20 209 20z" />
    <glyph glyph-name="Omacron" unicode="&#x14c;" horiz-adv-x="851" 
d="M573 913v-39h-295v39h295zM426 -10q-164 0 -264 104.5t-100 275.5t100 275.5t264 104.5q163 0 263 -104.5t100 -275.5t-100 -275.5t-263 -104.5zM427 35q137 0 221.5 92t84.5 243t-84.5 243t-221.5 92q-139 0 -223.5 -92t-84.5 -243t84.5 -243t223.5 -92z" />
    <glyph glyph-name="omacron" unicode="&#x14d;" horiz-adv-x="641" 
d="M468 698v-39h-295v39h295zM321 -10q-119 0 -191.5 75t-72.5 198q0 122 72.5 197t191.5 75q118 0 190.5 -75t72.5 -197q0 -123 -72.5 -198t-190.5 -75zM321 31q94 0 152 64t58 168t-58 167.5t-152 63.5q-95 0 -153 -63.5t-58 -167.5t58 -168t153 -64z" />
    <glyph glyph-name="Ohungarumlaut" unicode="&#x150;" horiz-adv-x="851" 
d="M337 841l36 -10l121 140l-51 15zM469 841l36 -10l121 140l-51 15zM426 -10q-164 0 -264 104.5t-100 275.5t100 275.5t264 104.5q163 0 263 -104.5t100 -275.5t-100 -275.5t-263 -104.5zM427 35q137 0 221.5 92t84.5 243t-84.5 243t-221.5 92q-139 0 -223.5 -92
t-84.5 -243t84.5 -243t223.5 -92z" />
    <glyph glyph-name="ohungarumlaut" unicode="&#x151;" horiz-adv-x="641" 
d="M232 626l36 -10l121 140l-51 15zM364 626l36 -10l121 140l-51 15zM321 -10q-119 0 -191.5 75t-72.5 198q0 122 72.5 197t191.5 75q118 0 190.5 -75t72.5 -197q0 -123 -72.5 -198t-190.5 -75zM321 31q94 0 152 64t58 168t-58 167.5t-152 63.5q-95 0 -153 -63.5t-58 -167.5
t58 -168t153 -64z" />
    <glyph glyph-name="OE" unicode="&#x152;" horiz-adv-x="1252" 
d="M1184 45v-45h-449v172q-44 -86 -125 -134t-187 -48q-162 0 -261.5 104.5t-99.5 275.5t99.5 275.5t261.5 104.5q106 0 187 -48t125 -134v172h440v-45h-386v-294h363v-45h-363v-311h395zM427 35q137 0 221.5 92t84.5 243t-84.5 243t-221.5 92q-139 0 -223.5 -92t-84.5 -243
t84.5 -243t223.5 -92z" />
    <glyph glyph-name="oe" unicode="&#x153;" horiz-adv-x="1048" 
d="M998 269l-1 -26h-413q6 -99 58.5 -155.5t142.5 -56.5q84 0 176 35v-40q-79 -36 -178 -36q-84 0 -143 44.5t-83 124.5q-26 -79 -88.5 -124t-150.5 -45q-117 0 -189 75t-72 198q0 122 72 197t189 75q87 0 149.5 -44.5t88.5 -122.5q23 78 79 122.5t134 44.5q103 0 166 -73.5
t63 -192.5zM765 495q-81 0 -130 -59t-52 -157h363q-3 98 -52 157t-129 59zM321 31q94 0 152 64t58 168t-58 167.5t-152 63.5q-95 0 -153 -63.5t-58 -167.5t58 -168t153 -64z" />
    <glyph glyph-name="Racute" unicode="&#x154;" horiz-adv-x="693" 
d="M332 831l-36 10l128 145l50 -15zM358 281q143 -114 309 -281h-68q-166 166 -369 328q59 -10 141 -10q86 0 138 51.5t52 136.5t-52.5 137t-138.5 52h-203v-695h-54v740h266q108 0 173.5 -63t65.5 -167t-65.5 -167t-167.5 -63q-18 0 -27 1z" />
    <glyph glyph-name="racute" unicode="&#x155;" horiz-adv-x="369" 
d="M220 616l-36 10l128 145l50 -15zM93 529q28 0 49 -13q79 19 210 19v-46q-119 0 -209 -18v-471h-50v529z" />
    <glyph glyph-name="Rcommaaccent" unicode="&#x156;" horiz-adv-x="693" 
d="M358 281q143 -114 309 -281h-68q-166 166 -369 328q59 -10 141 -10q86 0 138 51.5t52 136.5t-52.5 137t-138.5 52h-203v-695h-54v740h266q108 0 173.5 -63t65.5 -167t-65.5 -167t-167.5 -63q-18 0 -27 1zM357 -50q16 0 26 -14t10 -38q0 -74 -64 -128q-3 18 -3 35
q0 37 22 69q-28 8 -28 37q0 17 11 28t26 11z" />
    <glyph glyph-name="rcommaaccent" unicode="&#x157;" horiz-adv-x="369" 
d="M142 516q79 19 210 19v-46q-119 0 -209 -18v-471h-50v529q28 0 49 -13zM131 -50q16 0 26 -14t10 -38q0 -74 -64 -128q-3 18 -3 35q0 37 22 69q-28 8 -28 37q0 17 11 28t26 11z" />
    <glyph glyph-name="Rcaron" unicode="&#x158;" horiz-adv-x="693" 
d="M301 830l-128 145l36 10l115 -118l115 118l36 -10l-127 -145h-47zM358 281q143 -114 309 -281h-68q-166 166 -369 328q59 -10 141 -10q86 0 138 51.5t52 136.5t-52.5 137t-138.5 52h-203v-695h-54v740h266q108 0 173.5 -63t65.5 -167t-65.5 -167t-167.5 -63q-18 0 -27 1z
" />
    <glyph glyph-name="rcaron" unicode="&#x159;" horiz-adv-x="369" 
d="M189 615l-128 145l36 10l115 -118l115 118l36 -10l-127 -145h-47zM93 529q28 0 49 -13q79 19 210 19v-46q-119 0 -209 -18v-471h-50v529z" />
    <glyph glyph-name="Sacute" unicode="&#x15a;" horiz-adv-x="604" 
d="M275 841l36 -10l142 140l-50 15zM491 189q0 70 -50 109t-145 61l-47 11q-44 10 -74 22t-58.5 32t-43 51.5t-14.5 75.5q0 96 63 147.5t176 51.5q109 0 218 -45v-42q-113 43 -208 43q-93 0 -143.5 -38.5t-50.5 -108.5q0 -33 12 -56.5t38.5 -38.5t49 -23t64.5 -18l48 -12
q52 -13 87.5 -27.5t67.5 -39t48 -62t16 -88.5q0 -95 -63 -149.5t-175 -54.5q-58 0 -121 14t-102 38v42q104 -50 206 -50q95 0 148 41t53 114z" />
    <glyph glyph-name="sacute" unicode="&#x15b;" horiz-adv-x="451" 
d="M198 626l36 -10l142 140l-50 15zM344 135q0 79 -105 105l-54 13q-64 15 -96.5 47t-32.5 91q0 68 44 106t123 38t153 -32v-38q-77 30 -144 30q-59 0 -91.5 -25.5t-32.5 -71.5q0 -40 24.5 -62t74.5 -34l54 -13q136 -32 136 -149q0 -71 -44.5 -110.5t-123.5 -39.5
q-95 0 -157 37v38q74 -35 144 -35q61 0 94.5 27.5t33.5 77.5z" />
    <glyph glyph-name="Scedilla" unicode="&#x15e;" horiz-adv-x="604" 
d="M545 194q0 -93 -60.5 -147.5t-167.5 -56.5l-52 -54h7q44 0 71 -21.5t27 -57.5q0 -39 -30.5 -63t-79.5 -24q-44 0 -79 16v28q34 -13 73 -13q34 0 55.5 15.5t21.5 40.5q0 23 -20.5 37.5t-54.5 14.5q-26 0 -50 -6q0 14 68 88q-122 9 -190 51v42q104 -50 206 -50q95 0 148 41
t53 114q0 70 -50 109t-145 61l-47 11q-44 10 -74 22t-58.5 32t-43 51.5t-14.5 75.5q0 96 63 147.5t176 51.5q109 0 218 -45v-42q-113 43 -208 43q-93 0 -143.5 -38.5t-50.5 -108.5q0 -33 12 -56.5t38.5 -38.5t49 -23t64.5 -18l48 -12q52 -13 87.5 -27.5t67.5 -39t48 -62
t16 -88.5z" />
    <glyph glyph-name="scedilla" unicode="&#x15f;" horiz-adv-x="451" 
d="M397 140q0 -69 -41.5 -108t-115.5 -42l-52 -54h7q44 0 71 -21.5t27 -57.5q0 -39 -30.5 -63t-79.5 -24q-44 0 -79 16v28q34 -13 73 -13q34 0 55.5 15.5t21.5 40.5q0 23 -20.5 37.5t-54.5 14.5q-26 0 -50 -6q0 13 68 89q-78 7 -125 35v38q74 -35 144 -35q61 0 94.5 27.5
t33.5 77.5q0 79 -105 105l-54 13q-64 15 -96.5 47t-32.5 91q0 68 44 106t123 38t153 -32v-38q-77 30 -144 30q-59 0 -91.5 -25.5t-32.5 -71.5q0 -40 24.5 -62t74.5 -34l54 -13q136 -32 136 -149z" />
    <glyph glyph-name="Scaron" unicode="&#x160;" horiz-adv-x="604" 
d="M327 830h-47l-128 145l36 10l115 -118l115 118l36 -10zM491 189q0 70 -50 109t-145 61l-47 11q-44 10 -74 22t-58.5 32t-43 51.5t-14.5 75.5q0 96 63 147.5t176 51.5q109 0 218 -45v-42q-113 43 -208 43q-93 0 -143.5 -38.5t-50.5 -108.5q0 -33 12 -56.5t38.5 -38.5
t49 -23t64.5 -18l48 -12q52 -13 87.5 -27.5t67.5 -39t48 -62t16 -88.5q0 -95 -63 -149.5t-175 -54.5q-58 0 -121 14t-102 38v42q104 -50 206 -50q95 0 148 41t53 114z" />
    <glyph glyph-name="scaron" unicode="&#x161;" horiz-adv-x="451" 
d="M250 615h-47l-128 145l36 10l115 -118l115 118l36 -10zM344 135q0 79 -105 105l-54 13q-64 15 -96.5 47t-32.5 91q0 68 44 106t123 38t153 -32v-38q-77 30 -144 30q-59 0 -91.5 -25.5t-32.5 -71.5q0 -40 24.5 -62t74.5 -34l54 -13q136 -32 136 -149q0 -71 -44.5 -110.5
t-123.5 -39.5q-95 0 -157 37v38q74 -35 144 -35q61 0 94.5 27.5t33.5 77.5z" />
    <glyph glyph-name="uni0162" unicode="&#x162;" horiz-adv-x="574" 
d="M309 0l-28 -36l-22 -28h12q44 0 71 -21.5t27 -57.5q0 -39 -30.5 -63t-79.5 -24q-44 0 -79 16v28q34 -13 73 -13q34 0 55.5 15.5t21.5 40.5q0 23 -20.5 37.5t-54.5 14.5q-18 0 -50 -6q0 12 60 97h-5v695h-243v45h540v-45h-243v-695h-5z" />
    <glyph glyph-name="uni0163" unicode="&#x163;" horiz-adv-x="359" 
d="M251 -10q-9 0 -23 2q-9 -10 -27.5 -29t-25.5 -27h7q44 0 71 -21.5t27 -57.5q0 -39 -30.5 -63t-79.5 -24q-44 0 -79 16v28q34 -13 73 -13q34 0 55.5 15.5t21.5 40.5q0 23 -20.5 37.5t-54.5 14.5q-26 0 -50 -6q0 12 77 98q-39 16 -60.5 52.5t-21.5 87.5v346h-76v38h76v140
l50 14v-154h175v-38h-175v-338q0 -53 28.5 -85.5t75.5 -32.5q40 0 76 9v-39q-36 -11 -90 -11z" />
    <glyph glyph-name="Tcaron" unicode="&#x164;" horiz-adv-x="574" 
d="M265 830l-128 145l36 10l115 -118l115 118l36 -10l-127 -145h-47zM557 695h-243v-695h-54v695h-243v45h540v-45z" />
    <glyph glyph-name="tcaron" unicode="&#x165;" horiz-adv-x="359" 
d="M269 585l-42 11l60 209l50 -14zM265 31q40 0 76 9v-39q-36 -11 -90 -11q-63 0 -101.5 41.5t-38.5 109.5v346h-76v38h76v140l50 14v-154h175v-38h-175v-338q0 -53 28.5 -85.5t75.5 -32.5z" />
    <glyph glyph-name="Tbar" unicode="&#x166;" horiz-adv-x="574" 
d="M314 695v-305h110v-39h-110v-351h-54v351h-109v39h109v305h-243v45h540v-45h-243z" />
    <glyph glyph-name="tbar" unicode="&#x167;" horiz-adv-x="359" 
d="M265 31q40 0 76 9v-39q-36 -11 -90 -11q-63 0 -101.5 41.5t-38.5 109.5v113h-63v39h63v194h-76v38h76v140l50 14v-154h175v-38h-175v-194h160v-39h-160v-105q0 -53 28.5 -85.5t75.5 -32.5z" />
    <glyph glyph-name="Umacron" unicode="&#x16a;" horiz-adv-x="803" 
d="M548 913v-39h-295v39h295zM699 740v-499q0 -113 -82 -182t-216 -69t-215.5 69t-81.5 182v499h54v-492q0 -95 67 -154t177 -59q109 0 176 59t67 154v492h54z" />
    <glyph glyph-name="umacron" unicode="&#x16b;" horiz-adv-x="635" 
d="M462 659h-295v39h295v-39zM542 -4q-25 0 -49 13q-97 -19 -199 -19q-98 0 -152.5 50t-54.5 143v342h50v-336q0 -75 46 -116.5t129 -41.5q80 0 180 19v475h50v-529z" />
    <glyph glyph-name="Uring" unicode="&#x16e;" horiz-adv-x="803" 
d="M401 807q-51 0 -82 26.5t-31 69.5q0 44 31 70.5t82 26.5t82 -26.5t31 -70.5q0 -43 -31 -69.5t-82 -26.5zM401 835q35 0 56.5 18.5t21.5 49.5t-21.5 50t-56.5 19t-57 -19t-22 -50t22 -49.5t57 -18.5zM699 740v-499q0 -113 -82 -182t-216 -69t-215.5 69t-81.5 182v499h54
v-492q0 -95 67 -154t177 -59q109 0 176 59t67 154v492h54z" />
    <glyph glyph-name="uring" unicode="&#x16f;" horiz-adv-x="635" 
d="M315 592q-51 0 -82 26.5t-31 69.5q0 44 31 70.5t82 26.5t82 -26.5t31 -70.5q0 -43 -31 -69.5t-82 -26.5zM315 757q-35 0 -57 -19t-22 -50t22 -49.5t57 -18.5t56.5 18.5t21.5 49.5t-21.5 50t-56.5 19zM542 -4q-25 0 -49 13q-97 -19 -199 -19q-98 0 -152.5 50t-54.5 143
v342h50v-336q0 -75 46 -116.5t129 -41.5q80 0 180 19v475h50v-529z" />
    <glyph glyph-name="Uhungarumlaut" unicode="&#x170;" horiz-adv-x="803" 
d="M312 841l36 -10l121 140l-51 15zM444 841l36 -10l121 140l-51 15zM699 740v-499q0 -113 -82 -182t-216 -69t-215.5 69t-81.5 182v499h54v-492q0 -95 67 -154t177 -59q109 0 176 59t67 154v492h54z" />
    <glyph glyph-name="uhungarumlaut" unicode="&#x171;" horiz-adv-x="635" 
d="M262 616l-36 10l106 145l51 -15zM358 626l106 145l51 -15l-121 -140zM542 -4q-25 0 -49 13q-97 -19 -199 -19q-98 0 -152.5 50t-54.5 143v342h50v-336q0 -75 46 -116.5t129 -41.5q80 0 180 19v475h50v-529z" />
    <glyph glyph-name="Uogonek" unicode="&#x172;" horiz-adv-x="803" 
d="M699 740v-499q0 -85 -48 -146t-133 -89q-86 -28 -122 -73t-36 -84q0 -22 14.5 -35t37.5 -13q34 0 59 11v-30q-26 -12 -65 -12q-38 0 -61.5 20t-23.5 54q0 80 102 147q-7 -1 -22 -1q-134 0 -215.5 69t-81.5 182v499h54v-492q0 -95 67 -154t177 -59q109 0 176 59t67 154
v492h54z" />
    <glyph glyph-name="uogonek" unicode="&#x173;" horiz-adv-x="635" 
d="M542 525v-529q-68 -51 -96.5 -86t-28.5 -70q0 -17 14.5 -28t37.5 -11q34 0 59 11v-30q-26 -12 -65 -12q-38 0 -61.5 18.5t-23.5 48.5q0 43 29 81.5t96 85.5l-10 5q-97 -19 -199 -19q-98 0 -152.5 50t-54.5 143v342h50v-336q0 -75 46 -116.5t129 -41.5q80 0 180 19v475h50
z" />
    <glyph glyph-name="Wcircumflex" unicode="&#x174;" horiz-adv-x="1161" 
d="M696 831l-115 118l-115 -118l-36 10l128 145h47l127 -145zM1144 740q-122 -373 -292 -750h-8q-154 347 -263 672q-114 -336 -265 -672h-7q-170 377 -292 750h58q101 -324 241 -649q144 334 245 649h39q103 -321 246 -649q141 331 240 649h58z" />
    <glyph glyph-name="wcircumflex" unicode="&#x175;" horiz-adv-x="863" 
d="M547 616l-115 118l-115 -118l-36 10l128 145h47l127 -145zM838 525q-84 -254 -213 -535h-8q-107 238 -185 468q-83 -241 -187 -468h-8q-128 284 -213 535h55q67 -220 164 -445q104 241 166 445h44q69 -221 167 -445q96 226 164 445h54z" />
    <glyph glyph-name="Ycircumflex" unicode="&#x176;" horiz-adv-x="647" 
d="M209 831l-36 10l128 145h47l127 -145l-36 -10l-115 118zM628 740q-137 -236 -277 -425v-315h-54v314q-146 198 -278 426h58q121 -210 247 -382q132 186 246 382h58z" />
    <glyph glyph-name="ycircumflex" unicode="&#x177;" horiz-adv-x="544" 
d="M160 616l-36 10l128 145h47l127 -145l-36 -10l-115 118zM521 525q-81 -211 -140.5 -339.5t-204.5 -405.5h-53l127 237q-126 252 -222 508h55q88 -247 192 -459q109 229 191 459h55z" />
    <glyph glyph-name="Ydieresis" unicode="&#x178;" horiz-adv-x="647" 
d="M229 867q-16 0 -26.5 10.5t-10.5 26.5t10.5 26.5t26.5 10.5t27 -10.5t11 -26.5t-11 -26.5t-27 -10.5zM418 867q-16 0 -26.5 10.5t-10.5 26.5t10.5 26.5t26.5 10.5t27 -10.5t11 -26.5t-11 -26.5t-27 -10.5zM628 740q-137 -236 -277 -425v-315h-54v314q-146 198 -278 426
h58q121 -210 247 -382q132 186 246 382h58z" />
    <glyph glyph-name="Zacute" unicode="&#x179;" horiz-adv-x="585" 
d="M301 831l-36 10l128 145l50 -15zM544 45v-45h-503q0 19 18.5 57.5t58.5 102l71 110l87 129.5q160 236 188 296h-417v45h491q0 -19 -18.5 -57.5t-60.5 -104.5l-71.5 -111l-88.5 -132q-158 -232 -185 -290h430z" />
    <glyph glyph-name="zacute" unicode="&#x17a;" horiz-adv-x="501" 
d="M258 616l-36 10l128 145l50 -15zM460 39v-39h-419q0 36 200 294q117 152 142 193h-338v38h410q0 -12 -15.5 -39.5t-49 -74l-59 -80l-72.5 -94.5q-124 -162 -145 -198h346z" />
    <glyph glyph-name="Zdotaccent" unicode="&#x17b;" horiz-adv-x="585" 
d="M293 867q-16 0 -26.5 10.5t-10.5 26.5t10.5 26.5t26.5 10.5t27 -10.5t11 -26.5t-11 -26.5t-27 -10.5zM544 45v-45h-503q0 19 18.5 57.5t58.5 102l71 110l87 129.5q160 236 188 296h-417v45h491q0 -19 -18.5 -57.5t-60.5 -104.5l-71.5 -111l-88.5 -132
q-158 -232 -185 -290h430z" />
    <glyph glyph-name="zdotaccent" unicode="&#x17c;" horiz-adv-x="501" 
d="M250 652q-16 0 -26.5 10.5t-10.5 26.5t10.5 26.5t26.5 10.5t27 -10.5t11 -26.5t-11 -26.5t-27 -10.5zM460 39v-39h-419q0 36 200 294q117 152 142 193h-338v38h410q0 -12 -15.5 -39.5t-49 -74l-59 -80l-72.5 -94.5q-124 -162 -145 -198h346z" />
    <glyph glyph-name="Zcaron" unicode="&#x17d;" horiz-adv-x="585" 
d="M270 830l-128 145l36 10l115 -118l115 118l36 -10l-127 -145h-47zM544 45v-45h-503q0 19 18.5 57.5t58.5 102l71 110l87 129.5q160 236 188 296h-417v45h491q0 -19 -18.5 -57.5t-60.5 -104.5l-71.5 -111l-88.5 -132q-158 -232 -185 -290h430z" />
    <glyph glyph-name="zcaron" unicode="&#x17e;" horiz-adv-x="501" 
d="M227 615l-128 145l36 10l115 -118l115 118l36 -10l-127 -145h-47zM460 39v-39h-419q0 36 200 294q117 152 142 193h-338v38h410q0 -12 -15.5 -39.5t-49 -74l-59 -80l-72.5 -94.5q-124 -162 -145 -198h346z" />
    <glyph glyph-name="florin" unicode="&#x192;" horiz-adv-x="472" 
d="M369 705q-49 0 -85 -31t-45 -87l-39 -220h225v-38h-231l-76 -429h-52l75 429h-89v38h96l40 232q13 73 61 112t122 39q39 0 74 -10v-42q-36 7 -76 7z" />
    <glyph glyph-name="Scommaaccent" unicode="&#x218;" horiz-adv-x="604" 
d="M326 411q52 -13 87.5 -27.5t67.5 -39t48 -62t16 -88.5q0 -95 -63 -149.5t-175 -54.5q-58 0 -121 14t-102 38v42q104 -50 206 -50q95 0 148 41t53 114q0 70 -50 109t-145 61l-47 11q-44 10 -74 22t-58.5 32t-43 51.5t-14.5 75.5q0 96 63 147.5t176 51.5q109 0 218 -45v-42
q-113 43 -208 43q-93 0 -143.5 -38.5t-50.5 -108.5q0 -33 12 -56.5t38.5 -38.5t49 -23t64.5 -18zM303 -50q16 0 26 -14t10 -38q0 -74 -64 -128q-3 18 -3 35q0 37 22 69q-28 8 -28 37q0 17 11 28t26 11z" />
    <glyph glyph-name="scommaaccent" unicode="&#x219;" horiz-adv-x="451" 
d="M261 289q136 -32 136 -149q0 -71 -44.5 -110.5t-123.5 -39.5q-95 0 -157 37v38q74 -35 144 -35q61 0 94.5 27.5t33.5 77.5q0 79 -105 105l-54 13q-64 15 -96.5 47t-32.5 91q0 68 44 106t123 38t153 -32v-38q-77 30 -144 30q-59 0 -91.5 -25.5t-32.5 -71.5q0 -40 24.5 -62
t74.5 -34zM226 -50q16 0 26 -14t10 -38q0 -74 -64 -128q-3 18 -3 35q0 37 22 69q-28 8 -28 37q0 17 10.5 28t26.5 11z" />
    <glyph glyph-name="uni021A" unicode="&#x21a;" horiz-adv-x="574" 
d="M557 695h-243v-695h-54v695h-243v45h540v-45zM288 -50q16 0 26 -14t10 -38q0 -74 -64 -128q-3 18 -3 35q0 37 22 69q-28 8 -28 37q0 17 10.5 28t26.5 11z" />
    <glyph glyph-name="uni021B" unicode="&#x21b;" horiz-adv-x="359" 
d="M265 31q40 0 76 9v-39q-36 -11 -90 -11q-63 0 -101.5 41.5t-38.5 109.5v346h-76v38h76v140l50 14v-154h175v-38h-175v-338q0 -53 28.5 -85.5t75.5 -32.5zM213 -50q16 0 26 -14t10 -38q0 -74 -64 -128q-3 18 -3 35q0 37 22 69q-28 8 -28 37q0 17 11 28t26 11z" />
    <glyph glyph-name="circumflex" unicode="&#x2c6;" horiz-adv-x="404" 
d="M317 616l-115 118l-115 -118l-36 10l128 145h47l127 -145z" />
    <glyph glyph-name="caron" unicode="&#x2c7;" horiz-adv-x="404" 
d="M226 615h-47l-128 145l36 10l115 -118l115 118l36 -10z" />
    <glyph glyph-name="breve" unicode="&#x2d8;" horiz-adv-x="396" 
d="M351 757q0 -67 -42 -107t-111 -40t-111 40t-42 107l43 12q0 -56 30 -90.5t80 -34.5t80 34.5t30 90.5z" />
    <glyph glyph-name="dotaccent" unicode="&#x2d9;" horiz-adv-x="219" 
d="M109 652q-16 0 -26.5 10.5t-10.5 26.5t10.5 26.5t26.5 10.5t27 -10.5t11 -26.5t-11 -26.5t-27 -10.5z" />
    <glyph glyph-name="ring" unicode="&#x2da;" horiz-adv-x="342" 
d="M171 592q-51 0 -82 26.5t-31 69.5q0 44 31 70.5t82 26.5t82 -26.5t31 -70.5q0 -43 -31 -69.5t-82 -26.5zM171 620q35 0 56.5 18.5t21.5 49.5t-21.5 50t-56.5 19t-57 -19t-22 -50t22 -49.5t57 -18.5z" />
    <glyph glyph-name="ogonek" unicode="&#x2db;" horiz-adv-x="323" 
d="M262 -4q-68 -51 -96.5 -86t-28.5 -70q0 -17 14.5 -28t37.5 -11q34 0 59 11v-30q-26 -12 -65 -12q-38 0 -61.5 18.5t-23.5 48.5q0 49 37.5 92.5t126.5 101.5v-35z" />
    <glyph glyph-name="tilde" unicode="&#x2dc;" horiz-adv-x="464" 
d="M92 636q0 31 17 51t42 20t73 -36q51 -41 87 -41q41 0 67.5 28t26.5 75l-34 10q0 -32 -17 -51.5t-42 -19.5q-28 0 -72 36q-51 41 -88 41q-41 0 -67.5 -28.5t-26.5 -75.5z" />
    <glyph glyph-name="hungarumlaut" unicode="&#x2dd;" horiz-adv-x="481" 
d="M149 626l36 -10l121 140l-51 15zM281 626l36 -10l121 140l-51 15z" />
    <glyph glyph-name="gravecomb" unicode="&#x300;" horiz-adv-x="0" 
d="M-314 756l142 -140l36 10l-128 145z" />
    <glyph glyph-name="acutecomb" unicode="&#x301;" horiz-adv-x="0" 
d="M-192 626l36 -10l142 140l-50 15z" />
    <glyph glyph-name="uni0302" unicode="&#x302;" horiz-adv-x="0" 
d="M-87 616l-115 118l-115 -118l-36 10l128 145h47l127 -145z" />
    <glyph glyph-name="tildecomb" unicode="&#x303;" horiz-adv-x="0" 
d="M-372 636q0 31 17 51t42 20t73 -36q51 -41 87 -41q41 0 67.5 28t26.5 75l-34 10q0 -32 -17 -51.5t-42 -19.5q-28 0 -72 36q-51 41 -88 41q-41 0 -67.5 -28.5t-26.5 -75.5z" />
    <glyph glyph-name="uni0304" unicode="&#x304;" horiz-adv-x="0" 
d="M-70 698v-39h-295v39h295z" />
    <glyph glyph-name="uni0306" unicode="&#x306;" horiz-adv-x="0" 
d="M-45 757q0 -67 -42 -107t-111 -40t-111 40t-42 107l43 12q0 -56 30 -90.5t80 -34.5t80 34.5t30 90.5z" />
    <glyph glyph-name="uni0307" unicode="&#x307;" horiz-adv-x="0" 
d="M-110 652q-16 0 -26.5 10.5t-10.5 26.5t10.5 26.5t26.5 10.5t27 -10.5t11 -26.5t-11 -26.5t-27 -10.5z" />
    <glyph glyph-name="uni0308" unicode="&#x308;" horiz-adv-x="0" 
d="M-298 652q-16 0 -26.5 10.5t-10.5 26.5t10.5 26.5t26.5 10.5t27 -10.5t11 -26.5t-11 -26.5t-27 -10.5zM-109 652q-16 0 -26.5 10.5t-10.5 26.5t10.5 26.5t26.5 10.5t27 -10.5t11 -26.5t-11 -26.5t-27 -10.5z" />
    <glyph glyph-name="uni030A" unicode="&#x30a;" horiz-adv-x="0" 
d="M-171 592q-51 0 -82 26.5t-31 69.5q0 44 31 70.5t82 26.5t82 -26.5t31 -70.5q0 -43 -31 -69.5t-82 -26.5zM-171 620q35 0 56.5 18.5t21.5 49.5t-21.5 50t-56.5 19t-57 -19t-22 -50t22 -49.5t57 -18.5z" />
    <glyph glyph-name="uni030B" unicode="&#x30b;" horiz-adv-x="0" 
d="M-332 626l36 -10l121 140l-51 15zM-200 626l36 -10l121 140l-51 15z" />
    <glyph glyph-name="uni030C" unicode="&#x30c;" horiz-adv-x="0" 
d="M-178 615h-47l-128 145l36 10l115 -118l115 118l36 -10z" />
    <glyph glyph-name="uni0312" unicode="&#x312;" horiz-adv-x="0" 
d="M-83 688q28 -6 28 -36q0 -17 -10.5 -28t-25.5 -11q-16 0 -26.5 14t-10.5 38q0 73 64 128q3 -19 3 -35q0 -38 -22 -70z" />
    <glyph glyph-name="uni0326" unicode="&#x326;" horiz-adv-x="0" 
d="M-91 -50q16 0 26 -14t10 -38q0 -74 -64 -128q-3 18 -3 35q0 37 22 69q-28 8 -28 37q0 17 11 28t26 11z" />
    <glyph glyph-name="uni0327" unicode="&#x327;" horiz-adv-x="0" 
d="M-209 -64q44 0 71 -21.5t27 -57.5q0 -39 -30.5 -63t-79.5 -24q-44 0 -79 16v28q34 -13 73 -13q34 0 55.5 15.5t21.5 40.5q0 23 -20.5 37.5t-54.5 14.5q-26 0 -50 -6q0 3 2.5 8.5t8.5 13l11.5 14.5t15 18l16 18l17 19t15.5 17h44l-38 -40t-33 -35h7z" />
    <glyph glyph-name="uni0328" unicode="&#x328;" horiz-adv-x="0" 
d="M-61 -4q-68 -51 -96.5 -86t-28.5 -70q0 -17 14.5 -28t37.5 -11q34 0 59 11v-30q-26 -12 -65 -12q-38 0 -61.5 18.5t-23.5 48.5q0 49 37.5 92.5t126.5 101.5v-35z" />
    <glyph glyph-name="uni0335" unicode="&#x335;" horiz-adv-x="0" 
d="M-70 306v-39h-273v39h273z" />
    <glyph glyph-name="uni0336" unicode="&#x336;" horiz-adv-x="0" 
d="M-70 306v-39h-733v39h733z" />
    <glyph glyph-name="uni0337" unicode="&#x337;" horiz-adv-x="0" 
d="M-34 520l-398 -524l-31 10l397 523z" />
    <glyph glyph-name="uni0338" unicode="&#x338;" horiz-adv-x="0" 
d="M-49 733l-594 -737l-35 10l594 738z" />
    <glyph glyph-name="uni0394" unicode="&#x394;" horiz-adv-x="722" 
d="M365 750q203 -389 342 -750h-692q143 373 342 750h8zM632 45q-117 306 -271 616q-155 -309 -271 -616h542z" />
    <glyph glyph-name="uni03A9" unicode="&#x3a9;" horiz-adv-x="852" 
d="M784 378q0 -118 -51 -205t-143 -129l185 1v-45h-264v43q101 27 159 114t58 214q0 151 -83 242.5t-219 91.5q-137 0 -220 -91.5t-83 -242.5q0 -127 58.5 -214t159.5 -114v-43h-264v45l185 -1q-92 42 -143.5 129t-51.5 205q0 167 99 269.5t260 102.5t259.5 -102.5
t98.5 -269.5z" />
    <glyph glyph-name="uni03BC" unicode="&#x3bc;" horiz-adv-x="640" 
d="M547 -4q-25 0 -49 13q-90 -19 -185 -19q-117 0 -170 67v-277h-50v745h50v-336q0 -75 46 -116.5t129 -41.5q82 0 179 20v474h50v-529z" />
    <glyph glyph-name="pi" unicode="&#x3c0;" horiz-adv-x="674" 
d="M494 487v-384q0 -32 17 -52t44 -20q39 0 72 20v-40q-32 -21 -86 -21q-44 0 -70.5 29t-26.5 77v391h-243v-487h-50v487h-133v38h610v-38h-134z" />
    <glyph glyph-name="Wgrave" unicode="&#x1e80;" horiz-adv-x="1161" 
d="M431 971l142 -140l36 10l-128 145zM1144 740q-122 -373 -292 -750h-8q-154 347 -263 672q-114 -336 -265 -672h-7q-170 377 -292 750h58q101 -324 241 -649q144 334 245 649h39q103 -321 246 -649q141 331 240 649h58z" />
    <glyph glyph-name="wgrave" unicode="&#x1e81;" horiz-adv-x="863" 
d="M282 756l142 -140l36 10l-128 145zM838 525q-84 -254 -213 -535h-8q-107 238 -185 468q-83 -241 -187 -468h-8q-128 284 -213 535h55q67 -220 164 -445q104 241 166 445h44q69 -221 167 -445q96 226 164 445h54z" />
    <glyph glyph-name="Wacute" unicode="&#x1e82;" horiz-adv-x="1161" 
d="M553 841l36 -10l142 140l-50 15zM1144 740q-122 -373 -292 -750h-8q-154 347 -263 672q-114 -336 -265 -672h-7q-170 377 -292 750h58q101 -324 241 -649q144 334 245 649h39q103 -321 246 -649q141 331 240 649h58z" />
    <glyph glyph-name="wacute" unicode="&#x1e83;" horiz-adv-x="863" 
d="M404 626l36 -10l142 140l-50 15zM838 525q-84 -254 -213 -535h-8q-107 238 -185 468q-83 -241 -187 -468h-8q-128 284 -213 535h55q67 -220 164 -445q104 241 166 445h44q69 -221 167 -445q96 226 164 445h54z" />
    <glyph glyph-name="Wdieresis" unicode="&#x1e84;" horiz-adv-x="1161" 
d="M486 867q-16 0 -26.5 10.5t-10.5 26.5t10.5 26.5t26.5 10.5t27 -10.5t11 -26.5t-11 -26.5t-27 -10.5zM675 867q-16 0 -26.5 10.5t-10.5 26.5t10.5 26.5t26.5 10.5t27 -10.5t11 -26.5t-11 -26.5t-27 -10.5zM1144 740q-122 -373 -292 -750h-8q-154 347 -263 672
q-114 -336 -265 -672h-7q-170 377 -292 750h58q101 -324 241 -649q144 334 245 649h39q103 -321 246 -649q141 331 240 649h58z" />
    <glyph glyph-name="wdieresis" unicode="&#x1e85;" horiz-adv-x="863" 
d="M337 652q-16 0 -26.5 10.5t-10.5 26.5t10.5 26.5t26.5 10.5t27 -10.5t11 -26.5t-11 -26.5t-27 -10.5zM526 652q-16 0 -26.5 10.5t-10.5 26.5t10.5 26.5t26.5 10.5t27 -10.5t11 -26.5t-11 -26.5t-27 -10.5zM838 525q-84 -254 -213 -535h-8q-107 238 -185 468
q-83 -241 -187 -468h-8q-128 284 -213 535h55q67 -220 164 -445q104 241 166 445h44q69 -221 167 -445q96 226 164 445h54z" />
    <glyph glyph-name="uni1E9E" unicode="&#x1e9e;" horiz-adv-x="717" 
d="M448 426q99 0 159 -59.5t60 -157.5t-65.5 -158.5t-171.5 -60.5q-91 0 -170 41v43q75 -39 164 -39q84 0 135 48t51 126q0 79 -50 127t-132 48q-62 0 -129 -14q0 21 158 198q68 73 88 99q-83 38 -195 38q-86 0 -138.5 -49t-52.5 -130v-526h-54v532q0 98 67.5 158t178.5 60
q143 0 267 -57q0 -16 -148 -179q-36 -37 -84 -92q31 4 62 4z" />
    <glyph glyph-name="Ygrave" unicode="&#x1ef2;" horiz-adv-x="647" 
d="M316 831l-142 140l50 15l128 -145zM628 740q-137 -236 -277 -425v-315h-54v314q-146 198 -278 426h58q121 -210 247 -382q132 186 246 382h58z" />
    <glyph glyph-name="ygrave" unicode="&#x1ef3;" horiz-adv-x="544" 
d="M267 616l-142 140l50 15l128 -145zM521 525q-81 -211 -140.5 -339.5t-204.5 -405.5h-53l127 237q-126 252 -222 508h55q88 -247 192 -459q109 229 191 459h55z" />
    <glyph glyph-name="endash" unicode="&#x2013;" horiz-adv-x="564" 
d="M484 306v-39h-404v39h404z" />
    <glyph glyph-name="emdash" unicode="&#x2014;" horiz-adv-x="886" 
d="M806 306v-39h-726v39h726z" />
    <glyph glyph-name="quoteleft" unicode="&#x2018;" horiz-adv-x="217" 
d="M115 669q33 -8 33 -39q0 -18 -12 -30t-30 -12t-30.5 16t-12.5 42q0 87 75 147q3 -15 3 -30q0 -48 -26 -94z" />
    <glyph glyph-name="quoteright" unicode="&#x2019;" horiz-adv-x="212" 
d="M112 794q18 0 30.5 -16t12.5 -42q0 -87 -75 -147q-3 15 -3 30q0 48 26 94q-33 8 -33 39q0 18 12 30t30 12z" />
    <glyph glyph-name="quotesinglbase" unicode="&#x201a;" horiz-adv-x="240" 
d="M119 75q18 0 30.5 -16t12.5 -42q0 -87 -75 -147q-3 15 -3 30q0 48 26 94q-33 8 -33 39q0 18 12 30t30 12z" />
    <glyph glyph-name="quotedblleft" unicode="&#x201c;" horiz-adv-x="350" 
d="M115 665q33 -8 33 -39q0 -18 -12 -30t-30 -12t-30.5 16t-12.5 42q0 87 75 147q3 -15 3 -30q0 -48 -26 -94zM248 665q33 -8 33 -39q0 -18 -12 -30t-30 -12t-30.5 16t-12.5 42q0 87 75 147q3 -15 3 -30q0 -48 -26 -94z" />
    <glyph glyph-name="quotedblright" unicode="&#x201d;" horiz-adv-x="345" 
d="M112 791q18 0 30.5 -16t12.5 -42q0 -87 -75 -147q-3 15 -3 30q0 48 26 94q-33 8 -33 39q0 18 12 30t30 12zM245 791q18 0 30.5 -16t12.5 -42q0 -87 -75 -147q-3 15 -3 30q0 48 26 94q-33 8 -33 39q0 18 12 30t30 12z" />
    <glyph glyph-name="quotedblbase" unicode="&#x201e;" horiz-adv-x="373" 
d="M119 75q18 0 30.5 -16t12.5 -42q0 -87 -75 -147q-3 15 -3 30q0 48 26 94q-33 8 -33 39q0 18 12 30t30 12zM252 75q18 0 30.5 -16t12.5 -42q0 -87 -75 -147q-3 15 -3 30q0 48 26 94q-33 8 -33 39q0 18 12 30t30 12z" />
    <glyph glyph-name="dagger" unicode="&#x2020;" horiz-adv-x="521" 
d="M479 480h-191v-700h-54v700h-192v45h192v255h54v-255h191v-45z" />
    <glyph glyph-name="daggerdbl" unicode="&#x2021;" horiz-adv-x="521" 
d="M288 480v-160h191v-45h-191v-495h-54v495h-192v45h192v160h-192v45h192v255h54v-255h191v-45h-191z" />
    <glyph glyph-name="bullet" unicode="&#x2022;" horiz-adv-x="369" 
d="M185 240q-36 0 -58.5 22.5t-22.5 59.5t22.5 59t58.5 22q37 0 59 -22t22 -59t-22 -59.5t-59 -22.5z" />
    <glyph glyph-name="ellipsis" unicode="&#x2026;" horiz-adv-x="607" 
d="M118 -10q-17 0 -29.5 12.5t-12.5 29.5t12.5 30t29.5 13t30 -13t13 -30t-13 -29.5t-30 -12.5zM303 -10q-17 0 -29.5 12.5t-12.5 29.5t12.5 30t29.5 13t30 -13t13 -30t-13 -29.5t-30 -12.5zM488 -10q-17 0 -29.5 12.5t-12.5 29.5t12.5 30t29.5 13t30 -13t13 -30t-13 -29.5
t-30 -12.5z" />
    <glyph glyph-name="perthousand" unicode="&#x2030;" horiz-adv-x="1117" 
d="M202 423q-71 0 -115 45t-44 119q0 73 44 118t115 45t114.5 -44.5t43.5 -118.5t-43.5 -119t-114.5 -45zM643 731l-493 -735l-43 13l493 735zM202 458q51 0 82.5 35.5t31.5 93.5t-31.5 93t-82.5 35t-82.5 -35t-31.5 -93t31.5 -93.5t82.5 -35.5zM554 -10q-71 0 -115 45
t-44 119q0 73 44 118t115 45t114.5 -44.5t43.5 -118.5t-43.5 -119t-114.5 -45zM923 -10q-71 0 -115 45t-44 119q0 73 44 118t115 45t114.5 -44.5t43.5 -118.5t-43.5 -119t-114.5 -45zM554 25q51 0 82.5 35.5t31.5 93.5t-31.5 93t-82.5 35t-82.5 -35t-31.5 -93t31.5 -93.5
t82.5 -35.5zM923 25q51 0 82.5 35.5t31.5 93.5t-31.5 93t-82.5 35t-82.5 -35t-31.5 -93t31.5 -93.5t82.5 -35.5z" />
    <glyph glyph-name="guilsinglleft" unicode="&#x2039;" horiz-adv-x="326" 
d="M107 270l162 -209l-44 -13l-175 222l175 223l44 -13z" />
    <glyph glyph-name="guilsinglright" unicode="&#x203a;" horiz-adv-x="326" 
d="M276 270l-175 -222l-44 13l162 209l-162 210l44 13z" />
    <glyph glyph-name="fraction" unicode="&#x2044;" horiz-adv-x="260" 
d="M396 732l-494 -736l-39 11l493 737z" />
    <glyph glyph-name="uni2070" unicode="&#x2070;" horiz-adv-x="425" 
d="M212 390q-77 0 -124 62.5t-47 165.5t47 165.5t124 62.5t124 -62.5t47 -165.5t-47 -165.5t-124 -62.5zM212 424q58 0 93.5 53t35.5 141t-35.5 141.5t-93.5 53.5t-94 -53.5t-36 -141.5t35.5 -141t94.5 -53z" />
    <glyph glyph-name="uni2074" unicode="&#x2074;" horiz-adv-x="365" 
d="M346 494h-79v-98h-40v98h-210q0 27 93 202q67 122 71 144h41q-4 -24 -82 -166q-65 -124 -75 -147h163v126h39v-126h79v-33z" />
    <glyph glyph-name="uni2075" unicode="&#x2075;" horiz-adv-x="347" 
d="M155 390q-67 0 -119 25v31q52 -22 116 -22q53 0 85.5 28t32.5 74t-32.5 74t-85.5 28t-101 -16l32 228h209v-33h-173l-24 -159q36 12 75 12q64 0 103 -36.5t39 -97.5t-43 -98.5t-114 -37.5z" />
    <glyph glyph-name="uni2076" unicode="&#x2076;" horiz-adv-x="380" 
d="M211 662q61 0 98.5 -32t37.5 -90q0 -69 -40 -109.5t-112 -40.5q-73 0 -112.5 55.5t-39.5 159.5q0 241 176 241q58 0 96 -13v-32q-39 12 -90 12q-130 0 -140 -178q59 27 126 27zM195 424q52 0 81.5 31t29.5 85q0 43 -27 66t-77 23q-60 0 -118 -26q0 -87 28.5 -133
t82.5 -46z" />
    <glyph glyph-name="uni2077" unicode="&#x2077;" horiz-adv-x="309" 
d="M292 840q0 -38 -92 -262q-64 -162 -67 -182h-41q5 33 77 209q65 162 77 202h-232v33h278z" />
    <glyph glyph-name="uni2078" unicode="&#x2078;" horiz-adv-x="384" 
d="M268 623q74 -31 74 -110q0 -58 -40 -90.5t-110 -32.5t-110 32t-40 85q0 71 68 117q-56 30 -56 102q0 57 36 88.5t102 31.5q64 0 101 -30.5t37 -83.5q0 -70 -62 -109zM191 814q-46 0 -71.5 -22t-25.5 -62q0 -32 18 -54t49 -28l72 -14q57 40 57 96q0 39 -26 61.5t-73 22.5z
M192 423q51 0 80 23t29 63q0 71 -86 89l-68 14q-64 -45 -64 -103q0 -39 29 -62.5t80 -23.5z" />
    <glyph glyph-name="uni2079" unicode="&#x2079;" horiz-adv-x="380" 
d="M185 846q73 0 112.5 -55.5t39.5 -159.5q0 -241 -176 -241q-58 0 -96 13v32q39 -12 90 -12q130 0 140 178q-59 -27 -126 -27q-61 0 -98.5 32t-37.5 90q0 69 40 109.5t112 40.5zM74 696q0 -43 27 -66t77 -23q60 0 118 26q0 87 -28.5 133t-82.5 46q-52 0 -81.5 -31
t-29.5 -85z" />
    <glyph glyph-name="uni2080" unicode="&#x2080;" horiz-adv-x="425" 
d="M212 -106q-77 0 -124 62.5t-47 165.5t47 165.5t124 62.5t124 -62.5t47 -165.5t-47 -165.5t-124 -62.5zM212 -72q58 0 93.5 53t35.5 141t-35.5 141.5t-93.5 53.5t-94 -53.5t-36 -141.5t35.5 -141t94.5 -53z" />
    <glyph glyph-name="uni2081" unicode="&#x2081;" horiz-adv-x="240" 
d="M17 310l143 40h8v-450h-40v407l-111 -31v34z" />
    <glyph glyph-name="uni2082" unicode="&#x2082;" horiz-adv-x="350" 
d="M310 -66v-34h-275q0 32 8.5 60.5t19.5 47t32.5 39t34.5 30.5t39 28l39 28t28.5 25.5t24 35t6.5 39.5q0 84 -103 84q-56 0 -123 -28v32q62 29 128 29t102.5 -29t36.5 -86q0 -28 -7.5 -50t-26.5 -41.5t-34 -31.5t-46 -33q-36 -24 -55 -39.5t-40 -44.5t-26 -62z" />
    <glyph glyph-name="uni2083" unicode="&#x2083;" horiz-adv-x="348" 
d="M169 158q65 0 104.5 -36t39.5 -95q0 -60 -43 -96.5t-114 -36.5q-67 0 -119 25v31q50 -22 114 -22q54 0 87 27t33 72t-32.5 72t-85.5 27q-43 0 -77 -8q0 17 108 134l53 59h-195v33h262q0 -14 -101 -121l-62 -68q15 3 28 3z" />
    <glyph glyph-name="uni2084" unicode="&#x2084;" horiz-adv-x="365" 
d="M346 -2h-79v-98h-40v98h-210q0 27 93 202q67 122 71 144h41q-4 -24 -82 -166q-65 -124 -75 -147h163v126h39v-126h79v-33z" />
    <glyph glyph-name="uni2085" unicode="&#x2085;" horiz-adv-x="347" 
d="M155 -106q-67 0 -119 25v31q52 -22 116 -22q53 0 85.5 28t32.5 74t-32.5 74t-85.5 28t-101 -16l32 228h209v-33h-173l-24 -159q36 12 75 12q64 0 103 -36.5t39 -97.5t-43 -98.5t-114 -37.5z" />
    <glyph glyph-name="uni2086" unicode="&#x2086;" horiz-adv-x="380" 
d="M211 166q61 0 98.5 -32t37.5 -90q0 -69 -40 -109.5t-112 -40.5q-73 0 -112.5 55.5t-39.5 159.5q0 241 176 241q58 0 96 -13v-32q-39 12 -90 12q-130 0 -140 -178q59 27 126 27zM195 -72q52 0 81.5 31t29.5 85q0 43 -27 66t-77 23q-60 0 -118 -26q0 -87 28.5 -133
t82.5 -46z" />
    <glyph glyph-name="uni2087" unicode="&#x2087;" horiz-adv-x="309" 
d="M292 344q0 -38 -92 -262q-64 -162 -67 -182h-41q5 33 77 209q65 162 77 202h-232v33h278z" />
    <glyph glyph-name="uni2088" unicode="&#x2088;" horiz-adv-x="384" 
d="M268 127q74 -31 74 -110q0 -58 -40 -90.5t-110 -32.5t-110 32t-40 85q0 71 68 117q-56 30 -56 102q0 57 36 88.5t102 31.5q64 0 101 -30.5t37 -83.5q0 -70 -62 -109zM94 234q0 -32 18 -54t49 -28l72 -14q57 40 57 96q0 39 -26 61.5t-73 22.5q-46 0 -71.5 -22t-25.5 -62z
M192 -73q51 0 80 23t29 63q0 71 -86 89l-68 14q-64 -45 -64 -103q0 -39 29 -62.5t80 -23.5z" />
    <glyph glyph-name="uni2089" unicode="&#x2089;" horiz-adv-x="380" 
d="M185 350q73 0 112.5 -55.5t39.5 -159.5q0 -241 -176 -241q-58 0 -96 13v32q39 -12 90 -12q130 0 140 178q-59 -27 -126 -27q-61 0 -98.5 32t-37.5 90q0 69 40 109.5t112 40.5zM74 200q0 -43 27 -66t77 -23q60 0 118 26q0 87 -28.5 133t-82.5 46q-52 0 -81.5 -31
t-29.5 -85z" />
    <glyph glyph-name="Euro" unicode="&#x20ac;" horiz-adv-x="711" 
d="M471 35q98 0 183 29v-43q-96 -31 -195 -31q-143 0 -238 83.5t-115 225.5h-59v37h55q-1 11 -1 34q0 20 1 30h-55v37h58q19 143 112.5 228t235.5 85q93 0 191 -30v-43q-87 28 -177 28q-122 0 -204 -72.5t-101 -195.5h291v-37h-295q-1 -10 -1 -30q0 -23 1 -34h295v-37h-290
q20 -121 102.5 -192.5t205.5 -71.5z" />
    <glyph glyph-name="uni20B9" unicode="&#x20b9;" horiz-adv-x="575" 
d="M528 703h-258q150 -51 160 -180h98v-38h-98q-5 -93 -64 -144.5t-160 -51.5q-34 0 -63 4q38 -42 107 -107q144 -140 167 -175l-53 -16q-16 22 -121 129l-67.5 69l-54 57t-48.5 57t-14 30q44 -10 115 -10q93 0 144 40.5t56 117.5h-305v38h305q-8 87 -87 131t-218 44v42h459
v-37z" />
    <glyph glyph-name="uni20BD" unicode="&#x20bd;" horiz-adv-x="628" 
d="M169 272h270v-38h-270v-234h-54v234h-52v38h52v63h-52v38h52v367h244q109 0 170 -53.5t61 -148.5q0 -96 -69 -149.5t-192 -53.5h-160v-63zM169 380h171q91 0 142 41.5t51 116.5q0 74 -51.5 115.5t-143.5 41.5h-169v-315z" />
    <glyph glyph-name="trademark" unicode="&#x2122;" horiz-adv-x="857" 
d="M568 517q54 93 114.5 180.5t82.5 87.5v-375h-41l2 288q-59 -77 -156 -240h-5q-83 144 -156 240l2 -288h-42v375q22 0 82.5 -86.5t116.5 -181.5zM316 745h-118v-335h-42v335h-118v35h278v-35z" />
    <glyph glyph-name="oneeighth" unicode="&#x215b;" horiz-adv-x="884" 
d="M128 703l-111 -31v34l143 40h8v-450h-40v407zM636 732l-494 -736l-39 11l493 737zM768 227q74 -31 74 -110q0 -58 -40 -90.5t-110 -32.5t-110 32t-40 85q0 71 68 117q-56 30 -56 102q0 57 36 88.5t102 31.5q64 0 101 -30.5t37 -83.5q0 -70 -62 -109zM691 418
q-46 0 -71.5 -22t-25.5 -62q0 -32 18 -54t49 -28l72 -14q57 40 57 96q0 39 -26 61.5t-73 22.5zM692 27q51 0 80 23t29 63q0 71 -86 89l-68 14q-64 -45 -64 -103q0 -39 29 -62.5t80 -23.5z" />
    <glyph glyph-name="threeeighths" unicode="&#x215c;" horiz-adv-x="992" 
d="M744 732l-494 -736l-39 11l493 737zM313 423q0 -60 -43 -96.5t-114 -36.5q-67 0 -119 25v31q50 -22 114 -22q54 0 87 27t33 72t-32.5 72t-85.5 27q-43 0 -77 -8q0 17 108 134l53 59h-195v33h262q0 -14 -101 -121l-62 -68q15 3 28 3q65 0 104.5 -36t39.5 -95zM876 227
q74 -31 74 -110q0 -58 -40 -90.5t-110 -32.5t-110 32t-40 85q0 71 68 117q-56 30 -56 102q0 57 36 88.5t102 31.5q64 0 101 -30.5t37 -83.5q0 -70 -62 -109zM799 418q-46 0 -71.5 -22t-25.5 -62q0 -32 18 -54t49 -28l72 -14q57 40 57 96q0 39 -26 61.5t-73 22.5zM800 27
q51 0 80 23t29 63q0 71 -86 89l-68 14q-64 -45 -64 -103q0 -39 29 -62.5t80 -23.5z" />
    <glyph glyph-name="fiveeighths" unicode="&#x215d;" horiz-adv-x="991" 
d="M743 732l-494 -736l-39 11l493 737zM312 426q0 -61 -43 -98.5t-114 -37.5q-67 0 -119 25v31q52 -22 116 -22q53 0 85.5 28t32.5 74t-32.5 74t-85.5 28t-101 -16l32 228h209v-33h-173l-24 -159q36 12 75 12q64 0 103 -36.5t39 -97.5zM875 227q74 -31 74 -110
q0 -58 -40 -90.5t-110 -32.5t-110 32t-40 85q0 71 68 117q-56 30 -56 102q0 57 36 88.5t102 31.5q64 0 101 -30.5t37 -83.5q0 -70 -62 -109zM798 418q-46 0 -71.5 -22t-25.5 -62q0 -32 18 -54t49 -28l72 -14q57 40 57 96q0 39 -26 61.5t-73 22.5zM799 27q51 0 80 23t29 63
q0 71 -86 89l-68 14q-64 -45 -64 -103q0 -39 29 -62.5t80 -23.5z" />
    <glyph glyph-name="seveneighths" unicode="&#x215e;" horiz-adv-x="931" 
d="M683 732l-494 -736l-39 11l493 737zM292 740q0 -38 -92 -262q-64 -162 -67 -182h-41q5 33 77 209q65 162 77 202h-232v33h278zM815 227q74 -31 74 -110q0 -58 -40 -90.5t-110 -32.5t-110 32t-40 85q0 71 68 117q-56 30 -56 102q0 57 36 88.5t102 31.5q64 0 101 -30.5
t37 -83.5q0 -70 -62 -109zM738 418q-46 0 -71.5 -22t-25.5 -62q0 -32 18 -54t49 -28l72 -14q57 40 57 96q0 39 -26 61.5t-73 22.5zM739 27q51 0 80 23t29 63q0 71 -86 89l-68 14q-64 -45 -64 -103q0 -39 29 -62.5t80 -23.5z" />
    <glyph glyph-name="partialdiff" unicode="&#x2202;" horiz-adv-x="637" 
d="M306 750q121 0 195.5 -104.5t74.5 -274.5q0 -172 -88 -276.5t-232 -104.5q-98 0 -158 50.5t-60 132.5q0 106 131.5 171.5t349.5 69.5q-9 133 -67.5 212t-148.5 79q-115 0 -198 -110l-34 35q97 120 235 120zM256 35q118 0 190.5 92t73.5 242q-193 -2 -310 -56.5
t-117 -142.5q0 -61 45 -98t118 -37z" />
    <glyph glyph-name="emptyset" unicode="&#x2205;" horiz-adv-x="673" 
d="M534 534q66 -74 66 -191q0 -122 -72.5 -197t-190.5 -75q-106 0 -174 59l-55 -59l-26 20l57 62q-66 74 -66 190q0 123 72.5 198t191.5 75q104 0 174 -59l54 59l26 -20zM114 343q0 -96 52 -161l318 346q-60 52 -147 52q-100 0 -161.5 -65t-61.5 -172zM337 107q100 0 161 65
t61 171q0 97 -52 162l-318 -346q60 -52 148 -52z" />
    <glyph glyph-name="product" unicode="&#x220f;" horiz-adv-x="732" 
d="M623 -220h-54v955h-406v-955h-54v1000h514v-1000z" />
    <glyph glyph-name="summation" unicode="&#x2211;" horiz-adv-x="611" 
d="M571 -220h-536v34l330 469l-321 463v34h517v-45h-452l320 -452l-329 -458h471v-45z" />
    <glyph glyph-name="minus" unicode="&#x2212;" 
d="M506 306v-39h-400v39h400z" />
    <glyph glyph-name="radical" unicode="&#x221a;" horiz-adv-x="749" 
d="M299 -220h-52l-238 525h56l208 -467l423 942h56z" />
    <glyph glyph-name="infinity" unicode="&#x221e;" horiz-adv-x="839" 
d="M592 478q81 0 130.5 -54t49.5 -144q0 -91 -50 -143.5t-135 -52.5q-115 0 -161 90q-63 -91 -183 -91q-82 0 -128.5 53.5t-46.5 144.5q0 92 47.5 144.5t131.5 52.5q125 0 174 -87q68 87 171 87zM251 127q94 0 159 88l-23 113q-11 51 -46.5 79.5t-90.5 28.5q-59 0 -92.5 -42
t-33.5 -113t33.5 -112.5t93.5 -41.5zM586 127q60 0 95.5 42t35.5 112t-36 112t-96 42q-83 0 -148 -87l22 -104q25 -117 127 -117z" />
    <glyph glyph-name="integral" unicode="&#x222b;" horiz-adv-x="334" 
d="M243 790q31 0 61 -10v-40q-24 9 -48 9q-29 0 -46.5 -20t-17.5 -53v-799q0 -49 -27.5 -78t-73.5 -29q-30 0 -62 10v40q24 -9 49 -9q29 0 46.5 20t17.5 53v799q0 49 27.5 78t73.5 29z" />
    <glyph glyph-name="approxequal" unicode="&#x2248;" 
d="M134 330q0 32 22.5 51.5t56.5 19.5q32 0 83 -36q62 -41 102 -41q50 0 82 28t32 75l-34 9q0 -32 -22.5 -51.5t-56.5 -19.5t-83 36q-59 41 -102 41q-49 0 -81.5 -28.5t-32.5 -74.5zM134 141q0 32 22.5 51.5t56.5 19.5q32 0 83 -36q62 -41 102 -41q50 0 82 28t32 75l-34 9
q0 -32 -22.5 -51.5t-56.5 -19.5t-83 36q-59 41 -102 41q-49 0 -81.5 -28.5t-32.5 -74.5z" />
    <glyph glyph-name="notequal" unicode="&#x2260;" 
d="M364 361l-60 -149h203v-39h-218l-57 -142l-35 9l53 133h-143v39h159l60 149h-219v38h234l52 130l34 -11l-48 -119h128v-38h-143z" />
    <glyph glyph-name="lessequal" unicode="&#x2264;" 
d="M503 460l-345 -144l345 -144v-41l-400 170v30l400 170v-41zM503 83v-39h-400v39h400z" />
    <glyph glyph-name="greaterequal" unicode="&#x2265;" 
d="M509 331v-30l-400 -170v41l345 144l-345 144v41zM509 44h-400v39h400v-39z" />
    <glyph glyph-name="lozenge" unicode="&#x25ca;" horiz-adv-x="548" 
d="M500 313l-204 -313h-43l-205 313l205 312h43zM446 313l-172 266l-172 -266l172 -266z" />
    <glyph glyph-name="i.loclTRK" horiz-adv-x="236" 
d="M118 652q-16 0 -26.5 10.5t-10.5 26.5t10.5 26.5t26.5 10.5t27 -10.5t11 -26.5t-11 -26.5t-27 -10.5zM143 525v-525h-50v525h50z" />
    <glyph glyph-name="a.ss01" horiz-adv-x="639" 
d="M546 -4q-25 0 -49 13q-74 -19 -158 -19q-127 0 -204.5 73.5t-77.5 194.5q0 126 74.5 201.5t207.5 75.5q84 0 158 -19q21 13 49 13v-533zM110 260q0 -103 66 -166t176 -63q66 0 144 19v425q-76 19 -144 19q-116 0 -179 -63t-63 -171z" />
    <glyph glyph-name="aacute.ss01" horiz-adv-x="639" 
d="M355 616l-36 10l128 145l50 -15zM546 -4q-25 0 -49 13q-74 -19 -158 -19q-127 0 -204.5 73.5t-77.5 194.5q0 126 74.5 201.5t207.5 75.5q84 0 158 -19q21 13 49 13v-533zM110 260q0 -103 66 -166t176 -63q66 0 144 19v425q-76 19 -144 19q-116 0 -179 -63t-63 -171z" />
    <glyph glyph-name="abreve.ss01" horiz-adv-x="639" 
d="M347 610q-69 0 -111 40t-42 107l43 12q0 -56 30.5 -90.5t79.5 -34.5t79.5 34.5t30.5 90.5l43 -12q0 -67 -42 -107t-111 -40zM546 -4q-25 0 -49 13q-74 -19 -158 -19q-127 0 -204.5 73.5t-77.5 194.5q0 126 74.5 201.5t207.5 75.5q84 0 158 -19q21 13 49 13v-533zM110 260
q0 -103 66 -166t176 -63q66 0 144 19v425q-76 19 -144 19q-116 0 -179 -63t-63 -171z" />
    <glyph glyph-name="acircumflex.ss01" horiz-adv-x="639" 
d="M232 616l-36 10l128 145h47l127 -145l-36 -10l-115 118zM546 -4q-25 0 -49 13q-74 -19 -158 -19q-127 0 -204.5 73.5t-77.5 194.5q0 126 74.5 201.5t207.5 75.5q84 0 158 -19q21 13 49 13v-533zM110 260q0 -103 66 -166t176 -63q66 0 144 19v425q-76 19 -144 19
q-116 0 -179 -63t-63 -171z" />
    <glyph glyph-name="adieresis.ss01" horiz-adv-x="639" 
d="M252 652q-16 0 -26.5 10.5t-10.5 26.5t10.5 26.5t26.5 10.5t27 -10.5t11 -26.5t-11 -26.5t-27 -10.5zM441 652q-16 0 -26.5 10.5t-10.5 26.5t10.5 26.5t26.5 10.5t27 -10.5t11 -26.5t-11 -26.5t-27 -10.5zM546 -4q-25 0 -49 13q-74 -19 -158 -19q-127 0 -204.5 73.5
t-77.5 194.5q0 126 74.5 201.5t207.5 75.5q84 0 158 -19q21 13 49 13v-533zM110 260q0 -103 66 -166t176 -63q66 0 144 19v425q-76 19 -144 19q-116 0 -179 -63t-63 -171z" />
    <glyph glyph-name="agrave.ss01" horiz-adv-x="639" 
d="M339 616l-142 140l50 15l128 -145zM546 -4q-25 0 -49 13q-74 -19 -158 -19q-127 0 -204.5 73.5t-77.5 194.5q0 126 74.5 201.5t207.5 75.5q84 0 158 -19q21 13 49 13v-533zM110 260q0 -103 66 -166t176 -63q66 0 144 19v425q-76 19 -144 19q-116 0 -179 -63t-63 -171z
" />
    <glyph glyph-name="amacron.ss01" horiz-adv-x="639" 
d="M494 659h-295v39h295v-39zM546 -4q-25 0 -49 13q-74 -19 -158 -19q-127 0 -204.5 73.5t-77.5 194.5q0 126 74.5 201.5t207.5 75.5q84 0 158 -19q21 13 49 13v-533zM110 260q0 -103 66 -166t176 -63q66 0 144 19v425q-76 19 -144 19q-116 0 -179 -63t-63 -171z" />
    <glyph glyph-name="aogonek.ss01" horiz-adv-x="639" 
d="M497 516q21 13 49 13v-533q-68 -51 -96.5 -86t-28.5 -70q0 -17 14.5 -28t37.5 -11q34 0 59 11v-30q-26 -12 -65 -12q-38 0 -61.5 18.5t-23.5 48.5q0 43 29 81.5t96 85.5l-10 5q-74 -19 -158 -19q-127 0 -204.5 73.5t-77.5 194.5q0 126 74.5 201.5t207.5 75.5
q84 0 158 -19zM110 260q0 -103 66 -166t176 -63q66 0 144 19v425q-76 19 -144 19q-116 0 -179 -63t-63 -171z" />
    <glyph glyph-name="aring.ss01" horiz-adv-x="639" 
d="M347 592q-51 0 -82 26.5t-31 69.5q0 44 31 70.5t82 26.5t82 -26.5t31 -70.5q0 -43 -31 -69.5t-82 -26.5zM347 757q-35 0 -57 -19t-22 -50t22 -49.5t57 -18.5t56.5 18.5t21.5 49.5t-21.5 50t-56.5 19zM546 -4q-25 0 -49 13q-74 -19 -158 -19q-127 0 -204.5 73.5
t-77.5 194.5q0 126 74.5 201.5t207.5 75.5q84 0 158 -19q21 13 49 13v-533zM110 260q0 -103 66 -166t176 -63q66 0 144 19v425q-76 19 -144 19q-116 0 -179 -63t-63 -171z" />
    <glyph glyph-name="atilde.ss01" horiz-adv-x="639" 
d="M266 707q-25 0 -42 -20t-17 -51l-34 9q0 47 26.5 75.5t67.5 28.5q37 0 88 -41q44 -36 72 -36q25 0 42 19.5t17 51.5l34 -10q0 -47 -26.5 -75t-67.5 -28q-36 0 -87 41q-48 36 -73 36zM546 -4q-25 0 -49 13q-74 -19 -158 -19q-127 0 -204.5 73.5t-77.5 194.5
q0 126 74.5 201.5t207.5 75.5q84 0 158 -19q21 13 49 13v-533zM110 260q0 -103 66 -166t176 -63q66 0 144 19v425q-76 19 -144 19q-116 0 -179 -63t-63 -171z" />
    <glyph glyph-name="zero.lf" horiz-adv-x="694" 
d="M348 -10q-127 0 -204.5 104.5t-77.5 275.5t77.5 275.5t204.5 104.5q126 0 203 -104.5t77 -275.5t-77 -275.5t-203 -104.5zM348 35q101 0 163 92.5t62 242.5t-62 242.5t-163 92.5t-163 -92t-62 -243t62 -243t163 -92z" />
    <glyph glyph-name="one.lf" horiz-adv-x="374" 
d="M24 684l231 66h10v-750h-54v691l-187 -52v45z" />
    <glyph glyph-name="two.lf" horiz-adv-x="567" 
d="M506 45v-45h-451q0 54 14.5 100.5t32 77t53.5 64.5t58 50l66 46l54 37t42.5 35t39.5 42.5t21.5 45.5t10.5 59q0 148 -179 148q-97 0 -204 -46v43q106 48 210 48q107 0 167 -47.5t60 -142.5q0 -46 -13 -83t-43.5 -69t-57 -52.5t-75.5 -53.5q-39 -26 -57.5 -39.5t-50 -41
t-47.5 -50t-31 -56.5t-19 -71z" />
    <glyph glyph-name="three.lf" horiz-adv-x="569" 
d="M273 426q108 0 174.5 -59.5t66.5 -157.5t-70 -158.5t-185 -60.5q-107 0 -200 41v43q89 -39 193 -39q92 0 148.5 48t56.5 126q0 79 -56 127t-147 48q-69 0 -125 -14q0 9 13.5 29t48 59l52.5 59l66 72q66 70 97 106h-339v45h431q0 -21 -172 -201q-98 -105 -108 -117
q27 4 55 4z" />
    <glyph glyph-name="four.lf" horiz-adv-x="596" 
d="M569 166h-138v-166h-54v166h-351q0 44 160 339q111 206 117 235h55q-7 -38 -136 -274q-109 -198 -131 -255h287v220h53v-220h138v-45z" />
    <glyph glyph-name="five.lf" horiz-adv-x="566" 
d="M256 -10q-107 0 -200 41v43q89 -39 196 -39q91 0 146.5 49.5t55.5 129.5q0 81 -56 130.5t-147 49.5q-79 0 -168 -28l52 374h342v-45h-293l-42 -279q66 20 132 20q107 0 172 -61t65 -161q0 -101 -70 -162.5t-185 -61.5z" />
    <glyph glyph-name="six.lf" horiz-adv-x="618" 
d="M342 439q103 0 164 -52t61 -147q0 -116 -66 -183t-184 -67q-119 0 -184 93t-65 266q0 208 76 304.5t210 96.5q95 0 159 -21v-44q-69 20 -152 20q-221 0 -236 -311q98 45 217 45zM316 35q92 0 143.5 54.5t51.5 150.5q0 73 -47.5 113.5t-133.5 40.5q-107 0 -206 -43v-3
q0 -150 49.5 -231.5t142.5 -81.5z" />
    <glyph glyph-name="seven.lf" horiz-adv-x="500" 
d="M477 740q0 -20 -11.5 -61t-40.5 -116.5l-45.5 -117l-57.5 -141.5q-108 -265 -114 -304h-55q6 46 131 352q113 277 131 343h-396v45h458z" />
    <glyph glyph-name="eight.lf" horiz-adv-x="625" 
d="M432 376q126 -51 126 -184q0 -95 -64.5 -148.5t-179.5 -53.5t-181 52.5t-66 141.5q0 119 118 199q-99 49 -99 170q0 93 59.5 145t167.5 52q106 0 166 -50.5t60 -138.5q0 -62 -29 -109.5t-78 -75.5zM140 559q0 -56 31 -94t86 -49l126 -25q103 65 103 168q0 69 -46 108
t-127 39q-82 0 -127.5 -39t-45.5 -108zM313 34q89 0 139.5 41t50.5 112q0 61 -37.5 101t-108.5 54l-121 24q-114 -75 -114 -179q0 -70 51 -111.5t140 -41.5z" />
    <glyph glyph-name="nine.lf" horiz-adv-x="618" 
d="M302 750q119 0 184 -93t65 -266q0 -208 -76 -304.5t-210 -96.5q-95 0 -159 21v44q69 -20 152 -20q221 0 236 311q-98 -45 -217 -45q-103 0 -164 52t-61 147q0 116 66 183t184 67zM289 346q107 0 206 43v3q0 150 -49.5 231.5t-142.5 81.5q-92 0 -143.5 -54.5t-51.5 -150.5
q0 -73 47.5 -113.5t133.5 -40.5z" />
    <glyph glyph-name="zero.osf" horiz-adv-x="725" 
d="M363 -10q-135 0 -217.5 89t-82.5 234t82.5 233.5t217.5 88.5q134 0 216.5 -88.5t82.5 -233.5t-82.5 -234t-216.5 -89zM363 31q111 0 179 77.5t68 204.5q0 126 -68 203.5t-179 77.5t-179 -77.5t-68 -203.5q0 -127 68 -204.5t179 -77.5z" />
    <glyph glyph-name="one.osf" horiz-adv-x="347" 
d="M32 577l206 58h7v-635h-50v583l-163 -45v39z" />
    <glyph glyph-name="two.osf" horiz-adv-x="558" 
d="M498 39v-39h-443q0 40 13 77t32 64t50 53.5t58.5 45t65.5 39.5q43 24 65 38.5t49.5 38t39 50.5t11.5 60q0 62 -44.5 95t-121.5 33q-92 0 -201 -53v39q100 55 204 55q101 0 158 -42.5t57 -125.5q0 -40 -13 -72.5t-40.5 -59t-56 -45.5t-74.5 -44q-86 -47 -138.5 -95.5
t-63.5 -112.5z" />
    <glyph glyph-name="three.osf" horiz-adv-x="572" 
d="M273 311q109 0 175.5 -57.5t66.5 -151.5q0 -95 -70 -153.5t-185 -58.5q-110 0 -200 41v39q86 -39 193 -39q94 0 151.5 47t57.5 124t-57 124t-150 47q-56 0 -110 -14q0 25 176 218q57 61 98 110h-351v38h431q0 -18 -166 -199q-74 -79 -106 -118q25 3 46 3z" />
    <glyph glyph-name="four.osf" horiz-adv-x="586" 
d="M567 0h-113v-110h-50v110h-380q0 46 153 371q105 219 111 254h49q-6 -38 -125 -294q-108 -228 -128 -292h321v294h49v-294h113v-39z" />
    <glyph glyph-name="five.osf" horiz-adv-x="562" 
d="M251 -110q-110 0 -200 41v39q86 -39 196 -39q93 0 149.5 48.5t56.5 127.5t-57 127.5t-150 48.5q-79 0 -168 -28l52 370h342v-38h-294l-42 -286q68 20 133 20q107 0 172 -58.5t65 -155.5q0 -98 -70 -157.5t-185 -59.5z" />
    <glyph glyph-name="six.osf" 
d="M339 439q103 0 164 -52t61 -147q0 -116 -66 -183t-184 -67q-119 0 -184 93t-65 266q0 208 76 304.5t210 96.5q95 0 159 -21v-40q-69 20 -152 20q-225 0 -239 -316q99 46 220 46zM313 31q94 0 146 56t52 153q0 75 -48.5 116.5t-135.5 41.5q-108 0 -209 -44v-6
q0 -153 50.5 -235t144.5 -82z" />
    <glyph glyph-name="seven.osf" horiz-adv-x="524" 
d="M491 625q0 -20 -11.5 -60.5t-41 -118l-44.5 -115.5l-57 -142q-103 -254 -110 -293l-48 13q6 48 126 338q113 282 128 340h-400v38h458z" />
    <glyph glyph-name="eight.osf" horiz-adv-x="617" 
d="M428 375q126 -50 126 -183q0 -95 -64.5 -148.5t-179.5 -53.5t-181 52.5t-66 141.5q0 121 121 201q-48 22 -75 65.5t-27 102.5q0 93 59.5 145t167.5 52q106 0 166 -50.5t60 -137.5q0 -62 -28.5 -110.5t-78.5 -76.5zM132 560q0 -58 32 -96t89 -49l129 -26q103 68 103 170
q0 70 -46.5 110t-129.5 40q-84 0 -130.5 -39.5t-46.5 -109.5zM308 31q91 0 143 42t52 114q0 62 -38.5 103t-111.5 56l-118 24q-120 -77 -120 -182q0 -72 51.5 -114.5t141.5 -42.5z" />
    <glyph glyph-name="nine.osf" 
d="M299 635q119 0 183.5 -90.5t64.5 -260.5q0 -204 -76 -299t-209 -95q-96 0 -160 21v40q70 -20 152 -20q224 0 239 309q-99 -46 -220 -46q-103 0 -164 52t-61 147q0 112 66.5 177t184.5 65zM285 235q108 0 209 44v6q0 150 -50 229.5t-145 79.5q-94 0 -146 -53.5t-52 -147.5
q0 -76 48 -117t136 -41z" />
    <glyph glyph-name="zero.tf" 
d="M307 -10q-109 0 -170.5 100.5t-61.5 279.5t61.5 279.5t170.5 100.5t169.5 -100.5t60.5 -279.5t-60.5 -279.5t-169.5 -100.5zM307 35q82 0 128.5 88.5t46.5 246.5t-46.5 246.5t-128.5 88.5q-83 0 -129.5 -89t-46.5 -246t46.5 -246t129.5 -89z" />
    <glyph glyph-name="one.tf" 
d="M539 45v-45h-433v45h219v646l-207 -57v45l250 71h10v-705h161z" />
    <glyph glyph-name="two.tf" 
d="M528 45v-45h-451q0 54 14.5 100.5t32 77t53.5 64.5t58 50l66 46l54 37t42.5 35t39.5 42.5t21.5 45.5t10.5 59q0 148 -179 148q-97 0 -204 -46v43q106 48 210 48q107 0 167 -47.5t60 -142.5q0 -46 -13 -83t-43.5 -69t-57 -52.5t-75.5 -53.5q-39 -26 -57.5 -39.5t-50 -41
t-47.5 -50t-31 -56.5t-19 -71z" />
    <glyph glyph-name="three.tf" 
d="M293 426q109 0 175.5 -59.5t66.5 -157.5t-70 -158.5t-185 -60.5q-107 0 -200 41v43q89 -39 193 -39q92 0 148.5 48t56.5 126q0 79 -56 127t-147 48q-56 0 -110 -14q0 26 169 216q66 73 94 109h-340v45h431q0 -19 -164 -200q-78 -86 -104 -117q23 3 42 3z" />
    <glyph glyph-name="four.tf" 
d="M562 166h-117v-166h-54v166h-342q0 42 142 317q8 13 11 20q107 204 114 237h55q-6 -34 -130 -271q-109 -211 -127 -258h278v220h53v-220h117v-45z" />
    <glyph glyph-name="five.tf" 
d="M279 -10q-107 0 -200 41v43q89 -39 196 -39q91 0 146.5 49.5t55.5 129.5q0 81 -56 130.5t-147 49.5q-79 0 -168 -28l52 374h342v-45h-293l-42 -279q66 20 132 20q107 0 172 -61t65 -161q0 -101 -70 -162.5t-185 -61.5z" />
    <glyph glyph-name="six.tf" 
d="M339 439q94 0 149.5 -52t55.5 -147q0 -116 -61 -183t-169 -67q-109 0 -169 93t-60 266q0 207 70.5 304t195.5 97q83 0 139 -21v-44q-60 20 -132 20q-202 0 -216 -310q88 44 197 44zM313 35q83 0 129 54.5t46 150.5q0 73 -42 113.5t-119 40.5q-94 0 -186 -41v-5
q0 -150 44.5 -231.5t127.5 -81.5z" />
    <glyph glyph-name="seven.tf" 
d="M533 740q0 -20 -11.5 -61t-40.5 -116.5l-45.5 -117l-57.5 -141.5q-108 -265 -114 -304h-55q6 46 131 352q113 277 131 343h-396v45h458z" />
    <glyph glyph-name="eight.tf" 
d="M425 376q126 -51 126 -184q0 -95 -64.5 -148.5t-179.5 -53.5t-181 52.5t-66 141.5q0 119 118 199q-99 49 -99 170q0 93 59.5 145t167.5 52q106 0 166 -50.5t60 -138.5q0 -62 -29 -109.5t-78 -75.5zM133 559q0 -56 31 -94t86 -49l126 -25q103 65 103 168q0 69 -46 108
t-127 39q-82 0 -127.5 -39t-45.5 -108zM306 34q89 0 139.5 41t50.5 112q0 61 -37.5 101t-108.5 54l-121 24q-114 -75 -114 -179q0 -70 51 -111.5t140 -41.5z" />
    <glyph glyph-name="nine.tf" 
d="M298 750q109 0 169 -93t60 -266q0 -207 -70.5 -304t-195.5 -97q-83 0 -139 21v44q60 -20 132 -20q202 0 216 310q-88 -44 -197 -44q-94 0 -149.5 52t-55.5 147q0 116 61 183t169 67zM285 346q94 0 186 41v5q0 150 -44.5 231.5t-127.5 81.5t-129 -54.5t-46 -150.5
q0 -73 42 -113.5t119 -40.5z" />
    <glyph glyph-name="zero.tosf" 
d="M307 -10q-104 0 -167 89t-63 234t63.5 233.5t166.5 88.5t166 -88.5t63 -233.5t-63 -234t-166 -89zM307 31q80 0 128.5 77.5t48.5 204.5q0 126 -49 203.5t-128 77.5t-128 -77.5t-49 -203.5q0 -127 48.5 -204.5t128.5 -77.5z" />
    <glyph glyph-name="one.tosf" 
d="M541 39v-39h-433v39h220v544l-207 -57v38l249 71h8v-596h163z" />
    <glyph glyph-name="two.tosf" 
d="M530 39v-39h-453q0 40 13 77t32 64t50 53.5t58.5 45t65.5 39.5q95 54 123 79q52 46 52 108t-47 95t-129 33q-92 0 -201 -53v39q100 55 204 55q106 0 165.5 -42.5t59.5 -125.5q0 -40 -13.5 -72t-43.5 -59t-58.5 -45.5t-78.5 -44.5q-84 -44 -137.5 -93.5t-64.5 -114.5z" />
    <glyph glyph-name="three.tosf" 
d="M294 311q109 0 175 -57.5t66 -151.5q0 -95 -70 -153.5t-185 -58.5q-110 0 -200 41v39q86 -39 193 -39q94 0 151.5 47t57.5 124t-57 124t-150 47q-56 0 -110 -14q0 25 176 218q57 61 98 110h-351v38h431q0 -18 -166 -199q-74 -79 -106 -118q26 3 47 3z" />
    <glyph glyph-name="four.tosf" 
d="M573 0h-110v-110h-50v110h-370q0 46 153 371q105 219 111 254h49q-6 -38 -125 -294q-108 -228 -128 -292h311v294h49v-294h110v-39z" />
    <glyph glyph-name="five.tosf" 
d="M276 -110q-110 0 -200 41v39q86 -39 196 -39q93 0 149.5 48.5t56.5 127.5t-57 127.5t-150 48.5q-79 0 -168 -28l52 370h342v-38h-294l-42 -286q68 20 133 20q107 0 172 -58.5t65 -155.5q0 -98 -70 -157.5t-185 -59.5z" />
    <glyph glyph-name="six.tosf" 
d="M339 439q94 0 149.5 -52t55.5 -147q0 -116 -61 -183t-169 -67q-109 0 -169 93t-60 266q0 207 70.5 304t195.5 97q83 0 139 -21v-40q-60 20 -132 20q-205 0 -219 -315q92 45 200 45zM313 31q84 0 131 56t47 153q0 76 -43 117t-121 41q-98 0 -189 -43v-7q0 -153 45 -235
t130 -82z" />
    <glyph glyph-name="seven.tosf" 
d="M535 625q0 -20 -11.5 -60.5t-41 -118l-44.5 -115.5l-57 -142q-103 -254 -110 -293l-48 13q6 48 126 338q113 282 128 340h-400v38h458z" />
    <glyph glyph-name="eight.tosf" 
d="M425 375q126 -50 126 -183q0 -95 -64.5 -148.5t-179.5 -53.5t-181 52.5t-66 141.5q0 121 121 201q-48 22 -75 65.5t-27 102.5q0 93 59.5 145t167.5 52q106 0 166 -50.5t60 -137.5q0 -62 -28.5 -110.5t-78.5 -76.5zM129 560q0 -58 32 -96t89 -49l129 -26q103 68 103 170
q0 70 -46.5 110t-129.5 40q-84 0 -130.5 -39.5t-46.5 -109.5zM305 31q91 0 143 42t52 114q0 62 -38.5 103t-111.5 56l-118 24q-120 -77 -120 -182q0 -72 51.5 -114.5t141.5 -42.5z" />
    <glyph glyph-name="nine.tosf" 
d="M299 635q109 0 168.5 -90.5t59.5 -260.5q0 -204 -70.5 -299t-194.5 -95q-84 0 -140 21v40q61 -20 132 -20q205 0 219 308q-92 -45 -200 -45q-94 0 -149.5 52t-55.5 147q0 112 61 177t170 65zM285 235q98 0 189 43v7q0 150 -45 229.5t-130 79.5q-84 0 -131 -53.5
t-47 -147.5q0 -76 43 -117t121 -41z" />
    <glyph glyph-name="zero.dnom" horiz-adv-x="425" 
d="M212 -6q-77 0 -124 62.5t-47 165.5t47 165.5t124 62.5t124 -62.5t47 -165.5t-47 -165.5t-124 -62.5zM212 28q58 0 93.5 53t35.5 141t-35.5 141.5t-93.5 53.5t-94 -53.5t-36 -141.5t35.5 -141t94.5 -53z" />
    <glyph glyph-name="one.dnom" horiz-adv-x="240" 
d="M17 410l143 40h8v-450h-40v407l-111 -31v34z" />
    <glyph glyph-name="two.dnom" horiz-adv-x="350" 
d="M310 34v-34h-275q0 32 8.5 60.5t19.5 47t32.5 39t34.5 30.5t39 28l39 28t28.5 25.5t24 35t6.5 39.5q0 84 -103 84q-56 0 -123 -28v32q62 29 128 29t102.5 -29t36.5 -86q0 -28 -7.5 -50t-26.5 -41.5t-34 -31.5t-46 -33q-36 -24 -55 -39.5t-40 -44.5t-26 -62z" />
    <glyph glyph-name="three.dnom" horiz-adv-x="348" 
d="M169 258q65 0 104.5 -36t39.5 -95q0 -60 -43 -96.5t-114 -36.5q-67 0 -119 25v31q50 -22 114 -22q54 0 87 27t33 72t-32.5 72t-85.5 27q-43 0 -77 -8q0 17 108 134l53 59h-195v33h262q0 -14 -101 -121l-62 -68q15 3 28 3z" />
    <glyph glyph-name="four.dnom" horiz-adv-x="365" 
d="M346 98h-79v-98h-40v98h-210q0 27 93 202q67 122 71 144h41q-4 -24 -82 -166q-65 -124 -75 -147h163v126h39v-126h79v-33z" />
    <glyph glyph-name="five.dnom" horiz-adv-x="347" 
d="M155 -6q-67 0 -119 25v31q52 -22 116 -22q53 0 85.5 28t32.5 74t-32.5 74t-85.5 28t-101 -16l32 228h209v-33h-173l-24 -159q36 12 75 12q64 0 103 -36.5t39 -97.5t-43 -98.5t-114 -37.5z" />
    <glyph glyph-name="six.dnom" horiz-adv-x="380" 
d="M211 266q61 0 98.5 -32t37.5 -90q0 -69 -40 -109.5t-112 -40.5q-73 0 -112.5 55.5t-39.5 159.5q0 241 176 241q58 0 96 -13v-32q-39 12 -90 12q-130 0 -140 -178q59 27 126 27zM195 28q52 0 81.5 31t29.5 85q0 43 -27 66t-77 23q-60 0 -118 -26q0 -87 28.5 -133t82.5 -46
z" />
    <glyph glyph-name="seven.dnom" horiz-adv-x="309" 
d="M292 444q0 -38 -92 -262q-64 -162 -67 -182h-41q5 33 77 209q65 162 77 202h-232v33h278z" />
    <glyph glyph-name="eight.dnom" horiz-adv-x="384" 
d="M268 227q74 -31 74 -110q0 -58 -40 -90.5t-110 -32.5t-110 32t-40 85q0 71 68 117q-56 30 -56 102q0 57 36 88.5t102 31.5q64 0 101 -30.5t37 -83.5q0 -70 -62 -109zM191 418q-46 0 -71.5 -22t-25.5 -62q0 -32 18 -54t49 -28l72 -14q57 40 57 96q0 39 -26 61.5t-73 22.5z
M192 27q51 0 80 23t29 63q0 71 -86 89l-68 14q-64 -45 -64 -103q0 -39 29 -62.5t80 -23.5z" />
    <glyph glyph-name="nine.dnom" horiz-adv-x="380" 
d="M185 450q73 0 112.5 -55.5t39.5 -159.5q0 -241 -176 -241q-58 0 -96 13v32q39 -12 90 -12q130 0 140 178q-59 -27 -126 -27q-61 0 -98.5 32t-37.5 90q0 69 40 109.5t112 40.5zM74 300q0 -43 27 -66t77 -23q60 0 118 26q0 87 -28.5 133t-82.5 46q-52 0 -81.5 -31
t-29.5 -85z" />
    <glyph glyph-name="zero.numr" horiz-adv-x="425" 
d="M212 290q-77 0 -124 62.5t-47 165.5t47 165.5t124 62.5t124 -62.5t47 -165.5t-47 -165.5t-124 -62.5zM212 324q58 0 93.5 53t35.5 141t-35.5 141.5t-93.5 53.5t-94 -53.5t-36 -141.5t35.5 -141t94.5 -53z" />
    <glyph glyph-name="one.numr" horiz-adv-x="240" 
d="M17 706l143 40h8v-450h-40v407l-111 -31v34z" />
    <glyph glyph-name="two.numr" horiz-adv-x="350" 
d="M310 330v-34h-275q0 32 8.5 60.5t19.5 47t32.5 39t34.5 30.5t39 28l39 28t28.5 25.5t24 35t6.5 39.5q0 84 -103 84q-56 0 -123 -28v32q62 29 128 29t102.5 -29t36.5 -86q0 -28 -7.5 -50t-26.5 -41.5t-34 -31.5t-46 -33q-36 -24 -55 -39.5t-40 -44.5t-26 -62z" />
    <glyph glyph-name="three.numr" horiz-adv-x="348" 
d="M169 554q65 0 104.5 -36t39.5 -95q0 -60 -43 -96.5t-114 -36.5q-67 0 -119 25v31q50 -22 114 -22q54 0 87 27t33 72t-32.5 72t-85.5 27q-43 0 -77 -8q0 17 108 134l53 59h-195v33h262q0 -14 -101 -121l-62 -68q15 3 28 3z" />
    <glyph glyph-name="four.numr" horiz-adv-x="365" 
d="M346 394h-79v-98h-40v98h-210q0 27 93 202q67 122 71 144h41q-4 -24 -82 -166q-65 -124 -75 -147h163v126h39v-126h79v-33z" />
    <glyph glyph-name="five.numr" horiz-adv-x="347" 
d="M155 290q-67 0 -119 25v31q52 -22 116 -22q53 0 85.5 28t32.5 74t-32.5 74t-85.5 28t-101 -16l32 228h209v-33h-173l-24 -159q36 12 75 12q64 0 103 -36.5t39 -97.5t-43 -98.5t-114 -37.5z" />
    <glyph glyph-name="six.numr" horiz-adv-x="380" 
d="M211 562q61 0 98.5 -32t37.5 -90q0 -69 -40 -109.5t-112 -40.5q-73 0 -112.5 55.5t-39.5 159.5q0 241 176 241q58 0 96 -13v-32q-39 12 -90 12q-130 0 -140 -178q59 27 126 27zM195 324q52 0 81.5 31t29.5 85q0 43 -27 66t-77 23q-60 0 -118 -26q0 -87 28.5 -133
t82.5 -46z" />
    <glyph glyph-name="seven.numr" horiz-adv-x="309" 
d="M292 740q0 -38 -92 -262q-64 -162 -67 -182h-41q5 33 77 209q65 162 77 202h-232v33h278z" />
    <glyph glyph-name="eight.numr" horiz-adv-x="384" 
d="M268 523q74 -31 74 -110q0 -58 -40 -90.5t-110 -32.5t-110 32t-40 85q0 71 68 117q-56 30 -56 102q0 57 36 88.5t102 31.5q64 0 101 -30.5t37 -83.5q0 -70 -62 -109zM191 714q-46 0 -71.5 -22t-25.5 -62q0 -32 18 -54t49 -28l72 -14q57 40 57 96q0 39 -26 61.5t-73 22.5z
M192 323q51 0 80 23t29 63q0 71 -86 89l-68 14q-64 -45 -64 -103q0 -39 29 -62.5t80 -23.5z" />
    <glyph glyph-name="nine.numr" horiz-adv-x="380" 
d="M185 746q73 0 112.5 -55.5t39.5 -159.5q0 -241 -176 -241q-58 0 -96 13v32q39 -12 90 -12q130 0 140 178q-59 -27 -126 -27q-61 0 -98.5 32t-37.5 90q0 69 40 109.5t112 40.5zM74 596q0 -43 27 -66t77 -23q60 0 118 26q0 87 -28.5 133t-82.5 46q-52 0 -81.5 -31
t-29.5 -85z" />
    <glyph glyph-name="backslash.case" horiz-adv-x="362" 
d="M106 740l201 -740h-51l-201 740h51z" />
    <glyph glyph-name="exclamdown.case" horiz-adv-x="269" 
d="M172 713q0 -16 -11 -27t-27 -11t-26.5 11t-10.5 27t10.5 26.5t26.5 10.5t27 -10.5t11 -26.5zM107 0l2 594h50l3 -594h-55z" />
    <glyph glyph-name="numbersign.case" horiz-adv-x="682" 
d="M516 481l-64 -220h127l-12 -39h-126l-65 -222h-49l65 222h-198l-65 -222h-49l65 222h-107l12 39h106l64 220h-116l12 39h116l64 220h49l-64 -220h198l64 220h49l-64 -220h117l-12 -39h-117zM467 481h-198l-64 -220h198z" />
    <glyph glyph-name="questiondown.case" horiz-adv-x="484" 
d="M275 750q16 0 26.5 -10.5t10.5 -26.5t-10.5 -27t-26.5 -11t-27 11t-11 27t11 26.5t27 10.5zM300 594l1 -246q-15 3 -36 3q-77 0 -120.5 -42.5t-43.5 -117.5q0 -74 44.5 -115.5t124.5 -41.5q85 0 177 43v-42q-89 -45 -181 -45q-104 0 -162.5 51t-58.5 145q0 93 54.5 146
t150.5 55v207h50z" />
    <glyph glyph-name="slash.case" horiz-adv-x="362" 
d="M106 0h-51l201 740h51z" />
    <glyph glyph-name="braceleft.case" horiz-adv-x="407" 
d="M192 514q0 -122 -75 -144q75 -22 75 -144v-128q0 -50 23.5 -78.5t64.5 -28.5q46 0 84 11v-40q-45 -12 -96 -12q-59 0 -92.5 37t-33.5 102v132q0 61 -23.5 95t-65.5 34h-9v41h9q42 0 65.5 33.5t23.5 94.5v133q0 65 33.5 101.5t92.5 36.5q51 0 96 -12v-39q-40 10 -84 10
q-41 0 -64.5 -28.5t-23.5 -78.5v-128z" />
    <glyph glyph-name="braceright.case" horiz-adv-x="407" 
d="M215 642q0 50 -23.5 78.5t-64.5 28.5q-44 0 -84 -10v39q45 12 96 12q59 0 92.5 -36.5t33.5 -101.5v-133q0 -61 23.5 -94.5t65.5 -33.5h9v-41h-9q-42 0 -65.5 -34t-23.5 -95v-132q0 -65 -33.5 -102t-92.5 -37q-51 0 -96 12v40q39 -11 84 -11q41 0 64.5 28.5t23.5 78.5v128
q0 122 75 144q-75 22 -75 144v128z" />
    <glyph glyph-name="bracketleft.case" horiz-adv-x="366" 
d="M109 780h215v-41h-165v-738h165v-41h-215v820z" />
    <glyph glyph-name="bracketright.case" horiz-adv-x="366" 
d="M42 -40v41h165v738h-165v41h215v-820h-215z" />
    <glyph glyph-name="parenleft.case" horiz-adv-x="303" 
d="M258 780q-51 -71 -95.5 -183t-44.5 -227t44.5 -227t95.5 -183h-46q-148 195 -148 410t148 410h46z" />
    <glyph glyph-name="parenright.case" horiz-adv-x="303" 
d="M91 780q148 -195 148 -410t-148 -410h-46q51 71 95.5 183t44.5 227t-44.5 227t-95.5 183h46z" />
    <glyph glyph-name="emdash.case" horiz-adv-x="892" 
d="M809 386v-39h-726v39h726z" />
    <glyph glyph-name="endash.case" horiz-adv-x="570" 
d="M487 386v-39h-404v39h404z" />
    <glyph glyph-name="hyphen.case" horiz-adv-x="439" 
d="M356 386v-39h-273v39h273z" />
    <glyph glyph-name="uni00AD.case" horiz-adv-x="439" 
d="M356 386v-39h-273v39h273z" />
    <glyph glyph-name="guillemotleft.case" horiz-adv-x="560" 
d="M114 350l162 -209l-44 -13l-175 222l175 223l44 -13zM331 350l162 -209l-44 -13l-175 222l175 223l44 -13z" />
    <glyph glyph-name="guillemotright.case" horiz-adv-x="560" 
d="M286 350l-175 -222l-44 13l162 209l-162 210l44 13zM503 350l-175 -222l-44 13l162 209l-162 210l44 13z" />
    <glyph glyph-name="guilsinglleft.case" horiz-adv-x="343" 
d="M114 350l162 -209l-44 -13l-175 222l175 223l44 -13z" />
    <glyph glyph-name="guilsinglright.case" horiz-adv-x="343" 
d="M286 350l-175 -222l-44 13l162 209l-162 210l44 13z" />
    <glyph glyph-name="dollar.osf" horiz-adv-x="535" 
d="M477 187q0 -67 -52 -106t-145 -41v-50h-28v50q-109 4 -179 37v36q86 -33 179 -35v217l-26 7q-87 24 -128 52.5t-41 86.5q0 66 51.5 104t143.5 40v50h28v-50q94 -3 177 -32v-36q-93 30 -177 31v-208l22 -6q80 -22 127.5 -55.5t47.5 -91.5zM252 346v202q-71 -4 -108.5 -30
t-37.5 -70q0 -37 31 -59t115 -43zM280 78q72 4 110.5 30.5t38.5 73.5q0 69 -145 106l-4 1v-211z" />
    <glyph glyph-name="Euro.osf" horiz-adv-x="662" 
d="M436 33q91 0 162 29v-41q-84 -31 -174 -31q-129 0 -215.5 69.5t-106.5 187.5h-60v34h56q-1 10 -1 32t1 32h-56v33h60q20 118 104.5 187.5t211.5 69.5q83 0 170 -30v-40q-77 28 -157 28q-108 0 -181 -58t-92 -157h260v-33h-265q-1 -10 -1 -32t1 -32h265v-34h-260
q20 -99 94 -156.5t184 -57.5z" />
    <glyph glyph-name="uni20BD.osf" horiz-adv-x="594" 
d="M166 215h241v-34h-241v-181h-51v181h-54v34h54v63h-54v33h54v314h241q93 0 145.5 -46t52.5 -128t-60.5 -127.5t-167.5 -45.5h-160v-63zM166 319h172q77 0 120 34.5t43 97.5t-43.5 98t-122.5 35h-169v-265z" />
    <glyph glyph-name="uni20B9.osf" horiz-adv-x="563" 
d="M505 592h-248q137 -44 146 -157h102v-33h-101q-5 -80 -58 -124.5t-144 -44.5q-30 0 -55 4q30 -30 107 -96q122 -105 140 -130l-53 -16q-14 19 -105 100l-61.5 57l-50.5 48.5t-44.5 48.5t-13.5 28q51 -10 104 -10q84 0 130 34.5t51 100.5h-275v33h275q-15 152 -275 152v38
h429v-33z" />
    <glyph glyph-name="sterling.osf" horiz-adv-x="541" 
d="M474 39v-39h-370v297h-52v38h52v104q0 89 54.5 142.5t144.5 53.5q83 0 153 -28v-38q-67 25 -143 25q-71 0 -114.5 -44.5t-43.5 -117.5v-97h283v-38h-283v-258h319z" />
    <glyph glyph-name="yen.osf" horiz-adv-x="608" 
d="M572 625q-109 -185 -229 -350h144v-33h-158v-66h158v-34h-158v-142h-50v142h-158v34h158v66h-158v33h144q-120 165 -229 350h55q104 -176 213 -325q111 152 212 325h56z" />
    <glyph glyph-name="approxequal.case" 
d="M136 410q0 32 22.5 51.5t56.5 19.5q32 0 83 -36q62 -41 102 -41q50 0 82 28t32 75l-34 9q0 -32 -22.5 -51.5t-56.5 -19.5t-83 36q-59 41 -102 41q-49 0 -81.5 -28.5t-32.5 -74.5zM136 221q0 32 22.5 51.5t56.5 19.5q32 0 83 -36q62 -41 102 -41q50 0 82 28t32 75l-34 9
q0 -32 -22.5 -51.5t-56.5 -19.5t-83 36q-59 41 -102 41q-49 0 -81.5 -28.5t-32.5 -74.5z" />
    <glyph glyph-name="asciitilde.case" 
d="M136 324q0 32 22.5 51.5t56.5 19.5q32 0 83 -36q62 -41 102 -41q50 0 82 28t32 75l-34 9q0 -32 -22.5 -51.5t-56.5 -19.5t-83 36q-59 41 -102 41q-49 0 -81.5 -28.5t-32.5 -74.5z" />
    <glyph glyph-name="divide.case" 
d="M306 469q-16 0 -26.5 11t-10.5 27t10.5 26.5t26.5 10.5t27 -10.5t11 -26.5t-11 -27t-27 -11zM506 386v-39h-400v39h400zM306 189q-16 0 -26.5 10.5t-10.5 26.5t10.5 26.5t26.5 10.5t27 -10.5t11 -26.5t-11 -26.5t-27 -10.5z" />
    <glyph glyph-name="equal.case" 
d="M506 479v-38h-400v38h400zM506 292v-39h-400v39h400z" />
    <glyph glyph-name="greater.case" 
d="M524 381v-30l-400 -187v43l348 159l-348 159v44z" />
    <glyph glyph-name="greaterequal.case" 
d="M507 411v-30l-400 -170v41l345 144l-345 144v41zM507 124h-400v39h400v-39z" />
    <glyph glyph-name="less.case" 
d="M488 525l-348 -159l348 -159v-43l-400 187v30l400 188v-44z" />
    <glyph glyph-name="lessequal.case" 
d="M505 540l-345 -144l345 -144v-41l-400 170v30l400 170v-41zM505 163v-39h-400v39h400z" />
    <glyph glyph-name="logicalnot.case" 
d="M503 272h-45v155h-355v39h400v-194z" />
    <glyph glyph-name="minus.case" 
d="M506 386v-39h-400v39h400z" />
    <glyph glyph-name="multiply.case" 
d="M460 187l-153 152l-152 -153l-28 27l152 153l-153 151l28 28l152 -151l152 153l28 -28l-152 -153l153 -151z" />
    <glyph glyph-name="notequal.case" 
d="M363 441l-60 -149h203v-39h-218l-57 -142l-35 9l53 133h-143v39h159l60 149h-219v38h234l52 130l34 -11l-48 -119h128v-38h-143z" />
    <glyph glyph-name="plus.case" 
d="M506 347h-178v-170h-45v170h-178v39h178v170h45v-170h178v-39z" />
    <glyph glyph-name="plusminus.case" 
d="M507 415v-39h-178v-160h-45v160h-178v39h178v160h45v-160h178zM106 163h400v-39h-400v39z" />
    <glyph glyph-name="percent.osf" horiz-adv-x="765" 
d="M207 308q-71 0 -115 45t-44 119q0 73 44 118t115 45t114.5 -44.5t43.5 -118.5t-43.5 -119t-114.5 -45zM646 616l-492 -620l-42 12l493 621zM207 343q51 0 82.5 35.5t31.5 93.5t-31.5 93t-82.5 35t-82.5 -35t-31.5 -93t31.5 -93.5t82.5 -35.5zM559 -10q-71 0 -115 45
t-44 119q0 73 44 118t115 45t114.5 -44.5t43.5 -118.5t-43.5 -119t-114.5 -45zM559 25q51 0 82.5 35.5t31.5 93.5t-31.5 93t-82.5 35t-82.5 -35t-31.5 -93t31.5 -93.5t82.5 -35.5z" />
    <glyph glyph-name="perthousand.osf" horiz-adv-x="1121" 
d="M207 308q-71 0 -115 45t-44 119q0 73 44 118t115 45t114.5 -44.5t43.5 -118.5t-43.5 -119t-114.5 -45zM646 616l-492 -620l-42 12l493 621zM207 343q51 0 82.5 35.5t31.5 93.5t-31.5 93t-82.5 35t-82.5 -35t-31.5 -93t31.5 -93.5t82.5 -35.5zM559 -10q-71 0 -115 45
t-44 119q0 73 44 118t115 45t114.5 -44.5t43.5 -118.5t-43.5 -119t-114.5 -45zM927 -10q-71 0 -115 45t-44 119q0 73 44 118t115 45t114.5 -44.5t43.5 -118.5t-43.5 -119t-114.5 -45zM559 25q51 0 82.5 35.5t31.5 93.5t-31.5 93t-82.5 35t-82.5 -35t-31.5 -93t31.5 -93.5
t82.5 -35.5zM927 25q51 0 82.5 35.5t31.5 93.5t-31.5 93t-82.5 35t-82.5 -35t-31.5 -93t31.5 -93.5t82.5 -35.5z" />
    </font>
</defs>
</svg>
