<?xml version="1.0" standalone="no"?>
<!DOCTYPE svg PUBLIC "-//W3C//DTD SVG 1.1//EN" "http://www.w3.org/Graphics/SVG/1.1/DTD/svg11.dtd" >
<svg>
<metadata>
Created by FontForge 20090622 at Sun Aug 26 16:44:29 2018
 By deploy user
Copyright &#194;&#169; 2016 by Alberto Romanos. All rights reserved.
</metadata>
<defs>
<font id="BwMitga-Black" horiz-adv-x="612" >
  <font-face 
    font-family="Bw Mitga Black"
    font-weight="900"
    font-stretch="normal"
    units-per-em="1000"
    panose-1="0 0 10 0 0 0 0 0 0 0"
    ascent="780"
    descent="-220"
    x-height="548"
    cap-height="740"
    bbox="-889 -233 1409 1042"
    underline-thickness="50"
    underline-position="-50"
    unicode-range="U+000D-U+FB02"
  />
<missing-glyph horiz-adv-x="1274" 
d="M846 -3q-7 -7 -17 -7q-20 0 -20 23v324l-339 -340q-7 -7 -17 -7q-20 0 -20 23v324l-340 -340q-7 -7 -17 -7q-17 0 -17 18q0 10 5 15l342 341h-324q-23 0 -23 19q0 7 7 16l340 342h-327q-20 0 -20 19v1q0 19 20 19h370q23 0 23 -20q0 -10 -8 -17l-341 -340h330q8 0 14 -6
t6 -14v-327l339 338q7 8 17 8q18 0 18 -22v-324l340 338q6 8 16 8q7 0 12 -5.5t5 -13.5q0 -9 -6 -14z" />
    <glyph glyph-name="fi" unicode="fi" horiz-adv-x="762" 
d="M608 609q-47 0 -77.5 30.5t-30.5 77.5t30.5 77.5t77.5 30.5t78 -30.5t31 -77.5t-31 -77.5t-78 -30.5zM109 584q0 93 62.5 149.5t163.5 56.5q57 0 125 -13v-138q-33 3 -63 3q-44 0 -71 -20.5t-27 -53.5v-20h140v-134h-140v-414h-190v414h-78v134h78v36zM512 548h190v-548
h-190v548z" />
    <glyph glyph-name="fl" unicode="fl" horiz-adv-x="762" 
d="M702 793v-793h-190v738zM109 584q0 93 62.5 149.5t163.5 56.5q57 0 125 -13v-138q-33 3 -63 3q-44 0 -71 -20.5t-27 -53.5v-20h140v-134h-140v-414h-190v414h-78v134h78v36z" />
    <glyph glyph-name=".notdef" horiz-adv-x="1274" 
d="M846 -3q-7 -7 -17 -7q-20 0 -20 23v324l-339 -340q-7 -7 -17 -7q-20 0 -20 23v324l-340 -340q-7 -7 -17 -7q-17 0 -17 18q0 10 5 15l342 341h-324q-23 0 -23 19q0 7 7 16l340 342h-327q-20 0 -20 19v1q0 19 20 19h370q23 0 23 -20q0 -10 -8 -17l-341 -340h330q8 0 14 -6
t6 -14v-327l339 338q7 8 17 8q18 0 18 -22v-324l340 338q6 8 16 8q7 0 12 -5.5t5 -13.5q0 -9 -6 -14z" />
    <glyph glyph-name=".null" horiz-adv-x="0" 
 />
    <glyph glyph-name="nonmarkingreturn" horiz-adv-x="333" 
 />
    <glyph glyph-name="CR" unicode="&#xd;" horiz-adv-x="238" 
 />
    <glyph glyph-name="space" unicode=" " horiz-adv-x="238" 
 />
    <glyph glyph-name="exclam" unicode="!" horiz-adv-x="337" 
d="M263 261h-190l-3 479h197zM168 -10q-47 0 -77.5 30.5t-30.5 77.5t30.5 78t77.5 31t78 -31t31 -78t-31 -77.5t-78 -30.5z" />
    <glyph glyph-name="quotedbl" unicode="&#x22;" horiz-adv-x="490" 
d="M57 529h143l34 251h-177v-251zM274 529h143l34 251h-177v-251z" />
    <glyph glyph-name="numbersign" unicode="#" horiz-adv-x="810" 
d="M649 361l-27 -95h94l-39 -134h-93l-38 -132h-177l38 132h-105l-38 -132h-177l38 132h-90l39 134h89l27 95h-96l39 134h95l44 153h177l-44 -153h105l44 153h177l-44 -153h88l-39 -134h-87zM472 361h-105l-27 -95h105z" />
    <glyph glyph-name="dollar" unicode="$" horiz-adv-x="635" 
d="M598 229q0 -105 -63.5 -167t-178.5 -71v-60h-75v60q-130 9 -212 53v147q98 -44 201 -44h11v130l-18 6q-50 17 -76.5 27t-60 28.5t-49.5 38t-27.5 51t-11.5 71.5q0 110 63.5 174.5t179.5 74.5v60h75v-59q109 -6 195 -44v-147q-102 35 -184 35h-11v-114l24 -7
q100 -29 159 -85.5t59 -157.5zM222 541q0 -19 13.5 -29t45.5 -20v96q-59 -9 -59 -47zM356 152q32 5 46 17t14 34t-17 38t-43 24v-113z" />
    <glyph glyph-name="percent" unicode="%" horiz-adv-x="986" 
d="M238 400q-93 0 -149.5 48t-56.5 127t57 127t149 48t148 -48t56 -127t-56 -127t-148 -48zM836 706l-542 -712l-141 40l542 712zM237 515q26 0 42.5 16.5t16.5 43.5t-16.5 43t-42.5 16t-42.5 -16t-16.5 -43t16.5 -43.5t42.5 -16.5zM750 -10q-92 0 -149 48t-57 127t56.5 127
t149.5 48q92 0 148 -48t56 -127t-56 -127t-148 -48zM749 106q26 0 42.5 16t16.5 43t-16.5 43.5t-42.5 16.5t-42.5 -16.5t-16.5 -43.5t16.5 -43t42.5 -16z" />
    <glyph glyph-name="ampersand" unicode="&#x26;" horiz-adv-x="762" 
d="M570 -7q-20 28 -31 42q-92 -45 -211 -45q-131 0 -211.5 62.5t-80.5 164.5q0 126 134 202q-72 83 -72 140q0 86 67 138.5t179 52.5q110 0 177.5 -52.5t65.5 -138.5q-2 -64 -43 -102t-114 -69l113 -103q15 42 15 94l166 -46q0 -103 -51 -182q44 -52 77 -102zM290 558
q0 -27 35 -68q70 32 70 68q0 20 -14.5 32t-38.5 12t-38 -12.5t-14 -31.5zM328 138q57 0 102 21l-156 152q-47 -39 -47 -94q0 -35 27.5 -57t73.5 -22z" />
    <glyph glyph-name="quotesingle" unicode="'" horiz-adv-x="273" 
d="M57 529h143l34 251h-177v-251z" />
    <glyph glyph-name="parenleft" unicode="(" horiz-adv-x="388" 
d="M364 780q-130 -228 -130 -480q0 -253 130 -480h-177q-148 230 -148 480t148 480h177z" />
    <glyph glyph-name="parenright" unicode=")" horiz-adv-x="388" 
d="M201 780q148 -230 148 -480t-148 -480h-177q130 227 130 480q0 252 -130 480h177z" />
    <glyph glyph-name="asterisk" unicode="*" horiz-adv-x="391" 
d="M277 605l52 -62l-89 -65l-44 69l-44 -69l-88 63l52 64l-79 20l33 104l75 -30l-5 81h111l-5 -80l74 29l34 -104z" />
    <glyph glyph-name="plus" unicode="+" 
d="M564 225h-176v-181h-162v181h-178v134h178v181h162v-181h176v-134z" />
    <glyph glyph-name="comma" unicode="," horiz-adv-x="320" 
d="M158 226q51 0 84.5 -37.5t33.5 -102.5q0 -78 -53 -139.5t-151 -101.5q-9 35 -9 75q0 55 31 99q-54 30 -54 97q0 47 34.5 78.5t83.5 31.5z" />
    <glyph glyph-name="hyphen" unicode="-" horiz-adv-x="522" 
d="M464 359v-134h-406v134h406z" />
    <glyph glyph-name="period" unicode="." horiz-adv-x="314" 
d="M157 -10q-49 0 -83.5 34.5t-34.5 83.5t34.5 83.5t83.5 34.5t83.5 -34.5t34.5 -83.5t-34.5 -83.5t-83.5 -34.5z" />
    <glyph glyph-name="slash" unicode="/" horiz-adv-x="488" 
d="M220 -100h-191l239 880h191z" />
    <glyph glyph-name="zero" unicode="0" horiz-adv-x="735" 
d="M368 -10q-147 0 -236.5 104.5t-89.5 275.5t89.5 275.5t236.5 104.5q146 0 235.5 -104.5t89.5 -275.5t-89.5 -275.5t-235.5 -104.5zM368 152q55 0 88.5 60t33.5 158t-33.5 158t-88.5 60q-56 0 -90 -60t-34 -158t34 -158t90 -60z" />
    <glyph glyph-name="one" unicode="1" horiz-adv-x="448" 
d="M22 664l304 86h43v-750h-196v538l-151 -36v162z" />
    <glyph glyph-name="two" unicode="2" horiz-adv-x="622" 
d="M377 251q-68 -54 -107 -93l297 4v-162h-536q0 39 7.5 75t17.5 63.5t31 58.5t35.5 49.5t43.5 46.5t43 40l46 39q47 39 66.5 57.5t36 43.5t16.5 48q0 67 -108 67q-94 0 -207 -49v150q99 61 230 61q128 0 205.5 -57.5t77.5 -161.5q0 -82 -46.5 -141t-148.5 -139z" />
    <glyph glyph-name="three" unicode="3" horiz-adv-x="613" 
d="M367 461q93 -11 148 -72.5t55 -154.5q0 -110 -89.5 -177t-235.5 -67q-114 0 -193 47v148q60 -33 146 -33q76 0 122.5 22.5t46.5 59.5t-41 59.5t-108 22.5q-77 0 -146 -24q0 13 5 30t17.5 39l22.5 39.5t30.5 46l31.5 43l35 46.5l32 42h-186v162h498q0 -9 -3.5 -20
t-11.5 -25.5t-16 -27.5t-22 -32.5l-24 -33l-28 -36l-28.5 -35l-30 -36z" />
    <glyph glyph-name="four" unicode="4" horiz-adv-x="647" 
d="M624 129h-82v-129h-196v129h-335q0 37 22 103t42.5 112l63.5 139q89 190 106 257h203q-11 -64 -117 -284q-51 -105 -77 -166h95v108h193v-108h82v-161z" />
    <glyph glyph-name="five" unicode="5" horiz-adv-x="607" 
d="M241 -10q-114 0 -193 47v148q66 -33 160 -33q70 0 112.5 23.5t42.5 63.5q0 39 -40.5 63t-106.5 24q-89 0 -160 -23l51 437h419v-162h-241l-19 -109q30 4 58 4q109 0 175.5 -64.5t66.5 -169.5q0 -112 -89.5 -180.5t-235.5 -68.5z" />
    <glyph glyph-name="six" unicode="6" horiz-adv-x="675" 
d="M390 486q44 0 86 -14.5t79 -43t59.5 -77.5t22.5 -111q0 -105 -78 -177.5t-212 -72.5q-153 0 -227.5 85t-74.5 274q0 207 98 304t269 97q100 0 171 -30v-150q-53 18 -128 18q-86 0 -133.5 -31t-64.5 -102q65 31 133 31zM344 152q45 0 68 26t23 62q0 84 -99 84
q-46 0 -88 -19q2 -86 22.5 -119.5t73.5 -33.5z" />
    <glyph glyph-name="seven" unicode="7" horiz-adv-x="562" 
d="M549 740q0 -44 -22 -123t-43 -134.5l-64 -167.5q-92 -229 -109 -315h-203q5 37 26.5 102t38.5 110l55 139q64 160 87 227h-294v162h528z" />
    <glyph glyph-name="eight" unicode="8" horiz-adv-x="661" 
d="M520 404q100 -63 100 -179q0 -111 -77 -173t-212 -62q-134 0 -212.5 58t-78.5 149q0 94 86 166q-54 57 -54 145q0 112 68.5 177t190.5 65q117 0 187 -57.5t70 -145.5q0 -71 -68 -143zM330 593q-66 0 -66 -60q0 -58 85 -74l11 -2q36 39 36 81q0 23 -18 39t-48 16zM328 147
q43 0 68 14.5t25 40.5q0 54 -114 81l-29 7q-40 -40 -40 -76q0 -31 24 -49t66 -18z" />
    <glyph glyph-name="nine" unicode="9" horiz-adv-x="675" 
d="M328 750q153 0 227.5 -85t74.5 -274q0 -207 -98 -304t-269 -97q-100 0 -171 30v150q53 -18 128 -18q86 0 133.5 31t64.5 102q-65 -31 -133 -31q-44 0 -86 14.5t-79 43t-59.5 77.5t-22.5 111q0 105 78 177.5t212 72.5zM240 500q0 -84 99 -84q46 0 88 19q-2 86 -22.5 119.5
t-73.5 33.5q-45 0 -68 -26t-23 -62z" />
    <glyph glyph-name="colon" unicode=":" horiz-adv-x="336" 
d="M168 322q-49 0 -83.5 34.5t-34.5 83.5t34.5 83.5t83.5 34.5t83.5 -34.5t34.5 -83.5t-34.5 -83.5t-83.5 -34.5zM168 -10q-49 0 -83.5 34.5t-34.5 83.5t34.5 83.5t83.5 34.5t83.5 -34.5t34.5 -83.5t-34.5 -83.5t-83.5 -34.5z" />
    <glyph glyph-name="semicolon" unicode=";" horiz-adv-x="338" 
d="M168 322q-49 0 -83.5 34.5t-34.5 83.5t34.5 83.5t83.5 34.5t83.5 -34.5t34.5 -83.5t-34.5 -83.5t-83.5 -34.5zM168 226q51 0 84.5 -37.5t33.5 -102.5q0 -78 -53 -139.5t-151 -101.5q-9 35 -9 75q0 55 31 99q-54 30 -54 97q0 47 34.5 78.5t83.5 31.5z" />
    <glyph glyph-name="less" unicode="&#x3c;" 
d="M550 404l-351 -112l351 -112v-149l-514 199v124l514 199v-149z" />
    <glyph glyph-name="equal" unicode="=" 
d="M564 470v-134h-517v134h517zM564 248v-134h-517v134h517z" />
    <glyph glyph-name="greater" unicode="&#x3e;" 
d="M576 354v-124l-514 -199v149l351 112l-351 112v149z" />
    <glyph glyph-name="question" unicode="?" horiz-adv-x="528" 
d="M135 261l-2 212q22 -6 54 -6q49 0 76.5 18t27.5 49q0 59 -96 59q-71 0 -157 -35v147q87 45 200 45q119 0 187 -52t68 -161q0 -71 -46.5 -119.5t-118.5 -59.5l-2 -97h-191zM230 -10q-47 0 -77.5 30.5t-30.5 77.5t30.5 78t77.5 31t78 -31t31 -78t-31 -77.5t-78 -30.5z" />
    <glyph glyph-name="at" unicode="@" horiz-adv-x="1176" 
d="M666 473q72 35 154 35v-311q7 -1 18 -1q49 0 78.5 39.5t29.5 103.5q0 136 -98 219.5t-259 83.5q-160 0 -258 -104.5t-98 -275.5q0 -155 93 -249.5t246 -94.5q168 0 304 26l4 -138q-147 -36 -316 -36q-237 0 -382 136.5t-145 359.5q0 236 152 380t401 144
q246 0 395.5 -121t149.5 -319q0 -136 -76 -219t-201 -83q-96 0 -191 41q-62 -40 -142 -40q-90 0 -144.5 63t-54.5 166q0 105 56 169t147 64q77 0 137 -38zM522 277q0 -36 17 -57.5t46 -21.5q21 0 45 7v151q-18 6 -39 6q-31 0 -50 -23t-19 -62z" />
    <glyph glyph-name="A" unicode="A" horiz-adv-x="773" 
d="M581 0l-43 94h-302l-43 -94h-209q229 462 398 750h10q176 -303 398 -750h-209zM472 255l-85 166l-85 -166h170z" />
    <glyph glyph-name="B" unicode="B" horiz-adv-x="734" 
d="M576 397q58 -23 90.5 -67.5t32.5 -103.5q0 -102 -70 -164t-186 -62h-364v740h370q92 0 148.5 -56t56.5 -149q0 -83 -78 -138zM275 452h107q32 0 51 17.5t19 45.5q0 29 -18 46t-48 17h-111v-126zM415 162q37 0 59 20t22 53t-22 53t-58 20h-141v-146h140z" />
    <glyph glyph-name="C" unicode="C" horiz-adv-x="692" 
d="M645 562q-58 26 -154 26q-113 0 -181.5 -60t-68.5 -158t70.5 -158t186.5 -60q35 0 83.5 7t73.5 18v-150q-96 -37 -222 -37q-178 0 -286 104.5t-108 275.5t106.5 275.5t281.5 104.5q127 0 218 -38v-150z" />
    <glyph glyph-name="D" unicode="D" horiz-adv-x="811" 
d="M403 740q166 0 267.5 -101.5t101.5 -267.5q0 -167 -101.5 -269t-267.5 -102h-324v740h324zM407 162q74 0 118.5 57.5t44.5 151.5q0 93 -45 150t-118 57h-132v-416h132z" />
    <glyph glyph-name="E" unicode="E" horiz-adv-x="676" 
d="M627 162v-162h-548v740h541v-162h-345v-124h308v-161h-308v-131h352z" />
    <glyph glyph-name="F" unicode="F" horiz-adv-x="616" 
d="M275 578v-144h258v-161h-258v-273h-196v740h508v-162h-312z" />
    <glyph glyph-name="G" unicode="G" horiz-adv-x="788" 
d="M736 -6q-93 0 -163 35q-86 -39 -185 -39q-154 0 -251.5 102.5t-97.5 272.5q0 176 106.5 280.5t285.5 104.5q65 0 135 -13t117 -35v-150q-33 16 -90 26t-99 10q-122 0 -187.5 -59t-65.5 -163q0 -98 52 -156t144 -58q50 0 103 16v115h-122v161h318v-450z" />
    <glyph glyph-name="H" unicode="H" horiz-adv-x="865" 
d="M786 0h-196v297h-315v-297h-196v740h196v-281h315v281h196v-740z" />
    <glyph glyph-name="I" unicode="I" horiz-adv-x="354" 
d="M275 0h-196v740h196v-740z" />
    <glyph glyph-name="J" unicode="J" horiz-adv-x="567" 
d="M494 209q0 -99 -75.5 -159t-199.5 -60q-49 0 -100.5 8.5t-72.5 18.5v148q55 -13 137 -13q52 0 83.5 29t31.5 77v320h-249v162h445v-531z" />
    <glyph glyph-name="K" unicode="K" horiz-adv-x="747" 
d="M534 0q-97 152 -259 341v-341h-196v740h196v-321q155 187 240 321h222q-117 -177 -273 -359q61 -66 118 -139.5t83 -110.5l90 -131h-221z" />
    <glyph glyph-name="L" unicode="L" horiz-adv-x="592" 
d="M582 162v-162h-503v740h196v-578h307z" />
    <glyph glyph-name="M" unicode="M" horiz-adv-x="1023" 
d="M512 371q124 147 252.5 263t179.5 116v-750h-195l4 341q-126 -125 -237 -265h-9q-119 151 -236 265l4 -341h-196v750q51 0 179 -115.5t254 -263.5z" />
    <glyph glyph-name="N" unicode="N" horiz-adv-x="896" 
d="M817 -10q-23 0 -66 24t-117 82l-115.5 92l-137.5 114l-109 91l3 -393h-196v750q23 0 68 -25.5t117 -82l119.5 -95.5l137.5 -115l103 -86l-3 394h196v-750z" />
    <glyph glyph-name="O" unicode="O" horiz-adv-x="884" 
d="M443 -10q-182 0 -293.5 104.5t-111.5 275.5t111.5 275.5t293.5 104.5q181 0 292 -104.5t111 -275.5t-111 -275.5t-292 -104.5zM443 152q90 0 145.5 60t55.5 158t-55.5 158t-145.5 60q-91 0 -147 -60t-56 -158t56 -158t147 -60z" />
    <glyph glyph-name="P" unicode="P" horiz-adv-x="703" 
d="M405 740q123 0 198.5 -71t75.5 -187q0 -122 -78 -197t-206 -75h-120v-210h-196v740h326zM385 372q42 0 66.5 28.5t24.5 75.5q0 46 -24.5 74t-66.5 28h-110v-206h110z" />
    <glyph glyph-name="Q" unicode="Q" horiz-adv-x="884" 
d="M846 370q0 -123 -60 -214.5t-166 -133.5q82 -89 160 -199l-187 -56q-70 110 -167 223q-175 5 -281.5 109t-106.5 271q0 171 111.5 275.5t293.5 104.5q181 0 292 -104.5t111 -275.5zM240 370q0 -98 56 -158t147 -60q90 0 145.5 60t55.5 158t-55.5 158t-145.5 60
q-91 0 -147 -60t-56 -158z" />
    <glyph glyph-name="R" unicode="R" horiz-adv-x="773" 
d="M589 275q108 -149 176 -275h-225q-74 151 -238 353q34 -10 79 -10q50 0 77.5 32t27.5 86q0 53 -28.5 85t-76.5 32h-106v-578h-196v740h322q129 0 208.5 -71t79.5 -187q0 -134 -100 -207z" />
    <glyph glyph-name="S" unicode="S" horiz-adv-x="662" 
d="M427 203q0 26 -29 40.5t-89 29.5l-31 8q-62 16 -99.5 30.5t-71.5 40t-49 63.5t-15 93q0 116 77.5 179t216.5 63q134 0 239 -45v-147q-108 35 -194 35q-141 0 -141 -51q0 -17 16 -29t37.5 -18.5t59.5 -16.5q9 -2 13 -3l28 -7q109 -27 169 -82t60 -157q0 -112 -76.5 -175.5
t-211.5 -63.5q-66 0 -138.5 14t-122.5 40v147q103 -44 210 -44q142 0 142 56z" />
    <glyph glyph-name="T" unicode="T" horiz-adv-x="650" 
d="M638 578h-215v-578h-196v578h-215v162h626v-162z" />
    <glyph glyph-name="U" unicode="U" horiz-adv-x="825" 
d="M753 740v-499q0 -113 -93.5 -182t-247.5 -69q-153 0 -246.5 69t-93.5 182v499h196v-463q0 -56 40 -90.5t106 -34.5q64 0 103.5 34.5t39.5 90.5v463h196z" />
    <glyph glyph-name="V" unicode="V" horiz-adv-x="758" 
d="M772 740q-219 -453 -388 -750h-10q-161 282 -388 750h209l184 -397l184 397h209z" />
    <glyph glyph-name="W" unicode="W" horiz-adv-x="1182" 
d="M1197 740q-198 -454 -350 -750h-10q-153 273 -245 459q-125 -246 -249 -459h-9q-139 274 -347 750h209l159 -370l178 370h118q89 -195 179 -370l157 370h210z" />
    <glyph glyph-name="X" unicode="X" horiz-adv-x="739" 
d="M522 0q-63 116 -152 249q-89 -133 -152 -249h-220q76 137 259 385q-121 157 -243 355h220q68 -118 135 -219q67 101 135 219h220q-105 -175 -242 -355q181 -243 260 -385h-220z" />
    <glyph glyph-name="Y" unicode="Y" horiz-adv-x="720" 
d="M715 740q-132 -279 -257 -479v-261h-196v263q-118 188 -256 477h209q65 -154 146 -317q84 174 145 317h209z" />
    <glyph glyph-name="Z" unicode="Z" horiz-adv-x="653" 
d="M618 162v-162h-584q0 41 32 113t65 128l94 153q79 125 111 184h-296v162h572q0 -41 -32 -113t-65 -128l-94 -153q-79 -125 -111 -184h308z" />
    <glyph glyph-name="bracketleft" unicode="[" horiz-adv-x="417" 
d="M73 780h308v-148h-118v-664h118v-148h-308v960z" />
    <glyph glyph-name="backslash" unicode="\" horiz-adv-x="488" 
d="M220 780l239 -880h-191l-239 880h191z" />
    <glyph glyph-name="bracketright" unicode="]" horiz-adv-x="417" 
d="M36 -180v148h118v664h-118v148h308v-960h-308z" />
    <glyph glyph-name="asciicircum" unicode="^" 
d="M409 295l-103 188l-102 -188l-150 40l158 320h188l158 -320z" />
    <glyph glyph-name="underscore" unicode="_" horiz-adv-x="676" 
d="M636 0v-134h-596v134h596z" />
    <glyph glyph-name="grave" unicode="`" horiz-adv-x="418" 
d="M13 762l178 -152l125 35l-134 165z" />
    <glyph glyph-name="a" unicode="a" horiz-adv-x="605" 
d="M551 -6q-86 0 -158 35q-76 -39 -168 -39q-93 0 -143.5 46t-50.5 131t58 130.5t166 45.5q53 0 106 -20v13q0 35 -25.5 54.5t-71.5 19.5q-92 0 -190 -24v138q94 34 229 34q117 0 182.5 -54.5t65.5 -151.5v-358zM227 171q0 -47 77 -47q27 0 57 11v75q-31 12 -57 12
q-77 0 -77 -51z" />
    <glyph glyph-name="b" unicode="b" horiz-adv-x="684" 
d="M373 558q125 0 201 -78.5t76 -206.5t-72.5 -205.5t-190.5 -77.5q-91 0 -165 41q-69 -37 -162 -37v744l190 55v-263q61 28 123 28zM338 138q54 0 85 37t31 99q0 61 -35 98.5t-93 37.5q-34 0 -76 -21v-228q46 -23 88 -23z" />
    <glyph glyph-name="c" unicode="c" horiz-adv-x="559" 
d="M511 388q-56 22 -115 22q-75 0 -120.5 -37.5t-45.5 -98.5t46.5 -98.5t122.5 -37.5q54 0 122 20v-138q-73 -30 -184 -30q-136 0 -219.5 78t-83.5 206t83 206t220 78q88 0 174 -32v-138z" />
    <glyph glyph-name="d" unicode="d" horiz-adv-x="684" 
d="M624 -6q-93 0 -161 37q-76 -41 -166 -41q-118 0 -190.5 77.5t-72.5 205.5t76 206.5t201 78.5q62 0 123 -28v208l190 55v-799zM230 274q0 -62 31 -99t85 -37q42 0 88 23v228q-42 21 -76 21q-58 0 -93 -37.5t-35 -98.5z" />
    <glyph glyph-name="e" unicode="e" horiz-adv-x="619" 
d="M585 283q0 -37 -7 -76h-347q7 -37 34.5 -53t94.5 -16q84 0 187 28v-139q-94 -37 -232 -37q-130 0 -205 70.5t-75 206.5q0 131 75.5 211t199.5 80t199.5 -75.5t75.5 -199.5zM311 416q-68 0 -81 -89h161q-13 89 -80 89z" />
    <glyph glyph-name="f" unicode="f" horiz-adv-x="452" 
d="M397 642q-44 0 -71 -20.5t-27 -53.5v-20h140v-134h-140v-414h-190v414h-78v134h78v36q0 93 62.5 149.5t163.5 56.5q57 0 125 -13v-138q-33 3 -63 3z" />
    <glyph glyph-name="g" unicode="g" horiz-adv-x="606" 
d="M195 189q0 -12 8.5 -19.5t29.5 -12.5t36.5 -7.5t49.5 -6.5t52.5 -6.5t51.5 -9.5t52.5 -15t44.5 -22t38.5 -31t23 -43t9.5 -57q0 -105 -75.5 -147t-242.5 -42q-60 0 -122.5 10.5t-94.5 29.5v125q87 -31 237 -31q116 0 116 27q0 17 -28 24t-90 14q-40 4 -59.5 7t-57 10
t-58 17t-43.5 25t-33.5 38t-10.5 53q0 78 74 147q-47 45 -47 112q0 58 35 102t99 63l348 105l39 -128l-85 -19q66 -52 66 -127q0 -79 -68.5 -127.5t-181.5 -48.5q-61 0 -109 15q-4 -11 -4 -24zM307 318q28 0 45.5 17t17.5 45q0 26 -17 42t-45 16q-29 0 -47 -16.5t-18 -43.5
t17.5 -43.5t46.5 -16.5z" />
    <glyph glyph-name="h" unicode="h" horiz-adv-x="673" 
d="M417 558q201 0 201 -221v-337h-190v322q0 88 -89 88q-45 0 -89 -27v-383h-190v738l190 55v-276q88 41 167 41z" />
    <glyph glyph-name="i" unicode="i" horiz-adv-x="310" 
d="M156 609q-47 0 -77.5 30.5t-30.5 77.5t30.5 77.5t77.5 30.5t78 -30.5t31 -77.5t-31 -77.5t-78 -30.5zM250 548v-548h-190v548h190z" />
    <glyph glyph-name="j" unicode="j" horiz-adv-x="311" 
d="M156 609q-47 0 -77.5 30.5t-30.5 77.5t30.5 77.5t77.5 30.5t78 -30.5t31 -77.5t-31 -77.5t-78 -30.5zM-40 -79q1 0 13 -1.5t19 -1.5q31 0 49.5 17t18.5 45v568h191v-598q0 -80 -53.5 -130t-141.5 -50q-47 0 -96 13v138z" />
    <glyph glyph-name="k" unicode="k" horiz-adv-x="627" 
d="M413 0q-67 122 -163 243v-243h-190v738l190 55v-462q98 122 153 217h220q-62 -97 -195 -260q104 -119 204 -288h-219z" />
    <glyph glyph-name="l" unicode="l" horiz-adv-x="310" 
d="M60 738l190 55v-793h-190v738z" />
    <glyph glyph-name="m" unicode="m" horiz-adv-x="944" 
d="M660 558q108 0 168.5 -54t60.5 -167v-337h-190v325q0 85 -74 85q-30 0 -57 -16v-394h-190v325q0 85 -73 85q-29 0 -55 -17v-393h-190v554q93 0 164 -38q76 42 142 42q93 0 145 -44q57 44 149 44z" />
    <glyph glyph-name="n" unicode="n" horiz-adv-x="673" 
d="M417 558q201 0 201 -221v-337h-190v322q0 88 -89 88q-45 0 -89 -27v-383h-190v554q102 0 176 -44q93 48 181 48z" />
    <glyph glyph-name="o" unicode="o" horiz-adv-x="674" 
d="M338 -10q-137 0 -221 78t-84 206t84 206t221 78q136 0 219.5 -78t83.5 -206q0 -127 -83.5 -205.5t-219.5 -78.5zM337 138q48 0 78 37.5t30 98.5t-30 98.5t-78 37.5q-49 0 -78.5 -37.5t-29.5 -98.5t29.5 -98.5t78.5 -37.5z" />
    <glyph glyph-name="p" unicode="p" horiz-adv-x="684" 
d="M387 558q118 0 190.5 -77.5t72.5 -205.5t-76 -206.5t-201 -78.5q-62 0 -123 28v-238h-190v774q94 0 162 -37q76 41 165 41zM326 138q58 0 93 37.5t35 98.5q0 62 -31 99t-85 37q-42 0 -88 -23v-228q42 -21 76 -21z" />
    <glyph glyph-name="q" unicode="q" horiz-adv-x="684" 
d="M462 517q68 37 162 37v-774h-190v238q-61 -28 -123 -28q-125 0 -201 78.5t-76 206.5t72.5 205.5t190.5 77.5q89 0 165 -41zM358 138q34 0 76 21v228q-46 23 -88 23q-54 0 -85 -37t-31 -99q0 -61 35 -98.5t93 -37.5z" />
    <glyph glyph-name="r" unicode="r" horiz-adv-x="425" 
d="M406 379q-92 0 -156 -22v-357h-190v554q98 0 169 -40q85 44 177 44v-179z" />
    <glyph glyph-name="s" unicode="s" horiz-adv-x="520" 
d="M291 157q0 22 -63 35l-29 6q-82 17 -121 51t-39 111q0 93 60.5 145.5t167.5 52.5q106 0 179 -33v-133q-69 24 -139 24q-75 0 -75 -24q0 -16 63 -30l27 -6q79 -18 121 -57.5t42 -119.5q0 -89 -59.5 -139t-164.5 -50q-120 0 -200 42v132q75 -31 166 -31q36 0 50 5.5
t14 18.5z" />
    <glyph glyph-name="t" unicode="t" horiz-adv-x="475" 
d="M374 138q36 0 75 3v-138q-75 -13 -137 -13q-95 0 -152.5 54.5t-57.5 143.5v226h-80v134h80v106l190 54v-160h152v-134h-152v-196q0 -36 22.5 -58t59.5 -22z" />
    <glyph glyph-name="u" unicode="u" horiz-adv-x="648" 
d="M588 -6q-96 0 -164 38q-87 -42 -168 -42q-201 0 -201 221v337h190v-322q0 -88 89 -88q33 0 64 14v396h190v-554z" />
    <glyph glyph-name="v" unicode="v" 
d="M617 548q-123 -253 -307 -558h-8q-179 297 -306 558h203q38 -103 108 -234q70 134 107 234h203z" />
    <glyph glyph-name="w" unicode="w" horiz-adv-x="912" 
d="M918 548q-140 -307 -278 -558h-8q-87 143 -176 322q-87 -175 -178 -322h-8q-127 233 -275 558h203q30 -90 87 -219q60 116 96 219h150q37 -103 96 -219q46 99 88 219h203z" />
    <glyph glyph-name="x" unicode="x" horiz-adv-x="596" 
d="M383 0l-84 147q-51 -82 -85 -147h-210q56 101 188 286q-83 107 -179 262h210l75 -125l74 125h210q-83 -137 -178 -261q130 -181 189 -287h-210z" />
    <glyph glyph-name="y" unicode="y" horiz-adv-x="621" 
d="M629 548l-399 -768h-194l187 342l-215 426h203l108 -244l107 244h203z" />
    <glyph glyph-name="z" unicode="z" horiz-adv-x="553" 
d="M524 134v-134h-496q0 24 24.5 76.5t48.5 94.5l72 120l73 123h-214v134h487q0 -24 -24 -76t-49.5 -95l-71.5 -120l-73 -123h223z" />
    <glyph glyph-name="braceleft" unicode="{" horiz-adv-x="449" 
d="M300 408q0 -40 -24 -69t-66 -39q42 -10 66 -39t24 -69v-164q0 -32 19 -51t49 -19q22 0 46 4v-139q-58 -13 -124 -13q-85 0 -132.5 46t-47.5 128v192q0 23 -19.5 36.5t-54.5 13.5h-4v148h4q35 0 54.5 13.5t19.5 36.5v193q0 81 47.5 127t132.5 46q66 0 124 -13v-139
q-16 4 -46 4t-49 -19t-19 -51v-164z" />
    <glyph glyph-name="bar" unicode="|" horiz-adv-x="342" 
d="M269 780v-1000h-196v1000h196z" />
    <glyph glyph-name="braceright" unicode="}" horiz-adv-x="449" 
d="M149 572q0 32 -18.5 51t-49.5 19q-30 0 -46 -4v139q58 13 124 13q85 0 132.5 -46t47.5 -127v-193q0 -23 19.5 -36.5t54.5 -13.5h4v-148h-4q-35 0 -54.5 -13.5t-19.5 -36.5v-192q0 -82 -47.5 -128t-132.5 -46q-65 0 -124 13v139q24 -4 46 -4q31 0 49.5 19t18.5 51v164
q0 40 24 69t66 39q-42 10 -66 39t-24 69v164z" />
    <glyph glyph-name="asciitilde" unicode="~" 
d="M153 204q0 22 13 35t37 13q20 0 76 -18q92 -27 134 -27q67 0 106 39.5t39 111.5l-99 29q0 -46 -50 -46q-19 0 -76 17q-87 26 -134 26q-66 0 -105.5 -41.5t-39.5 -109.5z" />
    <glyph glyph-name="uni00A0" unicode="&#xa0;" horiz-adv-x="238" 
 />
    <glyph glyph-name="exclamdown" unicode="&#xa1;" horiz-adv-x="326" 
d="M163 558q47 0 78 -30.5t31 -77.5t-31 -77.5t-78 -30.5t-77.5 30.5t-30.5 77.5t30.5 77.5t77.5 30.5zM65 -220l3 507h190l4 -507h-197z" />
    <glyph glyph-name="cent" unicode="&#xa2;" horiz-adv-x="579" 
d="M527 70q-37 -16 -102 -24v-56h-82v50q-136 0 -219.5 78t-83.5 206t83 206t220 78v50h82v-58q55 -10 92 -24v-138q-42 16 -92 21v-270q50 3 102 19v-138zM236 324q0 -47 28.5 -80.5t78.5 -47.5v257q-50 -13 -78.5 -47t-28.5 -82z" />
    <glyph glyph-name="sterling" unicode="&#xa3;" horiz-adv-x="609" 
d="M561 162v-162h-460v293h-61v162h61v76q0 99 74 159t196 60q129 0 177 -31v-148q-57 17 -140 17q-50 0 -80.5 -29.5t-30.5 -77.5v-26h218v-162h-218v-131h264z" />
    <glyph glyph-name="currency" unicode="&#xa4;" horiz-adv-x="657" 
d="M566 314q0 -53 -22 -100l75 -76l-114 -114l-76 75q-47 -22 -100 -22t-100 22l-77 -77l-114 115l75 75q-23 48 -23 102q0 53 23 101l-75 75l114 115l78 -78q45 21 99 21q51 0 99 -21l77 76l114 -114l-75 -76q22 -47 22 -99zM328 217q37 0 62.5 28t25.5 69q0 40 -25.5 68.5
t-62.5 28.5t-63 -28.5t-26 -68.5t26 -68.5t63 -28.5z" />
    <glyph glyph-name="yen" unicode="&#xa5;" horiz-adv-x="763" 
d="M736 740q-96 -201 -188 -362h72v-119h-141v-38h141v-119h-141v-102h-196v102h-138v119h138v38h-138v119h70q-92 161 -188 362h209q65 -154 146 -317q84 174 145 317h209z" />
    <glyph glyph-name="brokenbar" unicode="&#xa6;" horiz-adv-x="340" 
d="M268 780v-400h-196v400h196zM268 180v-400h-196v400h196z" />
    <glyph glyph-name="section" unicode="&#xa7;" horiz-adv-x="655" 
d="M609 265q0 -85 -43 -142q43 -49 43 -118q0 -112 -73.5 -173.5t-203.5 -61.5q-64 0 -134 14t-118 40v147q110 -44 229 -44q103 0 103 51q0 8 -1.5 14t-6 11.5t-8.5 9.5t-12 7.5l-14 6t-17 5.5l-18.5 5t-22 5.5l-22.5 5.5l-16 4q-55 14 -90.5 28t-69.5 39t-50 64.5
t-16 95.5q0 89 41 148q-41 43 -41 112q0 121 74.5 186t209.5 65q129 0 229 -45v-147q-115 35 -212 35q-103 0 -103 -52q0 -8 2 -15t7 -12.5t9.5 -9.5t13.5 -8t14.5 -6t17.5 -5t18 -4l20 -3.5t19 -3.5l15 -3q103 -19 165 -80.5t62 -165.5zM246 321q0 -65 61 -91q15 -6 60 -18
q25 -7 39 -7q6 13 6 33q0 50 -28.5 72.5t-93.5 40.5q-20 6 -36 8q-8 -18 -8 -38z" />
    <glyph glyph-name="dieresis" unicode="&#xa8;" horiz-adv-x="576" 
d="M147 609q-47 0 -77.5 30.5t-30.5 77.5t30.5 77.5t77.5 30.5t78 -30.5t31 -77.5t-31 -77.5t-78 -30.5zM428 609q-47 0 -77.5 30.5t-30.5 77.5t30.5 77.5t77.5 30.5t78 -30.5t31 -77.5t-31 -77.5t-78 -30.5z" />
    <glyph glyph-name="copyright" unicode="&#xa9;" horiz-adv-x="1000" 
d="M500 -50q-208 0 -335 115.5t-127 304.5t127 304.5t335 115.5t335 -115.5t127 -304.5t-127 -304.5t-335 -115.5zM500 52q148 0 239 87.5t91 230.5t-91 230.5t-239 87.5t-238.5 -87.5t-90.5 -230.5t90.5 -230.5t238.5 -87.5zM655 458q-17 13 -49 21t-55 8q-63 0 -101 -32
t-38 -85q0 -52 40 -84.5t104 -32.5q23 0 57 8.5t49 20.5v-116q-64 -38 -158 -38q-109 0 -176 66.5t-67 175.5t66 175.5t173 66.5q96 0 155 -39v-115z" />
    <glyph glyph-name="ordfeminine" unicode="&#xaa;" horiz-adv-x="537" 
d="M354 722q42 24 110 24v-390q-66 0 -111 24q-51 -27 -113 -27q-82 0 -132.5 54t-50.5 143t52 144.5t131 55.5q66 0 114 -28zM190 551q0 -46 21.5 -72t63.5 -26q26 0 60 16v167q-31 14 -59 14q-40 0 -63 -27t-23 -72zM67 282h397v-100h-397v100z" />
    <glyph glyph-name="guillemotleft" unicode="&#xab;" horiz-adv-x="714" 
d="M236 270l140 -186l-165 -48l-183 234l183 234l165 -49zM536 270l140 -186l-165 -48l-183 234l183 234l165 -49z" />
    <glyph glyph-name="logicalnot" unicode="&#xac;" 
d="M557 133h-162v178h-355v134h517v-312z" />
    <glyph glyph-name="uni00AD" unicode="&#xad;" horiz-adv-x="522" 
d="M464 361v-135h-406v135h406z" />
    <glyph glyph-name="registered" unicode="&#xae;" horiz-adv-x="490" 
d="M245 790q93 0 150 -53.5t57 -141.5t-57 -141.5t-150 -53.5t-150 53.5t-57 141.5t57 141.5t150 53.5zM245 447q68 0 110 40.5t42 107.5t-42 107.5t-110 40.5t-110 -40.5t-42 -107.5t42 -107.5t110 -40.5zM320 624q0 -38 -26 -55l47 -69h-56q-19 33 -63 93h25q24 0 24 28
q0 29 -24 29h-30v-150h-49v190h83q31 0 50 -18.5t19 -47.5z" />
    <glyph glyph-name="macron" unicode="&#xaf;" horiz-adv-x="440" 
d="M416 767v-135h-393v135h393z" />
    <glyph glyph-name="degree" unicode="&#xb0;" horiz-adv-x="375" 
d="M188 522q-69 0 -111 36.5t-42 97.5t42 97.5t111 36.5q68 0 110 -36.5t42 -97.5t-42 -97.5t-110 -36.5zM188 616q17 0 27 10.5t10 29.5q0 18 -10 29t-27 11t-27.5 -11t-10.5 -29q0 -19 10.5 -29.5t27.5 -10.5z" />
    <glyph glyph-name="plusminus" unicode="&#xb1;" 
d="M226 297h-178v135h178v124h162v-124h176v-135h-176v-124h-162v124zM565 121v-134h-517v134h517z" />
    <glyph glyph-name="uni00B2" unicode="&#xb2;" horiz-adv-x="381" 
d="M231 546q-48 -39 -62 -54l176 1v-97h-322q0 39 11 72.5t34.5 63t40.5 45.5t49 43q38 31 54 50t16 39q0 41 -63 41q-56 0 -125 -30v90q57 36 138 36q77 0 123 -34.5t46 -97.5q0 -49 -28 -84.5t-88 -83.5z" />
    <glyph glyph-name="uni00B3" unicode="&#xb3;" horiz-adv-x="374" 
d="M224 674q55 -7 87.5 -44t32.5 -93q0 -66 -53 -106.5t-141 -40.5q-69 0 -116 28v89q38 -20 88 -20q46 0 73.5 13.5t27.5 36.5q0 22 -25 35.5t-65 13.5t-87 -15q0 6 2 14t6.5 17.5l8.5 17.5t12.5 20.5l13.5 20t15.5 22t15.5 20.5t16.5 21t14.5 20h-112v96h299
q0 -31 -114 -166z" />
    <glyph glyph-name="acute" unicode="&#xb4;" horiz-adv-x="418" 
d="M102 645l125 -35l178 152l-169 48z" />
    <glyph glyph-name="paragraph" unicode="&#xb6;" horiz-adv-x="677" 
d="M587 -220h-139v825h-68v-825h-139v533h-46q-73 0 -118.5 59.5t-45.5 156.5q0 95 53 153t139 58h365z" />
    <glyph glyph-name="periodcentered" unicode="&#xb7;" horiz-adv-x="322" 
d="M161 175q-49 0 -83.5 34.5t-34.5 83.5t34.5 83.5t83.5 34.5t83.5 -34.5t34.5 -83.5t-34.5 -83.5t-83.5 -34.5z" />
    <glyph glyph-name="cedilla" unicode="&#xb8;" horiz-adv-x="249" 
d="M154 -39q36 -5 57.5 -31t21.5 -65q0 -43 -39 -69t-101 -26q-46 0 -76 19v65q24 -11 53 -11q64 0 64 26q0 12 -15 20t-40 8q-39 0 -70 -11q0 8 3.5 17.5t10.5 20.5t14.5 21t19 23.5l19 22t20.5 22t18 19.5h105q-12 -14 -37.5 -41t-27.5 -30z" />
    <glyph glyph-name="uni00B9" unicode="&#xb9;" horiz-adv-x="275" 
d="M17 794l182 52h27v-450h-118v323l-91 -23v98z" />
    <glyph glyph-name="ordmasculine" unicode="&#xba;" horiz-adv-x="534" 
d="M269 353q-96 0 -154.5 54t-58.5 144q0 89 58.5 144t154.5 55q94 0 151.5 -55t57.5 -144q0 -90 -57.5 -144t-151.5 -54zM269 453q35 0 56 27t21 71q0 45 -21 72t-56 27q-36 0 -58 -27t-22 -72q0 -44 22 -71t58 -27zM468 282v-100h-402v100h402z" />
    <glyph glyph-name="guillemotright" unicode="&#xbb;" horiz-adv-x="714" 
d="M386 270l-183 -234l-165 48l140 186l-140 185l165 49zM686 270l-183 -234l-165 48l140 186l-140 185l165 49z" />
    <glyph glyph-name="onequarter" unicode="&#xbc;" horiz-adv-x="935" 
d="M108 619l-91 -23v98l182 52h27v-450h-118v323zM749 713l-546 -719l-120 33l546 719zM918 77h-49v-77h-118v77h-201q0 49 75 209q54 117 64 158h124q-7 -40 -69 -169q-34 -70 -47 -101h57v64h115v-64h49v-97z" />
    <glyph glyph-name="onehalf" unicode="&#xbd;" horiz-adv-x="941" 
d="M108 619l-91 -23v98l182 52h27v-450h-118v323zM749 713l-546 -719l-120 33l546 719zM791 150q-48 -39 -62 -54l176 1v-97h-322q0 39 11 72.5t34.5 63t40.5 45.5t49 43q38 31 54 50t16 39q0 41 -63 41q-56 0 -125 -30v90q57 36 138 36q77 0 123 -34.5t46 -97.5
q0 -49 -28 -84.5t-88 -83.5z" />
    <glyph glyph-name="threequarters" unicode="&#xbe;" horiz-adv-x="1034" 
d="M848 713l-546 -719l-120 33l546 719zM344 437q0 -66 -53 -106.5t-141 -40.5q-69 0 -116 28v89q38 -20 88 -20q46 0 73.5 13.5t27.5 36.5q0 22 -25 35.5t-65 13.5t-87 -15q0 6 2 14t6.5 17.5l8.5 17.5t12.5 20.5l13.5 20t15.5 22t15.5 20.5t16.5 21t14.5 20h-112v96h299
q0 -31 -114 -166q55 -7 87.5 -44t32.5 -93zM1017 77h-49v-77h-118v77h-201q0 49 75 209q54 117 64 158h124q-7 -40 -69 -169q-34 -70 -47 -101h57v64h115v-64h49v-97z" />
    <glyph glyph-name="questiondown" unicode="&#xbf;" horiz-adv-x="520" 
d="M308 558q47 0 78 -30.5t31 -77.5t-31 -77.5t-78 -30.5t-77.5 30.5t-30.5 77.5t30.5 77.5t77.5 30.5zM403 287l3 -240q-22 6 -55 6q-49 0 -76 -17.5t-27 -49.5q0 -59 96 -59q72 0 157 36v-148q-87 -45 -200 -45q-119 0 -187 52t-68 161q0 71 46 119.5t118 59.5l3 125h190z
" />
    <glyph glyph-name="Agrave" unicode="&#xc0;" horiz-adv-x="773" 
d="M343 802l-178 152l169 48l134 -165zM581 0l-43 94h-302l-43 -94h-209q229 462 398 750h10q176 -303 398 -750h-209zM472 255l-85 166l-85 -166h170z" />
    <glyph glyph-name="Aacute" unicode="&#xc1;" horiz-adv-x="773" 
d="M431 802l-125 35l134 165l169 -48zM581 0l-43 94h-302l-43 -94h-209q229 462 398 750h10q176 -303 398 -750h-209zM472 255l-85 166l-85 -166h170z" />
    <glyph glyph-name="Acircumflex" unicode="&#xc2;" horiz-adv-x="773" 
d="M308 802l-125 35l135 165h137l134 -165l-125 -35l-77 77zM581 0l-43 94h-302l-43 -94h-209q229 462 398 750h10q176 -303 398 -750h-209zM472 255l-85 166l-85 -166h170z" />
    <glyph glyph-name="Atilde" unicode="&#xc3;" horiz-adv-x="773" 
d="M308 848q-30 0 -30 -48l-99 29q0 69 34 110t91 41q38 0 105 -26q43 -17 57 -17q29 0 29 47l100 -30q0 -72 -34 -111.5t-92 -39.5q-32 0 -102 27q-43 18 -59 18zM581 0l-43 94h-302l-43 -94h-209q229 462 398 750h10q176 -303 398 -750h-209zM472 255l-85 166l-85 -166
h170z" />
    <glyph glyph-name="Adieresis" unicode="&#xc4;" horiz-adv-x="773" 
d="M246 801q-47 0 -77.5 30.5t-30.5 77.5t30.5 77.5t77.5 30.5t78 -30.5t31 -77.5t-31 -77.5t-78 -30.5zM527 801q-47 0 -77.5 30.5t-30.5 77.5t30.5 77.5t77.5 30.5t78 -30.5t31 -77.5t-31 -77.5t-78 -30.5zM581 0l-43 94h-302l-43 -94h-209q229 462 398 750h10
q176 -303 398 -750h-209zM472 255l-85 166l-85 -166h170z" />
    <glyph glyph-name="Aring" unicode="&#xc5;" horiz-adv-x="773" 
d="M387 772q-62 0 -99 31t-37 83t37 83t99 31q61 0 98 -31t37 -83t-37 -83t-98 -31zM387 921q-17 0 -28.5 -9.5t-11.5 -25.5q0 -15 11.5 -25t28.5 -10q18 0 28.5 10t10.5 25q0 16 -10.5 25.5t-28.5 9.5zM581 0l-43 94h-302l-43 -94h-209q229 462 398 750h10
q176 -303 398 -750h-209zM472 255l-85 166l-85 -166h170z" />
    <glyph glyph-name="AE" unicode="&#xc6;" horiz-adv-x="1122" 
d="M1073 162v-162h-497q-7 36 -23 108h-295l-70 -108h-209q279 462 476 740h611v-162h-429l33 -124h359v-161h-318l33 -131h329zM529 269q-30 120 -47 179l-127 -179h174z" />
    <glyph glyph-name="Ccedilla" unicode="&#xc7;" horiz-adv-x="692" 
d="M655 27q-72 -28 -180 -36q-20 -20 -29 -30q36 -5 57.5 -31t21.5 -65q0 -43 -39 -69t-101 -26q-46 0 -76 19v65q24 -11 53 -11q64 0 64 26q0 12 -15 20t-40 8q-39 0 -70 -11q0 32 70 108q-152 18 -242 119.5t-90 256.5q0 171 106.5 275.5t281.5 104.5q127 0 218 -38v-150
q-58 26 -154 26q-113 0 -181.5 -60t-68.5 -158t70.5 -158t186.5 -60q35 0 83.5 7t73.5 18v-150z" />
    <glyph glyph-name="Egrave" unicode="&#xc8;" horiz-adv-x="676" 
d="M295 802l-178 152l169 48l134 -165zM627 162v-162h-548v740h541v-162h-345v-124h308v-161h-308v-131h352z" />
    <glyph glyph-name="Eacute" unicode="&#xc9;" horiz-adv-x="676" 
d="M383 802l-125 35l134 165l169 -48zM627 162v-162h-548v740h541v-162h-345v-124h308v-161h-308v-131h352z" />
    <glyph glyph-name="Ecircumflex" unicode="&#xca;" horiz-adv-x="676" 
d="M260 802l-125 35l135 165h137l134 -165l-125 -35l-77 77zM627 162v-162h-548v740h541v-162h-345v-124h308v-161h-308v-131h352z" />
    <glyph glyph-name="Edieresis" unicode="&#xcb;" horiz-adv-x="676" 
d="M198 801q-47 0 -77.5 30.5t-30.5 77.5t30.5 77.5t77.5 30.5t78 -30.5t31 -77.5t-31 -77.5t-78 -30.5zM479 801q-47 0 -77.5 30.5t-30.5 77.5t30.5 77.5t77.5 30.5t78 -30.5t31 -77.5t-31 -77.5t-78 -30.5zM627 162v-162h-548v740h541v-162h-345v-124h308v-161h-308v-131
h352z" />
    <glyph glyph-name="Igrave" unicode="&#xcc;" horiz-adv-x="354" 
d="M-45 954l178 -152l125 35l-134 165zM275 0h-196v740h196v-740z" />
    <glyph glyph-name="Iacute" unicode="&#xcd;" horiz-adv-x="354" 
d="M96 837l125 -35l178 152l-169 48zM275 0h-196v740h196v-740z" />
    <glyph glyph-name="Icircumflex" unicode="&#xce;" horiz-adv-x="354" 
d="M254 802l-77 77l-79 -77l-125 35l135 165h137l134 -165zM275 0h-196v740h196v-740z" />
    <glyph glyph-name="Idieresis" unicode="&#xcf;" horiz-adv-x="354" 
d="M36 801q-47 0 -77.5 30.5t-30.5 77.5t30.5 77.5t77.5 30.5t78 -30.5t31 -77.5t-31 -77.5t-78 -30.5zM317 801q-47 0 -77.5 30.5t-30.5 77.5t30.5 77.5t77.5 30.5t78 -30.5t31 -77.5t-31 -77.5t-78 -30.5zM275 0h-196v740h196v-740z" />
    <glyph glyph-name="Eth" unicode="&#xd0;" horiz-adv-x="811" 
d="M403 740q166 0 267.5 -101.5t101.5 -267.5q0 -167 -101.5 -269t-267.5 -102h-324v303h-66v134h66v303h324zM407 162q74 0 118.5 57.5t44.5 151.5q0 93 -45 150t-118 57h-132v-141h144v-134h-144v-141h132z" />
    <glyph glyph-name="Ntilde" unicode="&#xd1;" horiz-adv-x="896" 
d="M369 848q-30 0 -30 -48l-99 29q0 69 34 110t91 41q38 0 105 -26q43 -17 57 -17q29 0 29 47l100 -30q0 -72 -34 -111.5t-92 -39.5q-32 0 -102 27q-43 18 -59 18zM817 -10q-23 0 -66 24t-117 82l-115.5 92l-137.5 114l-109 91l3 -393h-196v750q23 0 68 -25.5t117 -82
l119.5 -95.5l137.5 -115l103 -86l-3 394h196v-750z" />
    <glyph glyph-name="Ograve" unicode="&#xd2;" horiz-adv-x="884" 
d="M221 954l178 -152l125 35l-134 165zM443 -10q-182 0 -293.5 104.5t-111.5 275.5t111.5 275.5t293.5 104.5q181 0 292 -104.5t111 -275.5t-111 -275.5t-292 -104.5zM443 152q90 0 145.5 60t55.5 158t-55.5 158t-145.5 60q-91 0 -147 -60t-56 -158t56 -158t147 -60z" />
    <glyph glyph-name="Oacute" unicode="&#xd3;" horiz-adv-x="884" 
d="M362 837l125 -35l178 152l-169 48zM443 -10q-182 0 -293.5 104.5t-111.5 275.5t111.5 275.5t293.5 104.5q181 0 292 -104.5t111 -275.5t-111 -275.5t-292 -104.5zM443 152q90 0 145.5 60t55.5 158t-55.5 158t-145.5 60q-91 0 -147 -60t-56 -158t56 -158t147 -60z" />
    <glyph glyph-name="Ocircumflex" unicode="&#xd4;" horiz-adv-x="884" 
d="M520 802l-77 77l-79 -77l-125 35l135 165h137l134 -165zM443 -10q-182 0 -293.5 104.5t-111.5 275.5t111.5 275.5t293.5 104.5q181 0 292 -104.5t111 -275.5t-111 -275.5t-292 -104.5zM443 152q90 0 145.5 60t55.5 158t-55.5 158t-145.5 60q-91 0 -147 -60t-56 -158
t56 -158t147 -60z" />
    <glyph glyph-name="Otilde" unicode="&#xd5;" horiz-adv-x="884" 
d="M334 800q0 48 30 48q16 0 59 -18q70 -27 102 -27q58 0 92 39.5t34 111.5l-100 30q0 -47 -29 -47q-14 0 -57 17q-67 26 -105 26q-57 0 -91 -41t-34 -110zM443 -10q-182 0 -293.5 104.5t-111.5 275.5t111.5 275.5t293.5 104.5q181 0 292 -104.5t111 -275.5t-111 -275.5
t-292 -104.5zM443 152q90 0 145.5 60t55.5 158t-55.5 158t-145.5 60q-91 0 -147 -60t-56 -158t56 -158t147 -60z" />
    <glyph glyph-name="Odieresis" unicode="&#xd6;" horiz-adv-x="884" 
d="M302 801q-47 0 -77.5 30.5t-30.5 77.5t30.5 77.5t77.5 30.5t78 -30.5t31 -77.5t-31 -77.5t-78 -30.5zM583 801q-47 0 -77.5 30.5t-30.5 77.5t30.5 77.5t77.5 30.5t78 -30.5t31 -77.5t-31 -77.5t-78 -30.5zM443 -10q-182 0 -293.5 104.5t-111.5 275.5t111.5 275.5
t293.5 104.5q181 0 292 -104.5t111 -275.5t-111 -275.5t-292 -104.5zM443 152q90 0 145.5 60t55.5 158t-55.5 158t-145.5 60q-91 0 -147 -60t-56 -158t56 -158t147 -60z" />
    <glyph glyph-name="multiply" unicode="&#xd7;" 
d="M455 59l-146 140l-141 -147l-98 95l140 146l-147 141l95 98l146 -140l141 147l98 -95l-140 -146l147 -141z" />
    <glyph glyph-name="Oslash" unicode="&#xd8;" horiz-adv-x="884" 
d="M741 639q105 -103 105 -269q0 -171 -111 -275.5t-292 -104.5q-132 0 -232 58l-48 -54l-93 26l73 81q-105 103 -105 269q0 171 111.5 275.5t293.5 104.5q131 0 230 -58l48 54l93 -26zM240 370q0 -72 31 -125l282 313q-49 30 -110 30q-91 0 -147 -60t-56 -158zM443 152
q90 0 145.5 60t55.5 158q0 72 -31 125l-281 -313q49 -30 111 -30z" />
    <glyph glyph-name="Ugrave" unicode="&#xd9;" horiz-adv-x="825" 
d="M190 954l178 -152l125 35l-134 165zM753 740v-499q0 -113 -93.5 -182t-247.5 -69q-153 0 -246.5 69t-93.5 182v499h196v-463q0 -56 40 -90.5t106 -34.5q64 0 103.5 34.5t39.5 90.5v463h196z" />
    <glyph glyph-name="Uacute" unicode="&#xda;" horiz-adv-x="825" 
d="M331 837l125 -35l178 152l-169 48zM753 740v-499q0 -113 -93.5 -182t-247.5 -69q-153 0 -246.5 69t-93.5 182v499h196v-463q0 -56 40 -90.5t106 -34.5q64 0 103.5 34.5t39.5 90.5v463h196z" />
    <glyph glyph-name="Ucircumflex" unicode="&#xdb;" horiz-adv-x="825" 
d="M489 802l-77 77l-79 -77l-125 35l135 165h137l134 -165zM753 740v-499q0 -113 -93.5 -182t-247.5 -69q-153 0 -246.5 69t-93.5 182v499h196v-463q0 -56 40 -90.5t106 -34.5q64 0 103.5 34.5t39.5 90.5v463h196z" />
    <glyph glyph-name="Udieresis" unicode="&#xdc;" horiz-adv-x="825" 
d="M271 801q-47 0 -77.5 30.5t-30.5 77.5t30.5 77.5t77.5 30.5t78 -30.5t31 -77.5t-31 -77.5t-78 -30.5zM552 801q-47 0 -77.5 30.5t-30.5 77.5t30.5 77.5t77.5 30.5t78 -30.5t31 -77.5t-31 -77.5t-78 -30.5zM753 740v-499q0 -113 -93.5 -182t-247.5 -69q-153 0 -246.5 69
t-93.5 182v499h196v-463q0 -56 40 -90.5t106 -34.5q64 0 103.5 34.5t39.5 90.5v463h196z" />
    <glyph glyph-name="Yacute" unicode="&#xdd;" horiz-adv-x="720" 
d="M405 802l-125 35l134 165l169 -48zM715 740q-132 -279 -257 -479v-261h-196v263q-118 188 -256 477h209q65 -154 146 -317q84 174 145 317h209z" />
    <glyph glyph-name="Thorn" unicode="&#xde;" horiz-adv-x="703" 
d="M405 652q123 0 198.5 -71t75.5 -186q0 -123 -78 -198t-206 -75h-120v-122h-196v740h196v-88h130zM385 284q42 0 66.5 28.5t24.5 75.5t-24.5 74.5t-66.5 27.5h-110v-206h110z" />
    <glyph glyph-name="germandbls" unicode="&#xdf;" horiz-adv-x="675" 
d="M537 480q48 -20 75.5 -77.5t27.5 -139.5q0 -122 -70.5 -197.5t-185.5 -75.5q-56 0 -90 16v137q18 -5 46 -5q47 0 75.5 38t28.5 101t-35 101.5t-93 38.5v7q70 95 70 150q0 30 -19 49t-49 19q-31 0 -49.5 -21.5t-18.5 -56.5v-564h-190v582q0 94 71 151t187 57
q119 0 191.5 -54t72.5 -142q0 -69 -45 -114z" />
    <glyph glyph-name="agrave" unicode="&#xe0;" horiz-adv-x="605" 
d="M257 610l-178 152l169 48l134 -165zM551 -6q-86 0 -158 35q-76 -39 -168 -39q-93 0 -143.5 46t-50.5 131t58 130.5t166 45.5q53 0 106 -20v13q0 35 -25.5 54.5t-71.5 19.5q-92 0 -190 -24v138q94 34 229 34q117 0 182.5 -54.5t65.5 -151.5v-358zM227 171q0 -47 77 -47
q27 0 57 11v75q-31 12 -57 12q-77 0 -77 -51z" />
    <glyph glyph-name="aacute" unicode="&#xe1;" horiz-adv-x="605" 
d="M345 610l-125 35l134 165l169 -48zM551 -6q-86 0 -158 35q-76 -39 -168 -39q-93 0 -143.5 46t-50.5 131t58 130.5t166 45.5q53 0 106 -20v13q0 35 -25.5 54.5t-71.5 19.5q-92 0 -190 -24v138q94 34 229 34q117 0 182.5 -54.5t65.5 -151.5v-358zM227 171q0 -47 77 -47
q27 0 57 11v75q-31 12 -57 12q-77 0 -77 -51z" />
    <glyph glyph-name="acircumflex" unicode="&#xe2;" horiz-adv-x="605" 
d="M222 610l-125 35l135 165h137l134 -165l-125 -35l-77 77zM551 -6q-86 0 -158 35q-76 -39 -168 -39q-93 0 -143.5 46t-50.5 131t58 130.5t166 45.5q53 0 106 -20v13q0 35 -25.5 54.5t-71.5 19.5q-92 0 -190 -24v138q94 34 229 34q117 0 182.5 -54.5t65.5 -151.5v-358z
M227 171q0 -47 77 -47q27 0 57 11v75q-31 12 -57 12q-77 0 -77 -51z" />
    <glyph glyph-name="atilde" unicode="&#xe3;" horiz-adv-x="605" 
d="M222 656q-30 0 -30 -48l-99 29q0 69 34 110t91 41q38 0 105 -26q43 -17 57 -17q29 0 29 47l100 -30q0 -72 -34 -111.5t-92 -39.5q-32 0 -102 27q-43 18 -59 18zM551 -6q-86 0 -158 35q-76 -39 -168 -39q-93 0 -143.5 46t-50.5 131t58 130.5t166 45.5q53 0 106 -20v13
q0 35 -25.5 54.5t-71.5 19.5q-92 0 -190 -24v138q94 34 229 34q117 0 182.5 -54.5t65.5 -151.5v-358zM227 171q0 -47 77 -47q27 0 57 11v75q-31 12 -57 12q-77 0 -77 -51z" />
    <glyph glyph-name="adieresis" unicode="&#xe4;" horiz-adv-x="605" 
d="M160 609q-47 0 -77.5 30.5t-30.5 77.5t30.5 77.5t77.5 30.5t78 -30.5t31 -77.5t-31 -77.5t-78 -30.5zM441 609q-47 0 -77.5 30.5t-30.5 77.5t30.5 77.5t77.5 30.5t78 -30.5t31 -77.5t-31 -77.5t-78 -30.5zM551 -6q-86 0 -158 35q-76 -39 -168 -39q-93 0 -143.5 46
t-50.5 131t58 130.5t166 45.5q53 0 106 -20v13q0 35 -25.5 54.5t-71.5 19.5q-92 0 -190 -24v138q94 34 229 34q117 0 182.5 -54.5t65.5 -151.5v-358zM227 171q0 -47 77 -47q27 0 57 11v75q-31 12 -57 12q-77 0 -77 -51z" />
    <glyph glyph-name="aring" unicode="&#xe5;" horiz-adv-x="605" 
d="M301 580q-62 0 -99 31t-37 83t37 83t99 31q61 0 98 -31t37 -83t-37 -83t-98 -31zM301 729q-17 0 -28.5 -9.5t-11.5 -25.5q0 -15 11.5 -25t28.5 -10q18 0 28.5 10t10.5 25q0 16 -10.5 25.5t-28.5 9.5zM551 -6q-86 0 -158 35q-76 -39 -168 -39q-93 0 -143.5 46t-50.5 131
t58 130.5t166 45.5q53 0 106 -20v13q0 35 -25.5 54.5t-71.5 19.5q-92 0 -190 -24v138q94 34 229 34q117 0 182.5 -54.5t65.5 -151.5v-358zM227 171q0 -47 77 -47q27 0 57 11v75q-31 12 -57 12q-77 0 -77 -51z" />
    <glyph glyph-name="ae" unicode="&#xe6;" horiz-adv-x="939" 
d="M904 283q0 -37 -7 -76h-345q9 -35 38 -52t90 -17q83 0 186 28v-139q-76 -37 -190 -37q-128 0 -211 63q-89 -63 -198 -63q-114 0 -175.5 46t-61.5 131t58 130.5t166 45.5q52 0 106 -19v12q0 35 -25.5 54.5t-70.5 19.5q-93 0 -191 -24v138q94 34 215 34q120 0 178 -70
q70 70 185 70q113 0 183 -75.5t70 -199.5zM631 416q-69 0 -82 -89h161q-13 89 -79 89zM226 171q0 -47 77 -47q49 0 87 22q-12 27 -18 59q-35 17 -69 17q-77 0 -77 -51z" />
    <glyph glyph-name="ccedilla" unicode="&#xe7;" horiz-adv-x="559" 
d="M521 20q-58 -24 -149 -29q-18 -20 -28 -30q36 -5 57.5 -31t21.5 -65q0 -43 -39 -69t-101 -26q-46 0 -76 19v65q24 -11 53 -11q64 0 64 26q0 12 -15 20t-40 8q-39 0 -70 -11q0 32 71 109q-108 19 -172 93.5t-64 185.5q0 128 83 206t220 78q88 0 174 -32v-138
q-56 22 -115 22q-75 0 -120.5 -37.5t-45.5 -98.5t46.5 -98.5t122.5 -37.5q54 0 122 20v-138z" />
    <glyph glyph-name="egrave" unicode="&#xe8;" horiz-adv-x="619" 
d="M266 610l-178 152l169 48l134 -165zM585 283q0 -37 -7 -76h-347q7 -37 34.5 -53t94.5 -16q84 0 187 28v-139q-94 -37 -232 -37q-130 0 -205 70.5t-75 206.5q0 131 75.5 211t199.5 80t199.5 -75.5t75.5 -199.5zM311 416q-68 0 -81 -89h161q-13 89 -80 89z" />
    <glyph glyph-name="eacute" unicode="&#xe9;" horiz-adv-x="619" 
d="M354 610l-125 35l134 165l169 -48zM585 283q0 -37 -7 -76h-347q7 -37 34.5 -53t94.5 -16q84 0 187 28v-139q-94 -37 -232 -37q-130 0 -205 70.5t-75 206.5q0 131 75.5 211t199.5 80t199.5 -75.5t75.5 -199.5zM311 416q-68 0 -81 -89h161q-13 89 -80 89z" />
    <glyph glyph-name="ecircumflex" unicode="&#xea;" horiz-adv-x="619" 
d="M231 610l-125 35l135 165h137l134 -165l-125 -35l-77 77zM585 283q0 -37 -7 -76h-347q7 -37 34.5 -53t94.5 -16q84 0 187 28v-139q-94 -37 -232 -37q-130 0 -205 70.5t-75 206.5q0 131 75.5 211t199.5 80t199.5 -75.5t75.5 -199.5zM311 416q-68 0 -81 -89h161
q-13 89 -80 89z" />
    <glyph glyph-name="edieresis" unicode="&#xeb;" horiz-adv-x="619" 
d="M169 609q-47 0 -77.5 30.5t-30.5 77.5t30.5 77.5t77.5 30.5t78 -30.5t31 -77.5t-31 -77.5t-78 -30.5zM450 609q-47 0 -77.5 30.5t-30.5 77.5t30.5 77.5t77.5 30.5t78 -30.5t31 -77.5t-31 -77.5t-78 -30.5zM585 283q0 -37 -7 -76h-347q7 -37 34.5 -53t94.5 -16
q84 0 187 28v-139q-94 -37 -232 -37q-130 0 -205 70.5t-75 206.5q0 131 75.5 211t199.5 80t199.5 -75.5t75.5 -199.5zM311 416q-68 0 -81 -89h161q-13 89 -80 89z" />
    <glyph glyph-name="igrave" unicode="&#xec;" horiz-adv-x="310" 
d="M-67 762l178 -152l125 35l-134 165zM250 548v-548h-190v548h190z" />
    <glyph glyph-name="iacute" unicode="&#xed;" horiz-adv-x="310" 
d="M74 645l125 -35l178 152l-169 48zM250 548v-548h-190v548h190z" />
    <glyph glyph-name="icircumflex" unicode="&#xee;" horiz-adv-x="310" 
d="M232 610l-77 77l-79 -77l-125 35l135 165h137l134 -165zM250 548v-548h-190v548h190z" />
    <glyph glyph-name="idieresis" unicode="&#xef;" horiz-adv-x="310" 
d="M14 609q-47 0 -77.5 30.5t-30.5 77.5t30.5 77.5t77.5 30.5t78 -30.5t31 -77.5t-31 -77.5t-78 -30.5zM295 609q-47 0 -77.5 30.5t-30.5 77.5t30.5 77.5t77.5 30.5t78 -30.5t31 -77.5t-31 -77.5t-78 -30.5zM250 548v-548h-190v548h190z" />
    <glyph glyph-name="eth" unicode="&#xf0;" horiz-adv-x="678" 
d="M450 690q192 -158 192 -366q0 -149 -83.5 -241.5t-219.5 -92.5q-138 0 -221.5 76t-83.5 203q0 122 75.5 198.5t185.5 76.5q45 0 80 -13q-32 34 -76 65l-46 -29l-102 68l40 26q-29 15 -53 26l157 103q11 -5 51 -28l44 28l101 -74zM339 138q48 0 77.5 37.5t29.5 98.5
q0 55 -29.5 88.5t-77.5 33.5q-49 0 -79 -35.5t-30 -93.5t30 -93.5t79 -35.5z" />
    <glyph glyph-name="ntilde" unicode="&#xf1;" horiz-adv-x="673" 
d="M260 656q-30 0 -30 -48l-99 29q0 69 34 110t91 41q38 0 105 -26q43 -17 57 -17q29 0 29 47l100 -30q0 -72 -34 -111.5t-92 -39.5q-32 0 -102 27q-43 18 -59 18zM417 558q201 0 201 -221v-337h-190v322q0 88 -89 88q-45 0 -89 -27v-383h-190v554q102 0 176 -44
q93 48 181 48z" />
    <glyph glyph-name="ograve" unicode="&#xf2;" horiz-adv-x="674" 
d="M116 762l178 -152l125 35l-134 165zM338 -10q-137 0 -221 78t-84 206t84 206t221 78q136 0 219.5 -78t83.5 -206q0 -127 -83.5 -205.5t-219.5 -78.5zM337 138q48 0 78 37.5t30 98.5t-30 98.5t-78 37.5q-49 0 -78.5 -37.5t-29.5 -98.5t29.5 -98.5t78.5 -37.5z" />
    <glyph glyph-name="oacute" unicode="&#xf3;" horiz-adv-x="674" 
d="M257 645l125 -35l178 152l-169 48zM338 -10q-137 0 -221 78t-84 206t84 206t221 78q136 0 219.5 -78t83.5 -206q0 -127 -83.5 -205.5t-219.5 -78.5zM337 138q48 0 78 37.5t30 98.5t-30 98.5t-78 37.5q-49 0 -78.5 -37.5t-29.5 -98.5t29.5 -98.5t78.5 -37.5z" />
    <glyph glyph-name="ocircumflex" unicode="&#xf4;" horiz-adv-x="674" 
d="M415 610l-77 77l-79 -77l-125 35l135 165h137l134 -165zM338 -10q-137 0 -221 78t-84 206t84 206t221 78q136 0 219.5 -78t83.5 -206q0 -127 -83.5 -205.5t-219.5 -78.5zM337 138q48 0 78 37.5t30 98.5t-30 98.5t-78 37.5q-49 0 -78.5 -37.5t-29.5 -98.5t29.5 -98.5
t78.5 -37.5z" />
    <glyph glyph-name="otilde" unicode="&#xf5;" horiz-adv-x="674" 
d="M229 608q0 48 30 48q16 0 59 -18q70 -27 102 -27q58 0 92 39.5t34 111.5l-100 30q0 -47 -29 -47q-14 0 -57 17q-67 26 -105 26q-57 0 -91 -41t-34 -110zM338 -10q-137 0 -221 78t-84 206t84 206t221 78q136 0 219.5 -78t83.5 -206q0 -127 -83.5 -205.5t-219.5 -78.5z
M337 138q48 0 78 37.5t30 98.5t-30 98.5t-78 37.5q-49 0 -78.5 -37.5t-29.5 -98.5t29.5 -98.5t78.5 -37.5z" />
    <glyph glyph-name="odieresis" unicode="&#xf6;" horiz-adv-x="674" 
d="M197 609q-47 0 -77.5 30.5t-30.5 77.5t30.5 77.5t77.5 30.5t78 -30.5t31 -77.5t-31 -77.5t-78 -30.5zM478 609q-47 0 -77.5 30.5t-30.5 77.5t30.5 77.5t77.5 30.5t78 -30.5t31 -77.5t-31 -77.5t-78 -30.5zM338 -10q-137 0 -221 78t-84 206t84 206t221 78q136 0 219.5 -78
t83.5 -206q0 -127 -83.5 -205.5t-219.5 -78.5zM337 138q48 0 78 37.5t30 98.5t-30 98.5t-78 37.5q-49 0 -78.5 -37.5t-29.5 -98.5t29.5 -98.5t78.5 -37.5z" />
    <glyph glyph-name="divide" unicode="&#xf7;" 
d="M305 404q-47 0 -77.5 31t-30.5 78t30.5 77.5t77.5 30.5t78 -30.5t31 -77.5t-31 -78t-78 -31zM564 359v-134h-517v134h517zM305 -37q-47 0 -77.5 30.5t-30.5 77.5t30.5 78t77.5 31t78 -31t31 -78t-31 -77.5t-78 -30.5z" />
    <glyph glyph-name="oslash" unicode="&#xf8;" horiz-adv-x="674" 
d="M560 478q81 -79 81 -204q0 -127 -83.5 -205.5t-219.5 -78.5q-91 0 -161 36l-27 -32l-79 23l44 53q-82 77 -82 204q0 128 84 206t221 78q89 0 159 -36l27 32l81 -23zM229 274q0 -34 9 -59l152 180q-22 15 -53 15q-49 0 -78.5 -37.5t-29.5 -98.5zM337 138q48 0 78 37.5
t30 98.5q0 32 -9 58l-152 -179q22 -15 53 -15z" />
    <glyph glyph-name="ugrave" unicode="&#xf9;" horiz-adv-x="648" 
d="M279 610l-178 152l169 48l134 -165zM588 -6q-96 0 -164 38q-87 -42 -168 -42q-201 0 -201 221v337h190v-322q0 -88 89 -88q33 0 64 14v396h190v-554z" />
    <glyph glyph-name="uacute" unicode="&#xfa;" horiz-adv-x="648" 
d="M367 610l-125 35l134 165l169 -48zM588 -6q-96 0 -164 38q-87 -42 -168 -42q-201 0 -201 221v337h190v-322q0 -88 89 -88q33 0 64 14v396h190v-554z" />
    <glyph glyph-name="ucircumflex" unicode="&#xfb;" horiz-adv-x="648" 
d="M244 610l-125 35l135 165h137l134 -165l-125 -35l-77 77zM588 -6q-96 0 -164 38q-87 -42 -168 -42q-201 0 -201 221v337h190v-322q0 -88 89 -88q33 0 64 14v396h190v-554z" />
    <glyph glyph-name="udieresis" unicode="&#xfc;" horiz-adv-x="648" 
d="M182 609q-47 0 -77.5 30.5t-30.5 77.5t30.5 77.5t77.5 30.5t78 -30.5t31 -77.5t-31 -77.5t-78 -30.5zM463 609q-47 0 -77.5 30.5t-30.5 77.5t30.5 77.5t77.5 30.5t78 -30.5t31 -77.5t-31 -77.5t-78 -30.5zM588 -6q-96 0 -164 38q-87 -42 -168 -42q-201 0 -201 221v337
h190v-322q0 -88 89 -88q33 0 64 14v396h190v-554z" />
    <glyph glyph-name="yacute" unicode="&#xfd;" horiz-adv-x="621" 
d="M363 610l-125 35l134 165l169 -48zM629 548l-399 -768h-194l187 342l-215 426h203l108 -244l107 244h203z" />
    <glyph glyph-name="thorn" unicode="&#xfe;" horiz-adv-x="684" 
d="M387 558q118 0 190.5 -77.5t72.5 -205.5t-76 -206.5t-201 -78.5q-62 0 -123 28v-238h-190v958l190 55v-262q67 27 137 27zM326 138q58 0 93 37.5t35 98.5q0 62 -31 99t-85 37q-42 0 -88 -23v-228q42 -21 76 -21z" />
    <glyph glyph-name="ydieresis" unicode="&#xff;" horiz-adv-x="621" 
d="M178 609q-47 0 -77.5 30.5t-30.5 77.5t30.5 77.5t77.5 30.5t78 -30.5t31 -77.5t-31 -77.5t-78 -30.5zM459 609q-47 0 -77.5 30.5t-30.5 77.5t30.5 77.5t77.5 30.5t78 -30.5t31 -77.5t-31 -77.5t-78 -30.5zM629 548l-399 -768h-194l187 342l-215 426h203l108 -244l107 244
h203z" />
    <glyph glyph-name="Amacron" unicode="&#x100;" horiz-adv-x="773" 
d="M583 824h-393v135h393v-135zM581 0l-43 94h-302l-43 -94h-209q229 462 398 750h10q176 -303 398 -750h-209zM472 255l-85 166l-85 -166h170z" />
    <glyph glyph-name="amacron" unicode="&#x101;" horiz-adv-x="605" 
d="M497 632h-393v135h393v-135zM551 -6q-86 0 -158 35q-76 -39 -168 -39q-93 0 -143.5 46t-50.5 131t58 130.5t166 45.5q53 0 106 -20v13q0 35 -25.5 54.5t-71.5 19.5q-92 0 -190 -24v138q94 34 229 34q117 0 182.5 -54.5t65.5 -151.5v-358zM227 171q0 -47 77 -47
q27 0 57 11v75q-31 12 -57 12q-77 0 -77 -51z" />
    <glyph glyph-name="Abreve" unicode="&#x102;" horiz-adv-x="773" 
d="M388 801q-90 0 -145 41.5t-55 111.5l141 40q0 -39 16.5 -62.5t42.5 -23.5t42 23.5t16 62.5l141 -40q0 -70 -54.5 -111.5t-144.5 -41.5zM581 0l-43 94h-302l-43 -94h-209q229 462 398 750h10q176 -303 398 -750h-209zM472 255l-85 166l-85 -166h170z" />
    <glyph glyph-name="abreve" unicode="&#x103;" horiz-adv-x="605" 
d="M302 609q-90 0 -145 41.5t-55 111.5l141 40q0 -39 16.5 -62.5t42.5 -23.5t42 23.5t16 62.5l141 -40q0 -70 -54.5 -111.5t-144.5 -41.5zM551 -6q-86 0 -158 35q-76 -39 -168 -39q-93 0 -143.5 46t-50.5 131t58 130.5t166 45.5q53 0 106 -20v13q0 35 -25.5 54.5t-71.5 19.5
q-92 0 -190 -24v138q94 34 229 34q117 0 182.5 -54.5t65.5 -151.5v-358zM227 171q0 -47 77 -47q27 0 57 11v75q-31 12 -57 12q-77 0 -77 -51z" />
    <glyph glyph-name="Aogonek" unicode="&#x104;" horiz-adv-x="773" 
d="M646 -134q0 -23 29 -23q36 0 62 20v-73q-38 -20 -90 -20q-44 0 -71.5 22t-27.5 58t22.5 71t81.5 79h-71l-43 94h-302l-43 -94h-209q229 462 398 750h10q176 -303 398 -750q-144 -88 -144 -134zM472 255l-85 166l-85 -166h170z" />
    <glyph glyph-name="aogonek" unicode="&#x105;" horiz-adv-x="605" 
d="M303 558q117 0 182.5 -54.5t65.5 -151.5v-358q-105 -82 -105 -128q0 -23 29 -23q36 0 62 20v-73q-38 -20 -90 -20q-44 0 -71.5 22t-27.5 58q0 39 21 75.5t78 83.5q-26 7 -54 20q-76 -39 -168 -39q-93 0 -143.5 46t-50.5 131t58 130.5t166 45.5q53 0 106 -20v13
q0 35 -25.5 54.5t-71.5 19.5q-92 0 -190 -24v138q94 34 229 34zM227 171q0 -47 77 -47q27 0 57 11v75q-31 12 -57 12q-77 0 -77 -51z" />
    <glyph glyph-name="Cacute" unicode="&#x106;" horiz-adv-x="692" 
d="M339 837l125 -35l178 152l-169 48zM645 562q-58 26 -154 26q-113 0 -181.5 -60t-68.5 -158t70.5 -158t186.5 -60q35 0 83.5 7t73.5 18v-150q-96 -37 -222 -37q-178 0 -286 104.5t-108 275.5t106.5 275.5t281.5 104.5q127 0 218 -38v-150z" />
    <glyph glyph-name="cacute" unicode="&#x107;" horiz-adv-x="559" 
d="M246 645l125 -35l178 152l-169 48zM511 388q-56 22 -115 22q-75 0 -120.5 -37.5t-45.5 -98.5t46.5 -98.5t122.5 -37.5q54 0 122 20v-138q-73 -30 -184 -30q-136 0 -219.5 78t-83.5 206t83 206t220 78q88 0 174 -32v-138z" />
    <glyph glyph-name="Cdotaccent" unicode="&#x10a;" horiz-adv-x="692" 
d="M419 801q-47 0 -77.5 30.5t-30.5 77.5t30.5 77.5t77.5 30.5t78 -30.5t31 -77.5t-31 -77.5t-78 -30.5zM645 562q-58 26 -154 26q-113 0 -181.5 -60t-68.5 -158t70.5 -158t186.5 -60q35 0 83.5 7t73.5 18v-150q-96 -37 -222 -37q-178 0 -286 104.5t-108 275.5t106.5 275.5
t281.5 104.5q127 0 218 -38v-150z" />
    <glyph glyph-name="cdotaccent" unicode="&#x10b;" horiz-adv-x="559" 
d="M326 609q-47 0 -77.5 30.5t-30.5 77.5t30.5 77.5t77.5 30.5t78 -30.5t31 -77.5t-31 -77.5t-78 -30.5zM511 388q-56 22 -115 22q-75 0 -120.5 -37.5t-45.5 -98.5t46.5 -98.5t122.5 -37.5q54 0 122 20v-138q-73 -30 -184 -30q-136 0 -219.5 78t-83.5 206t83 206t220 78
q88 0 174 -32v-138z" />
    <glyph glyph-name="Ccaron" unicode="&#x10c;" horiz-adv-x="692" 
d="M488 802h-137l-135 165l125 35l79 -77l77 77l125 -35zM645 562q-58 26 -154 26q-113 0 -181.5 -60t-68.5 -158t70.5 -158t186.5 -60q35 0 83.5 7t73.5 18v-150q-96 -37 -222 -37q-178 0 -286 104.5t-108 275.5t106.5 275.5t281.5 104.5q127 0 218 -38v-150z" />
    <glyph glyph-name="ccaron" unicode="&#x10d;" horiz-adv-x="559" 
d="M395 610h-137l-135 165l125 35l79 -77l77 77l125 -35zM511 388q-56 22 -115 22q-75 0 -120.5 -37.5t-45.5 -98.5t46.5 -98.5t122.5 -37.5q54 0 122 20v-138q-73 -30 -184 -30q-136 0 -219.5 78t-83.5 206t83 206t220 78q88 0 174 -32v-138z" />
    <glyph glyph-name="Dcaron" unicode="&#x10e;" horiz-adv-x="811" 
d="M313 802l-135 165l125 35l79 -77l77 77l125 -35l-134 -165h-137zM403 740q166 0 267.5 -101.5t101.5 -267.5q0 -167 -101.5 -269t-267.5 -102h-324v740h324zM407 162q74 0 118.5 57.5t44.5 151.5q0 93 -45 150t-118 57h-132v-416h132z" />
    <glyph glyph-name="dcaron" unicode="&#x10f;" horiz-adv-x="846" 
d="M434 738l190 55v-799q-93 0 -161 37q-76 -41 -166 -41q-118 0 -190.5 77.5t-72.5 205.5t76 206.5t201 78.5q62 0 123 -28v208zM914 743l-93 -241l-145 40l60 251zM230 274q0 -62 31 -99t85 -37q42 0 88 23v228q-42 21 -76 21q-58 0 -93 -37.5t-35 -98.5z" />
    <glyph glyph-name="Dcroat" unicode="&#x110;" horiz-adv-x="811" 
d="M403 740q166 0 267.5 -101.5t101.5 -267.5q0 -167 -101.5 -269t-267.5 -102h-324v303h-66v134h66v303h324zM407 162q74 0 118.5 57.5t44.5 151.5q0 93 -45 150t-118 57h-132v-141h144v-134h-144v-141h132z" />
    <glyph glyph-name="dcroat" unicode="&#x111;" horiz-adv-x="684" 
d="M691 604h-67v-610q-93 0 -161 37q-76 -41 -166 -41q-118 0 -190.5 77.5t-72.5 205.5t76 206.5t201 78.5q62 0 123 -28v74h-149v134h149l190 55v-55h67v-134zM230 274q0 -62 31 -99t85 -37q42 0 88 23v228q-42 21 -76 21q-58 0 -93 -37.5t-35 -98.5z" />
    <glyph glyph-name="Emacron" unicode="&#x112;" horiz-adv-x="676" 
d="M535 824h-393v135h393v-135zM627 162v-162h-548v740h541v-162h-345v-124h308v-161h-308v-131h352z" />
    <glyph glyph-name="emacron" unicode="&#x113;" horiz-adv-x="619" 
d="M506 632h-393v135h393v-135zM585 283q0 -37 -7 -76h-347q7 -37 34.5 -53t94.5 -16q84 0 187 28v-139q-94 -37 -232 -37q-130 0 -205 70.5t-75 206.5q0 131 75.5 211t199.5 80t199.5 -75.5t75.5 -199.5zM311 416q-68 0 -81 -89h161q-13 89 -80 89z" />
    <glyph glyph-name="Edotaccent" unicode="&#x116;" horiz-adv-x="676" 
d="M338 801q-47 0 -77.5 30.5t-30.5 77.5t30.5 77.5t77.5 30.5t78 -30.5t31 -77.5t-31 -77.5t-78 -30.5zM627 162v-162h-548v740h541v-162h-345v-124h308v-161h-308v-131h352z" />
    <glyph glyph-name="edotaccent" unicode="&#x117;" horiz-adv-x="619" 
d="M309 609q-47 0 -77.5 30.5t-30.5 77.5t30.5 77.5t77.5 30.5t78 -30.5t31 -77.5t-31 -77.5t-78 -30.5zM585 283q0 -37 -7 -76h-347q7 -37 34.5 -53t94.5 -16q84 0 187 28v-139q-94 -37 -232 -37q-130 0 -205 70.5t-75 206.5q0 131 75.5 211t199.5 80t199.5 -75.5
t75.5 -199.5zM311 416q-68 0 -81 -89h161q-13 89 -80 89z" />
    <glyph glyph-name="Eogonek" unicode="&#x118;" horiz-adv-x="676" 
d="M627 162v-162q-105 -87 -105 -134q0 -23 29 -23q36 0 62 20v-73q-38 -20 -90 -20q-44 0 -71.5 22t-27.5 58q0 74 85 150h-430v740h541v-162h-345v-124h308v-161h-308v-131h352z" />
    <glyph glyph-name="eogonek" unicode="&#x119;" horiz-adv-x="619" 
d="M585 283q0 -37 -7 -76h-347q7 -37 34.5 -53t94.5 -16q84 0 187 28v-139q-105 -99 -105 -154q0 -30 29 -30q36 0 62 20v-73q-38 -20 -90 -20q-44 0 -71.5 24t-27.5 63q0 71 61 138q-50 -5 -90 -5q-130 0 -205 70.5t-75 206.5q0 131 75.5 211t199.5 80t199.5 -75.5
t75.5 -199.5zM311 416q-68 0 -81 -89h161q-13 89 -80 89z" />
    <glyph glyph-name="Ecaron" unicode="&#x11a;" horiz-adv-x="676" 
d="M270 802l-135 165l125 35l79 -77l77 77l125 -35l-134 -165h-137zM627 162v-162h-548v740h541v-162h-345v-124h308v-161h-308v-131h352z" />
    <glyph glyph-name="ecaron" unicode="&#x11b;" horiz-adv-x="619" 
d="M241 610l-135 165l125 35l79 -77l77 77l125 -35l-134 -165h-137zM585 283q0 -37 -7 -76h-347q7 -37 34.5 -53t94.5 -16q84 0 187 28v-139q-94 -37 -232 -37q-130 0 -205 70.5t-75 206.5q0 131 75.5 211t199.5 80t199.5 -75.5t75.5 -199.5zM311 416q-68 0 -81 -89h161
q-13 89 -80 89z" />
    <glyph glyph-name="Gbreve" unicode="&#x11e;" horiz-adv-x="788" 
d="M431 801q-90 0 -145 41.5t-55 111.5l141 40q0 -39 16.5 -62.5t42.5 -23.5t42 23.5t16 62.5l141 -40q0 -70 -54.5 -111.5t-144.5 -41.5zM736 -6q-93 0 -163 35q-86 -39 -185 -39q-154 0 -251.5 102.5t-97.5 272.5q0 176 106.5 280.5t285.5 104.5q65 0 135 -13t117 -35
v-150q-33 16 -90 26t-99 10q-122 0 -187.5 -59t-65.5 -163q0 -98 52 -156t144 -58q50 0 103 16v115h-122v161h318v-450z" />
    <glyph glyph-name="gbreve" unicode="&#x11f;" horiz-adv-x="606" 
d="M310 609q-90 0 -145 41.5t-55 111.5l141 40q0 -39 16.5 -62.5t42.5 -23.5t42 23.5t16 62.5l141 -40q0 -70 -54.5 -111.5t-144.5 -41.5zM195 189q0 -12 8.5 -19.5t29.5 -12.5t36.5 -7.5t49.5 -6.5t52.5 -6.5t51.5 -9.5t52.5 -15t44.5 -22t38.5 -31t23 -43t9.5 -57
q0 -105 -75.5 -147t-242.5 -42q-60 0 -122.5 10.5t-94.5 29.5v125q87 -31 237 -31q116 0 116 27q0 17 -28 24t-90 14q-40 4 -59.5 7t-57 10t-58 17t-43.5 25t-33.5 38t-10.5 53q0 78 74 147q-47 45 -47 112q0 58 35 102t99 63l348 105l39 -128l-85 -19q66 -52 66 -127
q0 -79 -68.5 -127.5t-181.5 -48.5q-61 0 -109 15q-4 -11 -4 -24zM307 318q28 0 45.5 17t17.5 45q0 26 -17 42t-45 16q-29 0 -47 -16.5t-18 -43.5t17.5 -43.5t46.5 -16.5z" />
    <glyph glyph-name="Gdotaccent" unicode="&#x120;" horiz-adv-x="788" 
d="M429 801q-47 0 -77.5 30.5t-30.5 77.5t30.5 77.5t77.5 30.5t78 -30.5t31 -77.5t-31 -77.5t-78 -30.5zM736 -6q-93 0 -163 35q-86 -39 -185 -39q-154 0 -251.5 102.5t-97.5 272.5q0 176 106.5 280.5t285.5 104.5q65 0 135 -13t117 -35v-150q-33 16 -90 26t-99 10
q-122 0 -187.5 -59t-65.5 -163q0 -98 52 -156t144 -58q50 0 103 16v115h-122v161h318v-450z" />
    <glyph glyph-name="gdotaccent" unicode="&#x121;" horiz-adv-x="606" 
d="M308 609q-47 0 -77.5 30.5t-30.5 77.5t30.5 77.5t77.5 30.5t78 -30.5t31 -77.5t-31 -77.5t-78 -30.5zM195 189q0 -12 8.5 -19.5t29.5 -12.5t36.5 -7.5t49.5 -6.5t52.5 -6.5t51.5 -9.5t52.5 -15t44.5 -22t38.5 -31t23 -43t9.5 -57q0 -105 -75.5 -147t-242.5 -42
q-60 0 -122.5 10.5t-94.5 29.5v125q87 -31 237 -31q116 0 116 27q0 17 -28 24t-90 14q-40 4 -59.5 7t-57 10t-58 17t-43.5 25t-33.5 38t-10.5 53q0 78 74 147q-47 45 -47 112q0 58 35 102t99 63l348 105l39 -128l-85 -19q66 -52 66 -127q0 -79 -68.5 -127.5t-181.5 -48.5
q-61 0 -109 15q-4 -11 -4 -24zM307 318q28 0 45.5 17t17.5 45q0 26 -17 42t-45 16q-29 0 -47 -16.5t-18 -43.5t17.5 -43.5t46.5 -16.5z" />
    <glyph glyph-name="Gcommaaccent" unicode="&#x122;" horiz-adv-x="788" 
d="M736 -6q-93 0 -163 35q-86 -39 -185 -39q-154 0 -251.5 102.5t-97.5 272.5q0 176 106.5 280.5t285.5 104.5q65 0 135 -13t117 -35v-150q-33 16 -90 26t-99 10q-122 0 -187.5 -59t-65.5 -163q0 -98 52 -156t144 -58q50 0 103 16v115h-122v161h318v-450zM390 -33
q37 0 61.5 -21t24.5 -59q0 -43 -42.5 -73t-106.5 -44q-6 16 -6 35q0 25 15 44q-31 18 -31 53q0 27 25 46t60 19z" />
    <glyph glyph-name="gcommaaccent" unicode="&#x123;" horiz-adv-x="606" 
d="M309 607q-36 0 -60.5 21t-24.5 59q0 41 39 71.5t109 45.5q6 -16 6 -35q0 -25 -15 -43q32 -17 32 -53q0 -28 -25.5 -47t-60.5 -19zM195 189q0 -12 8.5 -19.5t29.5 -12.5t36.5 -7.5t49.5 -6.5t52.5 -6.5t51.5 -9.5t52.5 -15t44.5 -22t38.5 -31t23 -43t9.5 -57
q0 -105 -75.5 -147t-242.5 -42q-60 0 -122.5 10.5t-94.5 29.5v125q87 -31 237 -31q116 0 116 27q0 17 -28 24t-90 14q-40 4 -59.5 7t-57 10t-58 17t-43.5 25t-33.5 38t-10.5 53q0 78 74 147q-47 45 -47 112q0 58 35 102t99 63l348 105l39 -128l-85 -19q66 -52 66 -127
q0 -79 -68.5 -127.5t-181.5 -48.5q-61 0 -109 15q-4 -11 -4 -24zM307 318q28 0 45.5 17t17.5 45q0 26 -17 42t-45 16q-29 0 -47 -16.5t-18 -43.5t17.5 -43.5t46.5 -16.5z" />
    <glyph glyph-name="Hbar" unicode="&#x126;" horiz-adv-x="865" 
d="M786 540v-540h-196v297h-315v-297h-196v540h-79v134h79v66h196v-66h315v66h196v-66h79v-134h-79zM593 542h-321v-83h321v83z" />
    <glyph glyph-name="hbar" unicode="&#x127;" horiz-adv-x="673" 
d="M417 558q201 0 201 -221v-337h-190v322q0 88 -89 88q-45 0 -89 -27v-383h-190v604h-67v134h67l190 55v-55h149v-134h-149v-87q88 41 167 41z" />
    <glyph glyph-name="Imacron" unicode="&#x12a;" horiz-adv-x="354" 
d="M373 959v-135h-392v135h392zM275 0h-196v740h196v-740z" />
    <glyph glyph-name="imacron" unicode="&#x12b;" horiz-adv-x="310" 
d="M351 767v-135h-392v135h392zM250 548v-548h-190v548h190z" />
    <glyph glyph-name="Iogonek" unicode="&#x12e;" horiz-adv-x="354" 
d="M275 740v-740h-1q-95 -88 -95 -134q0 -23 28 -23q35 0 61 20v-73q-35 -20 -89 -20q-44 0 -71 22t-27 58q0 73 82 150h-84v740h196z" />
    <glyph glyph-name="iogonek" unicode="&#x12f;" horiz-adv-x="310" 
d="M154 609q-47 0 -77.5 30.5t-30.5 77.5t30.5 77.5t77.5 30.5t78 -30.5t31 -77.5t-31 -77.5t-78 -30.5zM60 548h190v-548h-1q-95 -88 -95 -134q0 -23 28 -23q35 0 61 20v-73q-35 -20 -89 -20q-44 0 -71 22t-27 58q0 73 82 150h-78v548z" />
    <glyph glyph-name="Idotaccent" unicode="&#x130;" horiz-adv-x="354" 
d="M176 801q-47 0 -77.5 30.5t-30.5 77.5t30.5 77.5t77.5 30.5t78 -30.5t31 -77.5t-31 -77.5t-78 -30.5zM275 0h-196v740h196v-740z" />
    <glyph glyph-name="dotlessi" unicode="&#x131;" horiz-adv-x="310" 
d="M250 548v-548h-190v548h190z" />
    <glyph glyph-name="Kcommaaccent" unicode="&#x136;" horiz-adv-x="747" 
d="M464 381q61 -66 118 -139.5t83 -110.5l90 -131h-221q-97 152 -259 341v-341h-196v740h196v-321q155 187 240 321h222q-117 -177 -273 -359zM396 -33q37 0 61.5 -21t24.5 -59q0 -43 -42.5 -73t-106.5 -44q-6 16 -6 35q0 25 15 44q-31 18 -31 53q0 27 25 46t60 19z" />
    <glyph glyph-name="kcommaaccent" unicode="&#x137;" horiz-adv-x="627" 
d="M428 288q104 -119 204 -288h-219q-67 122 -163 243v-243h-190v738l190 55v-462q98 122 153 217h220q-62 -97 -195 -260zM325 -33q37 0 61.5 -21t24.5 -59q0 -43 -42.5 -73t-106.5 -44q-6 16 -6 35q0 25 15 44q-31 18 -31 53q0 27 25 46t60 19z" />
    <glyph glyph-name="Lacute" unicode="&#x139;" horiz-adv-x="592" 
d="M221 802l-125 35l134 165l169 -48zM582 162v-162h-503v740h196v-578h307z" />
    <glyph glyph-name="lacute" unicode="&#x13a;" horiz-adv-x="310" 
d="M74 877l125 -35l178 152l-169 48zM60 738l190 55v-793h-190v738z" />
    <glyph glyph-name="Lcommaaccent" unicode="&#x13b;" horiz-adv-x="592" 
d="M582 162v-162h-503v740h196v-578h307zM326 -33q37 0 61.5 -21t24.5 -59q0 -43 -42.5 -73t-106.5 -44q-6 16 -6 35q0 25 15 44q-31 18 -31 53q0 27 25 46t60 19z" />
    <glyph glyph-name="lcommaaccent" unicode="&#x13c;" horiz-adv-x="310" 
d="M250 793v-793h-190v738zM155 -33q37 0 61.5 -21t24.5 -59q0 -43 -42.5 -73t-106.5 -44q-6 16 -6 35q0 25 15 44q-31 18 -31 53q0 27 25 46t60 19z" />
    <glyph glyph-name="Lcaron" unicode="&#x13d;" horiz-adv-x="602" 
d="M495 462l-143 40l60 251l177 -50zM275 162h307v-162h-503v740h196v-578z" />
    <glyph glyph-name="lcaron" unicode="&#x13e;" horiz-adv-x="472" 
d="M60 738l190 55v-793h-190v738zM302 542l145 -40l93 241l-178 50z" />
    <glyph glyph-name="Lslash" unicode="&#x141;" horiz-adv-x="602" 
d="M592 162v-162h-503v303l-72 -21v140l72 21v297h196v-255l123 36v-140l-123 -36v-183h307z" />
    <glyph glyph-name="lslash" unicode="&#x142;" horiz-adv-x="402" 
d="M381 392l-86 -25v-367h-190v326l-86 -24v140l86 24v272l190 55v-286l86 25v-140z" />
    <glyph glyph-name="Nacute" unicode="&#x143;" horiz-adv-x="896" 
d="M492 802l-125 35l134 165l169 -48zM817 -10q-23 0 -66 24t-117 82l-115.5 92l-137.5 114l-109 91l3 -393h-196v750q23 0 68 -25.5t117 -82l119.5 -95.5l137.5 -115l103 -86l-3 394h196v-750z" />
    <glyph glyph-name="nacute" unicode="&#x144;" horiz-adv-x="673" 
d="M383 610l-125 35l134 165l169 -48zM417 558q201 0 201 -221v-337h-190v322q0 88 -89 88q-45 0 -89 -27v-383h-190v554q102 0 176 -44q93 48 181 48z" />
    <glyph glyph-name="Ncommaaccent" unicode="&#x145;" horiz-adv-x="896" 
d="M817 740v-750q-23 0 -66 24t-117 82l-115.5 92l-137.5 114l-109 91l3 -393h-196v750q23 0 68 -25.5t117 -82l119.5 -95.5l137.5 -115l103 -86l-3 394h196zM448 -33q37 0 61.5 -21t24.5 -59q0 -43 -42.5 -73t-106.5 -44q-6 16 -6 35q0 25 15 44q-31 18 -31 53q0 27 25 46
t60 19z" />
    <glyph glyph-name="ncommaaccent" unicode="&#x146;" horiz-adv-x="673" 
d="M417 558q201 0 201 -221v-337h-190v322q0 88 -89 88q-45 0 -89 -27v-383h-190v554q102 0 176 -44q93 48 181 48zM339 -33q37 0 61.5 -21t24.5 -59q0 -43 -42.5 -73t-106.5 -44q-6 16 -6 35q0 25 15 44q-31 18 -31 53q0 27 25 46t60 19z" />
    <glyph glyph-name="Ncaron" unicode="&#x147;" horiz-adv-x="896" 
d="M379 802l-135 165l125 35l79 -77l77 77l125 -35l-134 -165h-137zM817 -10q-23 0 -66 24t-117 82l-115.5 92l-137.5 114l-109 91l3 -393h-196v750q23 0 68 -25.5t117 -82l119.5 -95.5l137.5 -115l103 -86l-3 394h196v-750z" />
    <glyph glyph-name="ncaron" unicode="&#x148;" horiz-adv-x="673" 
d="M270 610l-135 165l125 35l79 -77l77 77l125 -35l-134 -165h-137zM417 558q201 0 201 -221v-337h-190v322q0 88 -89 88q-45 0 -89 -27v-383h-190v554q102 0 176 -44q93 48 181 48z" />
    <glyph glyph-name="Eng" unicode="&#x14a;" horiz-adv-x="896" 
d="M817 -10q-1 -99 -76.5 -159.5t-199.5 -60.5q-49 0 -100.5 8.5t-72.5 18.5v148q55 -13 137 -13q52 0 83.5 29t31.5 77v68q-86 66 -229 188l-119 99l3 -393h-196v750q23 0 68 -25.5t117 -82l119.5 -95.5l137.5 -115l103 -86l-3 394h196v-750z" />
    <glyph glyph-name="eng" unicode="&#x14b;" horiz-adv-x="673" 
d="M417 558q201 0 201 -221v-361q0 -93 -62.5 -149.5t-163.5 -56.5q-57 0 -125 13v138q3 0 27 -1.5t36 -1.5q44 0 71 20.5t27 53.5v330q0 88 -89 88q-45 0 -89 -27v-383h-190v554q102 0 176 -44q93 48 181 48z" />
    <glyph glyph-name="Omacron" unicode="&#x14c;" horiz-adv-x="884" 
d="M639 959v-135h-393v135h393zM443 -10q-182 0 -293.5 104.5t-111.5 275.5t111.5 275.5t293.5 104.5q181 0 292 -104.5t111 -275.5t-111 -275.5t-292 -104.5zM443 152q90 0 145.5 60t55.5 158t-55.5 158t-145.5 60q-91 0 -147 -60t-56 -158t56 -158t147 -60z" />
    <glyph glyph-name="omacron" unicode="&#x14d;" horiz-adv-x="674" 
d="M534 767v-135h-393v135h393zM338 -10q-137 0 -221 78t-84 206t84 206t221 78q136 0 219.5 -78t83.5 -206q0 -127 -83.5 -205.5t-219.5 -78.5zM337 138q48 0 78 37.5t30 98.5t-30 98.5t-78 37.5q-49 0 -78.5 -37.5t-29.5 -98.5t29.5 -98.5t78.5 -37.5z" />
    <glyph glyph-name="Ohungarumlaut" unicode="&#x150;" horiz-adv-x="884" 
d="M236 837l125 -35l146 152l-168 48zM473 837l125 -35l146 152l-168 48zM443 -10q-182 0 -293.5 104.5t-111.5 275.5t111.5 275.5t293.5 104.5q181 0 292 -104.5t111 -275.5t-111 -275.5t-292 -104.5zM443 152q90 0 145.5 60t55.5 158t-55.5 158t-145.5 60q-91 0 -147 -60
t-56 -158t56 -158t147 -60z" />
    <glyph glyph-name="ohungarumlaut" unicode="&#x151;" horiz-adv-x="674" 
d="M131 645l125 -35l146 152l-168 48zM368 645l125 -35l146 152l-168 48zM338 -10q-137 0 -221 78t-84 206t84 206t221 78q136 0 219.5 -78t83.5 -206q0 -127 -83.5 -205.5t-219.5 -78.5zM337 138q48 0 78 37.5t30 98.5t-30 98.5t-78 37.5q-49 0 -78.5 -37.5t-29.5 -98.5
t29.5 -98.5t78.5 -37.5z" />
    <glyph glyph-name="OE" unicode="&#x152;" horiz-adv-x="1248" 
d="M1199 162v-162h-548v52q-93 -62 -222 -62q-175 0 -282.5 104.5t-107.5 275.5t107.5 275.5t282.5 104.5q129 0 222 -62v52h541v-162h-345v-124h308v-161h-308v-131h352zM444 152q90 0 145.5 60t55.5 158t-55.5 158t-145.5 60q-91 0 -147 -60t-56 -158t56 -158t147 -60z
" />
    <glyph glyph-name="oe" unicode="&#x153;" horiz-adv-x="1029" 
d="M994 283q0 -37 -7 -76h-346q7 -37 34.5 -53t94.5 -16q82 0 187 28v-139q-76 -37 -190 -37q-153 0 -227 93q-76 -93 -217 -93q-127 0 -208.5 78.5t-81.5 205.5t81.5 205.5t208.5 78.5q144 0 220 -97q73 97 202 97q112 0 180.5 -75.5t68.5 -199.5zM721 416q-69 0 -81 -89
h161q-13 89 -80 89zM337 138q48 0 78 37.5t30 98.5t-30 98.5t-78 37.5q-49 0 -78.5 -37.5t-29.5 -98.5t29.5 -98.5t78.5 -37.5z" />
    <glyph glyph-name="Racute" unicode="&#x154;" horiz-adv-x="773" 
d="M394 802l-125 35l134 165l169 -48zM589 275q108 -149 176 -275h-225q-74 151 -238 353q34 -10 79 -10q50 0 77.5 32t27.5 86q0 53 -28.5 85t-76.5 32h-106v-578h-196v740h322q129 0 208.5 -71t79.5 -187q0 -134 -100 -207z" />
    <glyph glyph-name="racute" unicode="&#x155;" horiz-adv-x="425" 
d="M275 610l-125 35l134 165l169 -48zM60 554q98 0 169 -40q85 44 177 44v-179q-92 0 -156 -22v-357h-190v554z" />
    <glyph glyph-name="Rcommaaccent" unicode="&#x156;" horiz-adv-x="773" 
d="M589 275q108 -149 176 -275h-225q-74 151 -238 353q34 -10 79 -10q50 0 77.5 32t27.5 86q0 53 -28.5 85t-76.5 32h-106v-578h-196v740h322q129 0 208.5 -71t79.5 -187q0 -134 -100 -207zM395 -33q37 0 61.5 -21t24.5 -59q0 -43 -42.5 -73t-106.5 -44q-6 16 -6 35
q0 25 15 44q-31 18 -31 53q0 27 25 46t60 19z" />
    <glyph glyph-name="rcommaaccent" unicode="&#x157;" horiz-adv-x="425" 
d="M406 379q-92 0 -156 -22v-357h-190v554q98 0 169 -40q85 44 177 44v-179zM155 -33q37 0 61.5 -21t24.5 -59q0 -43 -42.5 -73t-106.5 -44q-6 16 -6 35q0 25 15 44q-31 18 -31 53q0 27 25 46t60 19z" />
    <glyph glyph-name="Rcaron" unicode="&#x158;" horiz-adv-x="773" 
d="M281 802l-135 165l125 35l79 -77l77 77l125 -35l-134 -165h-137zM589 275q108 -149 176 -275h-225q-74 151 -238 353q34 -10 79 -10q50 0 77.5 32t27.5 86q0 53 -28.5 85t-76.5 32h-106v-578h-196v740h322q129 0 208.5 -71t79.5 -187q0 -134 -100 -207z" />
    <glyph glyph-name="rcaron" unicode="&#x159;" horiz-adv-x="425" 
d="M162 610l-135 165l125 35l79 -77l77 77l125 -35l-134 -165h-137zM60 554q98 0 169 -40q85 44 177 44v-179q-92 0 -156 -22v-357h-190v554z" />
    <glyph glyph-name="Sacute" unicode="&#x15a;" horiz-adv-x="662" 
d="M253 837l125 -35l178 152l-169 48zM427 203q0 26 -29 40.5t-89 29.5l-31 8q-62 16 -99.5 30.5t-71.5 40t-49 63.5t-15 93q0 116 77.5 179t216.5 63q134 0 239 -45v-147q-108 35 -194 35q-141 0 -141 -51q0 -17 16 -29t37.5 -18.5t59.5 -16.5q9 -2 13 -3l28 -7
q109 -27 169 -82t60 -157q0 -112 -76.5 -175.5t-211.5 -63.5q-66 0 -138.5 14t-122.5 40v147q103 -44 210 -44q142 0 142 56z" />
    <glyph glyph-name="sacute" unicode="&#x15b;" horiz-adv-x="520" 
d="M181 645l125 -35l178 152l-169 48zM291 157q0 22 -63 35l-29 6q-82 17 -121 51t-39 111q0 93 60.5 145.5t167.5 52.5q106 0 179 -33v-133q-69 24 -139 24q-75 0 -75 -24q0 -16 63 -30l27 -6q79 -18 121 -57.5t42 -119.5q0 -89 -59.5 -139t-164.5 -50q-120 0 -200 42v132
q75 -31 166 -31q36 0 50 5.5t14 18.5z" />
    <glyph glyph-name="Scedilla" unicode="&#x15e;" horiz-adv-x="662" 
d="M624 229q0 -100 -62 -162t-172 -74l-30 -32q36 -5 57.5 -31t21.5 -65q0 -43 -39 -69t-101 -26q-46 0 -76 19v65q24 -11 53 -11q64 0 64 26q0 12 -15 20t-40 8q-39 0 -70 -11q0 32 68 106q-128 11 -208 52v147q103 -44 210 -44q142 0 142 56q0 26 -29 40.5t-89 29.5l-31 8
q-62 16 -99.5 30.5t-71.5 40t-49 63.5t-15 93q0 116 77.5 179t216.5 63q134 0 239 -45v-147q-108 35 -194 35q-141 0 -141 -51q0 -17 16 -29t37.5 -18.5t59.5 -16.5q9 -2 13 -3l28 -7q109 -27 169 -82t60 -157z" />
    <glyph glyph-name="scedilla" unicode="&#x15f;" horiz-adv-x="520" 
d="M485 179q0 -75 -43.5 -123t-122.5 -61q-15 -18 -31 -34q36 -5 57.5 -31t21.5 -65q0 -43 -39 -69t-101 -26q-46 0 -76 19v65q24 -11 53 -11q64 0 64 26q0 12 -15 20t-40 8q-39 0 -70 -11q0 32 69 107q-95 9 -151 39v132q75 -31 166 -31q36 0 50 5.5t14 18.5q0 22 -63 35
l-29 6q-82 17 -121 51t-39 111q0 93 60.5 145.5t167.5 52.5q106 0 179 -33v-133q-69 24 -139 24q-75 0 -75 -24q0 -16 63 -30l27 -6q79 -18 121 -57.5t42 -119.5z" />
    <glyph glyph-name="Scaron" unicode="&#x160;" horiz-adv-x="662" 
d="M402 802h-137l-135 165l125 35l79 -77l77 77l125 -35zM427 203q0 26 -29 40.5t-89 29.5l-31 8q-62 16 -99.5 30.5t-71.5 40t-49 63.5t-15 93q0 116 77.5 179t216.5 63q134 0 239 -45v-147q-108 35 -194 35q-141 0 -141 -51q0 -17 16 -29t37.5 -18.5t59.5 -16.5
q9 -2 13 -3l28 -7q109 -27 169 -82t60 -157q0 -112 -76.5 -175.5t-211.5 -63.5q-66 0 -138.5 14t-122.5 40v147q103 -44 210 -44q142 0 142 56z" />
    <glyph glyph-name="scaron" unicode="&#x161;" horiz-adv-x="520" 
d="M330 610h-137l-135 165l125 35l79 -77l77 77l125 -35zM291 157q0 22 -63 35l-29 6q-82 17 -121 51t-39 111q0 93 60.5 145.5t167.5 52.5q106 0 179 -33v-133q-69 24 -139 24q-75 0 -75 -24q0 -16 63 -30l27 -6q79 -18 121 -57.5t42 -119.5q0 -89 -59.5 -139t-164.5 -50
q-120 0 -200 42v132q75 -31 166 -31q36 0 50 5.5t14 18.5z" />
    <glyph glyph-name="uni0162" unicode="&#x162;" horiz-adv-x="650" 
d="M638 578h-215v-578h-46l-35 -39q37 -5 58.5 -30.5t21.5 -65.5q0 -43 -39 -69t-101 -26q-46 0 -76 19v65q24 -11 53 -11q64 0 64 26q0 12 -15 20t-40 8q-39 0 -70 -11q0 33 73 114h-44v578h-215v162h626v-162z" />
    <glyph glyph-name="uni0163" unicode="&#x163;" horiz-adv-x="475" 
d="M312 -10q-15 0 -22 1q-20 -22 -28 -30q36 -5 57.5 -31t21.5 -65q0 -43 -39 -69t-101 -26q-46 0 -76 19v65q24 -11 53 -11q64 0 64 26q0 12 -15 20t-40 8q-39 0 -70 -11q0 15 16 40t30 41l42 46q-49 24 -76 69.5t-27 105.5v226h-80v134h80v106l190 54v-160h152v-134h-152
v-196q0 -36 22.5 -58t59.5 -22q36 0 75 3v-138q-75 -13 -137 -13z" />
    <glyph glyph-name="Tcaron" unicode="&#x164;" horiz-adv-x="650" 
d="M256 802l-135 165l125 35l79 -77l77 77l125 -35l-134 -165h-137zM638 578h-215v-578h-196v578h-215v162h626v-162z" />
    <glyph glyph-name="tcaron" unicode="&#x165;" horiz-adv-x="475" 
d="M582 856l-93 -241l-145 40l60 251zM292 218q0 -36 22.5 -58t59.5 -22q36 0 75 3v-138q-75 -13 -137 -13q-95 0 -152.5 54.5t-57.5 143.5v226h-80v134h80v106l190 54v-160h152v-134h-152v-196z" />
    <glyph glyph-name="Tbar" unicode="&#x166;" horiz-adv-x="650" 
d="M423 578v-141h104v-134h-104v-303h-196v303h-106v134h106v141h-215v162h626v-162h-215z" />
    <glyph glyph-name="tbar" unicode="&#x167;" horiz-adv-x="475" 
d="M374 138q36 0 75 3v-138q-75 -13 -137 -13q-95 0 -152.5 54.5t-57.5 143.5v29h-74v134h74v63h-80v134h80v106l190 54v-160h152v-134h-152v-63h142v-134h-142q0 -35 22.5 -57t59.5 -22z" />
    <glyph glyph-name="Umacron" unicode="&#x16a;" horiz-adv-x="825" 
d="M608 959v-135h-393v135h393zM753 740v-499q0 -113 -93.5 -182t-247.5 -69q-153 0 -246.5 69t-93.5 182v499h196v-463q0 -56 40 -90.5t106 -34.5q64 0 103.5 34.5t39.5 90.5v463h196z" />
    <glyph glyph-name="umacron" unicode="&#x16b;" horiz-adv-x="648" 
d="M519 632h-393v135h393v-135zM588 -6q-96 0 -164 38q-87 -42 -168 -42q-201 0 -201 221v337h190v-322q0 -88 89 -88q33 0 64 14v396h190v-554z" />
    <glyph glyph-name="Uring" unicode="&#x16e;" horiz-adv-x="825" 
d="M412 772q-62 0 -99 31t-37 83t37 83t99 31q61 0 98 -31t37 -83t-37 -83t-98 -31zM412 851q18 0 28.5 10t10.5 25q0 16 -10.5 25.5t-28.5 9.5q-17 0 -28.5 -9.5t-11.5 -25.5q0 -15 11.5 -25t28.5 -10zM753 740v-499q0 -113 -93.5 -182t-247.5 -69q-153 0 -246.5 69
t-93.5 182v499h196v-463q0 -56 40 -90.5t106 -34.5q64 0 103.5 34.5t39.5 90.5v463h196z" />
    <glyph glyph-name="uring" unicode="&#x16f;" horiz-adv-x="648" 
d="M323 580q-62 0 -99 31t-37 83t37 83t99 31q61 0 98 -31t37 -83t-37 -83t-98 -31zM323 729q-17 0 -28.5 -9.5t-11.5 -25.5q0 -15 11.5 -25t28.5 -10q18 0 28.5 10t10.5 25q0 16 -10.5 25.5t-28.5 9.5zM588 -6q-96 0 -164 38q-87 -42 -168 -42q-201 0 -201 221v337h190
v-322q0 -88 89 -88q33 0 64 14v396h190v-554z" />
    <glyph glyph-name="Uhungarumlaut" unicode="&#x170;" horiz-adv-x="825" 
d="M205 837l125 -35l146 152l-168 48zM442 837l125 -35l146 152l-168 48zM753 740v-499q0 -113 -93.5 -182t-247.5 -69q-153 0 -246.5 69t-93.5 182v499h196v-463q0 -56 40 -90.5t106 -34.5q64 0 103.5 34.5t39.5 90.5v463h196z" />
    <glyph glyph-name="uhungarumlaut" unicode="&#x171;" horiz-adv-x="648" 
d="M241 610l-125 35l103 165l168 -48zM353 645l103 165l168 -48l-146 -152zM398 548h190v-554q-96 0 -164 38q-87 -42 -168 -42q-201 0 -201 221v337h190v-322q0 -88 89 -88q33 0 64 14v396z" />
    <glyph glyph-name="Uogonek" unicode="&#x172;" horiz-adv-x="825" 
d="M753 740v-499q0 -84 -53 -145t-147 -88q-39 -11 -68.5 -28t-45 -32.5t-24.5 -31.5t-11.5 -25t-2.5 -15q0 -15 8 -24t21 -9q36 0 62 20v-73q-38 -20 -90 -20q-44 0 -71.5 24.5t-27.5 64.5q0 32 17.5 62.5t62.5 69.5q-141 7 -226 74.5t-85 175.5v499h196v-463
q0 -56 40 -90.5t106 -34.5q64 0 103.5 34.5t39.5 90.5v463h196z" />
    <glyph glyph-name="uogonek" unicode="&#x173;" horiz-adv-x="648" 
d="M588 548v-554q-105 -82 -105 -128q0 -23 29 -23q36 0 62 20v-73q-38 -20 -90 -20q-44 0 -71.5 22t-27.5 58q0 39 21 75.5t77 82.5q-33 9 -59 24q-87 -42 -168 -42q-201 0 -201 221v337h190v-322q0 -88 89 -88q33 0 64 14v396h190z" />
    <glyph glyph-name="Wcircumflex" unicode="&#x174;" horiz-adv-x="1182" 
d="M668 802l-77 77l-79 -77l-125 35l135 165h137l134 -165zM1197 740q-198 -454 -350 -750h-10q-153 273 -245 459q-125 -246 -249 -459h-9q-139 274 -347 750h209l159 -370l178 370h118q89 -195 179 -370l157 370h210z" />
    <glyph glyph-name="wcircumflex" unicode="&#x175;" horiz-adv-x="912" 
d="M533 610l-77 77l-79 -77l-125 35l135 165h137l134 -165zM918 548q-140 -307 -278 -558h-8q-87 143 -176 322q-87 -175 -178 -322h-8q-127 233 -275 558h203q30 -90 87 -219q60 116 96 219h150q37 -103 96 -219q46 99 88 219h203z" />
    <glyph glyph-name="Ycircumflex" unicode="&#x176;" horiz-adv-x="720" 
d="M282 802l-125 35l135 165h137l134 -165l-125 -35l-77 77zM715 740q-132 -279 -257 -479v-261h-196v263q-118 188 -256 477h209q65 -154 146 -317q84 174 145 317h209z" />
    <glyph glyph-name="ycircumflex" unicode="&#x177;" horiz-adv-x="621" 
d="M240 610l-125 35l135 165h137l134 -165l-125 -35l-77 77zM629 548l-399 -768h-194l187 342l-215 426h203l108 -244l107 244h203z" />
    <glyph glyph-name="Ydieresis" unicode="&#x178;" horiz-adv-x="720" 
d="M220 801q-47 0 -77.5 30.5t-30.5 77.5t30.5 77.5t77.5 30.5t78 -30.5t31 -77.5t-31 -77.5t-78 -30.5zM501 801q-47 0 -77.5 30.5t-30.5 77.5t30.5 77.5t77.5 30.5t78 -30.5t31 -77.5t-31 -77.5t-78 -30.5zM715 740q-132 -279 -257 -479v-261h-196v263q-118 188 -256 477
h209q65 -154 146 -317q84 174 145 317h209z" />
    <glyph glyph-name="Zacute" unicode="&#x179;" horiz-adv-x="653" 
d="M370 802l-125 35l134 165l169 -48zM618 162v-162h-584q0 41 32 113t65 128l94 153q79 125 111 184h-296v162h572q0 -41 -32 -113t-65 -128l-94 -153q-79 -125 -111 -184h308z" />
    <glyph glyph-name="zacute" unicode="&#x17a;" horiz-adv-x="553" 
d="M320 610l-125 35l134 165l169 -48zM524 134v-134h-496q0 24 24.5 76.5t48.5 94.5l72 120l73 123h-214v134h487q0 -24 -24 -76t-49.5 -95l-71.5 -120l-73 -123h223z" />
    <glyph glyph-name="Zdotaccent" unicode="&#x17b;" horiz-adv-x="653" 
d="M325 801q-47 0 -77.5 30.5t-30.5 77.5t30.5 77.5t77.5 30.5t78 -30.5t31 -77.5t-31 -77.5t-78 -30.5zM618 162v-162h-584q0 41 32 113t65 128l94 153q79 125 111 184h-296v162h572q0 -41 -32 -113t-65 -128l-94 -153q-79 -125 -111 -184h308z" />
    <glyph glyph-name="zdotaccent" unicode="&#x17c;" horiz-adv-x="553" 
d="M275 609q-47 0 -77.5 30.5t-30.5 77.5t30.5 77.5t77.5 30.5t78 -30.5t31 -77.5t-31 -77.5t-78 -30.5zM524 134v-134h-496q0 24 24.5 76.5t48.5 94.5l72 120l73 123h-214v134h487q0 -24 -24 -76t-49.5 -95l-71.5 -120l-73 -123h223z" />
    <glyph glyph-name="Zcaron" unicode="&#x17d;" horiz-adv-x="653" 
d="M257 802l-135 165l125 35l79 -77l77 77l125 -35l-134 -165h-137zM618 162v-162h-584q0 41 32 113t65 128l94 153q79 125 111 184h-296v162h572q0 -41 -32 -113t-65 -128l-94 -153q-79 -125 -111 -184h308z" />
    <glyph glyph-name="zcaron" unicode="&#x17e;" horiz-adv-x="553" 
d="M207 610l-135 165l125 35l79 -77l77 77l125 -35l-134 -165h-137zM524 134v-134h-496q0 24 24.5 76.5t48.5 94.5l72 120l73 123h-214v134h487q0 -24 -24 -76t-49.5 -95l-71.5 -120l-73 -123h223z" />
    <glyph glyph-name="florin" unicode="&#x192;" horiz-adv-x="525" 
d="M431 588q-37 0 -50.5 -15t-18.5 -48l-18 -99h134v-119h-155l-73 -407h-189l73 407h-86v119h107l28 158q15 80 74.5 123t145.5 43q61 0 107 -19l-1 -153q-44 10 -78 10z" />
    <glyph glyph-name="Scommaaccent" unicode="&#x218;" horiz-adv-x="662" 
d="M395 468q109 -27 169 -82t60 -157q0 -112 -76.5 -175.5t-211.5 -63.5q-66 0 -138.5 14t-122.5 40v147q103 -44 210 -44q142 0 142 56q0 26 -29 40.5t-89 29.5l-31 8q-62 16 -99.5 30.5t-71.5 40t-49 63.5t-15 93q0 116 77.5 179t216.5 63q134 0 239 -45v-147
q-108 35 -194 35q-141 0 -141 -51q0 -17 16 -29t37.5 -18.5t59.5 -16.5q9 -2 13 -3zM334 -33q37 0 61.5 -21t24.5 -59q0 -43 -42.5 -73t-106.5 -44q-6 16 -6 35q0 25 15 44q-31 18 -31 53q0 27 25 46t60 19z" />
    <glyph glyph-name="scommaaccent" unicode="&#x219;" horiz-adv-x="520" 
d="M322 356q79 -18 121 -57.5t42 -119.5q0 -89 -59.5 -139t-164.5 -50q-120 0 -200 42v132q75 -31 166 -31q36 0 50 5.5t14 18.5q0 22 -63 35l-29 6q-82 17 -121 51t-39 111q0 93 60.5 145.5t167.5 52.5q106 0 179 -33v-133q-69 24 -139 24q-75 0 -75 -24q0 -16 63 -30z
M262 -33q37 0 61.5 -21t24.5 -59q0 -43 -42.5 -73t-106.5 -44q-6 16 -6 35q0 25 15 44q-31 18 -31 53q0 27 25 46t60 19z" />
    <glyph glyph-name="uni021A" unicode="&#x21a;" horiz-adv-x="650" 
d="M638 578h-215v-578h-196v578h-215v162h626v-162zM325 -33q37 0 61.5 -21t24.5 -59q0 -43 -42.5 -73t-106.5 -44q-6 16 -6 35q0 25 15 44q-31 18 -31 53q0 27 25 46t60 19z" />
    <glyph glyph-name="uni021B" unicode="&#x21b;" horiz-adv-x="475" 
d="M374 138q36 0 75 3v-138q-75 -13 -137 -13q-95 0 -152.5 54.5t-57.5 143.5v226h-80v134h80v106l190 54v-160h152v-134h-152v-196q0 -36 22.5 -58t59.5 -22zM236 -33q37 0 61.5 -21t24.5 -59q0 -43 -42.5 -73t-106.5 -44q-6 16 -6 35q0 25 15 44q-31 18 -31 53q0 27 25 46
t60 19z" />
    <glyph glyph-name="circumflex" unicode="&#x2c6;" horiz-adv-x="499" 
d="M327 610l-77 77l-79 -77l-125 35l135 165h137l134 -165z" />
    <glyph glyph-name="caron" unicode="&#x2c7;" horiz-adv-x="499" 
d="M318 610h-137l-135 165l125 35l79 -77l77 77l125 -35z" />
    <glyph glyph-name="breve" unicode="&#x2d8;" horiz-adv-x="443" 
d="M421 762q0 -70 -54.5 -111.5t-144.5 -41.5t-145 41.5t-55 111.5l141 40q0 -39 16.5 -62.5t42.5 -23.5t42 23.5t16 62.5z" />
    <glyph glyph-name="dotaccent" unicode="&#x2d9;" horiz-adv-x="296" 
d="M147 609q-47 0 -77.5 30.5t-30.5 77.5t30.5 77.5t77.5 30.5t78 -30.5t31 -77.5t-31 -77.5t-78 -30.5z" />
    <glyph glyph-name="ring" unicode="&#x2da;" horiz-adv-x="331" 
d="M166 580q-62 0 -99 31t-37 83t37 83t99 31q61 0 98 -31t37 -83t-37 -83t-98 -31zM166 659q18 0 28.5 10t10.5 25q0 16 -10.5 25.5t-28.5 9.5q-17 0 -28.5 -9.5t-11.5 -25.5q0 -15 11.5 -25t28.5 -10z" />
    <glyph glyph-name="ogonek" unicode="&#x2db;" horiz-adv-x="300" 
d="M262 -6q-105 -82 -105 -128q0 -23 29 -23q36 0 62 20v-73q-38 -20 -90 -20q-44 0 -71.5 22t-27.5 58q0 52 42 103.5t161 129.5v-89z" />
    <glyph glyph-name="tilde" unicode="&#x2dc;" horiz-adv-x="453" 
d="M118 608q0 48 30 48q16 0 59 -18q70 -27 102 -27q58 0 92 39.5t34 111.5l-100 30q0 -47 -29 -47q-14 0 -57 17q-67 26 -105 26q-57 0 -91 -41t-34 -110z" />
    <glyph glyph-name="hungarumlaut" unicode="&#x2dd;" horiz-adv-x="628" 
d="M126 645l125 -35l146 152l-168 48zM363 645l125 -35l146 152l-168 48z" />
    <glyph glyph-name="gravecomb" unicode="&#x300;" horiz-adv-x="0" 
d="M-405 762l178 -152l125 35l-134 165z" />
    <glyph glyph-name="acutecomb" unicode="&#x301;" horiz-adv-x="0" 
d="M-316 645l125 -35l178 152l-169 48z" />
    <glyph glyph-name="uni0302" unicode="&#x302;" horiz-adv-x="0" 
d="M-172 610l-77 77l-79 -77l-125 35l135 165h137l134 -165z" />
    <glyph glyph-name="tildecomb" unicode="&#x303;" horiz-adv-x="0" 
d="M-335 608q0 48 30 48q16 0 59 -18q70 -27 102 -27q58 0 92 39.5t34 111.5l-100 30q0 -47 -29 -47q-14 0 -57 17q-67 26 -105 26q-57 0 -91 -41t-34 -110z" />
    <glyph glyph-name="uni0304" unicode="&#x304;" horiz-adv-x="0" 
d="M-24 767v-135h-393v135h393z" />
    <glyph glyph-name="uni0306" unicode="&#x306;" horiz-adv-x="0" 
d="M-22 762q0 -70 -54.5 -111.5t-144.5 -41.5t-145 41.5t-55 111.5l141 40q0 -39 16.5 -62.5t42.5 -23.5t42 23.5t16 62.5z" />
    <glyph glyph-name="uni0307" unicode="&#x307;" horiz-adv-x="0" 
d="M-149 609q-47 0 -77.5 30.5t-30.5 77.5t30.5 77.5t77.5 30.5t78 -30.5t31 -77.5t-31 -77.5t-78 -30.5z" />
    <glyph glyph-name="uni0308" unicode="&#x308;" horiz-adv-x="0" 
d="M-429 609q-47 0 -77.5 30.5t-30.5 77.5t30.5 77.5t77.5 30.5t78 -30.5t31 -77.5t-31 -77.5t-78 -30.5zM-148 609q-47 0 -77.5 30.5t-30.5 77.5t30.5 77.5t77.5 30.5t78 -30.5t31 -77.5t-31 -77.5t-78 -30.5z" />
    <glyph glyph-name="uni030A" unicode="&#x30a;" horiz-adv-x="0" 
d="M-165 580q-62 0 -99 31t-37 83t37 83t99 31q61 0 98 -31t37 -83t-37 -83t-98 -31zM-165 659q18 0 28.5 10t10.5 25q0 16 -10.5 25.5t-28.5 9.5q-17 0 -28.5 -9.5t-11.5 -25.5q0 -15 11.5 -25t28.5 -10z" />
    <glyph glyph-name="uni030B" unicode="&#x30b;" horiz-adv-x="0" 
d="M-502 645l125 -35l146 152l-168 48zM-265 645l125 -35l146 152l-168 48z" />
    <glyph glyph-name="uni030C" unicode="&#x30c;" horiz-adv-x="0" 
d="M-181 610h-137l-135 165l125 35l79 -77l77 77l125 -35z" />
    <glyph glyph-name="uni0312" unicode="&#x312;" horiz-adv-x="0" 
d="M-63 726q32 -17 32 -53q0 -28 -25.5 -47t-60.5 -19q-36 0 -60.5 21t-24.5 59q0 41 39 71.5t109 45.5q6 -16 6 -35q0 -25 -15 -43z" />
    <glyph glyph-name="uni0326" unicode="&#x326;" horiz-adv-x="0" 
d="M-31 -113q0 -4 -2 -10q-9 -77 -147 -107q-6 16 -6 35q0 25 15 44q-31 18 -31 53q0 27 25 46t60 19q37 0 61.5 -21t24.5 -59z" />
    <glyph glyph-name="uni0327" unicode="&#x327;" horiz-adv-x="0" 
d="M-146 -39q36 -5 57.5 -31t21.5 -65q0 -43 -39 -69t-101 -26q-46 0 -76 19v65q24 -11 53 -11q64 0 64 26q0 12 -15 20t-40 8q-39 0 -70 -11q0 8 3.5 17.5t10.5 20.5t14.5 21t19 23.5l19 22t20.5 22t18 19.5h105q-12 -14 -37.5 -41t-27.5 -30z" />
    <glyph glyph-name="uni0328" unicode="&#x328;" horiz-adv-x="0" 
d="M-38 -6q-105 -82 -105 -128q0 -23 29 -23q36 0 62 20v-73q-38 -20 -90 -20q-44 0 -71.5 22t-27.5 58q0 52 42 103.5t161 129.5v-89z" />
    <glyph glyph-name="uni0335" unicode="&#x335;" horiz-adv-x="0" 
d="M-23 359v-134h-406v134h406z" />
    <glyph glyph-name="uni0336" unicode="&#x336;" horiz-adv-x="0" 
d="M-24 359v-134h-865v134h865z" />
    <glyph glyph-name="uni0337" unicode="&#x337;" horiz-adv-x="0" 
d="M-43 531l-455 -537l-79 23l453 537z" />
    <glyph glyph-name="uni0338" unicode="&#x338;" horiz-adv-x="0" 
d="M-31 720l-651 -726l-93 26l651 726z" />
    <glyph glyph-name="uni0394" unicode="&#x394;" horiz-adv-x="774" 
d="M392 750q176 -303 398 -750h-806q229 462 398 750h10zM506 162l-119 249l-119 -249h238z" />
    <glyph glyph-name="uni03A9" unicode="&#x3a9;" horiz-adv-x="891" 
d="M845 398q0 -148 -109 -238l93 2v-162h-321v155q63 18 99.5 75t36.5 141q0 98 -54 157.5t-143 59.5t-143.5 -59.5t-54.5 -157.5q0 -83 36.5 -140t99.5 -76v-155h-322v162l94 -2q-110 90 -110 238q0 158 110 255t290 97q179 0 288.5 -97t109.5 -255z" />
    <glyph glyph-name="uni03BC" unicode="&#x3bc;" horiz-adv-x="652" 
d="M592 -6q-90 0 -154 33q-65 -37 -123 -37q-35 0 -65 6v-216h-190v768h190v-322q0 -88 89 -88q33 0 63 14v396h190v-554z" />
    <glyph glyph-name="pi" unicode="&#x3c0;" horiz-adv-x="709" 
d="M614 138q26 0 50 18v-139q-52 -27 -112 -27q-68 0 -110 39.5t-42 105.5v279h-114v-414h-190v414h-64v134h631v-134h-73v-253q0 -23 24 -23z" />
    <glyph glyph-name="Wgrave" unicode="&#x1e80;" horiz-adv-x="1182" 
d="M369 954l178 -152l125 35l-134 165zM1197 740q-198 -454 -350 -750h-10q-153 273 -245 459q-125 -246 -249 -459h-9q-139 274 -347 750h209l159 -370l178 370h118q89 -195 179 -370l157 370h210z" />
    <glyph glyph-name="wgrave" unicode="&#x1e81;" horiz-adv-x="912" 
d="M234 762l178 -152l125 35l-134 165zM918 548q-140 -307 -278 -558h-8q-87 143 -176 322q-87 -175 -178 -322h-8q-127 233 -275 558h203q30 -90 87 -219q60 116 96 219h150q37 -103 96 -219q46 99 88 219h203z" />
    <glyph glyph-name="Wacute" unicode="&#x1e82;" horiz-adv-x="1182" 
d="M510 837l125 -35l178 152l-169 48zM1197 740q-198 -454 -350 -750h-10q-153 273 -245 459q-125 -246 -249 -459h-9q-139 274 -347 750h209l159 -370l178 370h118q89 -195 179 -370l157 370h210z" />
    <glyph glyph-name="wacute" unicode="&#x1e83;" horiz-adv-x="912" 
d="M375 645l125 -35l178 152l-169 48zM918 548q-140 -307 -278 -558h-8q-87 143 -176 322q-87 -175 -178 -322h-8q-127 233 -275 558h203q30 -90 87 -219q60 116 96 219h150q37 -103 96 -219q46 99 88 219h203z" />
    <glyph glyph-name="Wdieresis" unicode="&#x1e84;" horiz-adv-x="1182" 
d="M450 801q-47 0 -77.5 30.5t-30.5 77.5t30.5 77.5t77.5 30.5t78 -30.5t31 -77.5t-31 -77.5t-78 -30.5zM731 801q-47 0 -77.5 30.5t-30.5 77.5t30.5 77.5t77.5 30.5t78 -30.5t31 -77.5t-31 -77.5t-78 -30.5zM1197 740q-198 -454 -350 -750h-10q-153 273 -245 459
q-125 -246 -249 -459h-9q-139 274 -347 750h209l159 -370l178 370h118q89 -195 179 -370l157 370h210z" />
    <glyph glyph-name="wdieresis" unicode="&#x1e85;" horiz-adv-x="912" 
d="M315 609q-47 0 -77.5 30.5t-30.5 77.5t30.5 77.5t77.5 30.5t78 -30.5t31 -77.5t-31 -77.5t-78 -30.5zM596 609q-47 0 -77.5 30.5t-30.5 77.5t30.5 77.5t77.5 30.5t78 -30.5t31 -77.5t-31 -77.5t-78 -30.5zM918 548q-140 -307 -278 -558h-8q-87 143 -176 322
q-87 -175 -178 -322h-8q-127 233 -275 558h203q30 -90 87 -219q60 116 96 219h150q37 -103 96 -219q46 99 88 219h203z" />
    <glyph glyph-name="uni1E9E" unicode="&#x1e9e;" horiz-adv-x="784" 
d="M599 459q66 -14 105 -74.5t39 -150.5q0 -110 -73 -177t-192 -67q-99 0 -170 47v148q50 -33 124 -33q49 0 79 22.5t30 59.5t-28.5 59.5t-75.5 22.5q-60 0 -99 -23q0 26 20 71.5t38.5 77l55.5 92.5q13 19 27 44q-50 10 -115 10q-43 0 -69.5 -28t-26.5 -74v-486h-196v509
q0 109 81 175t215 66q188 0 351 -64q0 -41 -111 -213q-6 -9 -9 -14z" />
    <glyph glyph-name="Ygrave" unicode="&#x1ef2;" horiz-adv-x="720" 
d="M317 802l-178 152l169 48l134 -165zM715 740q-132 -279 -257 -479v-261h-196v263q-118 188 -256 477h209q65 -154 146 -317q84 174 145 317h209z" />
    <glyph glyph-name="ygrave" unicode="&#x1ef3;" horiz-adv-x="621" 
d="M275 610l-178 152l169 48l134 -165zM629 548l-399 -768h-194l187 342l-215 426h203l108 -244l107 244h203z" />
    <glyph glyph-name="endash" unicode="&#x2013;" horiz-adv-x="660" 
d="M602 359v-134h-544v134h544z" />
    <glyph glyph-name="emdash" unicode="&#x2014;" horiz-adv-x="1042" 
d="M985 359v-134h-927v134h927z" />
    <glyph glyph-name="quoteleft" unicode="&#x2018;" horiz-adv-x="310" 
d="M217 615q54 -30 54 -97q0 -47 -34.5 -78.5t-83.5 -31.5q-51 0 -84.5 37.5t-33.5 102.5q0 78 53 139.5t151 101.5q9 -35 9 -75q0 -55 -31 -99z" />
    <glyph glyph-name="quoteright" unicode="&#x2019;" horiz-adv-x="309" 
d="M161 788q51 0 84.5 -37.5t33.5 -102.5q0 -78 -53 -139.5t-151 -101.5q-9 35 -9 75q0 55 31 99q-54 30 -54 97q0 47 34.5 78.5t83.5 31.5z" />
    <glyph glyph-name="quotesinglbase" unicode="&#x201a;" horiz-adv-x="321" 
d="M159 226q51 0 84.5 -37.5t33.5 -102.5q0 -78 -53 -139.5t-151 -101.5q-9 35 -9 75q0 55 31 99q-54 30 -54 97q0 47 34.5 78.5t83.5 31.5z" />
    <glyph glyph-name="quotedblleft" unicode="&#x201c;" horiz-adv-x="594" 
d="M217 616q54 -30 54 -97q0 -47 -34.5 -78.5t-83.5 -31.5q-51 0 -84.5 37.5t-33.5 102.5q0 78 53 139.5t151 101.5q9 -35 9 -75q0 -55 -31 -99zM501 616q54 -30 54 -97q0 -47 -34.5 -78.5t-83.5 -31.5q-51 0 -84.5 37.5t-33.5 102.5q0 78 53 139.5t151 101.5q9 -35 9 -75
q0 -55 -31 -99z" />
    <glyph glyph-name="quotedblright" unicode="&#x201d;" horiz-adv-x="594" 
d="M161 790q51 0 84.5 -37.5t33.5 -102.5q0 -78 -53 -139.5t-151 -101.5q-9 35 -9 75q0 55 31 99q-54 30 -54 97q0 47 34.5 78.5t83.5 31.5zM445 790q51 0 84.5 -37.5t33.5 -102.5q0 -78 -53 -139.5t-151 -101.5q-9 35 -9 75q0 55 31 99q-54 30 -54 97q0 47 34.5 78.5
t83.5 31.5z" />
    <glyph glyph-name="quotedblbase" unicode="&#x201e;" horiz-adv-x="604" 
d="M158 226q51 0 84.5 -37.5t33.5 -102.5q0 -78 -53 -139.5t-151 -101.5q-9 35 -9 75q0 55 31 99q-54 30 -54 97q0 47 34.5 78.5t83.5 31.5zM442 226q51 0 84.5 -37.5t33.5 -102.5q0 -78 -53 -139.5t-151 -101.5q-9 35 -9 75q0 55 31 99q-54 30 -54 97q0 47 34.5 78.5
t83.5 31.5z" />
    <glyph glyph-name="dagger" unicode="&#x2020;" horiz-adv-x="600" 
d="M564 387h-166v-607h-196v607h-166v161h166v232h196v-232h166v-161z" />
    <glyph glyph-name="daggerdbl" unicode="&#x2021;" horiz-adv-x="600" 
d="M398 387v-67h166v-162h-166v-378h-196v378h-166v162h166v67h-166v161h166v232h196v-232h166v-161h-166z" />
    <glyph glyph-name="bullet" unicode="&#x2022;" horiz-adv-x="429" 
d="M214 153q-66 0 -106 40t-40 106t40 106t106 40q67 0 107 -40t40 -106t-40 -106t-107 -40z" />
    <glyph glyph-name="ellipsis" unicode="&#x2026;" horiz-adv-x="917" 
d="M157 -10q-49 0 -83.5 34.5t-34.5 83.5t34.5 83.5t83.5 34.5t83.5 -34.5t34.5 -83.5t-34.5 -83.5t-83.5 -34.5zM459 -10q-49 0 -83.5 34.5t-34.5 83.5t34.5 83.5t83.5 34.5t83.5 -34.5t34.5 -83.5t-34.5 -83.5t-83.5 -34.5zM760 -10q-49 0 -83.5 34.5t-34.5 83.5
t34.5 83.5t83.5 34.5t83.5 -34.5t34.5 -83.5t-34.5 -83.5t-83.5 -34.5z" />
    <glyph glyph-name="perthousand" unicode="&#x2030;" horiz-adv-x="1439" 
d="M238 400q-93 0 -149.5 48t-56.5 127t57 127t149 48t148 -48t56 -127t-56 -127t-148 -48zM836 706l-542 -712l-141 40l542 712zM237 515q26 0 42.5 16.5t16.5 43.5t-16.5 43t-42.5 16t-42.5 -16t-16.5 -43t16.5 -43.5t42.5 -16.5zM750 -10q-92 0 -149 48t-57 127t56.5 127
t149.5 48q92 0 148 -48t56 -127t-56 -127t-148 -48zM1205 -10q-92 0 -149 48t-57 127t56.5 127t149.5 48q92 0 148 -48t56 -127t-56 -127t-148 -48zM749 106q26 0 42.5 16t16.5 43t-16.5 43.5t-42.5 16.5t-42.5 -16.5t-16.5 -43.5t16.5 -43t42.5 -16zM1204 106q26 0 42.5 16
t16.5 43t-16.5 43.5t-42.5 16.5t-42.5 -16.5t-16.5 -43.5t16.5 -43t42.5 -16z" />
    <glyph glyph-name="guilsinglleft" unicode="&#x2039;" horiz-adv-x="414" 
d="M236 270l140 -186l-165 -48l-183 234l183 234l165 -49z" />
    <glyph glyph-name="guilsinglright" unicode="&#x203a;" horiz-adv-x="414" 
d="M386 270l-183 -234l-165 48l140 186l-140 185l165 49z" />
    <glyph glyph-name="fraction" unicode="&#x2044;" horiz-adv-x="285" 
d="M474 713l-546 -719l-120 33l546 719z" />
    <glyph glyph-name="uni2070" unicode="&#x2070;" horiz-adv-x="448" 
d="M225 390q-88 0 -142 62.5t-54 165.5t54 165.5t142 62.5q87 0 140.5 -63t53.5 -165t-53.5 -165t-140.5 -63zM225 487q33 0 53 36t20 95t-20 95.5t-53 36.5t-53.5 -36.5t-20.5 -95.5q0 -58 20.5 -94.5t53.5 -36.5z" />
    <glyph glyph-name="uni2074" unicode="&#x2074;" horiz-adv-x="396" 
d="M379 473h-49v-77h-118v77h-201q0 49 75 209q54 117 64 158h124q-7 -40 -69 -169q-34 -70 -47 -101h57v64h115v-64h49v-97z" />
    <glyph glyph-name="uni2075" unicode="&#x2075;" horiz-adv-x="370" 
d="M148 390q-69 0 -116 28v89q43 -20 96 -20q42 0 67.5 14t25.5 39q0 23 -24 37.5t-64 14.5q-51 0 -95 -14l29 262h252v-96h-145l-11 -67q18 4 34 4q66 0 105.5 -39t39.5 -102q0 -68 -53 -109t-141 -41z" />
    <glyph glyph-name="uni2076" unicode="&#x2076;" horiz-adv-x="413" 
d="M238 687q58 0 103 -37.5t45 -109.5q0 -63 -46.5 -106.5t-127.5 -43.5q-92 0 -136.5 51t-44.5 164q0 125 59 183t162 58q62 0 102 -18v-91q-31 13 -77 13q-98 0 -118 -81q41 18 79 18zM211 487q26 0 40 16t14 37q0 50 -59 50q-25 0 -53 -11q2 -52 14 -72t44 -20z" />
    <glyph glyph-name="uni2077" unicode="&#x2077;" horiz-adv-x="347" 
d="M334 840q0 -56 -76 -251q-57 -143 -66 -193h-123q7 50 71 207q49 129 53 141h-176v96h317z" />
    <glyph glyph-name="uni2078" unicode="&#x2078;" horiz-adv-x="405" 
d="M316 639q61 -39 61 -109q0 -66 -46.5 -103t-127.5 -37t-128 34.5t-47 89.5q0 54 51 100q-32 35 -32 86q0 67 41 106.5t115 39.5q70 0 112 -34.5t42 -86.5q0 -42 -41 -86zM202 751q-39 0 -39 -35t51 -45l5 -1q22 23 22 49q0 32 -39 32zM201 486q55 0 55 32t-68 47l-18 4
q-23 -23 -23 -45q0 -17 14.5 -27.5t39.5 -10.5z" />
    <glyph glyph-name="uni2079" unicode="&#x2079;" horiz-adv-x="413" 
d="M201 846q92 0 136.5 -51t44.5 -164q0 -125 -59 -183t-162 -58q-62 0 -102 18v91q31 -13 77 -13q98 0 118 81q-41 -18 -79 -18q-58 0 -103 37.5t-45 109.5q0 63 46.5 106.5t127.5 43.5zM148 696q0 -50 59 -50q25 0 53 11q-2 52 -14 72t-44 20q-26 0 -40 -16t-14 -37z" />
    <glyph glyph-name="uni2080" unicode="&#x2080;" horiz-adv-x="448" 
d="M225 -106q-88 0 -142 62.5t-54 165.5t54 165.5t142 62.5q87 0 140.5 -63t53.5 -165t-53.5 -165t-140.5 -63zM225 -9q33 0 53 36t20 95t-20 95.5t-53 36.5t-53.5 -36.5t-20.5 -95.5q0 -58 20.5 -94.5t53.5 -36.5z" />
    <glyph glyph-name="uni2081" unicode="&#x2081;" horiz-adv-x="275" 
d="M17 298l182 52h27v-450h-118v323l-91 -23v98z" />
    <glyph glyph-name="uni2082" unicode="&#x2082;" horiz-adv-x="381" 
d="M231 50q-48 -39 -62 -54l176 1v-97h-322q0 39 11 72.5t34.5 63t40.5 45.5t49 43q38 31 54 50t16 39q0 41 -63 41q-56 0 -125 -30v90q57 36 138 36q77 0 123 -34.5t46 -97.5q0 -49 -28 -84.5t-88 -83.5z" />
    <glyph glyph-name="uni2083" unicode="&#x2083;" horiz-adv-x="374" 
d="M224 178q55 -7 87.5 -44t32.5 -93q0 -66 -53 -106.5t-141 -40.5q-69 0 -116 28v89q38 -20 88 -20q46 0 73.5 13.5t27.5 36.5q0 22 -25 35.5t-65 13.5t-87 -15q0 6 2 14t6.5 17.5l8.5 17.5t12.5 20.5l13.5 20t15.5 22t15.5 20.5t16.5 21t14.5 20h-112v96h299
q0 -31 -114 -166z" />
    <glyph glyph-name="uni2084" unicode="&#x2084;" horiz-adv-x="396" 
d="M379 -23h-49v-77h-118v77h-201q0 49 75 209q54 117 64 158h124q-7 -40 -69 -169q-34 -70 -47 -101h57v64h115v-64h49v-97z" />
    <glyph glyph-name="uni2085" unicode="&#x2085;" horiz-adv-x="370" 
d="M148 -106q-69 0 -116 28v89q43 -20 96 -20q42 0 67.5 14t25.5 39q0 23 -24 37.5t-64 14.5q-51 0 -95 -14l29 262h252v-96h-145l-11 -67q18 4 34 4q66 0 105.5 -39t39.5 -102q0 -68 -53 -109t-141 -41z" />
    <glyph glyph-name="uni2086" unicode="&#x2086;" horiz-adv-x="413" 
d="M238 191q58 0 103 -37.5t45 -109.5q0 -63 -46.5 -106.5t-127.5 -43.5q-92 0 -136.5 51t-44.5 164q0 125 59 183t162 58q62 0 102 -18v-91q-31 13 -77 13q-98 0 -118 -81q41 18 79 18zM211 -9q26 0 40 16t14 37q0 50 -59 50q-25 0 -53 -11q2 -52 14 -72t44 -20z" />
    <glyph glyph-name="uni2087" unicode="&#x2087;" horiz-adv-x="347" 
d="M334 344q0 -56 -76 -251q-57 -143 -66 -193h-123q7 50 71 207q49 129 53 141h-176v96h317z" />
    <glyph glyph-name="uni2088" unicode="&#x2088;" horiz-adv-x="405" 
d="M316 143q61 -39 61 -109q0 -66 -46.5 -103t-127.5 -37t-128 34.5t-47 89.5q0 54 51 100q-32 35 -32 86q0 67 41 106.5t115 39.5q70 0 112 -34.5t42 -86.5q0 -42 -41 -86zM202 255q-39 0 -39 -35t51 -45l5 -1q22 23 22 49q0 32 -39 32zM201 -10q55 0 55 32t-68 47l-18 4
q-23 -23 -23 -45q0 -17 14.5 -27.5t39.5 -10.5z" />
    <glyph glyph-name="uni2089" unicode="&#x2089;" horiz-adv-x="413" 
d="M201 350q92 0 136.5 -51t44.5 -164q0 -125 -59 -183t-162 -58q-62 0 -102 18v91q31 -13 77 -13q98 0 118 81q-41 -18 -79 -18q-58 0 -103 37.5t-45 109.5q0 63 46.5 106.5t127.5 43.5zM148 200q0 -50 59 -50q25 0 53 11q-2 52 -14 72t-44 20q-26 0 -40 -16t-14 -37z" />
    <glyph glyph-name="Euro" unicode="&#x20ac;" horiz-adv-x="763" 
d="M558 152q35 0 83.5 7t73.5 18v-150q-96 -37 -222 -37q-138 0 -235.5 64t-136.5 177h-84v119h63v38h-63v119h83q38 113 134.5 178t232.5 65q127 0 218 -38v-150q-58 26 -154 26q-134 0 -202 -81h163v-119h-210q-1 -6 -1 -18q0 -13 1 -20h210v-119h-160q71 -79 206 -79z
" />
    <glyph glyph-name="uni20B9" unicode="&#x20b9;" horiz-adv-x="651" 
d="M613 621h-176q49 -37 69 -90h107v-119h-101q-13 -78 -58 -125t-118 -57q4 -4 23.5 -21l26 -23l24 -22.5l26 -25l23.5 -23.5l24.5 -25t20.5 -23t20 -25l-184 -55q-26 33 -105 110q-46 45 -70.5 71t-58 65.5t-48.5 71.5t-15 59q61 -16 135 -16q100 0 127 64h-252v119h246
q-22 39 -78.5 50.5t-167.5 11.5v147h560v-119z" />
    <glyph glyph-name="uni20BD" unicode="&#x20bd;" horiz-adv-x="729" 
d="M312 265v-38h189v-119h-189v-108h-196v108h-60v119h60v38h-60v119h60v356h334q116 0 181 -62.5t65 -174.5t-88 -175t-244 -63h-52zM312 427h76q50 0 77.5 19.5t27.5 56.5q0 35 -23 55t-64 20h-94v-151z" />
    <glyph glyph-name="trademark" unicode="&#x2122;" horiz-adv-x="963" 
d="M661 619q73 83 137.5 124.5t94.5 41.5v-375h-142l1 127q-46 -43 -91 -99h-1q-44 56 -93 102l2 -130h-142v375q31 0 95.5 -41.5t138.5 -124.5zM380 667h-101v-257h-142v257h-100v113h343v-113z" />
    <glyph glyph-name="oneeighth" unicode="&#x215b;" horiz-adv-x="965" 
d="M108 619l-91 -23v98l182 52h27v-450h-118v323zM749 713l-546 -719l-120 33l546 719zM876 243q61 -39 61 -109q0 -66 -46.5 -103t-127.5 -37t-128 34.5t-47 89.5q0 54 51 100q-32 35 -32 86q0 67 41 106.5t115 39.5q70 0 112 -34.5t42 -86.5q0 -42 -41 -86zM762 355
q-39 0 -39 -35t51 -45l5 -1q22 23 22 49q0 32 -39 32zM761 90q55 0 55 32t-68 47l-18 4q-23 -23 -23 -45q0 -17 14.5 -27.5t39.5 -10.5z" />
    <glyph glyph-name="threeeighths" unicode="&#x215c;" horiz-adv-x="1064" 
d="M848 713l-546 -719l-120 33l546 719zM344 437q0 -66 -53 -106.5t-141 -40.5q-69 0 -116 28v89q38 -20 88 -20q46 0 73.5 13.5t27.5 36.5q0 22 -25 35.5t-65 13.5t-87 -15q0 6 2 14t6.5 17.5l8.5 17.5t12.5 20.5l13.5 20t15.5 22t15.5 20.5t16.5 21t14.5 20h-112v96h299
q0 -31 -114 -166q55 -7 87.5 -44t32.5 -93zM975 243q61 -39 61 -109q0 -66 -46.5 -103t-127.5 -37t-128 34.5t-47 89.5q0 54 51 100q-32 35 -32 86q0 67 41 106.5t115 39.5q70 0 112 -34.5t42 -86.5q0 -42 -41 -86zM861 355q-39 0 -39 -35t51 -45l5 -1q22 23 22 49
q0 32 -39 32zM860 90q55 0 55 32t-68 47l-18 4q-23 -23 -23 -45q0 -17 14.5 -27.5t39.5 -10.5z" />
    <glyph glyph-name="fiveeighths" unicode="&#x215d;" horiz-adv-x="1060" 
d="M844 713l-546 -719l-120 33l546 719zM342 440q0 -68 -53 -109t-141 -41q-69 0 -116 28v89q43 -20 96 -20q42 0 67.5 14t25.5 39q0 23 -24 37.5t-64 14.5q-51 0 -95 -14l29 262h252v-96h-145l-11 -67q18 4 34 4q66 0 105.5 -39t39.5 -102zM971 243q61 -39 61 -109
q0 -66 -46.5 -103t-127.5 -37t-128 34.5t-47 89.5q0 54 51 100q-32 35 -32 86q0 67 41 106.5t115 39.5q70 0 112 -34.5t42 -86.5q0 -42 -41 -86zM857 355q-39 0 -39 -35t51 -45l5 -1q22 23 22 49q0 32 -39 32zM856 90q55 0 55 32t-68 47l-18 4q-23 -23 -23 -45
q0 -17 14.5 -27.5t39.5 -10.5z" />
    <glyph glyph-name="seveneighths" unicode="&#x215e;" horiz-adv-x="1012" 
d="M796 713l-546 -719l-120 33l546 719zM69 296q7 50 71 207q49 129 53 141h-176v96h317q0 -56 -76 -251q-57 -143 -66 -193h-123zM923 243q61 -39 61 -109q0 -66 -46.5 -103t-127.5 -37t-128 34.5t-47 89.5q0 54 51 100q-32 35 -32 86q0 67 41 106.5t115 39.5
q70 0 112 -34.5t42 -86.5q0 -42 -41 -86zM809 355q-39 0 -39 -35t51 -45l5 -1q22 23 22 49q0 32 -39 32zM808 90q55 0 55 32t-68 47l-18 4q-23 -23 -23 -45q0 -17 14.5 -27.5t39.5 -10.5z" />
    <glyph glyph-name="partialdiff" unicode="&#x2202;" horiz-adv-x="717" 
d="M328 750q159 0 256 -104t97 -274q0 -172 -103 -277t-270 -105q-129 0 -207 63t-78 167q0 111 118.5 183.5t317.5 83.5q-19 48 -53 74.5t-79 26.5q-50 0 -90 -22t-63 -60l-123 126q101 118 277 118zM303 152q70 0 116 47t57 128q-117 -3 -187.5 -33t-70.5 -77
q0 -29 23.5 -47t61.5 -18z" />
    <glyph glyph-name="emptyset" unicode="&#x2205;" horiz-adv-x="700" 
d="M583 552q71 -77 71 -194q0 -127 -83.5 -205.5t-219.5 -78.5q-91 0 -159 35l-31 -35l-73 56l30 34q-72 77 -72 194q0 128 84 206.5t221 78.5q90 0 158 -35l31 35l73 -56zM176 358q0 -56 28 -96l219 249q-31 12 -72 12q-79 0 -127 -45.5t-48 -119.5zM351 194q79 0 126.5 45
t47.5 119q0 57 -28 97l-219 -249q31 -12 73 -12z" />
    <glyph glyph-name="product" unicode="&#x220f;" horiz-adv-x="752" 
d="M673 -220h-196v838h-202v-838h-196v1000h594v-1000z" />
    <glyph glyph-name="summation" unicode="&#x2211;" horiz-adv-x="701" 
d="M662 -220h-628v124l271 379l-260 373v124h607v-162h-371l254 -335l-267 -341h394v-162z" />
    <glyph glyph-name="minus" unicode="&#x2212;" 
d="M564 359v-134h-517v134h517z" />
    <glyph glyph-name="radical" unicode="&#x221a;" horiz-adv-x="783" 
d="M401 -220h-189l-221 548h207l108 -333l285 785h207z" />
    <glyph glyph-name="infinity" unicode="&#x221e;" horiz-adv-x="884" 
d="M625 512q95 0 155.5 -60t60.5 -163q0 -102 -63 -161t-166 -59q-127 0 -193 63q-84 -63 -161 -63q-100 0 -157 58.5t-57 161.5q0 106 60 164.5t164 58.5q124 0 194 -65q71 65 163 65zM597 231q21 0 34 16t13 45q0 26 -14 42t-39 16q-32 0 -65 -30q14 -51 28.5 -70
t42.5 -19zM242 292q0 -29 13.5 -44.5t34.5 -15.5q28 0 65 28l-1 4q-9 43 -23.5 64t-40.5 21q-22 0 -35 -15t-13 -42z" />
    <glyph glyph-name="integral" unicode="&#x222b;" horiz-adv-x="450" 
d="M324 790q46 0 97 -13v-138q-3 0 -14.5 1.5t-17.5 1.5q-31 0 -50 -17t-19 -45v-630q0 -80 -53.5 -130t-140.5 -50q-46 0 -97 13v138q1 0 13 -1.5t19 -1.5q31 0 50 17t19 45v630q0 81 53.5 130.5t140.5 49.5z" />
    <glyph glyph-name="approxequal" unicode="&#x2248;" 
d="M153 312q0 22 13 35t37 13q20 0 76 -18q92 -27 134 -27q67 0 106 39.5t39 111.5l-99 29q0 -46 -50 -46q-19 0 -76 17q-87 26 -134 26q-66 0 -105.5 -41.5t-39.5 -109.5zM153 90q0 22 13 35t37 13q20 0 76 -18q92 -27 134 -27q67 0 106 39.5t39 111.5l-99 29
q0 -46 -50 -46q-19 0 -76 17q-87 26 -134 26q-66 0 -105.5 -41.5t-39.5 -109.5z" />
    <glyph glyph-name="notequal" unicode="&#x2260;" 
d="M378 336l-43 -88h229v-134h-294l-43 -90l-93 25l32 65h-119v134h184l42 88h-226v134h291l41 84l92 -25l-29 -59h122v-134h-186z" />
    <glyph glyph-name="lessequal" unicode="&#x2264;" 
d="M560 440l-339 -74l339 -74v-134l-517 146v124l517 146v-134zM560 121v-134h-517v134h517z" />
    <glyph glyph-name="greaterequal" unicode="&#x2265;" 
d="M569 428v-124l-517 -146v134l339 74l-339 74v134zM569 -13h-517v134h517v-134z" />
    <glyph glyph-name="lozenge" unicode="&#x25ca;" horiz-adv-x="672" 
d="M637 324l-212 -324h-178l-212 324l212 324h178zM441 324l-105 159l-106 -159l106 -158z" />
    <glyph glyph-name="i.loclTRK" horiz-adv-x="310" 
d="M154 609q-47 0 -77.5 30.5t-30.5 77.5t30.5 77.5t77.5 30.5t78 -30.5t31 -77.5t-31 -77.5t-78 -30.5zM250 548v-548h-190v548h190z" />
    <glyph glyph-name="a.ss01" horiz-adv-x="680" 
d="M620 -6q-93 0 -162 37q-73 -41 -162 -41q-118 0 -189.5 77.5t-71.5 205.5q0 127 74 206t187 79q92 0 164 -40q66 36 160 36v-560zM231 274q0 -63 29 -99.5t87 -36.5q37 0 83 22v231q-43 19 -80 19q-55 0 -87 -37t-32 -99z" />
    <glyph glyph-name="aacute.ss01" horiz-adv-x="680" 
d="M394 610l-125 35l134 165l169 -48zM620 -6q-93 0 -162 37q-73 -41 -162 -41q-118 0 -189.5 77.5t-71.5 205.5q0 127 74 206t187 79q92 0 164 -40q66 36 160 36v-560zM231 274q0 -63 29 -99.5t87 -36.5q37 0 83 22v231q-43 19 -80 19q-55 0 -87 -37t-32 -99z" />
    <glyph glyph-name="abreve.ss01" horiz-adv-x="680" 
d="M351 609q-90 0 -145 41.5t-55 111.5l141 40q0 -39 16.5 -62.5t42.5 -23.5t42 23.5t16 62.5l141 -40q0 -70 -54.5 -111.5t-144.5 -41.5zM620 -6q-93 0 -162 37q-73 -41 -162 -41q-118 0 -189.5 77.5t-71.5 205.5q0 127 74 206t187 79q92 0 164 -40q66 36 160 36v-560z
M231 274q0 -63 29 -99.5t87 -36.5q37 0 83 22v231q-43 19 -80 19q-55 0 -87 -37t-32 -99z" />
    <glyph glyph-name="acircumflex.ss01" horiz-adv-x="680" 
d="M271 610l-125 35l135 165h137l134 -165l-125 -35l-77 77zM620 -6q-93 0 -162 37q-73 -41 -162 -41q-118 0 -189.5 77.5t-71.5 205.5q0 127 74 206t187 79q92 0 164 -40q66 36 160 36v-560zM231 274q0 -63 29 -99.5t87 -36.5q37 0 83 22v231q-43 19 -80 19q-55 0 -87 -37
t-32 -99z" />
    <glyph glyph-name="adieresis.ss01" horiz-adv-x="680" 
d="M209 609q-47 0 -77.5 30.5t-30.5 77.5t30.5 77.5t77.5 30.5t78 -30.5t31 -77.5t-31 -77.5t-78 -30.5zM490 609q-47 0 -77.5 30.5t-30.5 77.5t30.5 77.5t77.5 30.5t78 -30.5t31 -77.5t-31 -77.5t-78 -30.5zM620 -6q-93 0 -162 37q-73 -41 -162 -41q-118 0 -189.5 77.5
t-71.5 205.5q0 127 74 206t187 79q92 0 164 -40q66 36 160 36v-560zM231 274q0 -63 29 -99.5t87 -36.5q37 0 83 22v231q-43 19 -80 19q-55 0 -87 -37t-32 -99z" />
    <glyph glyph-name="agrave.ss01" horiz-adv-x="680" 
d="M306 610l-178 152l169 48l134 -165zM620 -6q-93 0 -162 37q-73 -41 -162 -41q-118 0 -189.5 77.5t-71.5 205.5q0 127 74 206t187 79q92 0 164 -40q66 36 160 36v-560zM231 274q0 -63 29 -99.5t87 -36.5q37 0 83 22v231q-43 19 -80 19q-55 0 -87 -37t-32 -99z" />
    <glyph glyph-name="amacron.ss01" horiz-adv-x="680" 
d="M546 632h-393v135h393v-135zM620 -6q-93 0 -162 37q-73 -41 -162 -41q-118 0 -189.5 77.5t-71.5 205.5q0 127 74 206t187 79q92 0 164 -40q66 36 160 36v-560zM231 274q0 -63 29 -99.5t87 -36.5q37 0 83 22v231q-43 19 -80 19q-55 0 -87 -37t-32 -99z" />
    <glyph glyph-name="aogonek.ss01" horiz-adv-x="680" 
d="M460 518q66 36 160 36v-560q-105 -82 -105 -128q0 -23 29 -23q36 0 62 20v-73q-38 -20 -90 -20q-44 0 -71.5 22t-27.5 58q0 39 21 75.5t77 82.5q-34 10 -57 23q-73 -41 -162 -41q-118 0 -189.5 77.5t-71.5 205.5q0 127 74 206t187 79q92 0 164 -40zM231 274
q0 -63 29 -99.5t87 -36.5q37 0 83 22v231q-43 19 -80 19q-55 0 -87 -37t-32 -99z" />
    <glyph glyph-name="aring.ss01" horiz-adv-x="680" 
d="M350 580q-62 0 -99 31t-37 83t37 83t99 31q61 0 98 -31t37 -83t-37 -83t-98 -31zM350 729q-17 0 -28.5 -9.5t-11.5 -25.5q0 -15 11.5 -25t28.5 -10q18 0 28.5 10t10.5 25q0 16 -10.5 25.5t-28.5 9.5zM620 -6q-93 0 -162 37q-73 -41 -162 -41q-118 0 -189.5 77.5
t-71.5 205.5q0 127 74 206t187 79q92 0 164 -40q66 36 160 36v-560zM231 274q0 -63 29 -99.5t87 -36.5q37 0 83 22v231q-43 19 -80 19q-55 0 -87 -37t-32 -99z" />
    <glyph glyph-name="atilde.ss01" horiz-adv-x="680" 
d="M271 656q-30 0 -30 -48l-99 29q0 69 34 110t91 41q38 0 105 -26q43 -17 57 -17q29 0 29 47l100 -30q0 -72 -34 -111.5t-92 -39.5q-32 0 -102 27q-43 18 -59 18zM620 -6q-93 0 -162 37q-73 -41 -162 -41q-118 0 -189.5 77.5t-71.5 205.5q0 127 74 206t187 79q92 0 164 -40
q66 36 160 36v-560zM231 274q0 -63 29 -99.5t87 -36.5q37 0 83 22v231q-43 19 -80 19q-55 0 -87 -37t-32 -99z" />
    <glyph glyph-name="zero.lf" horiz-adv-x="735" 
d="M368 -10q-147 0 -236.5 104.5t-89.5 275.5t89.5 275.5t236.5 104.5q146 0 235.5 -104.5t89.5 -275.5t-89.5 -275.5t-235.5 -104.5zM368 152q55 0 88.5 60t33.5 158t-33.5 158t-88.5 60q-56 0 -90 -60t-34 -158t34 -158t90 -60z" />
    <glyph glyph-name="one.lf" horiz-adv-x="448" 
d="M22 664l304 86h43v-750h-196v538l-151 -36v162z" />
    <glyph glyph-name="two.lf" horiz-adv-x="622" 
d="M377 251q-68 -54 -107 -93l297 4v-162h-536q0 39 7.5 75t17.5 63.5t31 58.5t35.5 49.5t43.5 46.5t43 40l46 39q47 39 66.5 57.5t36 43.5t16.5 48q0 67 -108 67q-94 0 -207 -49v150q99 61 230 61q128 0 205.5 -57.5t77.5 -161.5q0 -82 -46.5 -141t-148.5 -139z" />
    <glyph glyph-name="three.lf" horiz-adv-x="613" 
d="M367 461q93 -11 148 -72.5t55 -154.5q0 -110 -89.5 -177t-235.5 -67q-114 0 -193 47v148q60 -33 146 -33q76 0 122.5 22.5t46.5 59.5t-41 59.5t-108 22.5q-77 0 -146 -24q0 13 5 30t17.5 39l22.5 39.5t30.5 46l31.5 43l35 46.5l32 42h-186v162h498q0 -9 -3.5 -20
t-11.5 -25.5t-16 -27.5t-22 -32.5l-24 -33l-28 -36l-28.5 -35l-30 -36z" />
    <glyph glyph-name="four.lf" horiz-adv-x="647" 
d="M624 129h-82v-129h-196v129h-335q0 37 22 103t42.5 112l63.5 139q89 190 106 257h203q-11 -64 -117 -284q-51 -105 -77 -166h95v108h193v-108h82v-161z" />
    <glyph glyph-name="five.lf" horiz-adv-x="607" 
d="M241 -10q-114 0 -193 47v148q66 -33 160 -33q70 0 112.5 23.5t42.5 63.5q0 39 -40.5 63t-106.5 24q-89 0 -160 -23l51 437h419v-162h-241l-19 -109q30 4 58 4q109 0 175.5 -64.5t66.5 -169.5q0 -112 -89.5 -180.5t-235.5 -68.5z" />
    <glyph glyph-name="six.lf" horiz-adv-x="675" 
d="M390 486q44 0 86 -14.5t79 -43t59.5 -77.5t22.5 -111q0 -105 -78 -177.5t-212 -72.5q-153 0 -227.5 85t-74.5 274q0 207 98 304t269 97q100 0 171 -30v-150q-53 18 -128 18q-86 0 -133.5 -31t-64.5 -102q65 31 133 31zM344 152q45 0 68 26t23 62q0 84 -99 84
q-46 0 -88 -19q2 -86 22.5 -119.5t73.5 -33.5z" />
    <glyph glyph-name="seven.lf" horiz-adv-x="562" 
d="M549 740q0 -44 -22 -123t-43 -134.5l-64 -167.5q-92 -229 -109 -315h-203q5 37 26.5 102t38.5 110l55 139q64 160 87 227h-294v162h528z" />
    <glyph glyph-name="eight.lf" horiz-adv-x="661" 
d="M520 404q100 -63 100 -179q0 -111 -77 -173t-212 -62q-134 0 -212.5 58t-78.5 149q0 94 86 166q-54 57 -54 145q0 112 68.5 177t190.5 65q117 0 187 -57.5t70 -145.5q0 -71 -68 -143zM330 593q-66 0 -66 -60q0 -58 85 -74l11 -2q36 39 36 81q0 23 -18 39t-48 16zM328 147
q43 0 68 14.5t25 40.5q0 54 -114 81l-29 7q-40 -40 -40 -76q0 -31 24 -49t66 -18z" />
    <glyph glyph-name="nine.lf" horiz-adv-x="675" 
d="M328 750q153 0 227.5 -85t74.5 -274q0 -207 -98 -304t-269 -97q-100 0 -171 30v150q53 -18 128 -18q86 0 133.5 31t64.5 102q-65 -31 -133 -31q-44 0 -86 14.5t-79 43t-59.5 77.5t-22.5 111q0 105 78 177.5t212 72.5zM240 500q0 -84 99 -84q46 0 88 19q-2 86 -22.5 119.5
t-73.5 33.5q-45 0 -68 -26t-23 -62z" />
    <glyph glyph-name="zero.osf" horiz-adv-x="770" 
d="M386 -10q-156 0 -251.5 92t-95.5 242q0 151 95.5 242.5t251.5 91.5q155 0 250 -91.5t95 -242.5q0 -150 -95 -242t-250 -92zM385 138q67 0 108.5 51.5t41.5 134.5q0 84 -41 135t-109 51t-109 -51t-41 -135q0 -83 41.5 -134.5t108.5 -51.5z" />
    <glyph glyph-name="one.osf" horiz-adv-x="428" 
d="M22 574l298 84h36v-658h-190v474l-144 -34v134z" />
    <glyph glyph-name="two.osf" horiz-adv-x="616" 
d="M571 134v-134h-536q0 53 12 98.5t29 76.5t45.5 60.5t52 47t57.5 39.5l60 39t42 31t32.5 33t8.5 28q0 57 -114 57q-95 0 -201 -45v138q105 55 236 55q122 0 196.5 -51t74.5 -143q0 -54 -30.5 -101t-71 -78t-112.5 -76q-80 -49 -107 -79z" />
    <glyph glyph-name="three.osf" horiz-adv-x="606" 
d="M354 371q97 -8 155.5 -71t58.5 -162q0 -112 -89.5 -180t-235.5 -68q-114 0 -193 47v134q63 -33 146 -33q79 0 127 27.5t48 72.5t-43 72.5t-112 27.5q-84 0 -154 -24q0 19 12 46t38.5 64t45.5 61l57 70l49 59h-206v134h498q0 -22 -31 -68.5t-63 -84l-85 -98.5z" />
    <glyph glyph-name="four.osf" horiz-adv-x="640" 
d="M624 0h-80v-110h-190v110h-343q0 39 22.5 107t44.5 117.5l66 144.5q96 209 112 279h183q-5 -32 -25.5 -89t-37.5 -96.5l-54 -122.5q-66 -146 -88 -206h123v172h187v-172h80v-134z" />
    <glyph glyph-name="five.osf" horiz-adv-x="594" 
d="M236 -110q-114 0 -193 47v134q69 -33 160 -33q72 0 116.5 29t44.5 76t-42 76t-111 29q-91 0 -160 -24l51 424h419v-134h-238l-21 -137q38 5 57 5q109 0 175.5 -66t66.5 -173q0 -114 -89.5 -183.5t-235.5 -69.5z" />
    <glyph glyph-name="six.osf" horiz-adv-x="664" 
d="M387 486q44 0 86 -14.5t79 -43t59.5 -77.5t22.5 -111q0 -105 -78 -177.5t-212 -72.5q-153 0 -227.5 85t-74.5 274q0 207 98 304t269 97q100 0 171 -30v-137q-56 19 -128 19q-92 0 -140.5 -35.5t-64.5 -115.5q67 35 140 35zM341 138q48 0 72.5 30t24.5 72q0 97 -105 97
q-47 0 -95 -21q2 -100 24 -139t79 -39z" />
    <glyph glyph-name="seven.osf" horiz-adv-x="565" 
d="M548 648q0 -45 -23 -126t-43.5 -135.5l-65.5 -171.5q-96 -239 -113 -328l-184 49q10 78 118 340q70 170 92 238h-309v134h528z" />
    <glyph glyph-name="eight.osf" horiz-adv-x="655" 
d="M522 400q95 -61 95 -175q0 -111 -77 -173t-212 -62q-134 0 -212.5 58t-78.5 149q0 97 91 170q-59 56 -59 141q0 112 68.5 177t190.5 65q117 0 187 -57.5t70 -145.5q0 -71 -63 -147zM327 602q-35 0 -55 -17t-20 -46q0 -63 94 -80l17 -3q39 47 39 83q0 28 -20 45.5
t-55 17.5zM325 138q48 0 75.5 18t27.5 48q0 63 -124 92l-21 5q-57 -45 -57 -91q0 -32 27 -52t72 -20z" />
    <glyph glyph-name="nine.osf" horiz-adv-x="663" 
d="M319 658q153 0 227.5 -86t74.5 -277q0 -209 -97.5 -307t-269.5 -98q-100 0 -171 30v137q56 -19 129 -19q90 0 139.5 36.5t65.5 119.5q-67 -35 -141 -35q-44 0 -86 14.5t-79 42.5t-59.5 77t-22.5 111q0 107 78 180.5t212 73.5zM225 404q0 -97 105 -97q47 0 95 21
q-2 102 -23.5 142t-79.5 40q-47 0 -72 -31t-25 -75z" />
    <glyph glyph-name="zero.tf" 
d="M306 -10q-130 0 -203 100.5t-73 279.5t73 279.5t203 100.5t202.5 -100.5t72.5 -279.5t-72.5 -279.5t-202.5 -100.5zM305 152q34 0 53.5 57.5t19.5 160.5t-19.5 160.5t-53.5 57.5t-53.5 -57.5t-19.5 -160.5t19.5 -160.5t53.5 -57.5z" />
    <glyph glyph-name="one.tf" 
d="M579 162v-162h-517v162h183v376l-171 -42v162l325 92h42v-588h138z" />
    <glyph glyph-name="two.tf" 
d="M372 251q-68 -54 -107 -93l297 4v-162h-536q0 53 14.5 102t33 83t53.5 72.5t58 59l65 55.5q66 55 92.5 85t26.5 64q0 67 -108 67q-94 0 -207 -49v150q99 61 230 61q128 0 205.5 -57.5t77.5 -161.5q0 -43 -13 -80t-44 -73t-58.5 -60.5t-79.5 -66.5z" />
    <glyph glyph-name="three.tf" 
d="M362 461q95 -9 151.5 -71t56.5 -156q0 -110 -89.5 -177t-235.5 -67q-114 0 -193 47v148q60 -33 146 -33q76 0 122.5 22.5t46.5 59.5t-41 59.5t-108 22.5q-88 0 -154 -24q0 13 5.5 30t17.5 39t23 39.5t32 45.5l32 43t36 46.5t33 42.5h-183v162h498q0 -23 -30 -69.5
t-62.5 -87l-84.5 -100.5z" />
    <glyph glyph-name="four.tf" 
d="M591 129h-62v-129h-196v129h-325q0 37 21 102t41.5 114.5l60.5 139.5q85 188 101 255h203q-9 -61 -111 -284q-43 -91 -74 -166h86v107h193v-107h62v-161z" />
    <glyph glyph-name="five.tf" 
d="M244 -10q-114 0 -193 47v148q66 -33 160 -33q70 0 112.5 23.5t42.5 63.5q0 39 -40.5 63t-106.5 24q-89 0 -160 -23l51 437h419v-162h-241l-19 -109q30 4 58 4q109 0 175.5 -64.5t66.5 -169.5q0 -112 -89.5 -180.5t-235.5 -68.5z" />
    <glyph glyph-name="six.tf" 
d="M358 486q40 0 79 -14.5t72.5 -43t54.5 -77.5t21 -111q0 -105 -72.5 -177.5t-197.5 -72.5q-143 0 -212.5 85t-69.5 274q0 207 92.5 304t254.5 97q88 0 151 -30v-150q-45 18 -108 18q-77 0 -119.5 -30.5t-58.5 -98.5q54 27 113 27zM312 152q36 0 53.5 26t17.5 62
q0 84 -79 84q-32 0 -69 -14q2 -89 18 -123.5t59 -34.5z" />
    <glyph glyph-name="seven.tf" 
d="M574 740q0 -44 -22 -123t-43 -134.5l-64 -167.5q-92 -229 -109 -315h-203q5 37 26.5 102t38.5 110l55 139q64 160 87 227h-294v162h528z" />
    <glyph glyph-name="eight.tf" 
d="M496 404q100 -63 100 -179q0 -111 -77 -173t-212 -62q-134 0 -212.5 58t-78.5 149q0 94 86 166q-54 57 -54 145q0 112 68.5 177t190.5 65q117 0 187 -57.5t70 -145.5q0 -71 -68 -143zM306 593q-66 0 -66 -60q0 -58 85 -74l11 -2q36 39 36 81q0 23 -18 39t-48 16zM304 147
q43 0 68 14.5t25 40.5q0 54 -114 81l-29 7q-40 -40 -40 -76q0 -31 24 -49t66 -18z" />
    <glyph glyph-name="nine.tf" 
d="M297 750q143 0 212.5 -85t69.5 -274q0 -207 -92.5 -304t-254.5 -97q-88 0 -151 30v150q45 -18 108 -18q77 0 119.5 30.5t58.5 98.5q-54 -27 -113 -27q-40 0 -79 14.5t-72.5 43t-54.5 77.5t-21 111q0 105 72.5 177.5t197.5 72.5zM229 500q0 -84 79 -84q32 0 69 14
q-2 89 -18 123.5t-59 34.5q-36 0 -53.5 -26t-17.5 -62z" />
    <glyph glyph-name="zero.tosf" 
d="M307 -10q-124 0 -200.5 92t-76.5 242q0 151 76 242.5t201 91.5q124 0 199.5 -91.5t75.5 -242.5q0 -150 -75.5 -242t-199.5 -92zM306 138q36 0 58 51.5t22 134.5q0 84 -22 135t-58 51t-58 -51t-22 -135q0 -83 22 -134.5t58 -51.5z" />
    <glyph glyph-name="one.tosf" 
d="M576 134v-134h-517v134h191v340l-172 -43v134l325 93h37v-524h136z" />
    <glyph glyph-name="two.tosf" 
d="M574 134v-134h-546q0 53 12 98.5t29 76.5t45.5 60.5t52 47t57.5 39.5l29.5 19l27.5 17t23.5 15t21.5 15l17.5 13.5t14.5 13.5l10 12.5t7 13t2 13.5q0 56 -124 56q-95 0 -201 -45v138q105 55 236 55q127 0 204 -51t77 -143q0 -33 -12.5 -63t-29 -52t-50.5 -49.5t-59 -44
l-73 -46.5q-83 -52 -107 -79z" />
    <glyph glyph-name="three.tosf" 
d="M357 371q97 -8 155.5 -71t58.5 -162q0 -112 -89.5 -180t-235.5 -68q-114 0 -193 47v134q63 -33 146 -33q79 0 127 27.5t48 72.5t-43 72.5t-112 27.5q-84 0 -154 -24q0 19 12 46t38.5 64t45.5 61l57 70l49 59h-206v134h498q0 -22 -31 -68.5t-63 -84l-85 -98.5z" />
    <glyph glyph-name="four.tosf" 
d="M597 0h-67v-110h-190v110h-332q0 39 22.5 107t44.5 117.5l66 144.5q96 209 112 279h183q-5 -32 -25.5 -89t-37.5 -96.5l-54 -122.5q-66 -146 -88 -206h112v172h187v-172h67v-134z" />
    <glyph glyph-name="five.tosf" 
d="M245 -110q-114 0 -193 47v134q69 -33 160 -33q72 0 116.5 29t44.5 76t-42 76t-111 29q-91 0 -160 -24l51 424h419v-134h-238l-21 -137q37 5 57 5q109 0 175.5 -66t66.5 -173q0 -114 -89.5 -183.5t-235.5 -69.5z" />
    <glyph glyph-name="six.tosf" 
d="M359 486q40 0 79 -14.5t72.5 -43t54.5 -77.5t21 -111q0 -105 -72.5 -177.5t-197.5 -72.5q-143 0 -212.5 85t-69.5 274q0 207 92.5 304t254.5 97q88 0 151 -30v-137q-48 19 -108 19q-81 0 -125.5 -34.5t-59.5 -111.5q60 30 120 30zM313 138q38 0 57.5 30t19.5 72
q0 97 -85 97q-36 0 -75 -17q2 -103 19 -142.5t64 -39.5z" />
    <glyph glyph-name="seven.tosf" 
d="M572 648q0 -45 -23 -126t-43.5 -135.5l-65.5 -171.5q-96 -239 -113 -328l-184 49q10 78 118 340q70 170 92 238h-309v134h528z" />
    <glyph glyph-name="eight.tosf" 
d="M500 400q95 -61 95 -175q0 -111 -77 -173t-212 -62q-134 0 -212.5 58t-78.5 149q0 97 91 170q-59 56 -59 141q0 112 68.5 177t190.5 65q117 0 187 -57.5t70 -145.5q0 -71 -63 -147zM305 602q-35 0 -55 -17t-20 -46q0 -63 94 -80l17 -3q39 47 39 83q0 28 -20 45.5
t-55 17.5zM303 138q48 0 75.5 18t27.5 48q0 63 -124 92l-21 5q-57 -45 -57 -91q0 -32 27 -52t72 -20z" />
    <glyph glyph-name="nine.tosf" 
d="M295 658q143 0 212.5 -86t69.5 -277q0 -209 -92.5 -307t-254.5 -98q-88 0 -151 30v137q47 -19 109 -19q82 0 126 35.5t59 115.5q-60 -30 -121 -30q-40 0 -79 14.5t-72.5 42.5t-54.5 77t-21 111q0 107 73 180.5t197 73.5zM221 404q0 -97 85 -97q35 0 75 16
q-2 106 -18.5 146.5t-64.5 40.5q-38 0 -57.5 -31t-19.5 -75z" />
    <glyph glyph-name="zero.dnom" horiz-adv-x="448" 
d="M225 -6q-88 0 -142 62.5t-54 165.5t54 165.5t142 62.5q87 0 140.5 -63t53.5 -165t-53.5 -165t-140.5 -63zM225 91q33 0 53 36t20 95t-20 95.5t-53 36.5t-53.5 -36.5t-20.5 -95.5q0 -58 20.5 -94.5t53.5 -36.5z" />
    <glyph glyph-name="one.dnom" horiz-adv-x="275" 
d="M17 398l182 52h27v-450h-118v323l-91 -23v98z" />
    <glyph glyph-name="two.dnom" horiz-adv-x="381" 
d="M231 150q-48 -39 -62 -54l176 1v-97h-322q0 39 11 72.5t34.5 63t40.5 45.5t49 43q38 31 54 50t16 39q0 41 -63 41q-56 0 -125 -30v90q57 36 138 36q77 0 123 -34.5t46 -97.5q0 -49 -28 -84.5t-88 -83.5z" />
    <glyph glyph-name="three.dnom" horiz-adv-x="374" 
d="M224 278q55 -7 87.5 -44t32.5 -93q0 -66 -53 -106.5t-141 -40.5q-69 0 -116 28v89q38 -20 88 -20q46 0 73.5 13.5t27.5 36.5q0 22 -25 35.5t-65 13.5t-87 -15q0 6 2 14t6.5 17.5l8.5 17.5t12.5 20.5l13.5 20t15.5 22t15.5 20.5t16.5 21t14.5 20h-112v96h299
q0 -31 -114 -166z" />
    <glyph glyph-name="four.dnom" horiz-adv-x="396" 
d="M379 77h-49v-77h-118v77h-201q0 49 75 209q54 117 64 158h124q-7 -40 -69 -169q-34 -70 -47 -101h57v64h115v-64h49v-97z" />
    <glyph glyph-name="five.dnom" horiz-adv-x="370" 
d="M148 -6q-69 0 -116 28v89q43 -20 96 -20q42 0 67.5 14t25.5 39q0 23 -24 37.5t-64 14.5q-51 0 -95 -14l29 262h252v-96h-145l-11 -67q18 4 34 4q66 0 105.5 -39t39.5 -102q0 -68 -53 -109t-141 -41z" />
    <glyph glyph-name="six.dnom" horiz-adv-x="413" 
d="M238 291q58 0 103 -37.5t45 -109.5q0 -63 -46.5 -106.5t-127.5 -43.5q-92 0 -136.5 51t-44.5 164q0 125 59 183t162 58q62 0 102 -18v-91q-31 13 -77 13q-98 0 -118 -81q41 18 79 18zM211 91q26 0 40 16t14 37q0 50 -59 50q-25 0 -53 -11q2 -52 14 -72t44 -20z" />
    <glyph glyph-name="seven.dnom" horiz-adv-x="347" 
d="M334 444q0 -56 -76 -251q-57 -143 -66 -193h-123q7 50 71 207q49 129 53 141h-176v96h317z" />
    <glyph glyph-name="eight.dnom" horiz-adv-x="405" 
d="M316 243q61 -39 61 -109q0 -66 -46.5 -103t-127.5 -37t-128 34.5t-47 89.5q0 54 51 100q-32 35 -32 86q0 67 41 106.5t115 39.5q70 0 112 -34.5t42 -86.5q0 -42 -41 -86zM202 355q-39 0 -39 -35t51 -45l5 -1q22 23 22 49q0 32 -39 32zM201 90q55 0 55 32t-68 47l-18 4
q-23 -23 -23 -45q0 -17 14.5 -27.5t39.5 -10.5z" />
    <glyph glyph-name="nine.dnom" horiz-adv-x="413" 
d="M201 450q92 0 136.5 -51t44.5 -164q0 -125 -59 -183t-162 -58q-62 0 -102 18v91q31 -13 77 -13q98 0 118 81q-41 -18 -79 -18q-58 0 -103 37.5t-45 109.5q0 63 46.5 106.5t127.5 43.5zM148 300q0 -50 59 -50q25 0 53 11q-2 52 -14 72t-44 20q-26 0 -40 -16t-14 -37z" />
    <glyph glyph-name="zero.numr" horiz-adv-x="448" 
d="M225 290q-88 0 -142 62.5t-54 165.5t54 165.5t142 62.5q87 0 140.5 -63t53.5 -165t-53.5 -165t-140.5 -63zM225 387q33 0 53 36t20 95t-20 95.5t-53 36.5t-53.5 -36.5t-20.5 -95.5q0 -58 20.5 -94.5t53.5 -36.5z" />
    <glyph glyph-name="one.numr" horiz-adv-x="275" 
d="M17 694l182 52h27v-450h-118v323l-91 -23v98z" />
    <glyph glyph-name="two.numr" horiz-adv-x="381" 
d="M231 446q-48 -39 -62 -54l176 1v-97h-322q0 39 11 72.5t34.5 63t40.5 45.5t49 43q38 31 54 50t16 39q0 41 -63 41q-56 0 -125 -30v90q57 36 138 36q77 0 123 -34.5t46 -97.5q0 -49 -28 -84.5t-88 -83.5z" />
    <glyph glyph-name="three.numr" horiz-adv-x="374" 
d="M224 574q55 -7 87.5 -44t32.5 -93q0 -66 -53 -106.5t-141 -40.5q-69 0 -116 28v89q38 -20 88 -20q46 0 73.5 13.5t27.5 36.5q0 22 -25 35.5t-65 13.5t-87 -15q0 6 2 14t6.5 17.5l8.5 17.5t12.5 20.5l13.5 20t15.5 22t15.5 20.5t16.5 21t14.5 20h-112v96h299
q0 -31 -114 -166z" />
    <glyph glyph-name="four.numr" horiz-adv-x="396" 
d="M379 373h-49v-77h-118v77h-201q0 49 75 209q54 117 64 158h124q-7 -40 -69 -169q-34 -70 -47 -101h57v64h115v-64h49v-97z" />
    <glyph glyph-name="five.numr" horiz-adv-x="370" 
d="M148 290q-69 0 -116 28v89q43 -20 96 -20q42 0 67.5 14t25.5 39q0 23 -24 37.5t-64 14.5q-51 0 -95 -14l29 262h252v-96h-145l-11 -67q18 4 34 4q66 0 105.5 -39t39.5 -102q0 -68 -53 -109t-141 -41z" />
    <glyph glyph-name="six.numr" horiz-adv-x="413" 
d="M238 587q58 0 103 -37.5t45 -109.5q0 -63 -46.5 -106.5t-127.5 -43.5q-92 0 -136.5 51t-44.5 164q0 125 59 183t162 58q62 0 102 -18v-91q-31 13 -77 13q-98 0 -118 -81q41 18 79 18zM211 387q26 0 40 16t14 37q0 50 -59 50q-25 0 -53 -11q2 -52 14 -72t44 -20z" />
    <glyph glyph-name="seven.numr" horiz-adv-x="347" 
d="M334 740q0 -56 -76 -251q-57 -143 -66 -193h-123q7 50 71 207q49 129 53 141h-176v96h317z" />
    <glyph glyph-name="eight.numr" horiz-adv-x="405" 
d="M316 539q61 -39 61 -109q0 -66 -46.5 -103t-127.5 -37t-128 34.5t-47 89.5q0 54 51 100q-32 35 -32 86q0 67 41 106.5t115 39.5q70 0 112 -34.5t42 -86.5q0 -42 -41 -86zM202 651q-39 0 -39 -35t51 -45l5 -1q22 23 22 49q0 32 -39 32zM201 386q55 0 55 32t-68 47l-18 4
q-23 -23 -23 -45q0 -17 14.5 -27.5t39.5 -10.5z" />
    <glyph glyph-name="nine.numr" horiz-adv-x="413" 
d="M201 746q92 0 136.5 -51t44.5 -164q0 -125 -59 -183t-162 -58q-62 0 -102 18v91q31 -13 77 -13q98 0 118 81q-41 -18 -79 -18q-58 0 -103 37.5t-45 109.5q0 63 46.5 106.5t127.5 43.5zM148 596q0 -50 59 -50q25 0 53 11q-2 52 -14 72t-44 20q-26 0 -40 -16t-14 -37z" />
    <glyph glyph-name="backslash.case" horiz-adv-x="459" 
d="M224 740l201 -740h-191l-201 740h191z" />
    <glyph glyph-name="exclamdown.case" horiz-adv-x="347" 
d="M282 642q0 -47 -31 -78t-78 -31t-77.5 31t-30.5 78t30.5 77.5t77.5 30.5t78 -30.5t31 -77.5zM75 0l3 479h190l4 -479h-197z" />
    <glyph glyph-name="numbersign.case" horiz-adv-x="815" 
d="M656 434l-37 -130h95l-39 -133h-94l-49 -171h-177l49 171h-104l-49 -171h-177l49 171h-90l39 133h89l37 130h-98l39 134h97l49 172h177l-49 -172h104l49 172h177l-49 -172h87l-39 -134h-86zM479 434h-104l-37 -130h104z" />
    <glyph glyph-name="questiondown.case" horiz-adv-x="528" 
d="M298 750q47 0 77.5 -30.5t30.5 -77.5t-30.5 -78t-77.5 -31t-78 31t-31 78t31 77.5t78 30.5zM393 479l2 -212q-22 6 -54 6q-49 0 -76.5 -18t-27.5 -49q0 -59 96 -59q71 0 157 35v-147q-87 -45 -200 -45q-119 0 -187 52t-68 161q0 71 46.5 119.5t118.5 59.5l2 97h191z" />
    <glyph glyph-name="slash.case" horiz-adv-x="459" 
d="M225 0h-191l201 740h191z" />
    <glyph glyph-name="braceleft.case" horiz-adv-x="464" 
d="M304 478q0 -40 -24 -69t-66 -39q42 -10 66 -39t24 -69v-94q0 -32 19 -51t49 -19q22 0 46 4v-139q-59 -13 -124 -13q-85 0 -132.5 46t-47.5 128v122q0 23 -19.5 36.5t-54.5 13.5h-4v148h4q35 0 54.5 13.5t19.5 36.5v123q0 81 47.5 127t132.5 46q66 0 124 -13v-139
q-16 4 -46 4t-49 -19t-19 -51v-94z" />
    <glyph glyph-name="braceright.case" horiz-adv-x="464" 
d="M160 572q0 32 -19 51t-49 19t-46 -4v139q59 13 124 13q85 0 132.5 -46t47.5 -127v-123q0 -23 19.5 -36.5t54.5 -13.5h4v-148h-4q-35 0 -54.5 -13.5t-19.5 -36.5v-122q0 -82 -47.5 -128t-132.5 -46q-66 0 -124 13v139q24 -4 46 -4q30 0 49 19t19 51v94q0 40 24 69t66 39
q-42 10 -66 39t-24 69v94z" />
    <glyph glyph-name="bracketleft.case" horiz-adv-x="435" 
d="M79 780h308v-148h-118v-524h118v-148h-308v820z" />
    <glyph glyph-name="bracketright.case" horiz-adv-x="435" 
d="M48 -40v148h118v524h-118v148h308v-820h-308z" />
    <glyph glyph-name="parenleft.case" horiz-adv-x="395" 
d="M367 780q-47 -66 -88.5 -179.5t-41.5 -230.5t41.5 -230.5t88.5 -179.5h-177q-148 195 -148 410t148 410h177z" />
    <glyph glyph-name="parenright.case" horiz-adv-x="395" 
d="M205 780q148 -195 148 -410t-148 -410h-177q47 66 88.5 179.5t41.5 230.5t-41.5 230.5t-88.5 179.5h177z" />
    <glyph glyph-name="emdash.case" horiz-adv-x="1050" 
d="M989 439v-134h-927v134h927z" />
    <glyph glyph-name="endash.case" horiz-adv-x="668" 
d="M606 439v-134h-544v134h544z" />
    <glyph glyph-name="hyphen.case" horiz-adv-x="530" 
d="M468 439v-134h-406v134h406z" />
    <glyph glyph-name="uni00AD.case" horiz-adv-x="530" 
d="M468 439v-134h-406v134h406z" />
    <glyph glyph-name="guillemotleft.case" horiz-adv-x="724" 
d="M240 350l140 -186l-165 -48l-183 234l183 234l165 -49zM540 350l140 -186l-165 -48l-183 234l183 234l165 -49z" />
    <glyph glyph-name="guillemotright.case" horiz-adv-x="724" 
d="M392 350l-183 -234l-165 48l140 186l-140 185l165 49zM692 350l-183 -234l-165 48l140 186l-140 185l165 49z" />
    <glyph glyph-name="guilsinglleft.case" horiz-adv-x="424" 
d="M240 350l140 -186l-165 -48l-183 234l183 234l165 -49z" />
    <glyph glyph-name="guilsinglright.case" horiz-adv-x="424" 
d="M392 350l-183 -234l-165 48l140 186l-140 185l165 49z" />
    <glyph glyph-name="dollar.osf" horiz-adv-x="596" 
d="M563 224q0 -80 -61 -128.5t-171 -54.5v-51h-63v51q-128 6 -208 41v118q94 -31 206 -31h2v75l-30 7q-55 13 -83 22t-59.5 27t-44.5 45t-13 68q0 84 60.5 135t169.5 59v51h63v-50q116 -5 194 -33v-119q-90 24 -179 24h-15v-78l30 -6q98 -19 150 -59.5t52 -112.5zM212 443
q0 -26 56 -35v68q-56 -8 -56 -33zM331 172q59 7 59 32q0 22 -59 33v-65z" />
    <glyph glyph-name="Euro.osf" horiz-adv-x="708" 
d="M525 138q30 0 72.5 7t63.5 18v-136q-86 -37 -201 -37q-126 0 -215 57.5t-123 158.5h-88v106h70v30h-70v106h89q35 98 122 154t209 56q114 0 197 -38v-136q-23 12 -63 19.5t-70 7.5q-112 0 -172 -63h133v-106h-181v-30h181v-106h-137q63 -68 183 -68z" />
    <glyph glyph-name="uni20BD.osf" horiz-adv-x="684" 
d="M306 219v-30h160v-106h-160v-83h-197v83h-58v106h58v30h-58v106h58v323h334q100 0 155.5 -56.5t55.5 -157.5t-78.5 -158t-218.5 -57h-51zM306 368h74q37 0 57.5 17.5t20.5 48.5t-15.5 48.5t-43.5 17.5h-93v-132z" />
    <glyph glyph-name="uni20B9.osf" horiz-adv-x="623" 
d="M582 543h-181q53 -37 70 -88h111v-106h-108q-25 -131 -151 -160q136 -107 170 -147l-184 -55q-23 27 -95 91q-40 35 -62.5 56.5t-52 54t-43.5 61t-14 54.5q39 -16 98 -16q107 0 134 61h-222v106h219q-19 37 -69.5 48t-149.5 11v134h530v-105z" />
    <glyph glyph-name="sterling.osf" horiz-adv-x="585" 
d="M539 134v-134h-440v249h-61v134h61v56q0 99 71.5 159t188.5 60q107 0 167 -31v-134q-57 17 -129 17q-46 0 -73.5 -29.5t-27.5 -77.5v-20h197v-134h-197v-115h243z" />
    <glyph glyph-name="yen.osf" horiz-adv-x="731" 
d="M705 648q-85 -171 -181 -330h59v-105h-123v-44h123v-106h-123v-63h-190v63h-122v106h122v44h-122v105h58q-88 147 -180 330h206q54 -120 133 -270q79 150 133 270h207z" />
    <glyph glyph-name="approxequal.case" 
d="M155 392q0 22 13 35t37 13q20 0 76 -18q92 -27 134 -27q67 0 106 39.5t39 111.5l-99 29q0 -46 -50 -46q-19 0 -76 17q-87 26 -134 26q-66 0 -105.5 -41.5t-39.5 -109.5zM155 170q0 22 13 35t37 13q20 0 76 -18q92 -27 134 -27q67 0 106 39.5t39 111.5l-99 29
q0 -46 -50 -46q-19 0 -76 17q-87 26 -134 26q-66 0 -105.5 -41.5t-39.5 -109.5z" />
    <glyph glyph-name="asciitilde.case" 
d="M155 284q0 22 13 35t37 13q20 0 76 -18q92 -27 134 -27q67 0 106 39.5t39 111.5l-99 29q0 -46 -50 -46q-19 0 -76 17q-87 26 -134 26q-66 0 -105.5 -41.5t-39.5 -109.5z" />
    <glyph glyph-name="divide.case" 
d="M305 484q-47 0 -77.5 31t-30.5 78t30.5 77.5t77.5 30.5t78 -30.5t31 -77.5t-31 -78t-78 -31zM564 439v-134h-517v134h517zM305 43q-47 0 -77.5 30.5t-30.5 77.5t30.5 78t77.5 31t78 -31t31 -78t-31 -77.5t-78 -30.5z" />
    <glyph glyph-name="equal.case" 
d="M564 550v-134h-517v134h517zM564 328v-134h-517v134h517z" />
    <glyph glyph-name="greater.case" 
d="M581 434v-124l-514 -199v149l351 112l-351 112v149z" />
    <glyph glyph-name="greaterequal.case" 
d="M570 508v-124l-517 -146v134l339 74l-339 74v134zM570 67h-517v134h517v-134z" />
    <glyph glyph-name="less.case" 
d="M545 484l-351 -112l351 -112v-149l-514 199v124l514 199v-149z" />
    <glyph glyph-name="lessequal.case" 
d="M559 520l-339 -74l339 -74v-134l-517 146v124l517 146v-134zM559 201v-134h-517v134h517z" />
    <glyph glyph-name="logicalnot.case" 
d="M553 213h-162v178h-355v134h517v-312z" />
    <glyph glyph-name="minus.case" 
d="M564 439v-134h-517v134h517z" />
    <glyph glyph-name="multiply.case" 
d="M455 139l-146 140l-141 -147l-98 95l140 146l-147 141l95 98l146 -140l141 147l98 -95l-140 -146l147 -141z" />
    <glyph glyph-name="notequal.case" 
d="M378 416l-43 -88h229v-134h-294l-43 -90l-93 25l32 65h-119v134h184l42 88h-226v134h291l41 84l92 -25l-29 -59h122v-134h-186z" />
    <glyph glyph-name="plus.case" 
d="M564 305h-176v-181h-162v181h-178v134h178v181h162v-181h176v-134z" />
    <glyph glyph-name="plusminus.case" 
d="M226 377h-178v135h178v124h162v-124h176v-135h-176v-124h-162v124zM565 201v-134h-517v134h517z" />
    <glyph glyph-name="percent.osf" horiz-adv-x="978" 
d="M235 308q-92 0 -149 48t-57 127t56.5 127t149.5 48q92 0 148 -48t56 -127t-56 -127t-148 -48zM825 617l-541 -623l-134 37l542 623zM234 424q26 0 42.5 16t16.5 43t-16.5 43.5t-42.5 16.5t-42.5 -16.5t-16.5 -43.5t16.5 -43t42.5 -16zM745 -10q-92 0 -149 48t-57 127
t56.5 127t149.5 48q92 0 148 -48t56 -127t-56 -127t-148 -48zM745 106q26 0 42.5 16t16.5 43t-16.5 43.5t-42.5 16.5q-27 0 -43 -16.5t-16 -43.5t16.5 -43t42.5 -16z" />
    <glyph glyph-name="perthousand.osf" horiz-adv-x="1431" 
d="M235 308q-92 0 -149 48t-57 127t56.5 127t149.5 48q92 0 148 -48t56 -127t-56 -127t-148 -48zM825 617l-541 -623l-134 37l542 623zM234 424q26 0 42.5 16t16.5 43t-16.5 43.5t-42.5 16.5t-42.5 -16.5t-16.5 -43.5t16.5 -43t42.5 -16zM745 -10q-92 0 -149 48t-57 127
t56.5 127t149.5 48q92 0 148 -48t56 -127t-56 -127t-148 -48zM1199 -10q-92 0 -149 48t-57 127t56.5 127t149.5 48q92 0 148 -48t56 -127t-56 -127t-148 -48zM745 106q26 0 42.5 16t16.5 43t-16.5 43.5t-42.5 16.5q-27 0 -43 -16.5t-16 -43.5t16.5 -43t42.5 -16zM1198 106
q26 0 42.5 16t16.5 43t-16.5 43.5t-42.5 16.5t-42.5 -16.5t-16.5 -43.5t16.5 -43t42.5 -16z" />
    </font>
</defs>
</svg>
