<?xml version="1.0" encoding="utf-8"?>
<!-- Generator: Adobe Illustrator 23.0.1, SVG Export Plug-In . SVG Version: 6.00 Build 0)  -->
<svg version="1.1" id="Vrstva_1" xmlns="http://www.w3.org/2000/svg" xmlns:xlink="http://www.w3.org/1999/xlink" x="0px" y="0px"
	 viewBox="0 0 523.3 118.4" style="enable-background:new 0 0 523.3 118.4;" xml:space="preserve">
<style type="text/css">
	.st0{fill:#FCFCFC;fill-opacity:0;}
	.st1{fill:#FFFFFF;}
</style>
<title>CzechUS_hrnek-loga_ENG_transparent</title>
<path class="st0" d="M-36.1,137.6V-24.6h595.4v162.2H-36.1z M421.3,69.9c0.2,0,0.4-0.1,0.5-0.2c0.3-0.2,0.6-0.3,0.8-0.5
	c2.2-1.5,4.8-2.5,7.4-2.9c5-0.8,10.2-0.7,15.1,0.4c6.8,1.4,13.4,3.9,19.4,7.3c4.1,2.2,7.8,4.9,11,8.2c1.4,1.4,2.5,3.1,3.4,4.9
	c0.8,1.6,0.9,3.4,0.5,5.1c-0.4,1.7-1.9,2.9-3.6,3c-1.2,0.2-2.3,0.1-3.5-0.1c-3.3-0.7-6.4-2-9.3-3.8c-3.4-1.9-6.5-4.4-9.1-7.4
	c-0.2-0.3-0.5-0.5-0.5-0.9c0.1,0,0.2-0.1,0.2,0l1.2,0.7c2.9,1.9,6,3.3,9.4,4.1c1.1,0.3,2.2,0.3,3.3,0.1c1-0.2,1.8-1,2-2
	c0.2-0.9,0.1-1.8-0.3-2.7c-1.2-2.2-2.9-4.1-5-5.6c-3.2-2.5-6.7-4.5-10.4-6.1c-4.7-2.1-9.8-3-15-2.6c-1.3,0.1-2.6,0.3-3.9,0.8
	c-2.6,1-4.7,2.6-5.5,5.4c-0.4,1.8-0.4,3.7,0.1,5.5c0.8,3,2.2,5.9,4.1,8.5c3.3,4.8,7.3,9.1,11.9,12.8c6.8,5.9,14.7,10.5,23.1,13.6
	c5.4,1.9,10.9,3.1,16.7,2.5c2.8-0.2,5.4-1.3,7.5-3c3-2.5,4.5-6.3,4-10.1c-0.5-4-2.1-7.8-4.5-11c-0.3-0.5-0.5-1.1-1.2-1.3
	c-0.1,0,0-0.2-0.1-0.2l0.1,0.2c0.1,0.4,0.3,0.8,0.5,1.2c1,2,1.7,4.1,2.1,6.4c0.2,1.5-0.1,3.1-1,4.3c-1.1,1.4-2.7,2.4-4.5,2.7
	c-2.8,0.7-5.7,0.7-8.6,0.2c-4.6-0.8-9-2.2-13.2-4.3c-6.2-2.9-12.1-6.6-17.3-11.1c-2.9-2.4-5.5-5.3-7.6-8.4c-1.4-2-2.3-4.2-2.5-6.6
	c-0.2-1.8,0.7-3.6,2.4-4.5c1.7-0.7,3.6-0.9,5.4-0.5c3.8,0.7,7.5,2,10.8,3.9c2.1,1.1,4,2.6,5.5,4.4c0.6,0.6,0.9,1.3,1,2.1
	c0.1,1-0.3,1.5-1.3,1.5c-0.9,0-1.8-0.2-2.6-0.7c-1.5-0.7-2.8-1.6-4.2-2.4c-1.7-1-3.6-1.8-5.5-2.2c-2.6-0.5-3.7,0.9-2.8,3.3
	c0.7,1.9,1.8,3.6,3.1,5.1c1.7,1.9,3.6,3.7,5.6,5.2c5.6,4.3,11.9,7.5,18.6,9.4c2.8,0.8,5.7,1.1,8.7,0.9c0.8-0.1,1.6-0.2,2.3-0.5
	c1.8-0.5,3.1-2,3.5-3.8c0.2-1.1,0.2-2.2-0.1-3.2c-1-3.8-3-7.2-5.8-10c-4.5-4.7-9.8-8.6-15.6-11.6c-7.3-3.9-15.1-6.6-23.2-8
	c-4.4-0.8-8.9-0.9-13.3-0.3c-3.3,0.5-6.4,1.6-9.1,3.5c-0.3,0.2-0.6,0.4-0.7,0.8C421.6,69.7,421.5,69.8,421.3,69.9l-0.2,0.3
	c-0.6,0.3-1.1,0.8-1.4,1.4l-0.2,0.5l0,0l0,0l0.2-0.5c0.6-0.3,1.1-0.8,1.4-1.4L421.3,69.9z M33.8,28.6c0.3-0.3,0.6-0.6,1-0.7
	c1.1-0.7,2-1.6,2.8-2.6c2.7-3.6,3.1-8.5,1.1-12.5c-1.6-4-5.5-6.4-9.8-6.2c-7.4,0.1-14.7,0-22.1,0C5.2,6.5,5.4,6.4,5.4,8v42.2
	c0,0.3,0,0.6,0,0.8c0,0.5,0.2,0.7,0.6,0.6h21.6c2.3,0,4.5-0.4,6.7-1.2c2.8-1,5.2-3,6.5-5.7c0.9-1.9,1.2-4.1,0.9-6.2
	c-0.2-3.8-2.4-7.2-5.8-9C35.2,29.2,34.5,28.9,33.8,28.6z M329.5,38.7c-0.8-0.7-1.5-1.6-2.1-2.5c-3.4-4.3-6.8-8.7-10.3-13
	c-4.2-5.3-8.5-10.7-12.7-16c-0.3-0.4-0.8-0.7-1.3-0.7c-1.2,0-2.3,0-3.5,0c-1.5,0-1.4-0.1-1.4,1.5v42.2c0,0.2,0,0.5,0,0.7
	c0,0.6,0.2,0.8,0.8,0.8c1.6,0,3.3,0,4.9,0s1.5,0.2,1.5-1.5V20.4c0.2,0.1,0.3,0.1,0.4,0.1l8.1,10.1c2.4,3,4.8,6,7.2,9
	c3.1,3.8,6.2,7.6,9.2,11.5c0.3,0.4,0.8,0.7,1.3,0.7c1.3,0,2.6,0,4,0s1.3,0,1.3-1.3V7.7c0-1.1,0-1.1-1-1.1c-1.6,0-3.1,0-4.7,0
	s-1.5-0.2-1.5,1.5c0,9.8,0,19.5,0,29.3C329.7,37.9,329.6,38.3,329.5,38.7L329.5,38.7z M48.6,29.1v21c0,0.3,0,0.6,0,0.8
	c0,0.6,0.2,0.8,0.8,0.8c0.3,0,0.6,0,0.8,0h28.7c1.1,0,1.1,0,1.1-1.1c0-1.7,0-3.4,0-5.2c0-1.5,0.1-1.4-1.4-1.4H58.8
	c-1.3,0-1.3,0-1.3-1.3c0-3.1,0-6.2,0-9.2c0-1.2,0-1.2,1.3-1.2h16.8c0.5,0,0.9,0,0.9-0.8c0-1.9,0-3.8,0-5.8c0-0.5-0.2-0.7-0.7-0.7
	c-0.3,0-0.6,0-0.8,0H58c-0.5,0-0.6-0.2-0.6-0.7c0-0.9,0-1.8,0-2.6c0-2.2,0-4.4,0-6.6c0-0.9,0-0.9,0.9-0.9h20.2c0.9,0,1-0.1,1-0.8
	c0-2,0-4.1,0-6.1c0-0.5-0.2-0.8-0.8-0.8H49.3c-0.5,0-0.7,0.2-0.7,0.7c0,0.3,0,0.6,0,1L48.6,29.1z M86.4,38.8c-1.2,2.4-2.4,4.7-3.6,7
	c-0.3,0.5,0,0.8,0.4,1.1c5.9,3.8,12.8,5.7,19.8,5.3c2.3-0.1,4.5-0.5,6.7-1.2c2.6-0.8,4.8-2.4,6.4-4.6c2.1-3,2.4-6.4,2-10
	c-0.2-1.7-0.9-3.3-2-4.7c-1.6-1.9-3.6-3.4-6-4.2c-2.5-1-5.1-1.8-7.7-2.4c-2-0.4-4-1.1-5.9-1.9c-1.6-0.8-3-1.9-3-4
	c-0.1-2.1,1.2-4,3.2-4.6c1.9-0.6,3.9-0.7,5.8-0.4c3.5,0.5,6.9,1.8,9.8,4c0.4,0.3,0.6,0.2,0.8-0.2c1-1.9,2.1-3.9,3.1-5.8
	c0.4-0.7,0.4-0.9-0.4-1.3c-1.3-0.8-2.6-1.5-4-2.1c-5.4-2.5-11.5-3-17.3-1.4c-3.1,0.8-5.8,2.6-7.8,5.1c-2.1,2.9-2.9,6.4-2.4,9.9
	c0.3,3,1.9,5.6,4.4,7.2c1.9,1.2,4,2.1,6.1,2.7c3,1,6.2,1.7,9.2,2.8c1.5,0.4,2.8,1.3,3.8,2.4c1.4,1.8,1.1,4.3-0.7,5.7
	c-0.1,0.1-0.3,0.2-0.4,0.3c-1.2,0.6-2.6,1-4,1c-4.1,0.2-8.1-0.7-11.7-2.6C89.5,40.9,87.9,39.9,86.4,38.8L86.4,38.8z M378.2,46.7
	c0.4,0.2,0.3,0.5,0.3,0.7c0,1.2,0.1,2.3,0.1,3.5c0,0.8,0,0.9,0.9,0.9c1.4,0,2.8,0,4.2,0c0.9,0,0.9,0,0.9-1c0-7,0-13.9,0-20.9
	c0-1,0-1-1-1h-9.1c-1.5,0-3,0-4.5,0c-0.6,0-0.9,0.2-0.9,0.8c0,1,0,2,0,3c0,1.6-0.1,1.5,1.5,1.5c2.2,0,4.3,0,6.5,0
	c1.2,0,1.5-0.2,1.5,1.3c0,0.7,0,1.4,0.1,2.1c0.1,0.9-0.3,1.8-0.9,2.4c-1.8,2-4,3.6-6.5,4.6c-3.3,1.3-6.9,1.3-10.2,0
	c-4.4-1.8-7.6-5.6-8.8-10.2c-1.4-4.6-1-9.5,1.2-13.8c2.6-5.1,6.6-8,12.5-7.9c4.7-0.1,9.1,2.4,11.4,6.6c0.4,0.7,0.4,0.7,1.2,0.2
	c1.3-1,2.7-1.9,4-2.9c0.8-0.5,0.8-0.6,0.3-1.5c-2.1-3.7-5.5-6.5-9.6-7.9c-2.6-0.8-5.3-1.1-8-1c-6.3,0-12.2,3-15.9,8
	c-7.1,9.2-6.7,22.1,1,30.8c4.5,4.9,10.1,7.4,16.9,6.9c3.2-0.3,6.3-1.5,8.8-3.5C376.6,47.9,377.4,47.3,378.2,46.7L378.2,46.7z
	 M523.1,29.2V8.1c0-0.3,0-0.6,0-1s-0.2-0.5-0.5-0.5h-6.2c-0.4,0-0.6,0.2-0.6,0.6v16.6c0,0.3,0,0.6,0,0.8c0,0.5-0.2,0.8-0.8,0.8
	c-0.2,0-0.5,0-0.7,0h-19.6c-0.3,0-0.6,0-0.8,0c-0.6,0-0.8-0.2-0.8-0.8c0-1.1,0-2.2,0-3.2V7.9c0-1.3,0-1.3-1.3-1.3h-4.4
	c-1.5,0-1.5-0.2-1.5,1.5v42.1c0,0.3,0,0.6,0,0.8c0,0.5,0.2,0.7,0.7,0.7c1.9,0,3.8,0,5.6,0c0.6,0,0.9-0.3,0.8-0.9c0-0.3,0-0.6,0-0.8
	V33c0-1.2,0-1.2,1.2-1.2H515c0.5,0,0.7,0.3,0.7,0.7c0,0.3,0,0.6,0,0.8v10.3c0,2.4,0,4.7,0,7.1c0,0.9,0,0.9,0.8,0.9
	c1.9,0,3.8,0,5.6,0c0.6,0,0.9-0.2,0.9-0.8c0-0.3,0-0.6,0-0.8L523.1,29.2z M473.8,17.1c1-1.8,2-3.6,3-5.3c0.2-0.2,0.1-0.6-0.1-0.7
	c0,0-0.1,0-0.1-0.1l-0.6-0.4c-5.4-3.6-12.1-5.1-18.5-4c-3,0.4-5.8,1.7-8,3.6c-2.8,2.6-4.4,6.3-4.2,10.1c-0.1,3.6,1.9,7,5.1,8.7
	c2,1.1,4.1,1.9,6.2,2.5c2.6,0.8,5.2,1.4,7.7,2.2c1.5,0.4,3,1.1,4.4,2c2.3,1.5,3.1,4.5,1.7,6.9c-0.8,1.4-2.2,2.4-3.8,2.7
	c-2.6,0.7-5.4,0.8-8.1,0.2c-4-0.7-7.8-2.3-11-4.8c-0.7-0.6-0.8-0.5-1.2,0.3c-0.8,1.4-1.5,2.9-2.3,4.4c-0.5,0.9-0.5,0.9,0.3,1.5
	l0.4,0.3c5.9,3.9,12.9,5.7,19.9,5.1c2.2-0.1,4.4-0.6,6.4-1.4c3-1.1,5.4-3.3,6.7-6.1c1.1-2.6,1.4-5.5,0.8-8.3
	c-0.5-2.4-1.8-4.5-3.8-5.9c-1.2-0.9-2.5-1.6-3.9-2.1c-2.9-1.1-5.9-2-9-2.6c-2.2-0.5-4.3-1.2-6.3-2.1c-3.6-1.8-3.2-6-1.7-8
	c0.9-1.2,2.3-2,3.8-2.3c1.9-0.4,3.8-0.5,5.7-0.3c3.3,0.3,6.4,1.5,9.1,3.3C472.9,16.4,473.2,16.9,473.8,17.1z M259.8,29
	c0,7.2,0,14.4,0,21.6c0,1.1,0,1.1,1,1.1h29c0.9,0,0.9,0,0.9-0.9c0-1.3,0-2.6,0-3.8c0-1.8,0.1-1.6-1.5-1.6h-21.1
	c-1.1,0-1.2,0-1.2-1.1c0-3.9,0-7.8,0-11.6c0-1.1,0-1.1,1.1-1.1h18.5c0.3,0,0.5-0.2,0.6-0.4c0,0,0-0.1,0-0.1v-4.7
	c0-0.3-0.2-0.5-0.4-0.6c-0.1,0-0.1,0-0.2,0h-18.7c-0.6,0-0.8-0.3-0.8-0.9c0-3.7,0-7.4,0-11.2c0-0.8,0-0.8,0.9-0.9h21.7
	c0.5,0,0.6-0.2,0.6-0.7c0-1.6,0-3.3,0-4.9c0-0.5-0.3-0.7-0.7-0.7h-28.4c-1.3,0-1.3-0.1-1.3,1.3L259.8,29z M139.5,6.6h-18.2
	c-0.5,0-0.6,0.2-0.6,0.7c0,2.1,0,4.2,0,6.4c0,0.5,0.2,0.7,0.7,0.7c0.2,0,0.5,0,0.7,0H134c1.1,0,1.1,0,1.1,1.1v35
	c0,1.3,0,1.3,1.3,1.3h6.1c1.5,0,1.4,0.1,1.4-1.5V15.9c0-0.3,0-0.6,0-0.8c-0.1-0.6,0.2-0.8,0.8-0.8c1.3,0,2.6,0,4,0h8.6
	c0.5,0,1,0.1,1-0.7c0-2.1,0-4.2,0-6.4c0-0.4-0.2-0.7-0.6-0.7H139.5z M229.8,45.9c-0.4-0.4-0.7-0.7-0.9-1
	c-9.9-12.5-19.9-25-29.8-37.4c-0.4-0.6-1.1-0.9-1.8-0.9c-1.6,0.1-1.5-0.1-1.5,1.5c0,14,0,27.9,0,41.9c0,1.8,0,1.8,1.8,1.8
	c1.7,0,1.5,0.2,1.5-1.5c0-12,0-23.9,0-35.9c-0.1-0.4,0-0.9,0.1-1.3c0.5,0.2,0.6,0.6,0.9,0.9l22.7,28.4c2.3,2.9,4.6,5.8,6.9,8.6
	c0.3,0.3,0.5,0.8,1,0.7c0.8,0,1.7,0,2.5-0.1V6.6h-1.7c-1.6,0-1.5-0.3-1.5,1.5v36C230,44.7,229.9,45.3,229.8,45.9z M392.6,29.1V50
	c0,0.3,0,0.6,0,1c0,0.6,0.2,0.8,0.8,0.8c0.2,0,0.3,0,0.5,0h29.5c0.4,0,0.6-0.1,0.6-0.5v-5.1c0-0.3-0.1-0.5-0.4-0.6
	c-0.1,0-0.1,0-0.2,0h-22.2c-1.4,0-1.4,0-1.4-1.5V8.2c0-0.3,0-0.6,0-1c0-0.5-0.2-0.7-0.7-0.7c-1.9,0-3.8,0-5.8,0
	c-0.5,0-0.7,0.2-0.7,0.7c0,0.3,0,0.6,0,1L392.6,29.1z M79.1,62.2H1.3C-0.1,62.2,0,62,0,63.5c0,1.9-0.2,1.6,1.6,1.6h155.7
	c1,0,1,0,1.1-1v-0.4c0-1.7,0.1-1.5-1.5-1.5L79.1,62.2z M436.9,29.2V8.4c0-0.3,0-0.6,0-0.8c0-0.9,0-1-0.9-1h-4.8
	c-1.6,0-1.5-0.1-1.5,1.5v42.1c0,0.2,0,0.5,0,0.7c0,0.5,0.2,0.8,0.8,0.8c1.9,0,3.8,0,5.8,0c0.4,0,0.7-0.1,0.7-0.6c0-0.3,0-0.6,0-1
	L436.9,29.2z M514.5,91.7L514.5,91.7c1.7,0,3.4,0,5.2,0c0.6,0,1.3-0.1,1.9-0.3c1-0.3,1.7-1.2,1.7-2.2c0.1-1.7,0.1-3.4,0-5
	c0-1.1-0.8-2-1.8-2.3c-0.6-0.2-1.3-0.2-1.9-0.2c-1.9,0-3.8,0-5.6,0c-0.6,0-0.8-0.2-0.8-0.8c0-0.8,0.1-0.9,0.9-0.9h7.3c1,0,1,0,1-1
	c0-0.8,0-1.6,0-2.4c0-0.9,0-1-0.9-1c-3.2,0-6.4,0-9.6,0c-0.7,0-1.4,0.1-2.1,0.4c-0.9,0.3-1.5,1.1-1.5,2.1c0,1.7,0,3.4,0,5.2
	c0,0.9,0.6,1.7,1.5,1.9c0.6,0.2,1.3,0.3,2,0.3c1.9,0,3.8,0,5.8,0c0.8,0,0.9,0.1,0.9,0.9c0,0.6-0.2,0.8-0.8,0.8c-0.3,0-0.6,0-0.8,0
	H509c-1,0-1,0-1,1.1c0,0.8,0,1.5,0,2.3c0,1.1,0,1.1,1.1,1.1L514.5,91.7z M490.7,82.4c0,1.1,0,2.2,0,3.4c-0.1,1.1,0,2.2,0.1,3.2
	c0.2,1.5,1.5,2.7,3,2.7c3.1,0.1,6.2,0.1,9.4,0c1.7,0.1,3-1.2,3.1-2.9c0.1-0.5,0.1-1,0.1-1.4c0-3.4,0-6.9,0-10.3v-0.8
	c0-0.3-0.2-0.5-0.5-0.6c0,0-0.1,0-0.1,0c-1.3,0-2.7,0-4,0c-0.3,0-0.5,0.1-0.6,0.4c0,0.1,0,0.1,0,0.2v9.9c0,1.1,0,1.2-1.1,1.2h-2.6
	c-1.8,0-1.6,0.2-1.6-1.6c0-3,0-6.1,0-9.1c0-0.9,0-0.9-0.9-0.9c-1.1,0-2.2,0-3.3,0c-0.9,0-0.9,0-0.9,1
	C490.7,78.6,490.7,80.5,490.7,82.4L490.7,82.4z M375.2,83.6c0,2.3,0,4.6,0,7c0,1.2,0,1.2,1.2,1.2h11.2c1,0,1,0,1-1.1
	c0-0.8,0-1.5,0-2.3c0-1.1,0-1.1-1.1-1.1c-2.1,0-4.2,0-6.4,0c-0.5,0-0.9-0.1-0.9-0.8c0-0.9,0-1,0.9-1c2.2,0,4.4,0,6.6,0
	c0.6,0,0.9-0.2,0.8-0.8s0-1.4,0-2.2s-0.3-0.8-0.9-0.8c-1.4,0-2.9,0-4.3,0h-2.5c-0.2,0-0.5,0-0.6-0.3c-0.3-0.5-0.1-1.1,0.4-1.4
	c0.1-0.1,0.3-0.1,0.4-0.1h1.1c1.8,0,3.7,0,5.5,0c0.9,0,0.9,0,0.9-0.9s0-1.8,0-2.6c0-0.6-0.2-0.8-0.8-0.8c-3.9,0-7.8,0-11.8,0
	c-0.8,0-0.9,0-0.9,0.9C375.2,78.9,375.2,81.3,375.2,83.6L375.2,83.6z M422.5,83.8c0-2.4,0-4.8,0-7.2c0-0.9,0-0.9-1-1h-3.1
	c-1,0-1,0-1,1c0,1.4,0,2.7,0,4.1c0,0.8-0.1,0.9-0.9,0.9c-1.2,0-2.4,0-3.6,0c-1,0-1,0-1-1c0-1.4,0-2.7,0-4.1c0-0.9,0-0.9-0.9-0.9
	c-1.1,0-2.2,0-3.4,0c-0.9,0-1,0-1,0.9c0,2,0,4,0,6c0,2.7,0,5.4,0,8.1c0,1,0,1,1,1h3.2c0.9,0,0.9,0,0.9-1c0-1.6,0-3.1,0-4.7
	c0-0.6,0.2-0.9,0.8-0.9c1.2,0,2.3,0,3.5,0s1.2,0,1.2,1.3c0,1.4,0,2.9,0,4.3c0,0.6,0.2,0.9,0.8,0.9c1.1,0,2.2,0,3.2,0s1,0,1-1
	C422.5,88.4,422.5,86.1,422.5,83.8L422.5,83.8z M366.7,80c-0.1,0.3-0.3,0.6-0.6,0.8c-1.7,1.5-3.5,3.1-5.2,4.6
	c-2.5,2.1-2.5,2.1-2.5,5.1c0,1.3,0,1.3,1.3,1.3h10.8c0.7,0,1.4,0,2.2,0c0.5,0,0.8-0.2,0.8-0.8c0-1,0-1.9,0-2.9s-0.1-0.9-0.9-0.9
	c-1.9,0-3.8,0-5.6,0c-0.4,0-0.8,0-1.4-0.1c0.8-0.8,1.5-1.4,2.1-2c1.7-1.5,3.4-3,5.1-4.5c0.5-0.4,0.8-1,0.7-1.7c0-0.8,0-1.7,0-2.5
	c0-0.6-0.2-0.8-0.8-0.8c-1.4,0-2.8,0-4.2,0h-8.8c-0.9,0-1,0-1,0.9s0,1.8,0,2.6c0,0.5,0.1,0.8,0.8,0.8c0.4,0,0.9,0,1.3,0L366.7,80z
	 M399.1,75.6c-1.6,0-3.1,0-4.7,0c-2.5,0-4,1.3-4,3.8c-0.1,2.8-0.1,5.7,0,8.5c-0.1,2,1.4,3.7,3.4,3.7c0.1,0,0.2,0,0.3,0
	c3.4,0.1,6.8,0,10.2,0c0.5,0,0.7-0.2,0.7-0.7c0-1,0-2,0-3c0-0.5-0.2-0.8-0.8-0.8s-1.1,0-1.7,0h-6.1c-0.5,0-0.9,0-0.9-0.6v-6
	c0-0.3,0.2-0.5,0.4-0.6c0,0,0.1,0,0.1,0h7.9c1,0,1,0,1-0.9s0-1.7,0-2.5s0-0.9-1-0.9C402.4,75.7,400.8,75.7,399.1,75.6L399.1,75.6z
	 M351.1,75.6c-1.6,0-3.3,0-4.9,0c-2-0.1-3.7,1.4-3.8,3.4c0,0,0,0.1,0,0.1c-0.1,3-0.1,6.1,0,9.1c0,1.5,1.1,2.9,2.6,3.3
	c0.6,0.2,1.2,0.2,1.8,0.2h9.4c0.8,0,0.9,0,0.9-0.9s0-1.6,0-2.4c0-1.2,0-1.2-1.2-1.2h-7.2c-1.2,0-1.2,0-1.2-1.2v-4
	c0-2.4-0.3-2.1,2.1-2.1c2.2,0,4.4,0,6.6,0c0.9,0,0.9,0,0.9-0.9s0-1.8,0-2.6c0-0.6-0.2-0.9-0.8-0.8C354.5,75.7,352.8,75.7,351.1,75.6
	L351.1,75.6z M184,29.2V8c0-0.3,0-0.6,0-0.8s-0.2-0.6-0.6-0.6c-0.6,0-1.3,0-1.9,0s-0.8,0.3-0.7,0.8c0,0.2,0,0.4,0,0.6v41.8
	c0,1.9,0,1.9,2,1.9c1.4,0,1.3,0.1,1.3-1.3L184,29.2z M232.6,77.1c-0.3-0.2-0.6-0.2-0.9-0.2c-1.5,0-1.5,0-2.1,1.3c-1.2,3-2.5,6-3.7,9
	c-0.1,0.5-0.4,1-0.8,1.3c-0.4-1-0.8-2-1.2-2.9c-1-1.6-1-3.5,0-5.1c0.5-1,0.9-2,1.2-3c0.1-0.2,0.1-0.5-0.2-0.6
	c-0.8-0.3-1.7,0.1-2,0.9c0,0,0,0,0,0c-0.2,0.5-0.3,1-0.5,1.5c-0.2,0.7-0.5,1.3-0.9,1.9c-0.5-1-0.9-2.1-1.3-3.2
	c-0.5-1.1-0.5-1.1-1.7-1.1c-0.8,0-0.8,0.1-0.5,0.9c0.4,0.9,0.8,1.9,1.1,2.8c1,2.5,1.1,2.5,0,4.9c-0.4,1-0.8,2.1-1.3,3.1
	c-0.2-0.1-0.3-0.3-0.4-0.5l-2.3-5.5c-0.6-1.5-1.3-3.1-1.9-4.6c-0.1-0.7-0.8-1.1-1.4-1c0,0-0.1,0-0.1,0c-0.4,0.1-0.8-0.1-1.1,0.1
	c0,0.3,0,0.6,0.2,0.8c1.8,4.3,3.7,8.6,5.5,12.9c0.3,0.7,0.7,0.7,1.3,0.7s1.2,0.1,1.4-0.7c0.4-1.1,0.8-2.1,1.2-3.1
	c0.3-1,0.8-2,1.3-2.9c0.3,0.6,0.6,1.2,0.8,1.8c0.6,1.4,1.1,2.7,1.7,4.1c0.1,0.3,0.2,0.6,0.5,0.8c0.9,0.4,1.9-0.1,2.3-1l3.5-8.2
	L232.6,77.1z M288.1,89.1c0,0.4,0,0.6,0,0.8c0,1,0.9,1.8,1.9,1.7c0.2,0,0.4-0.1,0.6-0.1c0.2,0,0.3-0.1,0.3-0.3
	c0-0.6,0.3-1.4-0.2-1.8c-0.4-0.5-0.6-1.1-0.5-1.8V72.8c0-1.8,0.1-1.6-1.6-1.6c-0.9,0-0.9,0-0.9,0.9c0,2.1,0,4.2,0,6.4
	c0,0.3,0.1,0.6-0.3,0.7l-1-1c-2.5-2.2-6.3-2-8.5,0.5c-0.1,0.1-0.1,0.1-0.2,0.2c-2.5,3.1-2.5,7.5,0,10.6c2.1,2.4,5.6,3,8.4,1.3
	C286.9,90.3,287.5,89.8,288.1,89.1L288.1,89.1z M303.8,79.6v-1.3c0-2,0-4.1,0-6.1c0-1,0-1-1.1-1h-0.4c-1,0-1,0-1,1
	c0,6.1,0,12.2,0,18.4c0,0.9,0,0.9,0.9,1h0.6c0.5,0,0.6-0.2,0.7-0.6c-0.1-0.6,0-1.2,0.1-1.8c0.8,1.1,1.9,1.8,3.2,2.3
	c3.1,1,6.4-0.4,7.8-3.3c1.5-2.7,1.3-6-0.4-8.5c-1.7-2.8-5.3-3.7-8.1-2.1c-0.5,0.3-0.9,0.6-1.3,1C304.5,78.8,304.2,79.1,303.8,79.6
	L303.8,79.6z M179.4,81.7V86c0,1.5,0,3,0,4.4c0,1.1,0,1.1,1,1.1h0.5c1,0,1,0,1-1c0-1.6,0-3.2,0-4.8c0-1.2,0-1.2,1.2-1.2s2.5,0,3.7,0
	c1.2,0.1,2.4-0.2,3.5-0.7c2.4-1.4,3.6-4.1,3.2-6.7c-0.4-3-3-5.3-6-5.3c-2.3,0.1-4.6,0-7,0c-1.1,0-1.1,0-1.1,1.1
	C179.4,75.9,179.4,78.8,179.4,81.7L179.4,81.7z M273.1,88.1c-0.6-0.3-1.1-0.4-1.8-0.6c-0.1,0-0.2,0-0.2,0c-0.4,0.2-0.5,0.7-0.9,1
	c-0.1,0.1-0.3,0.3-0.5,0.4c-2.2,1.6-5.2,1.1-6.8-1.1c-0.4-0.6-0.7-1.2-0.8-1.9c-0.2-0.7-0.1-0.9,0.7-0.9c1.1,0,2.2,0,3.4,0h7.1
	c0.5,0,0.8-0.1,0.8-0.7c0.1-2.5-1-4.9-3.1-6.3c-2.8-1.9-6.5-1.8-9.1,0.5c-2.5,2.3-3.2,5.9-1.9,9c1.7,3.7,6.1,5.4,9.8,3.7
	c0.1,0,0.1-0.1,0.2-0.1C271.5,90.5,272.6,89.5,273.1,88.1z M247.1,88.1c-0.5-0.2-1-0.3-1.4-0.4s-0.8-0.1-1.1,0.4
	c-1.6,2.1-4.6,2.5-6.6,0.9c-0.7-0.6-1.3-1.3-1.6-2.2c-0.7-1.7-0.3-1.7,1.1-1.6h9.6c0.5,0,1,0.1,1-0.7c0.2-2.5-0.9-4.8-2.9-6.3
	c-2.6-1.9-6.1-1.9-8.7-0.1c-2.4,1.8-3.5,4.9-2.9,7.9c0.7,3.9,4.5,6.5,8.4,5.8c0,0,0,0,0.1,0C244.2,91.5,246.1,90.1,247.1,88.1z
	 M195,84.3c-0.1,4.1,3,7.5,7.1,7.6c0.1,0,0.1,0,0.2,0c4.1-0.1,7.4-3.4,7.4-7.5c0-4-3.2-7.3-7.3-7.4C198.3,76.9,195,80.2,195,84.3z
	 M324,88.9c-0.4-0.2-0.5-0.6-0.6-0.8c-1.3-3.1-2.5-6.3-3.8-9.5c-0.7-1.9-0.4-1.6-2.5-1.6c-0.6,0-0.7,0.1-0.4,0.7
	c0,0.1,0.1,0.3,0.2,0.4c1.6,3.8,3.2,7.5,4.8,11.3c0.9,2.2,0.9,2.2,0,4.4c-0.5,1.1-1,2-2.4,1.7c-0.4-0.1-0.6,0.2-0.6,0.6s0,0.5,0,0.7
	c0,0.9,0.1,1,1.1,1c1.9,0.2,3.6-1,4.1-2.8c2.2-5.7,4.4-11.3,6.5-17c0.1-0.3,0.4-0.5,0.2-0.9c-0.5-0.1-0.9-0.1-1.4-0.1
	c-0.5-0.1-1,0.3-1.1,0.8c-0.2,0.7-0.5,1.4-0.8,2.1C326.2,82.8,325.1,85.8,324,88.9L324,88.9z M253,79.6c0-0.7,0-1.3,0-2
	c0-0.5-0.2-0.6-0.7-0.6h-0.5c-1.2,0-1.2,0-1.2,1.1v12.2c0,1.2,0,1.2,1.2,1.2h0.4c1,0,1,0,1-1c0-2.3,0.1-4.6,0-7
	c-0.1-1.3,0.6-2.5,1.7-3.2c0.8-0.6,1.8-1,2.8-1.1c0.3,0,0.6,0,0.6-0.4c0-0.6,0.3-1.4-0.1-1.8s-1.1-0.2-1.7,0
	c-0.4,0.1-0.7,0.3-1.1,0.5C254.6,78.1,253.8,78.8,253,79.6L253,79.6z"/>
<path class="st1" d="M421.8,69.7c0-0.4,0.4-0.6,0.7-0.8c2.7-1.9,5.8-3,9.1-3.5c4.4-0.7,8.9-0.6,13.4,0.3c8.1,1.4,16,4.1,23.2,8
	c5.8,2.9,11.1,6.9,15.6,11.6c2.8,2.8,4.7,6.2,5.8,10c0.3,1.1,0.3,2.1,0.1,3.2c-0.4,1.8-1.7,3.3-3.5,3.8c-0.7,0.3-1.5,0.5-2.3,0.5
	c-2.9,0.2-5.8-0.1-8.7-0.9c-6.7-1.9-13.1-5.1-18.6-9.4c-2.1-1.5-4-3.3-5.6-5.2c-1.4-1.5-2.4-3.2-3.1-5.1c-0.9-2.4,0.3-3.8,2.8-3.3
	c2,0.4,3.8,1.2,5.5,2.2c1.4,0.8,2.7,1.7,4.2,2.4c0.8,0.4,1.7,0.7,2.6,0.7c1-0.1,1.4-0.5,1.3-1.5c-0.1-0.8-0.5-1.5-1-2.1
	c-1.6-1.8-3.4-3.2-5.5-4.4c-3.3-1.9-7-3.3-10.8-3.9c-1.8-0.4-3.7-0.2-5.4,0.5c-1.6,0.9-2.6,2.6-2.4,4.5c0.3,2.4,1.1,4.7,2.5,6.6
	c2.1,3.1,4.7,6,7.6,8.4c5.2,4.5,11,8.2,17.3,11.1c4.2,2.1,8.6,3.5,13.2,4.3c2.8,0.5,5.8,0.5,8.6-0.2c1.8-0.3,3.4-1.3,4.5-2.7
	c0.9-1.3,1.2-2.8,1-4.3c-0.3-2.2-1-4.4-2.1-6.4c-0.2-0.4-0.3-0.8-0.5-1.2l0,0c0.6,0.2,0.8,0.9,1.2,1.3c2.5,3.2,4,7,4.5,11
	c0.5,3.8-1,7.7-4,10.1c-2.2,1.7-4.8,2.8-7.5,3c-5.8,0.7-11.3-0.5-16.7-2.5c-8.5-3.1-16.3-7.7-23.2-13.5c-4.5-3.7-8.6-8-11.9-12.7
	c-1.9-2.6-3.2-5.4-4.1-8.5c-0.5-1.8-0.6-3.7-0.1-5.5c0.8-2.8,2.8-4.5,5.5-5.4c1.2-0.4,2.6-0.7,3.9-0.8c5.1-0.4,10.3,0.5,15,2.6
	c3.7,1.6,7.2,3.6,10.4,6.1c2.1,1.5,3.8,3.4,5,5.6c0.4,0.8,0.6,1.7,0.4,2.6c-0.2,1-1,1.8-2,2c-1.1,0.2-2.2,0.2-3.3-0.1
	c-3.3-0.8-6.5-2.2-9.4-4.1l-1.2-0.7c0,0-0.1,0-0.2,0c0,0.4,0.3,0.6,0.5,0.9c2.6,3,5.6,5.5,9.1,7.4c2.9,1.8,6,3.1,9.3,3.8
	c1.1,0.2,2.3,0.3,3.5,0.1c1.7-0.1,3.2-1.3,3.6-3c0.5-1.7,0.3-3.5-0.5-5.1c-0.8-1.8-2-3.5-3.4-4.9c-3.2-3.3-6.9-6.1-11-8.2
	c-6.1-3.4-12.6-5.9-19.4-7.3c-5-1.1-10.1-1.3-15.1-0.4c-2.6,0.5-5.2,1.5-7.4,2.9C422.3,69.4,422,69.5,421.8,69.7L421.8,69.7z"/>
<path class="st1" d="M33.8,28.6c0.7,0.4,1.4,0.7,2.1,1c3.4,1.8,5.6,5.2,5.8,9c0.3,2.1,0,4.3-0.9,6.2c-1.3,2.7-3.7,4.7-6.5,5.7
	c-2.1,0.8-4.4,1.3-6.7,1.2H6c-0.5,0-0.7-0.2-0.6-0.6c0-0.3,0-0.6,0-0.8V8c0-1.5-0.1-1.4,1.4-1.4c7.4,0,14.7,0.1,22.1,0
	c4.2-0.2,8.2,2.2,9.8,6.2c2,4,1.6,8.9-1.1,12.5c-0.7,1.1-1.7,1.9-2.8,2.6C34.4,28,34,28.3,33.8,28.6z M21.6,32.4h-6.5c-1,0-1,0-1,1
	c0,3.2,0,6.4,0,9.6c0,1.2,0,1.2,1.2,1.2h11.7c0.5,0,1,0,1.4-0.1c3.1-0.8,5-4,4.2-7.1c0-0.1-0.1-0.3-0.1-0.4
	c-0.5-2.6-2.9-4.4-5.5-4.2H21.6z M20.9,14.1h-5.7c-1.1,0-1.1,0-1.1,1c0,3.1,0,6.2,0,9.4c0,1,0.1,1,1,1c3.6,0,7.1,0,10.7,0
	c1.8,0.1,3.5-0.8,4.5-2.3c0.7-1.2,1-2.6,0.8-3.9c0.1-2.8-2.1-5.1-4.8-5.2c-0.1,0-0.3,0-0.4,0C24.2,14.1,22.5,14.1,20.9,14.1
	L20.9,14.1z"/>
<path class="st1" d="M329.5,38.7c0.1-0.4,0.2-0.9,0.1-1.4c0-9.8,0-19.5,0-29.3c0-1.6-0.1-1.5,1.5-1.5s3.1,0,4.7,0c1,0,1,0,1,1.1
	v42.7c0,1.3,0,1.3-1.3,1.3s-2.6,0-4,0c-0.5,0-1-0.2-1.3-0.7c-3.1-3.8-6.1-7.6-9.2-11.5c-2.4-3-4.8-6-7.2-9l-8.1-10.1
	c0,0-0.1-0.1-0.4-0.1v29.9c0,1.7,0.1,1.5-1.5,1.5s-3.3,0-4.9,0c-0.5,0-0.8-0.2-0.8-0.8c0-0.2,0-0.5,0-0.7V8c0-1.5-0.1-1.5,1.4-1.5
	c1.2,0,2.3,0,3.5,0c0.5,0,1,0.2,1.3,0.7c4.2,5.3,8.5,10.7,12.7,16c3.4,4.3,6.8,8.7,10.3,13C327.9,37.2,328.7,38,329.5,38.7z"/>
<path class="st1" d="M48.6,29.1V8.3c0-0.3,0-0.6,0-1c0-0.5,0.2-0.8,0.7-0.7h29.3c0.6,0,0.8,0.2,0.8,0.8c0,2,0,4.1,0,6.1
	c0,0.7-0.1,0.8-1,0.8H58.3c-0.8,0-0.9,0-0.9,0.9c0,2.2,0,4.4,0,6.6c0,0.9,0,1.8,0,2.6c0,0.5,0.2,0.7,0.6,0.7h16.8c0.3,0,0.6,0,0.8,0
	c0.5,0,0.7,0.2,0.7,0.7c0,1.9,0,3.8,0,5.8c0,0.7-0.4,0.8-0.9,0.8H58.7c-1.3,0-1.3,0-1.3,1.2c0,3.1,0,6.2,0,9.2c0,1.3,0,1.3,1.3,1.3
	h19.8c1.6,0,1.4-0.1,1.4,1.4c0,1.7,0,3.4,0,5.2c0,1.1,0,1.1-1.1,1.1H50.2c-0.3,0-0.6,0-0.8,0c-0.6,0-0.8-0.2-0.8-0.8
	c0-0.3,0-0.6,0-0.8L48.6,29.1z"/>
<path class="st1" d="M86.4,38.8c1.5,1.1,3.1,2,4.8,2.9c3.6,1.8,7.6,2.7,11.7,2.6c1.4,0,2.8-0.4,4-1c1.9-1.2,2.5-3.7,1.4-5.6
	c-0.1-0.1-0.2-0.3-0.3-0.4c-1-1.1-2.3-2-3.8-2.4c-3-1.1-6.1-1.8-9.2-2.8c-2.1-0.6-4.2-1.6-6.1-2.7c-2.5-1.6-4.2-4.2-4.4-7.2
	c-0.5-3.5,0.4-7,2.4-9.9c1.9-2.6,4.7-4.4,7.8-5.1c5.7-1.5,11.8-1,17.2,1.5c1.4,0.6,2.7,1.3,4,2.1c0.7,0.5,0.8,0.6,0.4,1.3
	c-1,1.9-2.1,3.9-3.1,5.8c-0.2,0.4-0.4,0.5-0.8,0.2c-2.9-2.1-6.2-3.5-9.8-4c-1.9-0.3-3.9-0.2-5.8,0.4c-2,0.6-3.4,2.5-3.2,4.6
	c0.1,2,1.4,3.1,3,4c1.9,0.9,3.9,1.5,5.9,1.9c2.6,0.6,5.2,1.4,7.7,2.4c2.4,0.8,4.4,2.3,6,4.2c1.1,1.4,1.8,3,2,4.7
	c0.4,3.5,0.1,6.9-2,10c-1.6,2.2-3.8,3.8-6.4,4.6c-2.2,0.7-4.4,1.2-6.7,1.2c-7,0.3-13.9-1.5-19.8-5.3c-0.4-0.3-0.7-0.6-0.4-1.1
	C84,43.5,85.2,41.2,86.4,38.8z"/>
<path class="st1" d="M378.1,46.7c-0.7,0.6-1.5,1.2-2.3,1.8c-2.5,2-5.6,3.2-8.8,3.5c-6.8,0.6-12.4-1.9-16.9-6.9
	c-7.7-8.7-8.1-21.6-1.1-30.8c3.7-5,9.6-8,15.9-8c2.7-0.1,5.4,0.2,8,1c4.1,1.4,7.5,4.2,9.6,7.9c0.5,0.8,0.5,0.9-0.3,1.5
	c-1.3,1-2.6,1.9-4,2.9c-0.7,0.5-0.7,0.5-1.2-0.2c-2.3-4.1-6.6-6.7-11.4-6.6c-5.9-0.1-10,2.8-12.5,7.9c-2.2,4.3-2.6,9.2-1.2,13.8
	c1.1,4.6,4.4,8.4,8.8,10.2c3.3,1.3,6.9,1.3,10.2,0c2.5-1,4.7-2.6,6.5-4.6c0.6-0.6,1-1.5,0.9-2.4c0-0.7-0.1-1.4-0.1-2.1
	c0-1.5-0.3-1.3-1.5-1.3c-2.2,0-4.3,0-6.5,0c-1.6,0-1.5,0.1-1.5-1.5c0-1,0-2,0-3c0-0.6,0.3-0.8,0.9-0.8c1.5,0,3,0,4.5,0h9.1
	c1,0,1,0,1,1c0,6.9,0,13.9,0,20.9c0,0.9,0,1-0.9,1c-1.4,0-2.8,0-4.2,0c-0.9,0-0.9,0-0.9-0.9c0-1.2-0.1-2.3-0.1-3.5
	C378.4,47.1,378.5,46.9,378.1,46.7z"/>
<path class="st1" d="M523,29.2v20.9c0,0.3,0,0.6,0,0.8c0.1,0.6-0.3,0.8-0.9,0.8c-1.9,0-3.8,0-5.6,0c-0.8,0-0.8,0-0.8-0.9
	c0-2.4,0-4.7,0-7.1V33.4c0-0.3,0-0.6,0-0.8c0-0.5-0.2-0.8-0.7-0.7h-20.8c-1.2,0-1.2,0-1.2,1.2v17c0,0.3,0,0.6,0,0.8
	c0,0.6-0.2,0.9-0.8,0.9c-1.9,0-3.8,0-5.6,0c-0.5,0-0.8-0.2-0.7-0.7c0-0.3,0-0.6,0-0.8v-42c0-1.7-0.1-1.5,1.5-1.5h4.4
	c1.3,0,1.3,0,1.3,1.3v13.4c0,1.1,0,2.2,0,3.2c0,0.5,0.2,0.8,0.8,0.8c0.3,0,0.6,0,0.8,0h19.6c0.2,0,0.5,0,0.7,0
	c0.6,0,0.8-0.3,0.8-0.8c0-0.3,0-0.6,0-0.8V7.1c0-0.4,0.2-0.6,0.6-0.6h6.2c0.3,0,0.5,0.2,0.5,0.5s0,0.6,0,1L523,29.2z"/>
<path class="st1" d="M473.8,17.1c-0.6-0.2-1-0.7-1.4-1c-2.7-1.8-5.9-3-9.1-3.3c-1.9-0.2-3.8-0.1-5.7,0.3c-1.5,0.3-2.8,1.1-3.7,2.3
	c-1.5,2-1.9,6.2,1.7,8c2,0.9,4.1,1.7,6.3,2.1c3.1,0.7,6.1,1.6,9,2.6c1.4,0.5,2.7,1.3,3.9,2.1c2,1.4,3.3,3.5,3.8,5.9
	c0.7,2.8,0.4,5.7-0.8,8.3c-1.3,2.9-3.7,5.1-6.7,6.1c-2.1,0.8-4.2,1.3-6.4,1.4c-7,0.6-14-1.2-19.8-5.2l-0.4-0.3
	c-0.8-0.6-0.8-0.6-0.3-1.5c0.8-1.5,1.5-2.9,2.3-4.4c0.4-0.8,0.5-0.8,1.2-0.3c3.2,2.5,7,4.1,11,4.8c2.7,0.6,5.4,0.5,8.1-0.2
	c1.6-0.3,3-1.3,3.8-2.7c1.3-2.4,0.6-5.4-1.7-6.9c-1.3-0.9-2.8-1.6-4.4-2c-2.6-0.8-5.2-1.4-7.7-2.2c-2.2-0.6-4.3-1.4-6.2-2.5
	c-3.2-1.7-5.2-5.1-5.1-8.7c-0.2-3.8,1.4-7.5,4.2-10.1c2.2-2,5-3.2,8-3.6c6.5-1.1,13.1,0.3,18.5,4l0.6,0.4c0.3,0.1,0.4,0.4,0.3,0.7
	c0,0,0,0.1-0.1,0.1C475.8,13.5,474.8,15.3,473.8,17.1z"/>
<path class="st1" d="M259.8,29V7.9c0-1.4-0.1-1.3,1.3-1.3h28.4c0.5,0,0.7,0.1,0.7,0.7c0,1.6,0,3.3,0,4.9c0,0.4-0.2,0.7-0.6,0.7
	h-21.7c-0.9,0-0.9,0-0.9,0.9c0,3.7,0,7.4,0,11.2c0,0.6,0.2,0.9,0.8,0.9h18.7c0.3,0,0.6,0.1,0.6,0.4c0,0,0,0.1,0,0.2V31
	c0,0.3-0.2,0.5-0.5,0.6c0,0-0.1,0-0.1,0H268c-1,0-1.1,0-1.1,1.1c0,3.9,0,7.8,0,11.6c0,1.1,0,1.1,1.2,1.1h21.1c1.7,0,1.5-0.2,1.5,1.6
	c0,1.3,0,2.6,0,3.8c0,0.8,0,0.8-0.9,0.9h-29c-1,0-1,0-1-1.1C259.8,43.4,259.8,36.2,259.8,29z"/>
<path class="st1" d="M139.5,6.6h18.1c0.4,0,0.6,0.2,0.6,0.7c0,2.1,0,4.2,0,6.4c0,0.8-0.5,0.7-1,0.7h-8.6c-1.3,0-2.6,0-4,0
	c-0.6,0-0.9,0.2-0.8,0.8c0,0.3,0,0.6,0,0.8v34.3c0,1.6,0.1,1.5-1.4,1.5h-6.1c-1.3,0-1.3,0-1.3-1.3v-35c0-1,0-1.1-1.1-1.1h-11.9
	c-0.2,0-0.5,0-0.7,0c-0.5,0-0.7-0.2-0.7-0.7c0-2.1,0-4.2,0-6.4c0-0.5,0.2-0.7,0.6-0.7L139.5,6.6L139.5,6.6z"/>
<path class="st1" d="M229.8,45.9c0.2-0.6,0.2-1.2,0.2-1.9V8c0-1.7-0.1-1.4,1.5-1.5h1.7v45.1c-0.8,0.1-1.7,0.1-2.5,0.1
	c-0.5,0-0.7-0.4-1-0.7c-2.3-2.9-4.6-5.7-6.9-8.6L200.1,14c-0.3-0.3-0.4-0.7-0.9-0.9c-0.1,0.4-0.1,0.9-0.1,1.3c0,12,0,23.9,0,35.9
	c0,1.6,0.2,1.5-1.5,1.5c-1.8,0-1.8,0-1.8-1.8c0-13.9,0-27.9,0-41.9c0-1.6-0.1-1.4,1.5-1.5c0.7,0,1.4,0.3,1.8,0.9
	c9.9,12.5,19.9,25,29.8,37.4C229.1,45.2,229.4,45.5,229.8,45.9z"/>
<path class="st1" d="M392.6,29.1V8.3c0-0.3,0-0.6,0-1c0-0.5,0.2-0.7,0.7-0.7c1.9,0,3.8,0,5.8,0c0.5,0,0.8,0.2,0.7,0.7
	c0,0.3,0,0.6,0,1V44c0,1.5,0,1.5,1.4,1.5h22.2c0.3-0.1,0.5,0.1,0.6,0.4c0,0.1,0,0.1,0,0.2v5.1c0,0.4-0.3,0.5-0.6,0.5h-29.5
	c-0.2,0-0.3,0-0.5,0c-0.5,0-0.8-0.2-0.8-0.8c0-0.3,0-0.6,0-1V29.1z"/>
<path class="st1" d="M79.1,62.2h77.7c1.6,0,1.5-0.3,1.5,1.5v0.4c0,1,0,1-1.1,1H1.6c-1.8,0-1.6,0.3-1.6-1.6c0-1.5-0.1-1.3,1.3-1.3
	L79.1,62.2L79.1,62.2z"/>
<path class="st1" d="M436.9,29.3v20.9c0,0.3,0,0.6,0,1c0,0.5-0.2,0.6-0.7,0.6c-1.9,0-3.8,0-5.8,0c-0.6,0-0.8-0.2-0.8-0.8
	c0-0.2,0-0.5,0-0.7V8.1c0-1.6-0.1-1.5,1.5-1.5h4.8c0.9,0,0.9,0,0.9,1c0,0.3,0,0.6,0,0.8L436.9,29.3z"/>
<path class="st1" d="M514.5,91.8h-5.4c-1.1,0-1.1,0-1.1-1.1c0-0.8,0-1.5,0-2.3c0-1.1,0-1.1,1-1.1h7.7c0.3,0,0.6,0,0.8,0
	c0.5,0,0.8-0.2,0.8-0.8c0-0.8-0.1-0.9-0.9-0.9c-1.9,0-3.8,0-5.8,0c-0.7,0-1.4-0.1-2-0.3c-0.9-0.2-1.5-1-1.5-1.9c0-1.7,0-3.4,0-5.2
	c0-1,0.6-1.8,1.5-2.1c0.7-0.3,1.4-0.4,2.1-0.4c3.2,0,6.4,0,9.6,0c0.9,0,0.9,0,0.9,1s0,1.6,0,2.4c0,1,0,1-1,1H514
	c-0.8,0-0.9,0.1-0.9,0.9c0,0.6,0.2,0.8,0.8,0.8c1.9,0,3.8,0,5.6,0c0.6,0,1.3,0,1.9,0.2c1.1,0.2,1.8,1.2,1.8,2.3c0.1,1.7,0.1,3.4,0,5
	c0,1-0.7,1.9-1.7,2.2c-0.6,0.2-1.2,0.3-1.9,0.3C517.9,91.8,516.2,91.8,514.5,91.8L514.5,91.8z"/>
<path class="st1" d="M490.7,82.4c0-1.9,0-3.8,0-5.8c0-1,0-1,0.9-1c1.1,0,2.2,0,3.3,0c0.9,0,0.9,0,0.9,0.9c0,3,0,6.1,0,9.1
	c0,1.8-0.1,1.6,1.6,1.6h2.6c1.1,0,1.1,0,1.1-1.2v-9.8c0-0.3,0.1-0.5,0.4-0.6c0.1,0,0.1,0,0.2,0c1.3,0,2.7,0,4,0
	c0.3,0,0.5,0.2,0.6,0.4c0,0,0,0.1,0,0.1v0.9c0,3.4,0,6.9,0,10.3c0,0.5,0,1-0.1,1.4c-0.1,1.7-1.4,3-3.1,2.9c-3.1,0.1-6.2,0.1-9.4,0
	c-1.5,0-2.8-1.2-3-2.7c-0.1-1.1-0.2-2.2-0.1-3.2C490.7,84.6,490.7,83.5,490.7,82.4z"/>
<path class="st1" d="M375.2,83.6c0-2.4,0-4.7,0-7.1c0-0.9,0-0.9,0.9-0.9c3.9,0,7.8,0,11.8,0c0.6,0,0.9,0.2,0.8,0.8
	c0,0.9,0,1.8,0,2.6s0,0.9-0.9,0.9c-1.8,0-3.7,0-5.5,0h-1.1c-0.6,0-1,0.5-1,1c0,0.1,0,0.3,0.1,0.4c0.1,0.3,0.4,0.3,0.6,0.3h2.5
	c1.4,0,2.9,0,4.3,0c0.6,0,0.9,0.1,0.9,0.8s0,1.4,0,2.2s-0.2,0.8-0.8,0.8c-2.2,0-4.4,0-6.6,0c-0.9,0-0.9,0.1-0.9,1
	c0,0.7,0.4,0.8,0.9,0.8c2.1,0,4.2,0,6.4,0c1.1,0,1.1,0,1.1,1.1c0,0.8,0,1.5,0,2.3c0,1.1,0,1.1-1,1.1h-11.2c-1.2,0-1.2,0-1.2-1.2
	C375.2,88.3,375.2,86,375.2,83.6z"/>
<path class="st1" d="M422.5,83.8c0,2.3,0,4.6,0,7c0,1,0,1-1,1s-2.2,0-3.2,0c-0.6,0-0.8-0.3-0.8-0.9c0-1.4,0-2.9,0-4.3
	c0-1.3,0-1.3-1.2-1.3s-2.3,0-3.5,0c-0.6,0-0.8,0.3-0.8,0.9c0,1.6,0,3.1,0,4.7c0,0.9,0,0.9-0.9,1h-3.2c-1,0-1,0-1-1
	c0-2.7,0-5.4,0-8.1c0-2,0-4,0-6c0-0.9,0-0.9,1-0.9c1.1,0,2.2,0,3.4,0c0.8,0,0.9,0,0.9,0.9c0,1.4,0,2.7,0,4.1c0,1,0,1,1,1
	c1.2,0,2.4,0,3.6,0c0.8,0,0.9-0.1,0.9-0.9c0-1.4,0-2.7,0-4.1c0-1,0-1,1-1h3.1c0.9,0,1,0,1,1C422.5,79,422.5,81.4,422.5,83.8z"/>
<path class="st1" d="M366.7,80h-6c-0.4,0-0.9,0-1.3,0c-0.6,0-0.8-0.3-0.8-0.8c0-0.9,0-1.8,0-2.6s0-0.9,1-0.9h8.8c1.4,0,2.8,0,4.2,0
	c0.6,0,0.9,0.2,0.8,0.8c0,0.8,0,1.7,0,2.5c0.1,0.6-0.2,1.3-0.7,1.7c-1.7,1.5-3.4,3-5.1,4.5c-0.7,0.6-1.3,1.2-2.1,2
	c0.7,0,1.1,0.1,1.4,0.1c1.9,0,3.8,0,5.6,0c0.8,0,0.9,0.1,0.9,0.9s0,1.9,0,2.9c0,0.6-0.2,0.8-0.8,0.8c-0.7,0-1.4,0-2.2,0h-10.8
	c-1.3,0-1.3,0-1.3-1.3c0-3,0-3,2.5-5.1c1.8-1.5,3.5-3,5.2-4.6C366.4,80.6,366.7,80.3,366.7,80z"/>
<path class="st1" d="M399.1,75.7c1.6,0,3.3,0,4.9,0c1,0,1,0,1,0.9s0,1.7,0,2.5s0,0.9-1,0.9h-7.9c-0.3,0-0.5,0.2-0.6,0.5
	c0,0,0,0.1,0,0.1v6c0,0.6,0.5,0.6,0.9,0.6h6.1c0.6,0,1.1,0,1.7,0s0.8,0.2,0.8,0.8c0,1,0,2,0,3c0,0.5-0.2,0.7-0.7,0.7
	c-3.4,0-6.8,0-10.2,0c-2,0.1-3.6-1.5-3.7-3.4c0-0.1,0-0.2,0-0.3c-0.1-2.8-0.1-5.7,0-8.5c0.1-2.4,1.6-3.8,4-3.8
	C396,75.7,397.6,75.7,399.1,75.7z"/>
<path class="st1" d="M351.1,75.7c1.7,0,3.4,0,5,0c0.6,0,0.8,0.2,0.8,0.8c0,0.9,0,1.8,0,2.6s0,0.9-0.9,0.9c-2.2,0-4.4,0-6.6,0
	c-2.4,0-2.1-0.3-2.1,2.1v4c0,1.1,0,1.2,1.2,1.2h7.2c1.1,0,1.1,0,1.2,1.2c0,0.8,0,1.6,0,2.4s0,0.9-0.9,0.9h-9.4
	c-0.6,0-1.2-0.1-1.8-0.2c-1.5-0.4-2.5-1.7-2.6-3.3c-0.1-3-0.1-6.1,0-9.1c0-2,1.7-3.6,3.7-3.5c0,0,0.1,0,0.1,0
	C347.9,75.6,349.5,75.7,351.1,75.7z"/>
<path class="st1" d="M184,29.2v21.2c0,1.4,0.1,1.3-1.3,1.3c-2,0-2,0-2-1.9V8c0-0.2,0-0.4,0-0.6c0-0.5,0.1-0.8,0.7-0.8s1.3,0,1.9,0
	c0.4,0,0.6,0.1,0.6,0.6s0,0.6,0,0.8L184,29.2z"/>
<path class="st1" d="M232.6,77.1l-2.2,5.2l-3.5,8.2c-0.4,0.9-1.4,1.4-2.3,1c-0.3-0.1-0.4-0.5-0.5-0.8c-0.6-1.4-1.1-2.7-1.7-4.1
	c-0.2-0.6-0.5-1.2-0.8-1.8c-0.5,0.9-1,1.9-1.3,2.9c-0.5,1-0.9,2-1.2,3.1c-0.3,0.8-0.8,0.7-1.4,0.7s-1,0-1.3-0.7
	c-1.8-4.3-3.6-8.6-5.5-12.9c-0.2-0.2-0.2-0.5-0.2-0.8c0.3-0.3,0.8-0.1,1.1-0.1c0.7-0.2,1.3,0.2,1.5,0.9c0,0,0,0.1,0,0.1
	c0.6,1.6,1.3,3.1,1.9,4.6l2.3,5.5c0,0.2,0.2,0.4,0.4,0.5c0.5-1,1-2,1.3-3.1c1-2.4,1-2.5,0-4.9c-0.4-0.9-0.8-1.8-1.1-2.8
	c-0.3-0.7-0.2-0.8,0.5-0.9c1.2-0.1,1.2,0,1.7,1.1c0.4,1.1,0.8,2.2,1.3,3.2c0.4-0.6,0.7-1.2,0.9-1.9c0.2-0.5,0.4-1,0.5-1.5
	c0.3-0.8,1.2-1.2,2-0.9c0,0,0,0,0,0c0.3,0.1,0.3,0.3,0.2,0.6c-0.3,1-0.7,2-1.2,3c-1,1.6-1,3.5,0,5.1c0.5,0.9,0.8,1.9,1.2,2.9
	c0.4-0.3,0.7-0.8,0.8-1.3c1.2-3,2.5-6,3.7-9c0.6-1.4,0.6-1.4,2.1-1.3C232,76.9,232.4,77,232.6,77.1z"/>
<path class="st1" d="M288,89.1c-0.6,0.7-1.2,1.2-1.9,1.7c-2.7,1.7-6.3,1.1-8.4-1.3c-2.5-3.1-2.5-7.5,0-10.6c2.1-2.6,5.9-2.9,8.4-0.8
	c0.1,0.1,0.1,0.1,0.2,0.2l1,1c0.4-0.1,0.3-0.5,0.3-0.7c0-2.1,0-4.2,0-6.4c0-0.9,0-0.9,0.9-0.9c1.8,0,1.6-0.2,1.6,1.6v14.9
	c-0.1,0.6,0.1,1.3,0.5,1.8c0.5,0.5,0.2,1.2,0.2,1.8c0,0.2-0.2,0.2-0.3,0.3c-0.9,0.4-2-0.1-2.4-1c-0.1-0.2-0.1-0.4-0.1-0.6
	C288.1,89.7,288.1,89.5,288,89.1z M287.7,84.5c0-0.4,0-0.7,0-1.1c0.1-1.3-0.5-2.6-1.6-3.3c-1.9-1.5-3.7-1.7-5.5-0.4
	c-2.5,1.9-2.9,5.5-1,7.9c0.5,0.6,1.1,1.1,1.8,1.5c2.2,1.1,4.8,0.2,5.8-2c0.3-0.5,0.4-1.1,0.4-1.8L287.7,84.5z"/>
<path class="st1" d="M303.7,79.6c0.5-0.5,0.8-0.8,1.1-1.1c2.3-2.4,6-2.5,8.4-0.2c0.4,0.4,0.7,0.8,1,1.3c1.8,2.5,1.9,5.9,0.4,8.5
	c-1.4,2.9-4.8,4.3-7.9,3.4c-1.2-0.5-2.3-1.3-3.1-2.4c-0.1,0.6-0.2,1.1-0.1,1.7c0,0.5-0.2,0.6-0.7,0.6h-0.6c-0.9,0-0.9,0-0.9-1
	c0-6.1,0-12.2,0-18.4c0-1,0-1,1-1h0.3c1.1,0,1.1,0,1.1,1c0,2,0,4.1,0,6.1V79.6z M303.7,84.5c-0.1,0.8,0,1.7,0.2,2.5
	c1.2,2.3,4,3.2,6.3,2.1c0,0,0,0,0,0c2.7-1.6,3.6-5.1,2-7.8c-0.3-0.5-0.6-0.9-1-1.2c-1.2-1.2-3-1.5-4.5-0.8c-1,0.5-1.8,1.2-2.4,2.1
	C303.5,82.3,303.7,83.4,303.7,84.5z"/>
<path class="st1" d="M179.4,81.7c0-2.9,0-5.8,0-8.8c0-1.1,0-1.1,1.1-1.1c2.3,0,4.6,0.1,7,0c3,0,5.6,2.3,6,5.3
	c0.4,2.7-0.8,5.4-3.2,6.7c-1.1,0.5-2.3,0.7-3.5,0.7c-1.2,0.1-2.5,0-3.7,0s-1.2,0-1.2,1.2c0,1.6,0,3.2,0,4.8c0,1-0.1,1-1,1h-0.5
	c-1,0-1,0-1-1.1c0-1.5,0-3,0-4.4L179.4,81.7z M181.8,78c0,1.1,0,2.2,0,3.2c0,0.9,0.1,1,0.9,1c1.6,0,3.2,0,4.8,0
	c1.1,0,2.1-0.6,2.7-1.5c0.7-1.1,0.9-2.5,0.6-3.8c-0.3-1.5-1.6-2.7-3.2-2.8c-1.7-0.1-3.4,0-5.1,0c-0.5,0-0.7,0.2-0.7,0.7
	C181.8,75.8,181.8,76.9,181.8,78z"/>
<path class="st1" d="M273.1,88.1c-0.6,1.3-1.6,2.4-3,2.9c-3.7,1.8-8.1,0.3-9.9-3.4c0-0.1-0.1-0.1-0.1-0.2c-1.4-3.1-0.6-6.7,1.9-9
	c2.6-2.2,6.3-2.4,9.1-0.5c2,1.4,3.2,3.8,3.1,6.3c0,0.6-0.3,0.7-0.8,0.7h-7.1c-1.1,0-2.2,0-3.4,0c-0.8,0-0.9,0.1-0.7,0.9
	c0.5,2.6,3,4.3,5.7,3.8c0.7-0.1,1.4-0.4,1.9-0.8c0.2-0.1,0.3-0.2,0.5-0.4c0.3-0.3,0.4-0.8,0.9-1c0.1,0,0.2,0,0.2,0
	C272,87.7,272.6,87.9,273.1,88.1z M266.9,83.3L266.9,83.3c1.4,0,2.8,0,4.2,0c0.7,0,0.8-0.1,0.6-0.8c-0.5-2.6-3.1-4.4-5.7-3.8
	c-1.9,0.4-3.5,1.9-3.8,3.8c-0.1,0.6,0,0.8,0.7,0.8C264.1,83.3,265.5,83.3,266.9,83.3z"/>
<path class="st1" d="M247.1,88.1c-0.9,2-2.9,3.4-5.1,3.6c-3.9,0.8-7.7-1.8-8.5-5.7c0,0,0,0,0-0.1c-0.7-3,0.5-6,2.9-7.9
	c2.6-1.9,6.1-1.9,8.7,0.1c2,1.4,3.1,3.8,2.9,6.3c0,0.8-0.5,0.7-1,0.7h-9.6c-1.4,0-1.8-0.1-1.1,1.6c0.9,2.5,3.6,3.8,6,2.9
	c0.9-0.3,1.6-0.9,2.2-1.6c0.3-0.4,0.6-0.6,1.1-0.4S246.5,87.9,247.1,88.1z M240.7,83.4h4c1,0,1.1-0.2,0.8-1.1
	c-0.7-2.6-3.4-4.1-6-3.4c-1.7,0.5-3,1.8-3.4,3.5c-0.2,0.8,0,1,0.8,1L240.7,83.4z"/>
<path class="st1" d="M195,84.2c0-4,3.3-7.3,7.4-7.3c4,0,7.3,3.3,7.3,7.4l0,0c0,4.1-3.3,7.5-7.4,7.5c-4.1,0-7.3-3.4-7.3-7.4
	C195,84.3,195,84.3,195,84.2z M207,84.2c0.1-1-0.2-2-0.7-2.9c-1.8-2.9-5.2-3.2-7.3-0.9c-1.7,2-1.9,4.8-0.6,7c1.2,2.1,4,2.8,6.1,1.6
	c0.1-0.1,0.2-0.1,0.3-0.2C206.3,87.8,207.1,86,207,84.2L207,84.2z"/>
<path class="st1" d="M324,88.8c1.1-3,2.2-6,3.3-8.9c0.3-0.7,0.5-1.4,0.8-2.1c0.1-0.5,0.6-0.9,1.1-0.8c0.5,0,0.9,0,1.4,0.1
	c0.1,0.4-0.1,0.7-0.2,0.9c-2.2,5.7-4.3,11.3-6.5,17c-0.5,1.8-2.3,3-4.1,2.8c-0.9,0-1-0.1-1.1-1c0-0.2,0-0.5,0-0.7s0.2-0.6,0.6-0.6
	c1.4,0.3,1.9-0.6,2.4-1.7c0.9-2.2,1-2.2,0-4.4c-1.6-3.8-3.2-7.5-4.8-11.3c-0.1-0.1-0.1-0.3-0.2-0.4c-0.2-0.6-0.2-0.7,0.4-0.7
	c2.1,0,1.8-0.3,2.5,1.6c1.3,3.2,2.5,6.3,3.8,9.5C323.5,88.3,323.5,88.6,324,88.8z"/>
<path class="st1" d="M253,79.6c0.7-0.7,1.6-1.4,2.4-2c0.3-0.2,0.7-0.4,1.1-0.5c0.6-0.2,1.4-0.4,1.7,0s0.1,1.2,0.1,1.8
	c0,0.4-0.4,0.4-0.6,0.4c-1,0.1-2,0.5-2.8,1.1c-1.1,0.7-1.7,1.9-1.7,3.2c0.1,2.3,0,4.6,0,7c0,1,0,1-1,1h-0.4c-1.2,0-1.2,0-1.2-1.2
	V78.1c0-1.2,0-1.2,1.2-1.1h0.5c0.5,0,0.7,0.2,0.7,0.6C253,78.3,253,78.9,253,79.6z"/>
<path class="st1" d="M419.6,71.6c0.3-0.6,0.8-1.1,1.4-1.4l0,0C420.8,70.8,420.2,71.3,419.6,71.6z"/>
<path class="st1" d="M419.4,72.1l0.2-0.5l0,0L419.4,72.1z"/>
<path class="st1" d="M421.3,69.9c0.1-0.2,0.3-0.2,0.5-0.2l0,0C421.7,69.9,421.5,69.9,421.3,69.9L421.3,69.9z"/>
<path class="st1" d="M491.4,92.7l-0.1-0.2C491.4,92.6,491.2,92.7,491.4,92.7L491.4,92.7z"/>
<path class="st1" d="M421.3,69.9l-0.2,0.3l0,0L421.3,69.9L421.3,69.9z"/>
<polygon class="st1" points="419.4,72.1 419.3,72.1 419.4,72.1 "/>
</svg>
