<svg id="Vrstva_1" data-name="Vrstva 1" xmlns="http://www.w3.org/2000/svg" viewBox="0 0 595.28 595.28"><defs><style>.cls-1{fill:#565656;}</style></defs><title>pattern-bie</title><path class="cls-1" d="M2.74,577.58v-4.29l15-15H22l15,15v4.29l-15,15H17.69Zm79.37,0v-4.29l15-15h4.3l15,15v4.29l-15,15h-4.3Zm39.68,0v-4.29l15-15H141l15,15v4.29l-15,15h-4.29Zm79.37,0v-4.29l15-15h4.29l15,15v4.29l-15,15h-4.29Zm39.68,0v-4.29l15-15h4.29l15,15v4.29l-15,15H255.8Zm79.37,0v-4.29l15-15h4.29l15,15v4.29l-15,15h-4.29Zm39.68,0v-4.29l15-15h4.29l15,15v4.29l-15,15h-4.29Zm79.37,0v-4.29l15-15h4.29l15,15v4.29l-15,15h-4.29Zm39.68,0v-4.29l15-15h4.29l15,15v4.29l-15,15h-4.29Zm79.37,0v-4.29l15-15h4.29l15,15v4.29l-15,15h-4.29Zm-515.91,0v-4.29l15-15h4.29l15,15v4.29l-15,15H57.38Zm119.06,0v-4.29l15-15h4.29l15,15v4.29l-15,15h-4.29Zm119.05,0v-4.29l15-15h4.29l15,15v4.29l-15,15h-4.29Zm119.05,0v-4.29l15-15h4.3l15,15v4.29l-15,15h-4.3Zm119.06,0v-4.29l15-15h4.29l15,15v4.29l-15,15H533.6ZM22.59,557.74v-4.29l15-15h4.29l15,15v4.29l-15,15H37.54Zm39.68,0v-4.29l15-15h4.29l15,15v4.29l-15,15H77.22Zm39.68,0v-4.29l15-15h4.29l15,15v4.29l-15,15h-4.29Zm39.69,0v-4.29l15-15h4.29l15,15v4.29l-15,15h-4.29Zm39.68,0v-4.29l15-15h4.29l15,15v4.29l-15,15h-4.29Zm39.69,0v-4.29l15-15h4.29l15,15v4.29l-15,15H236Zm39.68,0v-4.29l15-15h4.29l15,15v4.29l-15,15h-4.29Zm39.68,0v-4.29l15-15h4.29l15,15v4.29l-15,15h-4.29Zm39.68,0v-4.29l15-15h4.29l15,15v4.29l-15,15H355Zm39.69,0v-4.29l15-15H399l15,15v4.29l-15,15H394.7Zm39.68,0v-4.29l15-15h4.29l15,15v4.29l-15,15h-4.29Zm39.68,0v-4.29l15-15h4.29l15,15v4.29l-15,15h-4.29Zm39.69,0v-4.29l15-15h4.29l15,15v4.29l-15,15h-4.29Zm39.68,0v-4.29l15-15h4.29l15,15v4.29l-15,15h-4.29ZM2.74,537.89V533.6l15-15H22l15,15v4.29l-15,15H17.69Zm39.68,0V533.6l15-15h4.29l15,15v4.29l-15,15H57.38Zm39.68,0V533.6l15-15h4.29l15,15v4.29l-15,15H97.07Zm39.68,0V533.6l15-15H141l15,15v4.29l-15,15h-4.29Zm39.69,0V533.6l15-15h4.29l15,15v4.29l-15,15h-4.29Zm39.68,0V533.6l15-15h4.3l15,15v4.29l-15,15h-4.3Zm39.68,0V533.6l15-15h4.29l15,15v4.29l-15,15h-4.29Zm39.68,0V533.6l15-15h4.29l15,15v4.29l-15,15h-4.29Zm39.68,0V533.6l15-15h4.29l15,15v4.29l-15,15h-4.29Zm39.68,0V533.6l15-15h4.29l15,15v4.29l-15,15h-4.29Zm39.68,0V533.6l15-15h4.3l15,15v4.29l-15,15h-4.3Zm39.69,0V533.6l15-15h4.29l15,15v4.29l-15,15h-4.29Zm39.68,0V533.6l15-15h4.29l15,15v4.29l-15,15h-4.29Zm39.69,0V533.6l15-15h4.29l15,15v4.29l-15,15H533.6Zm39.68,0V533.6l15-15h4.29l15,15v4.29l-15,15h-4.29ZM22.59,518.05v-4.29l15-15h4.29l15,15v4.29l-15,15H37.54Zm39.68,0v-4.29l15-15h4.29l15,15v4.29l-15,15H77.22Zm79.37,0v-4.29l15-15h4.29l15,15v4.29l-15,15h-4.29Zm39.68,0v-4.29l15-15h4.29l15,15v4.29l-15,15h-4.29Zm79.37,0v-4.29l15-15h4.29l15,15v4.29l-15,15h-4.29Zm39.68,0v-4.29l15-15h4.29l15,15v4.29l-15,15h-4.29Zm79.37,0v-4.29l15-15H399l15,15v4.29l-15,15H394.7Zm39.68,0v-4.29l15-15h4.29l15,15v4.29l-15,15h-4.29Zm79.37,0v-4.29l15-15h4.29l15,15v4.29l-15,15h-4.29Zm39.68,0v-4.29l15-15h4.29l15,15v4.29l-15,15h-4.29Zm-436.53,0v-4.29l15-15h4.29l15,15v4.29l-15,15h-4.29Zm119.06,0v-4.29l15-15h4.29l15,15v4.29l-15,15H236Zm119.05,0v-4.29l15-15h4.29l15,15v4.29l-15,15H355Zm119.05,0v-4.29l15-15h4.29l15,15v4.29l-15,15h-4.29ZM2.74,498.21v-4.29l15-15H22l15,15v4.29l-15,15H17.69Zm39.68,0v-4.29l15-15h4.29l15,15v4.29l-15,15H57.38Zm39.69,0v-4.29l15-15h4.3l15,15v4.29l-15,15h-4.3Zm39.68,0v-4.29l15-15H141l15,15v4.29l-15,15h-4.29Zm39.69,0v-4.29l15-15h4.29l15,15v4.29l-15,15h-4.29Zm39.68,0v-4.29l15-15h4.29l15,15v4.29l-15,15h-4.29Zm39.68,0v-4.29l15-15h4.29l15,15v4.29l-15,15H255.8Zm39.68,0v-4.29l15-15h4.29l15,15v4.29l-15,15h-4.29Zm39.69,0v-4.29l15-15h4.29l15,15v4.29l-15,15h-4.29Zm39.68,0v-4.29l15-15h4.29l15,15v4.29l-15,15h-4.29Zm39.68,0v-4.29l15-15h4.3l15,15v4.29l-15,15h-4.3Zm39.69,0v-4.29l15-15h4.29l15,15v4.29l-15,15h-4.29Zm39.68,0v-4.29l15-15h4.29l15,15v4.29l-15,15h-4.29Zm39.69,0v-4.29l15-15h4.29l15,15v4.29l-15,15H533.6Zm39.68,0v-4.29l15-15h4.29l15,15v4.29l-15,15h-4.29ZM22.59,478.37v-4.29l15-15h4.3l15,15v4.29l-15,15h-4.3Zm39.68,0v-4.29l15-15h4.29l15,15v4.29l-15,15H77.22Zm39.68,0v-4.29l15-15h4.29l15,15v4.29l-15,15h-4.29Zm39.69,0v-4.29l15-15h4.29l15,15v4.29l-15,15h-4.29Zm39.68,0v-4.29l15-15h4.29l15,15v4.29l-15,15h-4.29Zm39.69,0v-4.29l15-15h4.29l15,15v4.29l-15,15H236Zm39.68,0v-4.29l15-15h4.29l15,15v4.29l-15,15h-4.29Zm39.68,0v-4.29l15-15h4.29l15,15v4.29l-15,15h-4.29Zm39.68,0v-4.29l15-15h4.29l15,15v4.29l-15,15H355Zm39.69,0v-4.29l15-15H399l15,15v4.29l-15,15H394.7Zm39.68,0v-4.29l15-15h4.29l15,15v4.29l-15,15h-4.29Zm39.68,0v-4.29l15-15h4.29l15,15v4.29l-15,15h-4.29Zm39.69,0v-4.29l15-15h4.29l15,15v4.29l-15,15h-4.29Zm39.68,0v-4.29l15-15h4.29l15,15v4.29l-15,15h-4.29ZM2.74,458.53v-4.29l15-15H22l15,15v4.29l-15,15H17.69Zm79.37,0v-4.29l15-15h4.3l15,15v4.29l-15,15h-4.3Zm39.68,0v-4.29l15-15H141l15,15v4.29l-15,15h-4.29Zm79.37,0v-4.29l15-15h4.29l15,15v4.29l-15,15h-4.29Zm39.68,0v-4.29l15-15h4.29l15,15v4.29l-15,15H255.8Zm79.37,0v-4.29l15-15h4.29l15,15v4.29l-15,15h-4.29Zm39.68,0v-4.29l15-15h4.29l15,15v4.29l-15,15h-4.29Zm79.37,0v-4.29l15-15h4.29l15,15v4.29l-15,15h-4.29Zm39.68,0v-4.29l15-15h4.29l15,15v4.29l-15,15h-4.29Zm79.37,0v-4.29l15-15h4.29l15,15v4.29l-15,15h-4.29Zm-515.91,0v-4.29l15-15h4.29l15,15v4.29l-15,15H57.38Zm119.06,0v-4.29l15-15h4.29l15,15v4.29l-15,15h-4.29Zm119.05,0v-4.29l15-15h4.29l15,15v4.29l-15,15h-4.29Zm119.05,0v-4.29l15-15h4.3l15,15v4.29l-15,15h-4.3Zm119.06,0v-4.29l15-15h4.29l15,15v4.29l-15,15H533.6ZM22.59,438.68v-4.29l15-15h4.29l15,15v4.29l-15,15H37.54Zm39.68,0v-4.29l15-15h4.29l15,15v4.29l-15,15H77.22Zm39.68,0v-4.29l15-15h4.29l15,15v4.29l-15,15h-4.29Zm39.69,0v-4.29l15-15h4.29l15,15v4.29l-15,15h-4.29Zm39.68,0v-4.29l15-15h4.29l15,15v4.29l-15,15h-4.29Zm39.69,0v-4.29l15-15h4.29l15,15v4.29l-15,15H236Zm39.68,0v-4.29l15-15h4.29l15,15v4.29l-15,15h-4.29Zm39.68,0v-4.29l15-15h4.29l15,15v4.29l-15,15h-4.29Zm39.68,0v-4.29l15-15h4.29l15,15v4.29l-15,15H355Zm39.69,0v-4.29l15-15H399l15,15v4.29l-15,15H394.7Zm39.68,0v-4.29l15-15h4.29l15,15v4.29l-15,15h-4.29Zm39.68,0v-4.29l15-15h4.29l15,15v4.29l-15,15h-4.29Zm39.69,0v-4.29l15-15h4.29l15,15v4.29l-15,15h-4.29Zm39.68,0v-4.29l15-15h4.29l15,15v4.29l-15,15h-4.29ZM2.74,418.84v-4.29l15-15H22l15,15v4.29l-15,15H17.69Zm39.68,0v-4.29l15-15h4.29l15,15v4.29l-15,15H57.38Zm39.68,0v-4.29l15-15h4.29l15,15v4.29l-15,15H97.07Zm39.68,0v-4.29l15-15H141l15,15v4.29l-15,15h-4.29Zm39.69,0v-4.29l15-15h4.29l15,15v4.29l-15,15h-4.29Zm39.68,0v-4.29l15-15h4.3l15,15v4.29l-15,15h-4.3Zm39.68,0v-4.29l15-15h4.29l15,15v4.29l-15,15h-4.29Zm39.68,0v-4.29l15-15h4.29l15,15v4.29l-15,15h-4.29Zm39.68,0v-4.29l15-15h4.29l15,15v4.29l-15,15h-4.29Zm39.68,0v-4.29l15-15h4.29l15,15v4.29l-15,15h-4.29Zm39.68,0v-4.29l15-15h4.3l15,15v4.29l-15,15h-4.3Zm39.69,0v-4.29l15-15h4.29l15,15v4.29l-15,15h-4.29Zm39.68,0v-4.29l15-15h4.29l15,15v4.29l-15,15h-4.29Zm39.69,0v-4.29l15-15h4.29l15,15v4.29l-15,15H533.6Zm39.68,0v-4.29l15-15h4.29l15,15v4.29l-15,15h-4.29ZM22.59,399V394.7l15-15h4.29l15,15V399l-15,15H37.54Zm39.68,0V394.7l15-15h4.29l15,15V399l-15,15H77.22ZM102,399V394.7l15-15h4.29l15,15V399l-15,15h-4.29Zm39.69,0V394.7l15-15h4.29l15,15V399l-15,15h-4.29Zm39.68,0V394.7l15-15h4.29l15,15V399l-15,15h-4.29ZM221,399V394.7l15-15h4.29l15,15V399l-15,15H236Zm39.68,0V394.7l15-15h4.29l15,15V399l-15,15h-4.29Zm39.68,0V394.7l15-15h4.29l15,15V399l-15,15h-4.29Zm39.68,0V394.7l15-15h4.29l15,15V399l-15,15H355Zm39.69,0V394.7l15-15H399l15,15V399l-15,15H394.7Zm39.68,0V394.7l15-15h4.29l15,15V399l-15,15h-4.29Zm39.68,0V394.7l15-15h4.29l15,15V399l-15,15h-4.29Zm39.69,0V394.7l15-15h4.29l15,15V399l-15,15h-4.29Zm39.68,0V394.7l15-15h4.29l15,15V399l-15,15h-4.29ZM2.74,379.15v-4.29l15-15H22l15,15v4.29l-15,15H17.69Zm39.68,0v-4.29l15-15h4.29l15,15v4.29l-15,15H57.38Zm39.69,0v-4.29l15-15h4.3l15,15v4.29l-15,15h-4.3Zm39.68,0v-4.29l15-15H141l15,15v4.29l-15,15h-4.29Zm39.69,0v-4.29l15-15h4.29l15,15v4.29l-15,15h-4.29Zm39.68,0v-4.29l15-15h4.29l15,15v4.29l-15,15h-4.29Zm39.68,0v-4.29l15-15h4.29l15,15v4.29l-15,15H255.8Zm39.68,0v-4.29l15-15h4.29l15,15v4.29l-15,15h-4.29Zm39.69,0v-4.29l15-15h4.29l15,15v4.29l-15,15h-4.29Zm39.68,0v-4.29l15-15h4.29l15,15v4.29l-15,15h-4.29Zm39.68,0v-4.29l15-15h4.3l15,15v4.29l-15,15h-4.3Zm39.69,0v-4.29l15-15h4.29l15,15v4.29l-15,15h-4.29Zm39.68,0v-4.29l15-15h4.29l15,15v4.29l-15,15h-4.29Zm39.69,0v-4.29l15-15h4.29l15,15v4.29l-15,15H533.6Zm39.68,0v-4.29l15-15h4.29l15,15v4.29l-15,15h-4.29ZM22.59,359.31V355l15-15h4.3l15,15v4.29l-15,15h-4.3Zm39.68,0V355l15-15h4.29l15,15v4.29l-15,15H77.22Zm39.68,0V355l15-15h4.29l15,15v4.29l-15,15h-4.29Zm39.69,0V355l15-15h4.29l15,15v4.29l-15,15h-4.29Zm39.68,0V355l15-15h4.29l15,15v4.29l-15,15h-4.29Zm39.69,0V355l15-15h4.29l15,15v4.29l-15,15H236Zm39.68,0V355l15-15h4.29l15,15v4.29l-15,15h-4.29Zm39.68,0V355l15-15h4.29l15,15v4.29l-15,15h-4.29Zm39.68,0V355l15-15h4.29l15,15v4.29l-15,15H355Zm39.69,0V355l15-15H399l15,15v4.29l-15,15H394.7Zm39.68,0V355l15-15h4.29l15,15v4.29l-15,15h-4.29Zm39.68,0V355l15-15h4.29l15,15v4.29l-15,15h-4.29Zm39.69,0V355l15-15h4.29l15,15v4.29l-15,15h-4.29Zm39.68,0V355l15-15h4.29l15,15v4.29l-15,15h-4.29ZM2.74,339.47v-4.29l15-15H22l15,15v4.29l-15,15H17.69Zm79.37,0v-4.29l15-15h4.3l15,15v4.29l-15,15h-4.3Zm39.68,0v-4.29l15-15H141l15,15v4.29l-15,15h-4.29Zm79.37,0v-4.29l15-15h4.29l15,15v4.29l-15,15h-4.29Zm39.68,0v-4.29l15-15h4.29l15,15v4.29l-15,15H255.8Zm79.37,0v-4.29l15-15h4.29l15,15v4.29l-15,15h-4.29Zm39.68,0v-4.29l15-15h4.29l15,15v4.29l-15,15h-4.29Zm79.37,0v-4.29l15-15h4.29l15,15v4.29l-15,15h-4.29Zm39.68,0v-4.29l15-15h4.29l15,15v4.29l-15,15h-4.29Zm79.37,0v-4.29l15-15h4.29l15,15v4.29l-15,15h-4.29Zm-515.91,0v-4.29l15-15h4.29l15,15v4.29l-15,15H57.38Zm119.06,0v-4.29l15-15h4.29l15,15v4.29l-15,15h-4.29Zm119.05,0v-4.29l15-15h4.29l15,15v4.29l-15,15h-4.29Zm119.05,0v-4.29l15-15h4.3l15,15v4.29l-15,15h-4.3Zm119.06,0v-4.29l15-15h4.29l15,15v4.29l-15,15H533.6ZM22.59,319.63v-4.29l15-15h4.29l15,15v4.29l-15,15H37.54Zm39.68,0v-4.29l15-15h4.29l15,15v4.29l-15,15H77.22Zm39.68,0v-4.29l15-15h4.29l15,15v4.29l-15,15h-4.29Zm39.69,0v-4.29l15-15h4.29l15,15v4.29l-15,15h-4.29Zm39.68,0v-4.29l15-15h4.29l15,15v4.29l-15,15h-4.29Zm39.69,0v-4.29l15-15h4.29l15,15v4.29l-15,15H236Zm39.68,0v-4.29l15-15h4.29l15,15v4.29l-15,15h-4.29Zm39.68,0v-4.29l15-15h4.29l15,15v4.29l-15,15h-4.29Zm39.68,0v-4.29l15-15h4.29l15,15v4.29l-15,15H355Zm39.69,0v-4.29l15-15H399l15,15v4.29l-15,15H394.7Zm39.68,0v-4.29l15-15h4.29l15,15v4.29l-15,15h-4.29Zm39.68,0v-4.29l15-15h4.29l15,15v4.29l-15,15h-4.29Zm39.69,0v-4.29l15-15h4.29l15,15v4.29l-15,15h-4.29Zm39.68,0v-4.29l15-15h4.29l15,15v4.29l-15,15h-4.29ZM2.74,299.78v-4.29l15-15H22l15,15v4.29l-15,15H17.69Zm39.68,0v-4.29l15-15h4.29l15,15v4.29l-15,15H57.38Zm39.68,0v-4.29l15-15h4.29l15,15v4.29l-15,15H97.07Zm39.68,0v-4.29l15-15H141l15,15v4.29l-15,15h-4.29Zm39.69,0v-4.29l15-15h4.29l15,15v4.29l-15,15h-4.29Zm39.68,0v-4.29l15-15h4.3l15,15v4.29l-15,15h-4.3Zm39.68,0v-4.29l15-15h4.29l15,15v4.29l-15,15h-4.29Zm39.68,0v-4.29l15-15h4.29l15,15v4.29l-15,15h-4.29Zm39.68,0v-4.29l15-15h4.29l15,15v4.29l-15,15h-4.29Zm39.68,0v-4.29l15-15h4.29l15,15v4.29l-15,15h-4.29Zm39.68,0v-4.29l15-15h4.3l15,15v4.29l-15,15h-4.3Zm39.69,0v-4.29l15-15h4.29l15,15v4.29l-15,15h-4.29Zm39.68,0v-4.29l15-15h4.29l15,15v4.29l-15,15h-4.29Zm39.69,0v-4.29l15-15h4.29l15,15v4.29l-15,15H533.6Zm39.68,0v-4.29l15-15h4.29l15,15v4.29l-15,15h-4.29ZM22.59,279.94v-4.29l15-15h4.29l15,15v4.29l-15,15H37.54Zm39.68,0v-4.29l15-15h4.29l15,15v4.29l-15,15H77.22Zm79.37,0v-4.29l15-15h4.29l15,15v4.29l-15,15h-4.29Zm39.68,0v-4.29l15-15h4.29l15,15v4.29l-15,15h-4.29Zm79.37,0v-4.29l15-15h4.29l15,15v4.29l-15,15h-4.29Zm39.68,0v-4.29l15-15h4.29l15,15v4.29l-15,15h-4.29Zm79.37,0v-4.29l15-15H399l15,15v4.29l-15,15H394.7Zm39.68,0v-4.29l15-15h4.29l15,15v4.29l-15,15h-4.29Zm79.37,0v-4.29l15-15h4.29l15,15v4.29l-15,15h-4.29Zm39.68,0v-4.29l15-15h4.29l15,15v4.29l-15,15h-4.29Zm-436.53,0v-4.29l15-15h4.29l15,15v4.29l-15,15h-4.29Zm119.06,0v-4.29l15-15h4.29l15,15v4.29l-15,15H236Zm119.05,0v-4.29l15-15h4.29l15,15v4.29l-15,15H355Zm119.05,0v-4.29l15-15h4.29l15,15v4.29l-15,15h-4.29ZM2.74,260.1V255.8l15-15H22l15,15v4.29l-15,15H17.69Zm39.68,0V255.8l15-15h4.29l15,15v4.29l-15,15H57.38Zm39.69,0V255.8l15-15h4.3l15,15v4.29l-15,15h-4.3Zm39.68,0V255.8l15-15H141l15,15v4.29l-15,15h-4.29Zm39.69,0V255.8l15-15h4.29l15,15v4.29l-15,15h-4.29Zm39.68,0V255.8l15-15h4.29l15,15v4.29l-15,15h-4.29Zm39.68,0V255.8l15-15h4.29l15,15v4.29l-15,15H255.8Zm39.68,0V255.8l15-15h4.29l15,15v4.29l-15,15h-4.29Zm39.69,0V255.8l15-15h4.29l15,15v4.29l-15,15h-4.29Zm39.68,0V255.8l15-15h4.29l15,15v4.29l-15,15h-4.29Zm39.68,0V255.8l15-15h4.3l15,15v4.29l-15,15h-4.3Zm39.69,0V255.8l15-15h4.29l15,15v4.29l-15,15h-4.29Zm39.68,0V255.8l15-15h4.29l15,15v4.29l-15,15h-4.29Zm39.69,0V255.8l15-15h4.29l15,15v4.29l-15,15H533.6Zm39.68,0V255.8l15-15h4.29l15,15v4.29l-15,15h-4.29ZM22.59,240.26V236l15-15h4.3l15,15v4.29l-15,15h-4.3Zm39.68,0V236l15-15h4.29l15,15v4.29l-15,15H77.22Zm39.68,0V236l15-15h4.29l15,15v4.29l-15,15h-4.29Zm39.69,0V236l15-15h4.29l15,15v4.29l-15,15h-4.29Zm39.68,0V236l15-15h4.29l15,15v4.29l-15,15h-4.29Zm39.69,0V236l15-15h4.29l15,15v4.29l-15,15H236Zm39.68,0V236l15-15h4.29l15,15v4.29l-15,15h-4.29Zm39.68,0V236l15-15h4.29l15,15v4.29l-15,15h-4.29Zm39.68,0V236l15-15h4.29l15,15v4.29l-15,15H355Zm39.69,0V236l15-15H399l15,15v4.29l-15,15H394.7Zm39.68,0V236l15-15h4.29l15,15v4.29l-15,15h-4.29Zm39.68,0V236l15-15h4.29l15,15v4.29l-15,15h-4.29Zm39.69,0V236l15-15h4.29l15,15v4.29l-15,15h-4.29Zm39.68,0V236l15-15h4.29l15,15v4.29l-15,15h-4.29ZM2.74,220.41v-4.29l15-15H22l15,15v4.29l-15,15H17.69Zm79.37,0v-4.29l15-15h4.3l15,15v4.29l-15,15h-4.3Zm39.68,0v-4.29l15-15H141l15,15v4.29l-15,15h-4.29Zm79.37,0v-4.29l15-15h4.29l15,15v4.29l-15,15h-4.29Zm39.68,0v-4.29l15-15h4.29l15,15v4.29l-15,15H255.8Zm79.37,0v-4.29l15-15h4.29l15,15v4.29l-15,15h-4.29Zm39.68,0v-4.29l15-15h4.29l15,15v4.29l-15,15h-4.29Zm79.37,0v-4.29l15-15h4.29l15,15v4.29l-15,15h-4.29Zm39.68,0v-4.29l15-15h4.29l15,15v4.29l-15,15h-4.29Zm79.37,0v-4.29l15-15h4.29l15,15v4.29l-15,15h-4.29Zm-515.91,0v-4.29l15-15h4.29l15,15v4.29l-15,15H57.38Zm119.06,0v-4.29l15-15h4.29l15,15v4.29l-15,15h-4.29Zm119.05,0v-4.29l15-15h4.29l15,15v4.29l-15,15h-4.29Zm119.05,0v-4.29l15-15h4.3l15,15v4.29l-15,15h-4.3Zm119.06,0v-4.29l15-15h4.29l15,15v4.29l-15,15H533.6ZM22.59,200.57v-4.29l15-15h4.29l15,15v4.29l-15,15H37.54Zm39.68,0v-4.29l15-15h4.29l15,15v4.29l-15,15H77.22Zm39.68,0v-4.29l15-15h4.29l15,15v4.29l-15,15h-4.29Zm39.69,0v-4.29l15-15h4.29l15,15v4.29l-15,15h-4.29Zm39.68,0v-4.29l15-15h4.29l15,15v4.29l-15,15h-4.29Zm39.69,0v-4.29l15-15h4.29l15,15v4.29l-15,15H236Zm39.68,0v-4.29l15-15h4.29l15,15v4.29l-15,15h-4.29Zm39.68,0v-4.29l15-15h4.29l15,15v4.29l-15,15h-4.29Zm39.68,0v-4.29l15-15h4.29l15,15v4.29l-15,15H355Zm39.69,0v-4.29l15-15H399l15,15v4.29l-15,15H394.7Zm39.68,0v-4.29l15-15h4.29l15,15v4.29l-15,15h-4.29Zm39.68,0v-4.29l15-15h4.29l15,15v4.29l-15,15h-4.29Zm39.69,0v-4.29l15-15h4.29l15,15v4.29l-15,15h-4.29Zm39.68,0v-4.29l15-15h4.29l15,15v4.29l-15,15h-4.29ZM2.74,180.73v-4.29l15-15H22l15,15v4.29l-15,15H17.69Zm39.68,0v-4.29l15-15h4.29l15,15v4.29l-15,15H57.38Zm39.68,0v-4.29l15-15h4.29l15,15v4.29l-15,15H97.07Zm39.68,0v-4.29l15-15H141l15,15v4.29l-15,15h-4.29Zm39.69,0v-4.29l15-15h4.29l15,15v4.29l-15,15h-4.29Zm39.68,0v-4.29l15-15h4.3l15,15v4.29l-15,15h-4.3Zm39.68,0v-4.29l15-15h4.29l15,15v4.29l-15,15h-4.29Zm39.68,0v-4.29l15-15h4.29l15,15v4.29l-15,15h-4.29Zm39.68,0v-4.29l15-15h4.29l15,15v4.29l-15,15h-4.29Zm39.68,0v-4.29l15-15h4.29l15,15v4.29l-15,15h-4.29Zm39.68,0v-4.29l15-15h4.3l15,15v4.29l-15,15h-4.3Zm39.69,0v-4.29l15-15h4.29l15,15v4.29l-15,15h-4.29Zm39.68,0v-4.29l15-15h4.29l15,15v4.29l-15,15h-4.29Zm39.69,0v-4.29l15-15h4.29l15,15v4.29l-15,15H533.6Zm39.68,0v-4.29l15-15h4.29l15,15v4.29l-15,15h-4.29ZM22.59,160.89v-4.29l15-15h4.29l15,15v4.29l-15,15H37.54Zm39.68,0v-4.29l15-15h4.29l15,15v4.29l-15,15H77.22Zm79.37,0v-4.29l15-15h4.29l15,15v4.29l-15,15h-4.29Zm39.68,0v-4.29l15-15h4.29l15,15v4.29l-15,15h-4.29Zm79.37,0v-4.29l15-15h4.29l15,15v4.29l-15,15h-4.29Zm39.68,0v-4.29l15-15h4.29l15,15v4.29l-15,15h-4.29Zm79.37,0v-4.29l15-15H399l15,15v4.29l-15,15H394.7Zm39.68,0v-4.29l15-15h4.29l15,15v4.29l-15,15h-4.29Zm79.37,0v-4.29l15-15h4.29l15,15v4.29l-15,15h-4.29Zm39.68,0v-4.29l15-15h4.29l15,15v4.29l-15,15h-4.29Zm-436.53,0v-4.29l15-15h4.29l15,15v4.29l-15,15h-4.29Zm119.06,0v-4.29l15-15h4.29l15,15v4.29l-15,15H236Zm119.05,0v-4.29l15-15h4.29l15,15v4.29l-15,15H355Zm119.05,0v-4.29l15-15h4.29l15,15v4.29l-15,15h-4.29ZM2.74,141v-4.29l15-15H22l15,15V141L22,156H17.69Zm39.68,0v-4.29l15-15h4.29l15,15V141l-15,15H57.38Zm39.69,0v-4.29l15-15h4.3l15,15V141l-15,15h-4.3Zm39.68,0v-4.29l15-15H141l15,15V141l-15,15h-4.29Zm39.69,0v-4.29l15-15h4.29l15,15V141l-15,15h-4.29Zm39.68,0v-4.29l15-15h4.29l15,15V141l-15,15h-4.29Zm39.68,0v-4.29l15-15h4.29l15,15V141l-15,15H255.8Zm39.68,0v-4.29l15-15h4.29l15,15V141l-15,15h-4.29Zm39.69,0v-4.29l15-15h4.29l15,15V141l-15,15h-4.29Zm39.68,0v-4.29l15-15h4.29l15,15V141l-15,15h-4.29Zm39.68,0v-4.29l15-15h4.3l15,15V141l-15,15h-4.3Zm39.69,0v-4.29l15-15h4.29l15,15V141l-15,15h-4.29ZM479,141v-4.29l15-15h4.29l15,15V141l-15,15h-4.29Zm39.69,0v-4.29l15-15h4.29l15,15V141l-15,15H533.6Zm39.68,0v-4.29l15-15h4.29l15,15V141l-15,15h-4.29ZM22.59,121.2v-4.29l15-15h4.3l15,15v4.29l-15,15h-4.3Zm39.68,0v-4.29l15-15h4.29l15,15v4.29l-15,15H77.22Zm39.68,0v-4.29l15-15h4.29l15,15v4.29l-15,15h-4.29Zm39.69,0v-4.29l15-15h4.29l15,15v4.29l-15,15h-4.29Zm39.68,0v-4.29l15-15h4.29l15,15v4.29l-15,15h-4.29Zm39.69,0v-4.29l15-15h4.29l15,15v4.29l-15,15H236Zm39.68,0v-4.29l15-15h4.29l15,15v4.29l-15,15h-4.29Zm39.68,0v-4.29l15-15h4.29l15,15v4.29l-15,15h-4.29Zm39.68,0v-4.29l15-15h4.29l15,15v4.29l-15,15H355Zm39.69,0v-4.29l15-15H399l15,15v4.29l-15,15H394.7Zm39.68,0v-4.29l15-15h4.29l15,15v4.29l-15,15h-4.29Zm39.68,0v-4.29l15-15h4.29l15,15v4.29l-15,15h-4.29Zm39.69,0v-4.29l15-15h4.29l15,15v4.29l-15,15h-4.29Zm39.68,0v-4.29l15-15h4.29l15,15v4.29l-15,15h-4.29ZM2.74,101.36V97.07l15-15H22l15,15v4.29l-15,15H17.69Zm39.68,0V97.07l15-15h4.29l15,15v4.29l-15,15H57.38Zm39.69,0V97.07l15-15h4.3l15,15v4.29l-15,15h-4.3Zm39.68,0V97.07l15-15H141l15,15v4.29l-15,15h-4.29Zm39.69,0V97.07l15-15h4.29l15,15v4.29l-15,15h-4.29Zm39.68,0V97.07l15-15h4.29l15,15v4.29l-15,15h-4.29Zm39.68,0V97.07l15-15h4.29l15,15v4.29l-15,15H255.8Zm39.68,0V97.07l15-15h4.29l15,15v4.29l-15,15h-4.29Zm39.69,0V97.07l15-15h4.29l15,15v4.29l-15,15h-4.29Zm39.68,0V97.07l15-15h4.29l15,15v4.29l-15,15h-4.29Zm39.68,0V97.07l15-15h4.3l15,15v4.29l-15,15h-4.3Zm39.69,0V97.07l15-15h4.29l15,15v4.29l-15,15h-4.29Zm39.68,0V97.07l15-15h4.29l15,15v4.29l-15,15h-4.29Zm39.69,0V97.07l15-15h4.29l15,15v4.29l-15,15H533.6Zm39.68,0V97.07l15-15h4.29l15,15v4.29l-15,15h-4.29ZM22.59,81.52V77.22l15-15h4.29l15,15v4.29l-15,15H37.54Zm39.68,0V77.22l15-15h4.29l15,15v4.29l-15,15H77.22Zm39.68,0V77.22l15-15h4.29l15,15v4.29l-15,15h-4.29Zm39.69,0V77.22l15-15h4.29l15,15v4.29l-15,15h-4.29Zm39.68,0V77.22l15-15h4.29l15,15v4.29l-15,15h-4.29Zm39.69,0V77.22l15-15h4.29l15,15v4.29l-15,15H236Zm39.68,0V77.22l15-15h4.29l15,15v4.29l-15,15h-4.29Zm39.68,0V77.22l15-15h4.29l15,15v4.29l-15,15h-4.29Zm39.68,0V77.22l15-15h4.29l15,15v4.29l-15,15H355Zm39.69,0V77.22l15-15H399l15,15v4.29l-15,15H394.7Zm39.68,0V77.22l15-15h4.29l15,15v4.29l-15,15h-4.29Zm39.68,0V77.22l15-15h4.29l15,15v4.29l-15,15h-4.29Zm39.69,0V77.22l15-15h4.29l15,15v4.29l-15,15h-4.29Zm39.68,0V77.22l15-15h4.29l15,15v4.29l-15,15h-4.29ZM2.74,61.67V57.38l15-15H22l15,15v4.29l-15,15H17.69Zm39.68,0V57.38l15-15h4.29l15,15v4.29l-15,15H57.38Zm39.68,0V57.38l15-15h4.29l15,15v4.29l-15,15H97.07Zm39.68,0V57.38l15-15H141l15,15v4.29l-15,15h-4.29Zm39.69,0V57.38l15-15h4.29l15,15v4.29l-15,15h-4.29Zm39.68,0V57.38l15-15h4.3l15,15v4.29l-15,15h-4.3Zm39.68,0V57.38l15-15h4.29l15,15v4.29l-15,15h-4.29Zm39.68,0V57.38l15-15h4.29l15,15v4.29l-15,15h-4.29Zm39.68,0V57.38l15-15h4.29l15,15v4.29l-15,15h-4.29Zm39.68,0V57.38l15-15h4.29l15,15v4.29l-15,15h-4.29Zm39.68,0V57.38l15-15h4.3l15,15v4.29l-15,15h-4.3Zm39.69,0V57.38l15-15h4.29l15,15v4.29l-15,15h-4.29Zm39.68,0V57.38l15-15h4.29l15,15v4.29l-15,15h-4.29Zm39.69,0V57.38l15-15h4.29l15,15v4.29l-15,15H533.6Zm39.68,0V57.38l15-15h4.29l15,15v4.29l-15,15h-4.29ZM22.59,41.83V37.54l15-15h4.29l15,15v4.29l-15,15H37.54Zm39.68,0V37.54l15-15h4.29l15,15v4.29l-15,15H77.22Zm79.37,0V37.54l15-15h4.29l15,15v4.29l-15,15h-4.29Zm39.68,0V37.54l15-15h4.29l15,15v4.29l-15,15h-4.29Zm79.37,0V37.54l15-15h4.29l15,15v4.29l-15,15h-4.29Zm39.68,0V37.54l15-15h4.29l15,15v4.29l-15,15h-4.29Zm79.37,0V37.54l15-15H399l15,15v4.29l-15,15H394.7Zm39.68,0V37.54l15-15h4.29l15,15v4.29l-15,15h-4.29Zm79.37,0V37.54l15-15h4.29l15,15v4.29l-15,15h-4.29Zm39.68,0V37.54l15-15h4.29l15,15v4.29l-15,15h-4.29ZM102,41.83V37.54l15-15h4.29l15,15v4.29l-15,15h-4.29Zm119.06,0V37.54l15-15h4.29l15,15v4.29l-15,15H236Zm119.05,0V37.54l15-15h4.29l15,15v4.29l-15,15H355Zm119.05,0V37.54l15-15h4.29l15,15v4.29l-15,15h-4.29ZM2.74,22V17.69l15-15H22l15,15V22l-15,15H17.69Zm39.68,0V17.7l15-15h4.29l15,15V22l-15,15H57.38Zm39.69,0V17.69l15-15h4.3l15,15V22l-15,15h-4.3Zm39.68,0V17.69l15-15H141l15,15V22l-15,15h-4.29Zm39.69,0V17.7l15-15h4.29l15,15V22l-15,15h-4.29Zm39.68,0V17.69l15-15h4.29l15,15V22l-15,15h-4.29Zm39.68,0V17.69l15-15h4.29l15,15V22l-15,15H255.8Zm39.68,0V17.7l15-15h4.29l15,15V22l-15,15h-4.29Zm39.69,0V17.69l15-15h4.29l15,15V22l-15,15h-4.29Zm39.68,0V17.69l15-15h4.29l15,15V22l-15,15h-4.29Zm39.68,0V17.7l15-15h4.3l15,15V22l-15,15h-4.3Zm39.69,0V17.69l15-15h4.29l15,15V22l-15,15h-4.29ZM479,22V17.69l15-15h4.29l15,15V22l-15,15h-4.29Zm39.69,0V17.7l15-15h4.29l15,15V22l-15,15H533.6Zm39.68,0V17.69l15-15h4.29l15,15V22l-15,15h-4.29ZM572.69,0V2.15l-15,15h-4.29l-15-15V0H533V2.15l-15,15h-4.29l-15-15V0h-5.49V2.15l-15,15h-4.29l-15-15V0h-5.48V2.15l-15,15h-4.29l-15-15V0H414V2.15l-15,15H394.7l-15-15V0h-5.49V2.15l-15,15H355l-15-15V0h-5.48V2.15l-15,15h-4.29l-15-15V0H294.9V2.15l-15,15h-4.29l-15-15V0h-5.49V2.15l-15,15H236l-15-15V0h-5.49V2.15l-15,15h-4.29l-15-15V0h-5.48V2.15l-15,15h-4.29l-15-15V0h-5.49V2.15l-15,15h-4.29l-15-15V0H96.47V2.15l-15,15H77.22l-15-15V0H56.79V2.15l-15,15h-4.3l-15-15V0H17.1V2.15l-15,15H0v5.49H2.15l15,15v4.29l-15,15H0v5.48H2.15l15,15v4.29l-15,15H0V102H2.15l15,15v4.29l-15,15H0v5.49H2.15l15,15v4.29l-15,15H0v5.48H2.15l15,15v4.29l-15,15H0V221H2.15l15,15v4.29l-15,15H0v5.49H2.15l15,15v4.29l-15,15H0v5.48H2.15l15,15v4.29l-15,15H0v5.49H2.15l15,15v4.29l-15,15H0v5.49H2.15l15,15V399l-15,15H0v5.48H2.15l15,15v4.29l-15,15H0v5.49H2.15l15,15v4.29l-15,15H0v5.48H2.15l15,15v4.29l-15,15H0v5.49H2.15l15,15v4.29l-15,15H0v5.49H2.15l15,15v2.15h5.49v-2.15l15-15h4.3l15,15v2.15h5.48v-2.15l15-15h4.29l15,15v2.15H102v-2.15l15-15h4.29l15,15v2.15h5.49v-2.15l15-15h4.29l15,15v2.15h5.48v-2.15l15-15h4.29l15,15v2.15H221v-2.15l15-15h4.29l15,15v2.15h5.49v-2.15l15-15h4.29l15,15v2.15h5.48v-2.15l15-15h4.29l15,15v2.15h5.48v-2.15l15-15h4.29l15,15v2.15h5.49v-2.15l15-15H399l15,15v2.15h5.48v-2.15l15-15h4.29l15,15v2.15h5.48v-2.15l15-15h4.29l15,15v2.15h5.49v-2.15l15-15h4.29l15,15v2.15h5.48v-2.15l15-15h4.29l15,15v2.15h5.48v-2.15l15-15h2.15v-5.49h-2.15l-15-15v-4.29l15-15h2.15V533h-2.15l-15-15v-4.29l15-15h2.15v-5.48h-2.15l-15-15v-4.29l15-15h2.15v-5.49h-2.15l-15-15v-4.29l15-15h2.15V414h-2.15l-15-15V394.7l15-15h2.15v-5.49h-2.15l-15-15V355l15-15h2.15v-5.49h-2.15l-15-15v-4.29l15-15h2.15V294.9h-2.15l-15-15v-4.29l15-15h2.15v-5.49h-2.15l-15-15V236l15-15h2.15v-5.49h-2.15l-15-15v-4.29l15-15h2.15v-5.48h-2.15l-15-15v-4.29l15-15h2.15v-5.49h-2.15l-15-15v-4.29l15-15h2.15V96.47h-2.15l-15-15V77.22l15-15h2.15V56.78h-2.15l-15-15V37.54l15-15h2.15V17.1h-2.15l-15-15V0h-5.48Z" transform="translate(0 0)"/></svg>